<svg width="13" height="14" viewBox="0 0 13 14" fill="none" xmlns="http://www.w3.org/2000/svg">
<path d="M2.7957 13.9994C1.60352 13.9994 0.635547 13.0342 0.632812 11.842C0.632812 11.5111 0.709375 11.183 0.854297 10.8849C2.48672 7.59002 6.47891 6.24471 9.77109 7.8744C11.0781 8.51971 12.1336 9.57791 12.7816 10.8849C13.3094 11.9541 12.8691 13.2502 11.8 13.7779C11.502 13.9256 11.1738 14.0021 10.843 13.9994H2.7957Z" fill="#A5A5A5"/>
<path d="M10.8427 13.8353C12.322 13.8353 13.2927 12.2822 12.6364 10.9561C11.045 7.74316 7.15126 6.43066 3.9411 8.02207C2.66689 8.65371 1.63603 9.68457 1.00712 10.9561C0.348135 12.2822 1.31884 13.8353 2.79814 13.8353H10.8427Z" fill="#A5A5A5"/>
<path d="M6.82266 6.33232C8.57141 6.33232 9.98906 4.91468 9.98906 3.16592C9.98906 1.41716 8.57141 -0.000488281 6.82266 -0.000488281C5.0739 -0.000488281 3.65625 1.41716 3.65625 3.16592C3.65625 4.91468 5.0739 6.33232 6.82266 6.33232Z" fill="#A5A5A5"/>
<path d="M6.81484 6.16826C8.47299 6.16826 9.81719 4.82407 9.81719 3.16592C9.81719 1.50777 8.47299 0.163574 6.81484 0.163574C5.1567 0.163574 3.8125 1.50777 3.8125 3.16592C3.8125 4.82407 5.1567 6.16826 6.81484 6.16826Z" fill="#A5A5A5"/>
</svg>
