<svg width="367" height="317" viewBox="0 0 367 317" fill="none" xmlns="http://www.w3.org/2000/svg">
<path opacity="0.5" d="M272.703 95.6345L210.343 78.74L215.314 73.7964L277.674 90.6911L272.703 95.6345Z" fill="#173D7A"/>
<path d="M197.8 31.6203L202.83 26.6929L265.249 43.6036L274.553 78.7146L269.523 83.6421L197.8 31.6203Z" fill="#FF0053"/>
<path opacity="0.5" d="M185.568 272.998L170.551 268.93L181.583 257.959L196.6 262.027L185.568 272.998Z" fill="#173D7A"/>
<path opacity="0.5" d="M339.585 135.89L197.01 97.2633L121.098 172.756L263.673 211.383L307.416 167.882L336.613 144.295L332.709 142.728L339.585 135.89Z" fill="#173D7A"/>
<path opacity="0.5" d="M287.068 249.089C284.384 245.227 285.381 240.21 289.905 235.704L309.649 216.044C316.335 209.395 315.365 202.274 307.484 200.138L305.355 199.561C297.473 197.426 285.664 201.085 278.978 207.734L259.084 227.544C254.59 232.019 247.306 235.279 239.713 236.402C235.081 237.087 231.42 238.436 229.428 240.417C224.125 245.691 232.652 253.44 248.473 257.727C264.294 262.013 281.418 261.212 286.721 255.938C288.762 253.909 288.752 251.513 287.068 249.089Z" fill="#173D7A"/>
<path d="M261.39 202.784L333.819 144.188L209.815 86.7745L118.814 164.157L261.39 202.784Z" fill="#D4EAFF"/>
<path d="M261.388 202.781L118.813 164.154L194.725 88.6617L337.3 127.289L261.388 202.781Z" fill="#D4EAFF"/>
<path d="M176.771 114.778L176.551 115.59L305.607 150.556L305.826 149.744L176.771 114.778Z" fill="#5795D2"/>
<path d="M233.916 139.067L170.043 121.762L171.751 120.063L235.625 137.368L233.916 139.067Z" fill="#FF0053"/>
<path d="M212.128 140.526L164.223 127.547L165.931 125.848L213.836 138.827L212.128 140.526Z" fill="#FF0053"/>
<path d="M222.283 150.641L158.41 133.336L160.118 131.637L223.992 148.942L222.283 150.641Z" fill="white"/>
<path d="M216.459 156.426L152.586 139.121L154.294 137.423L218.167 154.727L216.459 156.426Z" fill="white"/>
<path d="M270.012 185.657L140.953 150.692L142.661 148.993L271.72 183.958L270.012 185.657Z" fill="white"/>
<path d="M264.196 191.446L135.137 156.481L136.845 154.782L265.904 189.747L264.196 191.446Z" fill="white"/>
<path d="M258.372 197.231L129.312 162.266L131.021 160.567L260.08 195.532L258.372 197.231Z" fill="white"/>
<path d="M210.132 162.077L146.769 144.91L148.478 143.212L211.841 160.378L210.132 162.077Z" fill="white"/>
<path d="M275.239 180.457L215.158 164.18L240.729 138.75L300.81 155.028L275.239 180.457Z" fill="white"/>
<path d="M223.976 108.684L223.712 108.947C223.452 108.894 223.195 108.888 222.941 108.927C222.687 108.967 222.408 109.057 222.103 109.196C222.007 109.243 221.435 109.554 220.386 110.13L208.283 116.946L207.905 116.844L210.875 109.763L201.053 114.987L200.694 114.89L204.258 105.868C204.612 104.96 204.784 104.399 204.776 104.186C204.768 103.974 204.57 103.797 204.185 103.656L204.449 103.394L210.156 104.94L209.892 105.203C209.423 105.088 209.066 105.056 208.822 105.107C208.577 105.157 208.385 105.252 208.248 105.389C208.067 105.568 207.843 105.992 207.575 106.659L205.465 112.024L211.197 108.939L211.681 107.771C211.944 107.133 212.088 106.698 212.115 106.468C212.14 106.237 212.089 106.053 211.959 105.916C211.83 105.779 211.561 105.655 211.154 105.544L211.417 105.282L217.794 107.01L217.53 107.272C217.079 107.156 216.732 107.095 216.491 107.09C216.322 107.086 216.159 107.113 216.003 107.17C215.847 107.227 215.719 107.305 215.619 107.404C215.51 107.513 215.32 107.885 215.051 108.522L212.871 113.723L219.158 110.185C219.812 109.821 220.243 109.568 220.452 109.426C220.66 109.284 220.832 109.147 220.965 109.014C221.159 108.821 221.222 108.644 221.153 108.483C221.083 108.323 220.798 108.169 220.296 108.021L220.56 107.759L223.976 108.684Z" fill="#163C7B"/>
<path d="M225.204 112.564C225.993 112.778 226.578 113.125 226.958 113.607C227.338 114.089 227.428 114.652 227.23 115.296C227.031 115.94 226.603 116.588 225.948 117.24C225.002 118.181 223.883 118.879 222.593 119.336C221.034 119.888 219.558 119.975 218.167 119.598C216.802 119.228 216.102 118.594 216.068 117.694C216.034 116.795 216.481 115.884 217.407 114.963C218.363 114.012 219.573 113.286 221.037 112.784C222.501 112.281 223.89 112.208 225.204 112.564ZM224.737 113.078C224.407 112.988 224.032 113.003 223.613 113.121C223.194 113.239 222.677 113.556 222.063 114.072C221.45 114.588 220.662 115.324 219.703 116.279C219.194 116.785 218.764 117.27 218.412 117.734C218.146 118.089 218.041 118.385 218.099 118.623C218.156 118.861 218.333 119.02 218.631 119.101C218.922 119.18 219.224 119.186 219.537 119.121C219.951 119.029 220.345 118.85 220.719 118.584C221.3 118.17 222.277 117.28 223.651 115.914C224.459 115.11 224.952 114.542 225.131 114.208C225.31 113.875 225.349 113.607 225.247 113.405C225.178 113.26 225.008 113.151 224.737 113.078Z" fill="#163C7B"/>
<path d="M234.426 115.318L232.914 116.821C234.205 116.298 235.19 115.986 235.869 115.884C236.547 115.782 237.097 115.789 237.518 115.903C237.88 116.001 238.087 116.161 238.14 116.382C238.193 116.604 238.07 116.864 237.77 117.162C237.452 117.479 237.099 117.696 236.713 117.814C236.327 117.932 235.985 117.95 235.688 117.87C235.345 117.777 235.128 117.616 235.037 117.387C234.946 117.158 234.888 117.028 234.862 116.996C234.826 116.95 234.765 116.916 234.681 116.893C234.494 116.843 234.263 116.846 233.991 116.905C233.564 116.994 233.133 117.168 232.697 117.429C232.029 117.832 231.417 118.31 230.861 118.863L229.328 120.387L228.938 120.787C228.667 121.056 228.516 121.235 228.486 121.323C228.435 121.471 228.456 121.596 228.549 121.696C228.641 121.796 228.861 121.903 229.21 122.015L228.953 122.27L224.052 120.943L224.308 120.687C224.727 120.771 225.073 120.764 225.348 120.667C225.622 120.57 226.05 120.233 226.63 119.656L230.316 115.99C230.696 115.612 230.912 115.364 230.965 115.246C231.034 115.096 231.037 114.974 230.976 114.879C230.915 114.784 230.741 114.683 230.454 114.575L230.718 114.313L234.426 115.318Z" fill="#163C7B"/>
<path d="M246.039 114.658L237.754 122.897C237.284 123.365 237.057 123.685 237.075 123.855C237.093 124.025 237.31 124.179 237.724 124.315L237.468 124.57L232.567 123.242L232.823 122.987C233.234 123.086 233.617 123.082 233.973 122.974C234.211 122.9 234.566 122.629 235.037 122.161L241.938 115.298C242.404 114.835 242.628 114.518 242.61 114.348C242.592 114.177 242.379 114.025 241.971 113.89L242.235 113.628L246.039 114.658Z" fill="#163C7B"/>
<path d="M256.83 117.588L249.158 125.217C248.64 125.732 248.353 126.042 248.296 126.147C248.191 126.317 248.173 126.46 248.243 126.575C248.313 126.69 248.519 126.806 248.862 126.923L248.627 127.157L244.244 126.664L245.3 125.615C244.431 125.897 243.744 126.063 243.238 126.112C242.731 126.161 242.252 126.124 241.799 126.002C240.641 125.688 240.105 125.062 240.193 124.123C240.267 123.361 240.754 122.534 241.652 121.64C242.37 120.927 243.181 120.333 244.085 119.859C244.99 119.385 245.88 119.083 246.755 118.954C247.631 118.824 248.405 118.85 249.078 119.033C249.511 119.15 249.835 119.316 250.047 119.53C250.26 119.744 250.403 120.057 250.476 120.467L252.487 118.468C252.995 117.962 253.272 117.649 253.319 117.53C253.379 117.371 253.365 117.238 253.276 117.13C253.188 117.022 252.93 116.91 252.503 116.794L252.802 116.496L256.83 117.588ZM249.592 121.347C249.788 120.546 249.54 120.051 248.848 119.864C248.608 119.799 248.363 119.793 248.113 119.845C247.726 119.927 247.272 120.132 246.749 120.459C246.226 120.787 245.582 121.331 244.817 122.092C243.975 122.929 243.436 123.571 243.201 124.018C242.965 124.465 242.902 124.818 243.013 125.077C243.071 125.207 243.23 125.307 243.489 125.377C244.058 125.531 244.923 125.351 246.084 124.835L249.592 121.347Z" fill="#163C7B"/>
<path d="M268.309 120.697L268.806 128.419L272.962 124.286C273.542 123.709 273.821 123.288 273.799 123.024C273.764 122.665 273.376 122.392 272.636 122.203L272.9 121.941L277.248 123.119L276.984 123.381C276.375 123.282 275.934 123.249 275.66 123.28C275.385 123.311 275.101 123.405 274.807 123.563C274.512 123.721 274.137 124.026 273.68 124.48L265.631 132.485L265.301 132.396L264.451 121.98L258.305 128.092C257.749 128.645 257.546 129.065 257.698 129.353C257.849 129.64 258.148 129.844 258.594 129.965L258.905 130.049L258.641 130.312L253.973 129.047L254.237 128.785C254.966 128.976 255.58 129.004 256.079 128.869C256.577 128.733 257.083 128.41 257.597 127.9L264.42 121.114L264.395 120.783C264.373 120.452 264.296 120.218 264.164 120.079C264.031 119.941 263.769 119.813 263.377 119.695L263.641 119.432L268.309 120.697Z" fill="#163C7B"/>
<path d="M279.981 131.573L275.002 130.224C274.176 131.119 273.798 131.901 273.867 132.569C273.919 133.083 274.259 133.424 274.886 133.594C275.275 133.699 275.707 133.716 276.183 133.643C276.659 133.571 277.285 133.378 278.061 133.065L278.234 133.31C277.006 133.91 275.941 134.281 275.039 134.425C274.137 134.568 273.294 134.534 272.512 134.322C271.166 133.958 270.527 133.303 270.595 132.359C270.652 131.599 271.134 130.767 272.042 129.864C273.154 128.758 274.449 127.989 275.926 127.556C277.403 127.123 278.691 127.055 279.791 127.354C280.71 127.602 281.23 128.094 281.353 128.828C281.475 129.562 281.018 130.477 279.981 131.573ZM278.071 130.451C278.837 129.69 279.305 129.153 279.477 128.838C279.649 128.524 279.689 128.261 279.597 128.05C279.547 127.928 279.408 127.836 279.182 127.775C278.845 127.684 278.449 127.73 277.993 127.913C277.188 128.23 276.418 128.755 275.681 129.488L275.431 129.736L278.071 130.451Z" fill="#163C7B"/>
<path d="M286.339 138.066L288.746 132.529L281.419 136.733L280.914 136.596L283.331 131.134C283.705 130.304 283.878 129.743 283.849 129.452C283.84 129.257 283.703 129.082 283.44 128.926L283.703 128.664L288.284 129.905L288.021 130.167C287.71 130.083 287.463 130.058 287.28 130.093C287.097 130.128 286.963 130.188 286.877 130.273C286.797 130.353 286.658 130.622 286.461 131.08L285.188 134.028L289.071 131.787L289.146 131.591C289.308 131.184 289.365 130.912 289.317 130.776C289.269 130.639 289.112 130.511 288.846 130.391L289.109 130.129L293.758 131.388L293.495 131.65C293.118 131.566 292.851 131.541 292.695 131.574C292.538 131.606 292.406 131.677 292.296 131.786C292.192 131.89 292.055 132.145 291.886 132.55L290.565 135.485L294.125 133.418C294.636 133.123 294.952 132.915 295.076 132.792C295.261 132.607 295.335 132.456 295.298 132.338C295.261 132.219 295.073 132.102 294.737 131.987L295.001 131.725L297.689 132.453L297.425 132.715C297.099 132.663 296.785 132.676 296.485 132.754C296.184 132.832 295.6 133.126 294.732 133.637L286.892 138.216L286.339 138.066Z" fill="#163C7B"/>
<path d="M304.478 134.057L302.349 136.358L302.019 136.269C302.299 135.491 302.351 134.921 302.175 134.561C301.998 134.2 301.7 133.963 301.279 133.849C301.013 133.777 300.722 133.781 300.403 133.86C300.085 133.939 299.84 134.064 299.669 134.234C299.541 134.362 299.482 134.502 299.492 134.655C299.505 134.905 299.75 135.394 300.228 136.122C300.706 136.85 300.93 137.419 300.901 137.829C300.872 138.239 300.652 138.647 300.244 139.054C299.873 139.423 299.383 139.75 298.774 140.036C298.166 140.322 297.536 140.498 296.887 140.562C296.237 140.627 295.634 140.584 295.078 140.433C294.644 140.315 294.165 140.059 293.64 139.665C293.498 139.56 293.392 139.498 293.321 139.479C293.107 139.421 292.81 139.491 292.431 139.689L292.11 139.602L294.351 137.178L294.681 137.267C294.344 137.97 294.273 138.546 294.468 138.996C294.662 139.445 294.985 139.731 295.438 139.854C295.749 139.938 296.073 139.937 296.41 139.851C296.748 139.765 297.017 139.623 297.216 139.424C297.444 139.198 297.545 138.975 297.517 138.757C297.489 138.539 297.307 138.171 296.972 137.653C296.486 136.884 296.23 136.328 296.205 135.984C296.168 135.481 296.385 134.995 296.855 134.527C297.369 134.016 298.074 133.62 298.972 133.337C299.87 133.054 300.775 133.036 301.688 133.283C302.179 133.416 302.567 133.632 302.851 133.932C302.954 134.05 303.061 134.124 303.171 134.154C303.287 134.185 303.399 134.193 303.506 134.177C303.612 134.161 303.827 134.091 304.148 133.968L304.478 134.057Z" fill="#163C7B"/>
<path opacity="0.5" d="M261.394 202.781L325.042 140.118L328.77 141.844L261.394 202.781Z" fill="#173D7A"/>
<path opacity="0.5" d="M204.485 91.3055L240.014 100.931L206.701 89.4216L204.485 91.3055Z" fill="#173D7A"/>
<g opacity="0.5">
<path d="M70.9817 158.228L71.0979 158.666L70.6592 158.782L70.543 158.344L70.9817 158.228Z" fill="#163C7B"/>
</g>
<path d="M278.057 238.826L273.631 243.228L274.306 239.82L278.057 238.826Z" fill="#DF0E45"/>
<path d="M222.967 183.232L218.623 187.53L223.94 185.062L222.967 183.232Z" fill="#DF0E45"/>
<path d="M306.613 177.13C310.126 173.637 308.069 165.872 302.018 159.788C295.967 153.703 288.213 151.603 284.7 155.096C281.188 158.59 283.245 166.354 289.296 172.439C295.347 178.524 303.101 180.624 306.613 177.13Z" fill="#173D7A"/>
<path d="M265.482 170.019L278.325 157.25C278.333 157.241 278.342 157.232 278.351 157.224L278.411 157.164C280.363 155.296 283.542 154.673 287.521 155.751C295.581 157.934 303.848 166.248 305.987 174.319C308.033 182.041 303.721 186.727 296.287 185.208L291.078 195.094L265.482 170.019Z" fill="#FF0053"/>
<path d="M278.977 166.685L287.568 158.141C287.891 157.819 287.741 157.447 287.234 157.31C286.726 157.172 286.052 157.321 285.729 157.643L277.138 166.187C276.815 166.508 276.964 166.88 277.472 167.017C277.98 167.155 278.654 167.006 278.977 166.685Z" fill="#FF9418"/>
<path d="M283.363 155.236C284.617 155.181 286.009 155.343 287.517 155.751C292.297 157.046 297.14 160.505 300.745 164.783L281.544 183.877L277.067 181.373L266.999 171.51L283.363 155.236Z" fill="#FF0053"/>
<path d="M285.207 219.137L292.422 221.095L289.109 194.123L275.191 190.387L285.207 219.137Z" fill="#5793CE"/>
<path d="M292.426 221.094L298.224 215.329C298.224 215.329 295.34 201.06 299.449 183.845C300.295 180.3 289.114 194.123 289.114 194.123L292.426 221.094Z" fill="#173D7A"/>
<path d="M284.963 211.552L288.542 212.522L287.393 205.208L282.113 203.777L284.963 211.552Z" fill="#A20C43"/>
<path d="M287.393 205.208L287.525 211.244L284.126 210.534L282.113 203.777L287.393 205.208Z" fill="#FF0053"/>
<path d="M287.524 211.241L288.54 212.519L284.962 211.549L284.125 210.531L287.524 211.241Z" fill="#A20C43"/>
<path d="M304.498 183.451L291.438 196.441L295.241 178.549L304.498 183.451Z" fill="#FF0053"/>
<path d="M291.472 196.388C295.658 192.225 293.206 182.971 285.995 175.72C278.784 168.469 269.544 165.966 265.358 170.129C261.171 174.293 263.623 183.546 270.834 190.797C278.046 198.049 287.285 200.552 291.472 196.388Z" fill="#A20C43"/>
<path d="M293.038 194.553L292.6 194.356C293.453 192.466 293.519 190.018 292.792 187.275C290.676 179.29 282.469 171.036 274.496 168.876C271.78 168.141 269.348 168.186 267.46 169.009L267.268 168.569C269.256 167.703 271.799 167.648 274.621 168.413C282.742 170.613 291.101 179.019 293.256 187.152C294.012 190.003 293.936 192.562 293.038 194.553Z" fill="white"/>
<path d="M250.806 200.183L247.789 203.038C247.789 203.038 263.456 238.63 274.037 236.946C273.437 219.75 284.479 202.491 289.345 195.749C290.373 195.06 291.127 194.066 291.57 192.82C292.143 191.183 292.177 189.16 291.557 186.821C290.794 183.941 289.164 181.016 287.015 178.432C283.761 174.483 279.313 171.287 274.941 170.106C273.725 169.777 272.606 169.626 271.574 169.645C270.393 169.643 269.345 169.87 268.441 170.262C268.429 170.255 268.403 170.272 268.387 170.286C267.64 170.616 267.003 171.091 266.484 171.666C260.758 175.665 243.633 186.51 231.917 181.954C230.653 187.508 242.755 195.521 250.806 200.183Z" fill="#D4EAFF"/>
<path d="M295.885 187.422L304.477 178.878C304.8 178.557 304.952 177.884 304.817 177.376C304.683 176.867 304.312 176.715 303.988 177.036L295.397 185.58C295.074 185.901 294.921 186.574 295.056 187.083C295.191 187.591 295.562 187.743 295.885 187.422Z" fill="#A20C43"/>
<path d="M246.279 184.496L267.411 200.595C267.411 200.595 274.605 190.775 287.021 178.431C283.767 174.482 279.319 171.286 274.947 170.105C273.731 169.776 272.612 169.625 271.58 169.644C271.198 170.01 258.174 182.433 246.279 184.496Z" fill="white"/>
<path d="M277.635 239.258C286.487 230.455 281.302 210.889 266.054 195.557C250.807 180.226 231.27 174.933 222.418 183.736C213.567 192.539 218.751 212.105 233.999 227.437C249.246 242.769 268.783 248.061 277.635 239.258Z" fill="#FF0053"/>
<path d="M274.057 242.813C282.909 234.01 277.724 214.444 262.476 199.112C247.229 183.78 227.692 178.488 218.84 187.291C209.988 196.094 215.173 215.659 230.421 230.991C245.668 246.323 265.205 251.616 274.057 242.813Z" fill="#A20C43"/>
<path d="M218.942 207.599C220.26 212.57 222.808 217.582 226.165 222.226C229.312 226.58 233.176 230.602 237.423 233.962C242.515 238.015 248.166 241.105 253.763 242.613C268.965 246.733 278.014 237.733 273.979 222.506C273.135 219.321 271.785 216.109 270.031 212.982C269.62 212.237 269.171 211.501 268.715 210.778C264.231 203.645 257.725 197.139 250.598 192.66C249.962 192.258 249.308 191.862 248.661 191.494C245.548 189.725 242.347 188.356 239.158 187.492C223.956 183.372 214.907 192.372 218.942 207.599Z" fill="#D4EAFF"/>
<path d="M239.055 208.059L253.023 222.769L268.714 210.774C264.224 203.641 257.727 197.142 250.602 192.662L239.055 208.059Z" fill="white"/>
<path d="M253.645 222.279C255.95 219.987 254.6 214.892 250.629 210.9C246.659 206.908 241.572 205.53 239.267 207.822C236.962 210.114 238.312 215.209 242.283 219.201C246.253 223.193 251.34 224.572 253.645 222.279Z" fill="#A20C43"/>
<path d="M146.605 201.445C147.864 196.798 146.71 192.441 144.027 191.714C141.344 190.987 138.148 194.165 136.889 198.812C135.63 203.459 136.784 207.816 139.467 208.543C142.15 209.27 145.346 206.092 146.605 201.445Z" fill="#5793CE"/>
<path d="M96.1121 185.822C96.1141 185.816 96.0525 185.816 96.0525 185.816C96.036 185.816 96.0199 185.814 96.0034 185.815L90.997 185.782C90.9141 185.757 90.8163 185.786 90.7229 185.879C90.5411 186.06 90.4468 186.407 90.5125 186.655C90.5411 186.763 90.598 186.826 90.6645 186.857C90.6629 186.862 94.9717 189.325 94.9717 189.325L94.9743 189.316C95.2817 189.588 95.7181 189.55 96.1289 189.141C96.7319 188.542 97.0439 187.389 96.8262 186.568C96.7023 186.1 96.4318 185.849 96.1121 185.822Z" fill="#173D7A"/>
<path d="M97.3635 188.104C97.7858 186.545 97.3986 185.084 96.4987 184.84C95.5987 184.596 94.5268 185.662 94.1045 187.221C93.6822 188.779 94.0694 190.241 94.9693 190.484C95.8693 190.728 96.9412 189.662 97.3635 188.104Z" fill="#5793CE"/>
<path d="M113.667 184.004C110.016 183.001 100.383 183.365 95.939 184.841L94.6967 190.354C94.6967 190.354 101.296 197.68 109.032 199.767L113.667 184.004Z" fill="#5793CE"/>
<path opacity="0.5" d="M210.934 235.086L209.329 236.682C208.786 237.223 207.744 237.499 207.004 237.298L204.793 236.699L204.652 236.839C203.721 237.765 201.946 238.235 200.678 237.892L104.81 211.723C100.327 210.508 98.3157 207.914 100.304 205.936C102.297 203.954 107.548 203.327 112.031 204.541L207.9 230.711C209.167 231.054 209.434 232.083 208.508 233.005L208.367 233.145L210.579 233.744C211.318 233.944 211.478 234.546 210.934 235.086Z" fill="#173D7A"/>
<path d="M116.403 193.266C117.592 188.88 116.502 184.768 113.97 184.082C111.438 183.396 108.422 186.395 107.234 190.781C106.045 195.167 107.135 199.279 109.667 199.965C112.199 200.651 115.215 197.652 116.403 193.266Z" fill="#D4EAFF"/>
<path d="M113.663 184.006L203.136 208.265L199.966 224.309L109.029 199.769L113.663 184.006Z" fill="#D4EAFF"/>
<path d="M205.954 217.527C207.143 213.142 206.053 209.03 203.521 208.344C200.989 207.658 197.973 210.657 196.784 215.043C195.596 219.429 196.686 223.541 199.218 224.227C201.75 224.913 204.766 221.913 205.954 217.527Z" fill="#D4EAFF"/>
<path d="M204.866 217.228C205.772 213.886 204.941 210.752 203.012 210.229C201.082 209.707 198.784 211.992 197.878 215.335C196.972 218.677 197.803 221.811 199.732 222.333C201.662 222.856 203.96 220.57 204.866 217.228Z" fill="#173D7A"/>
<path d="M203.702 216.915C204.273 214.809 203.75 212.835 202.534 212.505C201.318 212.176 199.869 213.616 199.299 215.722C198.728 217.828 199.251 219.802 200.467 220.132C201.683 220.461 203.132 219.021 203.702 216.915Z" fill="#A20C43"/>
<path d="M202.519 212.496L209.329 214.355L207.605 222.046L200.28 220.06L202.519 212.496Z" fill="#A20C43"/>
<path d="M210.667 218.802C211.238 216.696 210.714 214.721 209.498 214.392C208.283 214.062 206.834 215.503 206.264 217.609C205.693 219.715 206.216 221.689 207.432 222.018C208.648 222.348 210.096 220.908 210.667 218.802Z" fill="#FF0053"/>
<path d="M206.546 221.499C206.311 221.241 206.149 220.925 206.034 220.6C205.931 220.272 205.848 219.933 205.826 219.59C205.804 219.419 205.808 219.247 205.802 219.075C205.812 218.905 205.809 218.732 205.832 218.563L205.858 218.308L205.902 218.055C205.927 217.886 205.975 217.721 206.011 217.554C206.19 216.896 206.462 216.257 206.858 215.693C207.051 215.408 207.289 215.153 207.543 214.92C207.805 214.696 208.103 214.501 208.436 214.395C208.49 214.378 208.548 214.408 208.566 214.462C208.581 214.509 208.56 214.559 208.52 214.583C207.975 214.906 207.576 215.414 207.249 215.947C207.168 216.082 207.094 216.222 207.021 216.361C206.954 216.504 206.885 216.646 206.827 216.793C206.697 217.082 206.61 217.387 206.518 217.69C206.359 218.302 206.258 218.934 206.273 219.565C206.287 220.191 206.388 220.833 206.71 221.375C206.741 221.425 206.724 221.489 206.675 221.518C206.632 221.543 206.578 221.534 206.546 221.499Z" fill="white"/>
<path d="M123.824 195.269C125.083 190.622 123.929 186.265 121.246 185.538C118.563 184.811 115.367 187.989 114.108 192.636C112.849 197.284 114.003 201.64 116.686 202.367C119.369 203.094 122.565 199.916 123.824 195.269Z" fill="#5793CE"/>
<path d="M144.228 191.776C144.229 191.774 144.199 191.766 144.199 191.766C144.209 191.769 144.219 191.773 144.228 191.776Z" fill="#5793CE"/>
<path d="M136.71 205.141C135.703 201.341 137.147 196.013 139.934 193.241C141.266 191.917 142.661 191.424 143.867 191.676L121.313 185.553L116.622 202.341L139.471 208.534C138.231 208.194 137.213 207.038 136.71 205.141Z" fill="#5793CE"/>
<path d="M139.484 208.535L139.492 208.537C139.489 208.536 139.487 208.536 139.484 208.535Z" fill="#5793CE"/>
<path d="M125.514 186.677C125.334 186.64 125.152 186.618 124.967 186.617C123.898 186.589 122.713 187.108 121.578 188.244C118.788 191.014 117.348 196.342 118.355 200.143C118.757 201.657 119.493 202.701 120.404 203.23C118.828 203.209 117.495 201.999 116.896 199.737C115.889 195.936 117.335 190.606 120.125 187.836C121.39 186.574 122.718 186.059 123.882 186.232L124.553 186.415L125.514 186.677Z" fill="#173D7A"/>
<path d="M121.133 203.539L121.14 203.541C121.138 203.54 121.135 203.54 121.133 203.539Z" fill="#173D7A"/>
<path d="M128.545 187.556C128.366 187.519 128.183 187.496 127.999 187.496C126.93 187.468 125.744 187.987 124.609 189.123C121.819 191.893 120.379 197.221 121.387 201.022C121.788 202.536 122.524 203.58 123.436 204.109C121.859 204.088 120.526 202.877 119.927 200.616C118.92 196.815 120.367 191.485 123.156 188.715C124.421 187.453 125.749 186.938 126.913 187.111L127.584 187.294L128.545 187.556Z" fill="#173D7A"/>
<path d="M124.16 204.414L124.168 204.416C124.165 204.415 124.162 204.415 124.16 204.414Z" fill="#173D7A"/>
<path d="M131.577 188.435C131.397 188.398 131.214 188.375 131.03 188.375C129.961 188.347 128.776 188.866 127.64 190.002C124.85 192.772 123.41 198.1 124.418 201.901C124.819 203.415 125.555 204.459 126.467 204.988C124.891 204.967 123.558 203.756 122.959 201.495C121.951 197.693 123.398 192.364 126.188 189.594C127.452 188.332 128.781 187.817 129.944 187.99L130.616 188.173L131.577 188.435Z" fill="#173D7A"/>
<path d="M127.195 205.297L127.203 205.299C127.2 205.298 127.197 205.298 127.195 205.297Z" fill="#173D7A"/>
<path d="M182.494 261.412L167.477 257.344L178.509 246.373L193.526 250.441L182.494 261.412Z" fill="#990F41"/>
<path d="M181.309 256.93L175.249 255.288L179.701 250.861L185.76 252.503L181.309 256.93Z" fill="white"/>
<path d="M168.298 260.413L167.484 257.344L182.501 261.412L183.315 264.481L168.298 260.413Z" fill="#990F41"/>
<path d="M193.524 250.443L194.338 253.513L183.306 264.483L182.493 261.414L193.524 250.443Z" fill="#A20C43"/>
<path d="M182.266 261.584C182.224 261.595 182.179 261.595 182.134 261.583L167.77 257.692C167.633 257.655 167.553 257.514 167.59 257.377C167.627 257.24 167.767 257.159 167.904 257.196L182.268 261.088C182.405 261.125 182.485 261.266 182.448 261.403C182.423 261.494 182.352 261.561 182.266 261.584Z" fill="white"/>
<path opacity="0.5" d="M151.978 119.924L136.961 115.856L147.993 104.885L163.01 108.953L151.978 119.924Z" fill="#173D7A"/>
<path d="M148.904 108.342L133.887 104.274L144.919 93.3027L159.936 97.3711L148.904 108.342Z" fill="#5793CE"/>
<path d="M147.719 103.86L141.659 102.218L146.111 97.791L152.17 99.4326L147.719 103.86Z" fill="white"/>
<path d="M134.704 107.347L133.891 104.277L148.908 108.346L149.721 111.415L134.704 107.347Z" fill="#5793CE"/>
<path d="M159.938 97.373L160.752 100.442L149.72 111.413L148.907 108.344L159.938 97.373Z" fill="#173D7A"/>
<path d="M148.68 108.517C148.638 108.528 148.593 108.529 148.548 108.517L134.184 104.625C134.047 104.588 133.967 104.447 134.004 104.311C134.041 104.174 134.182 104.093 134.318 104.13L148.682 108.021C148.819 108.058 148.899 108.199 148.862 108.336C148.838 108.428 148.766 108.494 148.68 108.517Z" fill="white"/>
<path d="M269.523 83.6429L207.105 66.7322L197.801 31.6211L260.22 48.5318L269.523 83.6429Z" fill="#FF0053"/>
<path d="M260.222 48.5304L265.252 43.6031L274.556 78.714L269.526 83.6415L260.222 48.5304Z" fill="#A20C43"/>
<path d="M259.726 48.8627C259.641 48.885 259.55 48.8862 259.46 48.8618L198.487 32.3431C198.213 32.2688 198.05 31.9861 198.125 31.7117C198.199 31.4372 198.482 31.2751 198.756 31.3494L259.729 47.8682C260.003 47.9425 260.165 48.2252 260.091 48.4996C260.041 48.6835 259.897 48.8171 259.726 48.8627Z" fill="white"/>
<path d="M237.863 61.8693C239.213 60.5266 238.422 57.5425 236.096 55.204C233.771 52.8655 230.791 52.0582 229.441 53.4009C228.091 54.7436 228.881 57.7278 231.207 60.0663C233.533 62.4048 236.512 63.212 237.863 61.8693Z" fill="white"/>
<path d="M250.937 65.4045C252.287 64.0618 251.496 61.0776 249.17 58.7391C246.845 56.4006 243.865 55.5933 242.515 56.936C241.165 58.2787 241.956 61.2629 244.281 63.6014C246.607 65.9399 249.587 66.7472 250.937 65.4045Z" fill="white"/>
<path d="M224.812 58.3654C226.162 57.0227 225.371 54.0386 223.045 51.7001C220.72 49.3616 217.74 48.5543 216.39 49.897C215.04 51.2397 215.831 54.2239 218.156 56.5624C220.482 58.9009 223.462 59.7081 224.812 58.3654Z" fill="white"/>
<path d="M276.691 239.886L276.089 239.557C278.361 235.404 278.673 229.852 276.99 223.502C272.503 206.568 255.096 189.065 238.188 184.484C231.701 182.726 226.057 183.058 221.864 185.442L221.524 184.845C225.878 182.37 231.703 182.016 238.367 183.821C246.667 186.07 255.321 191.415 262.738 198.872C270.154 206.33 275.451 215.014 277.654 223.326C279.382 229.85 279.049 235.576 276.691 239.886Z" fill="white"/>
<path d="M287.632 211.375L284.608 210.743C284.553 210.731 284.517 210.677 284.528 210.621C284.54 210.565 284.594 210.53 284.65 210.541L287.421 211.12L287.322 206.64C287.321 206.583 287.367 206.536 287.423 206.535C287.48 206.534 287.527 206.579 287.528 206.635L287.632 211.375Z" fill="white"/>
<path d="M196.992 209.474C197.592 208.878 198.21 208.516 198.802 208.367L197.661 204.06L194.332 207.371L195.473 211.677C195.881 210.832 196.392 210.071 196.992 209.474Z" fill="#173D7A"/>
<path opacity="0.5" d="M170.925 199.372C170.911 199.371 170.903 199.366 170.892 199.363C169.65 199.027 167.903 199.489 166.99 200.397C166.078 201.304 166.345 202.313 167.587 202.65C167.598 202.653 167.611 202.653 167.622 202.656C167.62 202.659 195.078 210.097 195.078 210.097L198.382 206.811L170.925 199.372Z" fill="#173D7A"/>
<path d="M170.198 196.63C170.185 196.629 170.176 196.624 170.165 196.621C168.923 196.284 167.176 196.747 166.264 197.655C165.351 198.562 165.618 199.571 166.861 199.907C166.872 199.91 166.884 199.911 166.896 199.914C166.893 199.916 194.351 207.355 194.351 207.355L197.656 204.069L170.198 196.63Z" fill="#173D7A"/>
<path d="M120.243 150.371L88.6542 141.769C86.9383 141.301 84.3652 142.095 82.907 143.541L34.1953 191.849C32.7372 193.295 32.946 194.846 34.662 195.314L66.251 203.916C67.9669 204.383 70.5399 203.59 71.9981 202.144L120.71 153.836C122.168 152.39 121.959 150.838 120.243 150.371Z" fill="#8B9EBC"/>
<path d="M62.8663 194.38L29.9915 185.428C28.9114 185.134 28.2814 184.518 28.1109 183.749L28.1049 183.753L27.0205 179.615L29.0975 181.051C29.1825 180.956 29.2678 180.861 29.3633 180.766L78.7769 131.762C80.7385 129.817 84.2004 128.75 86.5092 129.379L118.922 138.205C119.326 137.432 120.17 135.801 120.17 135.801L121.228 139.85L121.227 139.849C121.511 140.75 121.119 141.893 120.012 142.992L70.5985 191.996C68.6369 193.942 65.175 195.009 62.8663 194.38Z" fill="#396CAA"/>
<path d="M44.7721 188.335L46.6647 188.848C46.9159 188.916 47.0574 188.736 46.9804 188.445C46.9034 188.154 46.6374 187.863 46.3858 187.795L44.4933 187.283C44.242 187.215 44.1005 187.395 44.1775 187.686C44.2545 187.976 44.5208 188.267 44.7721 188.335Z" fill="#173D7A"/>
<path d="M78.7736 131.761C80.7353 129.815 84.1972 128.748 86.506 129.377L118.919 138.203C119.323 137.43 120.167 135.799 120.167 135.799L121.225 139.848L121.224 139.847C121.508 140.748 121.116 141.892 120.009 142.99L70.5951 191.995C69.5718 193.01 68.1398 193.782 66.6767 194.203L56.1381 154.208L78.7736 131.761Z" fill="url(#paint0_linear_3869_29790)"/>
<path d="M118.292 134.167L85.417 125.214C83.1085 124.585 79.6466 125.652 77.6846 127.598L28.2712 176.602C26.3095 178.548 26.5906 180.635 28.8991 181.264L61.7738 190.216C64.0823 190.845 67.5442 189.778 69.5062 187.832L118.92 138.828C120.881 136.882 120.6 134.796 118.292 134.167Z" fill="#D4ECFF"/>
<path d="M61.8757 190.667L29.0009 181.715C27.8103 181.39 27.1638 180.677 27.0811 179.796C27.3131 180.468 27.9244 181 28.9058 181.267L61.7805 190.22C64.089 190.849 67.5509 189.782 69.5129 187.836L118.926 138.832C119.877 137.889 120.296 136.915 120.218 136.089C120.532 136.996 120.15 138.16 119.022 139.279L69.6076 188.283C67.646 190.229 64.1841 191.296 61.8757 190.667Z" fill="white"/>
<path d="M116.271 135.398L84.6815 126.796C82.9656 126.329 80.3926 127.122 78.9344 128.568L30.2226 176.876C28.7645 178.322 28.9733 179.873 30.6893 180.341L62.2783 188.943C63.9943 189.411 66.5673 188.617 68.0254 187.171L116.737 138.863C118.196 137.417 117.986 135.866 116.271 135.398Z" fill="url(#paint1_radial_3869_29790)"/>
<path d="M66.9941 178.882L44.7121 172.845L45.757 171.806L68.0389 177.843L66.9941 178.882Z" fill="#3E0E45"/>
<path d="M52.6856 179.191L41.4035 176.134L42.4484 175.095L53.7304 178.152L52.6856 179.191Z" fill="#3E0E45"/>
<path d="M58.1564 180.68L54.4973 179.689L55.5421 178.65L59.2013 179.641L58.1564 180.68Z" fill="#990F41"/>
<path d="M63.6876 182.176L60.0285 181.185L61.0731 180.146L64.7325 181.137L63.6876 182.176Z" fill="#1E0627"/>
<path d="M52.2123 176.974L43.056 174.494L44.1004 173.454L53.2571 175.935L52.2123 176.974Z" fill="#1E0627"/>
<path d="M63.3923 180.002L54.2356 177.521L55.2801 176.482L64.4367 178.962L63.3923 180.002Z" fill="#3E0E45"/>
<path d="M54.9209 171.761C54.5842 172.096 53.9399 172.267 53.4818 172.143C53.0236 172.019 52.925 171.647 53.2616 171.312C53.5982 170.977 54.2425 170.806 54.7007 170.93C55.1589 171.055 55.2575 171.427 54.9209 171.761Z" fill="#990F41"/>
<path d="M57.3974 172.433C57.0608 172.768 56.4165 172.939 55.9583 172.815C55.5002 172.691 55.4016 172.319 55.7381 171.984C56.0748 171.649 56.7191 171.478 57.1772 171.602C57.6355 171.727 57.7341 172.099 57.3974 172.433Z" fill="#1E0627"/>
<path d="M59.874 173.105C59.5374 173.44 58.8931 173.61 58.4349 173.486C57.9767 173.362 57.8782 172.99 58.2147 172.656C58.5513 172.321 59.1956 172.15 59.6538 172.274C60.112 172.398 60.2105 172.77 59.874 173.105Z" fill="#3E0E45"/>
<path d="M62.3584 173.773C62.0217 174.108 61.3774 174.278 60.9193 174.154C60.4611 174.03 60.3625 173.658 60.6991 173.323C61.0357 172.989 61.68 172.818 62.1382 172.942C62.5964 173.066 62.695 173.438 62.3584 173.773Z" fill="#990F41"/>
<path d="M64.8349 174.449C64.4983 174.783 63.854 174.954 63.3958 174.83C62.9377 174.706 62.8391 174.334 63.1756 173.999C63.5123 173.665 64.1566 173.494 64.6147 173.618C65.073 173.742 65.1715 174.114 64.8349 174.449Z" fill="#1E0627"/>
<path d="M101.804 139.372L98.0529 138.355L99.1239 137.29L102.875 138.306L101.804 139.372Z" fill="#990F41"/>
<path d="M107.027 140.782L103.275 139.765L104.347 138.7L108.098 139.716L107.027 140.782Z" fill="#1E0627"/>
<path d="M85.0232 134.751L81.2716 133.734L82.3426 132.669L86.0945 133.685L85.0232 134.751Z" fill="#1E0627"/>
<path d="M101.578 141.45L96.3537 140.035L97.425 138.97L102.649 140.385L101.578 141.45Z" fill="#1E0627"/>
<path d="M105.329 142.472L103.037 141.851L104.108 140.786L106.401 141.407L105.329 142.472Z" fill="#3E0E45"/>
<path d="M78.314 164.518C84.4962 162.879 88.7411 158.658 87.7954 155.089C86.8496 151.52 81.0713 149.954 74.8891 151.592C68.7069 153.231 64.462 157.452 65.4078 161.021C66.3535 164.59 72.1318 166.156 78.314 164.518Z" fill="#757376"/>
<path d="M88.1936 145.598L87.1584 141.691L86.4209 141.886C85.4565 140.922 84.0691 140.14 82.2555 139.649C75.9899 137.951 67.1799 140.286 62.577 144.863C61.2447 146.188 60.4263 147.554 60.0662 148.87L59.3297 149.065L60.3594 152.951L60.3603 152.95C60.8975 155.016 62.8017 156.721 65.9452 157.573C72.2108 159.27 81.0208 156.936 85.6238 152.359C87.925 150.07 88.7388 147.654 88.1936 145.598Z" fill="#990F41"/>
<path d="M82.2552 139.644C79.1226 138.796 75.3539 138.955 71.793 139.898L76.4079 157.314C79.9688 156.371 83.3222 154.643 85.6235 152.354C87.9251 150.066 88.7385 147.649 88.1934 145.593L87.1582 141.687L86.4207 141.882C85.4559 140.917 84.0685 140.136 82.2552 139.644Z" fill="#A8174C"/>
<path d="M75.3713 153.411C83.0562 151.375 88.3329 146.127 87.1572 141.691C85.9816 137.254 78.7987 135.308 71.1139 137.344C63.429 139.38 58.1523 144.628 59.328 149.065C60.5036 153.502 67.6865 155.448 75.3713 153.411Z" fill="url(#paint2_linear_3869_29790)"/>
<path d="M84.5837 148.451C79.9812 153.028 71.1708 155.363 64.9052 153.665C61.9026 152.852 60.0435 151.256 59.4133 149.315C59.8633 151.486 61.7783 153.293 65.0408 154.177C71.3063 155.874 80.1164 153.54 84.7192 148.962C87.116 146.579 87.8852 144.061 87.2007 141.952C87.6145 143.95 86.7892 146.257 84.5837 148.451Z" fill="white"/>
<path d="M67.7887 147.204L72.4028 142.615C72.9245 142.096 74.0162 141.972 74.3912 142.389L77.8652 146.249C78.2576 146.685 77.5692 147.37 76.656 147.452L68.5675 148.18C67.6945 148.258 67.2667 147.723 67.7887 147.204Z" fill="white"/>
<defs>
<linearGradient id="paint0_linear_3869_29790" x1="59.1977" y1="165.978" x2="127.388" y2="147.909" gradientUnits="userSpaceOnUse">
<stop stop-color="#86B8E0"/>
<stop offset="0.1163" stop-color="#98C4E7"/>
<stop offset="0.3255" stop-color="#B2D6F2"/>
<stop offset="0.5401" stop-color="#C5E2F9"/>
<stop offset="0.7615" stop-color="#D0EAFE"/>
<stop offset="1" stop-color="#D4ECFF"/>
</linearGradient>
<radialGradient id="paint1_radial_3869_29790" cx="0" cy="0" r="1" gradientUnits="userSpaceOnUse" gradientTransform="translate(117.207 136.363) rotate(-14.8412) scale(68.7156 68.7156)">
<stop stop-color="#F1F1F1"/>
<stop offset="0.4231" stop-color="#F1F1F1"/>
<stop offset="0.8152" stop-color="#F1F1F1"/>
<stop offset="1" stop-color="#F1F1F1"/>
</radialGradient>
<linearGradient id="paint2_linear_3869_29790" x1="59.3278" y1="149.065" x2="87.1572" y2="141.691" gradientUnits="userSpaceOnUse">
<stop stop-color="#FF0053"/>
<stop offset="0.312" stop-color="#FA3777"/>
<stop offset="0.6016" stop-color="#CD024C"/>
<stop offset="0.8814" stop-color="#B90848"/>
<stop offset="1" stop-color="#B10C48"/>
</linearGradient>
</defs>
</svg>
