<svg width="14" height="14" viewBox="0 0 14 14" fill="none" xmlns="http://www.w3.org/2000/svg">
<g clip-path="url(#clip0_5137_3515)">
<path d="M2.98711 14.0009C1.79492 14.0009 0.826953 13.0356 0.824219 11.8434C0.824219 11.5126 0.900781 11.1845 1.0457 10.8864C2.67812 7.59149 6.67031 6.24618 9.9625 7.87586C11.2695 8.52118 12.325 9.57938 12.973 10.8864C13.5008 11.9556 13.0605 13.2516 11.9914 13.7794C11.6934 13.927 11.3652 14.0036 11.0344 14.0009H2.98711Z" fill="#1E0627"/>
<path d="M4.26966 8.29281L4.26966 8.2928C7.33134 6.77501 11.0451 8.02678 12.5629 11.0912C13.1197 12.2165 12.2963 13.5373 11.038 13.5373H2.99345C1.73502 13.5373 0.912013 12.2166 1.47109 11.0915L1.47134 11.091C2.07103 9.87859 3.05414 8.89535 4.26966 8.29281Z" fill="white" stroke="#1E0627" stroke-width="0.6"/>
<path d="M7.01406 6.33281C8.76282 6.33281 10.1805 4.91516 10.1805 3.16641C10.1805 1.41765 8.76282 0 7.01406 0C5.2653 0 3.84766 1.41765 3.84766 3.16641C3.84766 4.91516 5.2653 6.33281 7.01406 6.33281Z" fill="#1E0627"/>
<path d="M9.7125 3.16641C9.7125 4.65887 8.50262 5.86875 7.01016 5.86875C5.51769 5.86875 4.30781 4.65887 4.30781 3.16641C4.30781 1.67394 5.51769 0.464063 7.01016 0.464063C8.50262 0.464063 9.7125 1.67394 9.7125 3.16641Z" fill="white" stroke="#1E0627" stroke-width="0.6"/>
</g>
<defs>
<clipPath id="clip0_5137_3515">
<rect width="14" height="14" fill="white"/>
</clipPath>
</defs>
</svg>
