<svg width="14" height="14" viewBox="0 0 14 14" fill="none" xmlns="http://www.w3.org/2000/svg">
<g clip-path="url(#clip0_3780_30113)">
<path d="M13.8511 5.68893L7.21491 0.830025C7.08694 0.736346 6.91309 0.736346 6.78518 0.830025L0.148903 5.68893C-0.0131912 5.80763 -0.04841 6.03524 0.0702892 6.19733C0.188988 6.35942 0.416625 6.39459 0.578692 6.27594L7.00002 1.57435L13.4213 6.27592C13.4861 6.32336 13.5613 6.34619 13.6359 6.34619C13.7479 6.34619 13.8585 6.29465 13.9297 6.1973C14.0484 6.03524 14.0132 5.80763 13.8511 5.68893Z" fill="#FF0053"/>
<path d="M12.0959 6.3584C11.8951 6.3584 11.7322 6.52126 11.7322 6.72215V12.5122H8.8222V9.35161C8.8222 8.34864 8.00621 7.5327 7.00329 7.5327C6.00038 7.5327 5.18439 8.3487 5.18439 9.35161V12.5122H2.27438V6.72218C2.27438 6.52129 2.1115 6.35843 1.91063 6.35843C1.70976 6.35843 1.54688 6.52129 1.54688 6.72218V12.876C1.54688 13.0769 1.70976 13.2397 1.91063 13.2397H5.54814C5.73944 13.2397 5.89598 13.0919 5.91047 12.9043C5.91135 12.8958 5.91189 12.8865 5.91189 12.876V9.35164C5.91189 8.74983 6.40148 8.26024 7.00329 8.26024C7.6051 8.26024 8.09469 8.74986 8.09469 9.35164V12.876C8.09469 12.8864 8.09524 12.8956 8.09611 12.904C8.11044 13.0917 8.26704 13.2397 8.45844 13.2397H12.096C12.2969 13.2397 12.4597 13.0769 12.4597 12.876V6.72218C12.4597 6.52126 12.2968 6.3584 12.0959 6.3584Z" fill="#FF0053"/>
</g>
<defs>
<clipPath id="clip0_3780_30113">
<rect width="14" height="14" fill="white"/>
</clipPath>
</defs>
</svg>
