<svg width="21" height="21" viewBox="0 0 21 21" fill="none" xmlns="http://www.w3.org/2000/svg">
<path d="M14.5377 0C14.5865 0 14.6354 0 14.687 0C14.8069 1.48096 14.2416 2.58754 13.5546 3.38888C12.8806 4.18469 11.9575 4.95653 10.4645 4.83941C10.3649 3.37966 10.9311 2.35516 11.6172 1.55566C12.2535 0.810565 13.42 0.147543 14.5377 0Z" fill="black"/>
<path d="M19.058 15.4131C19.058 15.4279 19.058 15.4408 19.058 15.4546C18.6385 16.7253 18.04 17.8144 17.3097 18.825C16.6429 19.7426 15.8259 20.9773 14.3671 20.9773C13.1065 20.9773 12.2692 20.1668 10.9773 20.1446C9.61066 20.1225 8.85912 20.8224 7.60961 20.9985C7.46668 20.9985 7.32375 20.9985 7.18358 20.9985C6.26605 20.8658 5.52556 20.1391 4.98611 19.4844C3.39541 17.5497 2.16619 15.0507 1.9375 11.8527C1.9375 11.5392 1.9375 11.2266 1.9375 10.913C2.03433 8.62429 3.14643 6.7634 4.62463 5.86154C5.40476 5.38203 6.47722 4.97352 7.67139 5.1561C8.18318 5.2354 8.70604 5.41061 9.16435 5.58398C9.59868 5.75088 10.1418 6.04689 10.6564 6.03121C11.0049 6.02107 11.3517 5.83941 11.703 5.71123C12.7321 5.33961 13.741 4.91358 15.0707 5.11368C16.6688 5.35528 17.803 6.06533 18.5038 7.16084C17.152 8.0212 16.0832 9.31774 16.2658 11.5318C16.4281 13.543 17.5974 14.7197 19.058 15.4131Z" fill="black"/>
</svg>
