
<svg width="12" height="14" viewBox="0 0 12 14" fill="none" xmlns="http://www.w3.org/2000/svg">
<g clip-path="url(#clip0_3651_18296)">
<path d="M0.320445 13.8584C0.417628 13.9132 0.527453 13.9406 0.638513 13.9376C0.749573 13.9345 0.857817 13.9013 0.952 13.8413L5.6 10.8834L10.248 13.8413C10.3422 13.9013 10.4504 13.9344 10.5614 13.9374C10.6725 13.9404 10.7823 13.913 10.8794 13.8582C10.9766 13.8034 11.0575 13.7231 11.1139 13.6256C11.1703 13.5282 11.2 13.4172 11.2 13.3041V1.90058C11.2 1.39652 11.0033 0.913097 10.6533 0.556668C10.3032 0.200239 9.8284 0 9.33333 0H1.86667C1.3716 0 0.896802 0.200239 0.546734 0.556668C0.196666 0.913097 7.34407e-08 1.39652 7.34407e-08 1.90058V13.3041C-5.38937e-05 13.4172 0.029636 13.5283 0.0859863 13.6257C0.142337 13.7232 0.223292 13.8036 0.320445 13.8584ZM1.24444 1.90058C1.24444 1.73256 1.31 1.57142 1.42669 1.45261C1.54338 1.3338 1.70164 1.26706 1.86667 1.26706H9.33333C9.49836 1.26706 9.65662 1.3338 9.77331 1.45261C9.89 1.57142 9.95555 1.73256 9.95555 1.90058V12.1637L5.92978 9.60175C5.83089 9.53882 5.71662 9.50545 5.6 9.50545C5.48338 9.50545 5.36911 9.53882 5.27022 9.60175L1.24444 12.1637V1.90058Z" fill="#1E0627" stroke="white" stroke-width="0.5"/>
</g>
<defs>
<clipPath id="clip0_3651_18296">
<rect width="11.2" height="14" fill="white"/>
</clipPath>
</defs>
</svg>
