<svg width="12" height="12" viewBox="0 0 12 12" fill="none" xmlns="http://www.w3.org/2000/svg">
<g clip-path="url(#clip0_4330_48431)">
<path d="M10.5938 6.46875H7.875C7.09959 6.46875 6.46875 7.09959 6.46875 7.875V10.5938C6.46875 11.3692 7.09959 12 7.875 12H10.5938C11.3692 12 12 11.3692 12 10.5938V7.875C12 7.09959 11.3692 6.46875 10.5938 6.46875ZM11.0625 10.5938C11.0625 10.8522 10.8522 11.0625 10.5938 11.0625H7.875C7.61653 11.0625 7.40625 10.8522 7.40625 10.5938V7.875C7.40625 7.61653 7.61653 7.40625 7.875 7.40625H10.5938C10.8522 7.40625 11.0625 7.61653 11.0625 7.875V10.5938ZM4.125 6.46875H1.40625C0.630844 6.46875 0 7.09959 0 7.875V10.5938C0 11.3692 0.630844 12 1.40625 12H4.125C4.90041 12 5.53125 11.3692 5.53125 10.5938V7.875C5.53125 7.09959 4.90041 6.46875 4.125 6.46875ZM4.59375 10.5938C4.59375 10.8522 4.38347 11.0625 4.125 11.0625H1.40625C1.14778 11.0625 0.9375 10.8522 0.9375 10.5938V7.875C0.9375 7.61653 1.14778 7.40625 1.40625 7.40625H4.125C4.38347 7.40625 4.59375 7.61653 4.59375 7.875V10.5938ZM4.125 0H1.40625C0.630844 0 0 0.630844 0 1.40625V4.125C0 4.90041 0.630844 5.53125 1.40625 5.53125H4.125C4.90041 5.53125 5.53125 4.90041 5.53125 4.125V1.40625C5.53125 0.630844 4.90041 0 4.125 0ZM4.59375 4.125C4.59375 4.38347 4.38347 4.59375 4.125 4.59375H1.40625C1.14778 4.59375 0.9375 4.38347 0.9375 4.125V1.40625C0.9375 1.14778 1.14778 0.9375 1.40625 0.9375H4.125C4.38347 0.9375 4.59375 1.14778 4.59375 1.40625V4.125ZM10.5938 0H7.875C7.09959 0 6.46875 0.630844 6.46875 1.40625V4.125C6.46875 4.90041 7.09959 5.53125 7.875 5.53125H10.5938C11.3692 5.53125 12 4.90041 12 4.125V1.40625C12 0.630844 11.3692 0 10.5938 0ZM11.0625 4.125C11.0625 4.38347 10.8522 4.59375 10.5938 4.59375H7.875C7.61653 4.59375 7.40625 4.38347 7.40625 4.125V1.40625C7.40625 1.14778 7.61653 0.9375 7.875 0.9375H10.5938C10.8522 0.9375 11.0625 1.14778 11.0625 1.40625V4.125Z" fill="#1E0627" stroke="white" stroke-width="0.5"/>
</g>
<defs>
<clipPath id="clip0_4330_48431">
<rect width="12" height="12" fill="white"/>
</clipPath>
</defs>
</svg>
