<svg width="14" height="14" viewBox="0 0 14 14" fill="none" xmlns="http://www.w3.org/2000/svg">
<g clip-path="url(#clip0_4317_41073)">
<path d="M7.04835 9.44327C7.20466 9.28695 7.41006 9.20816 7.61546 9.20816C7.81958 9.20816 8.02497 9.28695 8.18129 9.44327C8.3376 9.59958 8.4164 9.80498 8.4164 10.0091C8.4164 10.2145 8.3376 10.4199 8.18129 10.5762L5.89991 12.8576C5.58081 13.1767 5.21007 13.4183 4.8135 13.581C4.4027 13.7516 3.96607 13.8368 3.52939 13.8368V13.8355C3.09148 13.8355 2.65352 13.7503 2.244 13.5811C1.84743 13.4183 1.47792 13.1767 1.15887 12.8576C0.839811 12.5386 0.598229 12.1678 0.434167 11.7725C0.264954 11.3617 0.180964 10.9251 0.180964 10.4871H0.179688C0.179688 10.0505 0.264954 9.61385 0.434167 9.20173C0.598229 8.80643 0.839811 8.43565 1.15887 8.1166L3.44025 5.83522C3.75935 5.51616 4.13008 5.27458 4.52538 5.11051C4.93745 4.9413 5.37413 4.85604 5.81077 4.85604V4.85731C6.24868 4.85731 6.68531 4.94126 7.09615 5.11051C7.49145 5.27458 7.86223 5.51616 8.18129 5.83522C8.3376 5.99153 8.41512 6.19565 8.41512 6.40105C8.41512 6.60645 8.3376 6.81184 8.18129 6.96816C8.02497 7.12447 7.81958 7.20199 7.61546 7.20199C7.41006 7.20199 7.20466 7.12447 7.04835 6.96816C6.88169 6.80022 6.68923 6.6749 6.48383 6.58968C6.27069 6.50181 6.04073 6.45788 5.81081 6.45788C5.36124 6.45788 4.91298 6.62841 4.57324 6.96816L2.29186 9.24954C2.12392 9.4162 1.99859 9.60865 1.91333 9.81405C1.82551 10.0272 1.78158 10.2572 1.78158 10.4871C1.78158 10.7171 1.82551 10.947 1.91333 11.1602C1.99859 11.3656 2.12392 11.5581 2.29186 11.7247C2.45852 11.8926 2.65097 12.018 2.85637 12.1032C3.07079 12.1911 3.29947 12.235 3.52939 12.235C3.97764 12.235 4.42722 12.0645 4.76697 11.7247L7.04835 9.44327ZM6.94891 4.55366C6.79259 4.70997 6.58719 4.78749 6.3818 4.78749C6.17768 4.78749 5.97228 4.70997 5.81596 4.55366C5.65965 4.39734 5.58085 4.19195 5.58085 3.98655C5.58085 3.78243 5.65965 3.57703 5.81596 3.42072L8.09734 1.13934C8.41645 0.820234 8.78718 0.578652 9.18248 0.414635C9.59455 0.245423 10.0312 0.160156 10.4679 0.160156C10.9045 0.160156 11.3424 0.245423 11.7532 0.414635C12.1498 0.578698 12.5193 0.820234 12.8384 1.13934C13.1575 1.45839 13.399 1.82785 13.5631 2.22447C13.7323 2.63527 13.8176 3.07322 13.8176 3.50986C13.8176 3.94522 13.7323 4.38313 13.5631 4.79392C13.399 5.19054 13.1574 5.56 12.8384 5.88033L10.557 8.16171C10.2379 8.48077 9.86717 8.72235 9.47187 8.88514C9.0598 9.05567 8.62312 9.13962 8.18648 9.13962C7.74857 9.13962 7.31194 9.05435 6.9011 8.88514C6.5058 8.72235 6.13502 8.48077 5.81596 8.16171C5.65965 8.0054 5.58213 7.8 5.58213 7.5946C5.58213 7.38921 5.65965 7.18509 5.81596 7.02877C5.97228 6.87246 6.17768 6.79366 6.3818 6.79366C6.58719 6.79366 6.79259 6.87246 6.94891 7.02877C7.11557 7.19671 7.30802 7.32203 7.51342 7.40598C7.72784 7.49512 7.9578 7.53905 8.18644 7.53905C8.63602 7.53905 9.08427 7.36852 9.42402 7.02877L11.7054 4.74739C11.8733 4.57945 11.9987 4.38695 12.0839 4.18288C12.1717 3.96841 12.2157 3.73977 12.2157 3.50981H12.217C12.217 3.27985 12.1718 3.05121 12.0839 2.83674C11.9987 2.63135 11.8733 2.43889 11.7054 2.27091C11.5387 2.10425 11.3463 1.97765 11.1409 1.8937C10.9265 1.80584 10.6965 1.76063 10.4679 1.76063V1.76195C10.0183 1.76195 9.57003 1.93117 9.23029 2.27091L6.94891 4.55366Z" fill="white"/>
</g>
<defs>
<clipPath id="clip0_4317_41073">
<rect width="14" height="14" fill="white"/>
</clipPath>
</defs>
</svg>
