<svg width="14" height="14" viewBox="0 0 14 14" fill="none" xmlns="http://www.w3.org/2000/svg">
<path d="M1.04432 0.0762316C0.48257 -0.203719 -0.134596 0.331839 0.0258203 0.959293L1.20182 5.54379C1.23129 5.65901 1.29256 5.76266 1.37801 5.84186C1.46347 5.92106 1.56934 5.97232 1.68249 5.98927L7.44815 6.8486C7.61498 6.87294 7.61498 7.1249 7.44815 7.14985L1.68307 8.00857C1.56993 8.02553 1.46405 8.07679 1.3786 8.15599C1.29314 8.23519 1.23187 8.33883 1.2024 8.45405L0.0258203 13.041C-0.134596 13.6678 0.48257 14.2034 1.04432 13.924L13.5848 7.68663C14.1384 7.41154 14.1384 6.58873 13.5848 6.31304L1.04432 0.0762316Z" fill="white"/>
</svg>
