<svg width="13" height="15" viewBox="0 0 13 15" fill="none" xmlns="http://www.w3.org/2000/svg">
<g clip-path="url(#clip0_5003_31664)">
<path fill-rule="evenodd" clip-rule="evenodd" d="M10.958 2.04204C10.7422 0.881479 9.72212 0 8.5 0H2.5C1.1215 0 0 1.1215 0 2.5V10.5C0 11.7221 0.881479 12.7422 2.04204 12.958C2.25776 14.1185 3.27788 15 4.5 15H10.5C11.8785 15 13 13.8785 13 12.5V4.5C13 3.27788 12.1185 2.25776 10.958 2.04204ZM3 12.5C3 13.3271 3.67291 14 4.5 14H10.5C11.3271 14 12 13.3271 12 12.5V4.5C12 3.67291 11.3271 3 10.5 3H4.5C3.67291 3 3 3.67291 3 4.5V12.5ZM9.91432 2H4.5C3.1215 2 2 3.1215 2 4.5V11.9143C1.41798 11.708 1 11.1519 1 10.5V2.5C1 1.67291 1.67291 1 2.5 1H8.5C9.15189 1 9.70796 1.41798 9.91432 2Z" fill="#E3E3E3"/>
<path d="M4.5 2H9.91432C9.70796 1.41798 9.15189 1 8.5 1H2.5C1.67291 1 1 1.67291 1 2.5V10.5C1 11.1519 1.41798 11.708 2 11.9143V4.5C2 3.1215 3.1215 2 4.5 2Z" fill="#1E0627"/>
<path d="M3 12.5C3 13.3271 3.67291 14 4.5 14H10.5C11.3271 14 12 13.3271 12 12.5V4.5C12 3.67291 11.3271 3 10.5 3H4.5C3.67291 3 3 3.67291 3 4.5V12.5Z" fill="#1E0627"/>
<path d="M10 6H5C4.72388 6 4.5 5.77613 4.5 5.5C4.5 5.22388 4.72388 5 5 5H10C10.2762 5 10.5 5.22388 10.5 5.5C10.5 5.77613 10.2762 6 10 6Z" fill="#E3E3E3"/>
<path d="M10 8H5C4.72388 8 4.5 7.77616 4.5 7.5C4.5 7.22388 4.72388 7 5 7H10C10.2762 7 10.5 7.22388 10.5 7.5C10.5 7.77616 10.2762 8 10 8Z" fill="#E3E3E3"/>
<path d="M10 10H5C4.72388 10 4.5 9.77616 4.5 9.5C4.5 9.22384 4.72388 9 5 9H10C10.2762 9 10.5 9.22384 10.5 9.5C10.5 9.77616 10.2762 10 10 10Z" fill="#E3E3E3"/>
<path d="M10 12H5C4.72388 12 4.5 11.7762 4.5 11.5C4.5 11.2238 4.72388 11 5 11H10C10.2762 11 10.5 11.2238 10.5 11.5C10.5 11.7762 10.2762 12 10 12Z" fill="#E3E3E3"/>
</g>
<defs>
<clipPath id="clip0_5003_31664">
<rect width="13" height="15" fill="white"/>
</clipPath>
</defs>
</svg>
