<svg width="13" height="15" viewBox="0 0 13 15" fill="none" xmlns="http://www.w3.org/2000/svg">
<path d="M10.5 15H4.5C3.1215 15 2 13.8785 2 12.5V4.5C2 3.1215 3.1215 2 4.5 2H10.5C11.8785 2 13 3.1215 13 4.5V12.5C13 13.8785 11.8785 15 10.5 15ZM4.5 3C3.67291 3 3 3.67291 3 4.5V12.5C3 13.3271 3.67291 14 4.5 14H10.5C11.3271 14 12 13.3271 12 12.5V4.5C12 3.67291 11.3271 3 10.5 3H4.5Z" fill="#1E0627"/>
<path d="M2.5 13C1.1215 13 0 11.8785 0 10.5V2.5C0 1.1215 1.1215 0 2.5 0H8.5C9.8785 0 11 1.1215 11 2.5C11 2.77613 10.7762 3 10.5 3C10.2238 3 10 2.77613 10 2.5C10 1.67291 9.32713 1 8.5 1H2.5C1.67291 1 1 1.67291 1 2.5V10.5C1 11.3271 1.67291 12 2.5 12C2.77613 12 3 12.2238 3 12.5C3 12.7762 2.77613 13 2.5 13Z" fill="#1E0627"/>
<path d="M10 6H5C4.72388 6 4.5 5.77613 4.5 5.5C4.5 5.22388 4.72388 5 5 5H10C10.2762 5 10.5 5.22388 10.5 5.5C10.5 5.77613 10.2762 6 10 6Z" fill="#1E0627"/>
<path d="M10 8H5C4.72388 8 4.5 7.77616 4.5 7.5C4.5 7.22388 4.72388 7 5 7H10C10.2762 7 10.5 7.22388 10.5 7.5C10.5 7.77616 10.2762 8 10 8Z" fill="#1E0627"/>
<path d="M10 10H5C4.72388 10 4.5 9.77616 4.5 9.5C4.5 9.22384 4.72388 9 5 9H10C10.2762 9 10.5 9.22384 10.5 9.5C10.5 9.77616 10.2762 10 10 10Z" fill="#1E0627"/>
<path d="M10 12H5C4.72388 12 4.5 11.7762 4.5 11.5C4.5 11.2238 4.72388 11 5 11H10C10.2762 11 10.5 11.2238 10.5 11.5C10.5 11.7762 10.2762 12 10 12Z" fill="#1E0627"/>
</svg>
