<svg width="22" height="22" viewBox="0 0 22 22" fill="none" xmlns="http://www.w3.org/2000/svg">
<path d="M7.87833 0.837514C5.34853 1.72636 3.1606 3.6408 1.92989 6.03386C1.51965 6.85433 1.17779 7.74318 1.04104 8.7004C0.56243 10.9567 0.904294 13.4181 1.92989 15.4693C2.61362 16.8368 3.57084 17.9991 4.80155 18.9563C5.89552 19.8452 7.1946 20.5289 8.63043 20.8708C10.4081 21.3494 12.2542 21.3494 13.9635 20.9392C15.5361 20.5973 17.0403 19.8452 18.271 18.6828C19.5701 17.5205 20.4589 16.0163 20.9376 14.307C21.4845 12.5293 21.5529 10.6148 21.211 8.76877C17.9291 8.76877 14.6472 8.76877 11.3653 8.76877V12.8711H17.0403C16.8352 14.1702 16.0147 15.4009 14.9207 16.0847C14.237 16.5633 13.4165 16.8368 12.5961 16.9735C11.7756 17.1103 10.8867 17.1103 10.0663 16.9735C9.24579 16.8368 8.42531 16.4265 7.74158 15.9479C6.64762 15.1958 5.75877 14.0335 5.34853 12.7344C4.86992 11.4353 4.86992 9.99948 5.34853 8.63203C5.6904 7.74318 6.16901 6.85433 6.85274 6.1706C7.67321 5.28175 8.76718 4.6664 9.99789 4.46128C11.0235 4.25616 12.0491 4.25616 13.0747 4.59802C13.8951 4.87152 14.7156 5.35013 15.331 5.89711C15.9463 5.28175 16.6301 4.59802 17.2454 3.98267C17.5873 3.6408 17.9291 3.29894 18.271 2.95707C17.3138 2.06823 16.1515 1.31612 14.9207 0.837514C12.6644 0.085412 10.1346 0.085412 7.87833 0.837514Z" fill="white"/>
<path d="M7.87813 0.837059C10.1344 0.0849566 12.6642 0.0849568 14.9205 0.905432C16.1513 1.38404 17.3136 2.06777 18.2708 3.02499C17.9289 3.36686 17.5871 3.70872 17.2452 4.05059C16.6299 4.66594 15.9461 5.34967 15.3308 5.96503C14.7154 5.34967 13.8949 4.87106 13.0745 4.66594C12.1173 4.39245 11.0233 4.32408 9.99769 4.5292C8.83535 4.80269 7.74138 5.41804 6.85254 6.23852C6.16881 6.92225 5.62182 7.81109 5.34833 8.69994C4.18599 7.81109 3.09203 6.92225 1.92969 6.0334C3.1604 3.64035 5.34833 1.72591 7.87813 0.837059Z" fill="#EA4335"/>
<path d="M1.04104 8.7017C1.24616 7.81285 1.51965 6.924 1.92989 6.03516C3.09223 6.924 4.18619 7.81285 5.34853 8.7017C4.86992 10.0008 4.86992 11.4366 5.34853 12.8041C4.18619 13.6929 3.09223 14.5818 1.92989 15.4706C0.904294 13.3511 0.56243 10.958 1.04104 8.7017Z" fill="#FBBC05"/>
<path d="M11.2969 8.76953H21.1426C21.4844 10.6156 21.4161 12.53 20.8691 14.3077C20.3905 15.9487 19.5016 17.4529 18.2025 18.6836C17.1086 17.7948 16.0146 16.9743 14.8523 16.0854C15.9462 15.3333 16.6983 14.171 16.9718 12.8719C15.0574 12.8719 13.1429 12.8719 11.2969 12.8719C11.2969 11.5044 11.2969 10.137 11.2969 8.76953Z" fill="#4285F4"/>
<path d="M1.92969 15.4673C3.09203 14.5785 4.18599 13.6896 5.34833 12.8008C5.75857 14.0999 6.64742 15.2622 7.74138 16.0143C8.42511 16.4929 9.24559 16.8348 10.0661 17.0399C10.8865 17.1766 11.707 17.1766 12.5959 17.0399C13.4163 16.9032 14.2368 16.5613 14.9205 16.1511C16.0145 17.0399 17.1085 17.8604 18.2708 18.7492C17.0401 19.8432 15.6043 20.5953 13.9633 21.0055C12.1856 21.4158 10.3396 21.4158 8.63023 20.9372C7.26277 20.5953 5.96369 19.9116 4.80135 19.0227C3.63901 17.9971 2.61342 16.7664 1.92969 15.4673Z" fill="#34A853"/>
</svg>
