<svg width="14" height="14" viewBox="0 0 14 14" fill="none" xmlns="http://www.w3.org/2000/svg">
<g clip-path="url(#clip0_3763_7949)">
<path d="M13.8511 5.68893L7.21491 0.830025C7.08694 0.736346 6.91309 0.736346 6.78518 0.830025L0.148903 5.68893C-0.0131912 5.80763 -0.04841 6.03524 0.0702892 6.19733C0.188988 6.35942 0.416625 6.39459 0.578692 6.27594L7.00002 1.57435L13.4213 6.27592C13.4861 6.32336 13.5613 6.34619 13.6359 6.34619C13.7479 6.34619 13.8585 6.29465 13.9297 6.1973C14.0484 6.03524 14.0132 5.80763 13.8511 5.68893Z" fill="#1E0627"/>
<path d="M12.0959 6.35938C11.8951 6.35938 11.7322 6.52223 11.7322 6.72313V12.5131H8.8222V9.35259C8.8222 8.34962 8.00621 7.53368 7.00329 7.53368C6.00038 7.53368 5.18439 8.34967 5.18439 9.35259V12.5132H2.27438V6.72316C2.27438 6.52226 2.1115 6.3594 1.91063 6.3594C1.70976 6.3594 1.54688 6.52226 1.54688 6.72316V12.8769C1.54688 13.0778 1.70976 13.2407 1.91063 13.2407H5.54814C5.73944 13.2407 5.89598 13.0929 5.91047 12.9053C5.91135 12.8968 5.91189 12.8875 5.91189 12.8769V9.35261C5.91189 8.7508 6.40148 8.26122 7.00329 8.26122C7.6051 8.26122 8.09469 8.75083 8.09469 9.35261V12.8769C8.09469 12.8874 8.09524 12.8966 8.09611 12.9049C8.11044 13.0927 8.26704 13.2407 8.45844 13.2407H12.096C12.2969 13.2407 12.4597 13.0778 12.4597 12.8769V6.72316C12.4597 6.52223 12.2968 6.35938 12.0959 6.35938Z" fill="#1E0627"/>
</g>
<defs>
<clipPath id="clip0_3763_7949">
<rect width="14" height="14" fill="white"/>
</clipPath>
</defs>
</svg>
