<svg width="20" height="20" viewBox="0 0 20 20" fill="none" xmlns="http://www.w3.org/2000/svg">
<g clip-path="url(#clip0_4181_44236)">
<path d="M10 20C15.5228 20 20 15.5228 20 10C20 4.47715 15.5228 0 10 0C4.47715 0 0 4.47715 0 10C0 15.5228 4.47715 20 10 20Z" fill="#0077B5"/>
<path d="M8.33018 6.06938C8.33018 6.32802 8.25348 6.58084 8.10979 6.79588C7.96611 7.01093 7.76188 7.17854 7.52293 7.27751C7.28399 7.37648 7.02106 7.40238 6.7674 7.35192C6.51373 7.30147 6.28073 7.17692 6.09785 6.99404C5.91497 6.81116 5.79043 6.57816 5.73997 6.3245C5.68951 6.07083 5.71541 5.80791 5.81438 5.56896C5.91336 5.33002 6.08097 5.12579 6.29601 4.9821C6.51105 4.83841 6.76388 4.76172 7.02251 4.76172C7.36932 4.76172 7.70193 4.89949 7.94717 5.14473C8.1924 5.38996 8.33018 5.72257 8.33018 6.06938Z" fill="white"/>
<path d="M8.03382 8.24618V14.0234C8.03405 14.0661 8.02586 14.1083 8.00971 14.1477C7.99356 14.1872 7.96977 14.2231 7.93971 14.2533C7.90966 14.2835 7.87392 14.3075 7.83457 14.3238C7.79522 14.3402 7.75302 14.3486 7.71039 14.3486H6.33211C6.28949 14.3487 6.24727 14.3404 6.20787 14.3242C6.16848 14.3079 6.13268 14.284 6.10254 14.2539C6.07241 14.2237 6.04852 14.188 6.03227 14.1486C6.01601 14.1092 6.0077 14.0669 6.00781 14.0243V8.24618C6.00781 8.16017 6.04198 8.07768 6.1028 8.01686C6.16362 7.95604 6.2461 7.92188 6.33211 7.92188H7.71039C7.79625 7.92211 7.87852 7.95638 7.93915 8.01717C7.99978 8.07796 8.03382 8.16032 8.03382 8.24618Z" fill="white"/>
<path d="M15.2369 11.256V14.0526C15.237 14.0918 15.2294 14.1306 15.2145 14.1668C15.1995 14.2031 15.1776 14.236 15.1499 14.2637C15.1222 14.2914 15.0892 14.3134 15.053 14.3283C15.0168 14.3432 14.978 14.3509 14.9388 14.3508H13.4568C13.4176 14.3509 13.3788 14.3432 13.3425 14.3283C13.3063 14.3134 13.2734 14.2914 13.2457 14.2637C13.218 14.236 13.196 14.2031 13.1811 14.1668C13.1661 14.1306 13.1585 14.0918 13.1586 14.0526V11.3423C13.1586 10.9378 13.2772 9.57081 12.1011 9.57081C11.1901 9.57081 11.0045 10.5062 10.9678 10.9264V14.0526C10.9678 14.1309 10.937 14.2061 10.8821 14.2619C10.8271 14.3177 10.7524 14.3496 10.674 14.3508H9.24259C9.20348 14.3508 9.16475 14.343 9.12863 14.328C9.0925 14.3131 9.05969 14.2911 9.03208 14.2634C9.00446 14.2357 8.98258 14.2028 8.96769 14.1666C8.9528 14.1305 8.9452 14.0917 8.94531 14.0526V8.22304C8.9452 8.18393 8.9528 8.14518 8.96769 8.10901C8.98258 8.07284 9.00446 8.03997 9.03208 8.01227C9.05969 7.98457 9.0925 7.9626 9.12863 7.9476C9.16475 7.93261 9.20348 7.92489 9.24259 7.92489H10.674C10.7531 7.92489 10.829 7.9563 10.8849 8.01222C10.9408 8.06813 10.9722 8.14397 10.9722 8.22304V8.72693C11.3104 8.21955 11.8117 7.82812 12.8814 7.82812C15.2509 7.82812 15.2369 10.0407 15.2369 11.256Z" fill="white"/>
</g>
<defs>
<clipPath id="clip0_4181_44236">
<rect width="20" height="20" fill="white"/>
</clipPath>
</defs>
</svg>
