<svg width="18" height="19" viewBox="0 0 18 19" fill="none" xmlns="http://www.w3.org/2000/svg">
<path d="M5.74332 1.69371C5.47508 1.04574 4.76789 0.70086 4.09206 0.885494L1.02642 1.72158C0.420265 1.88879 -0.00125694 2.43921 -0.00125694 3.06627C-0.00125694 11.6849 6.98699 18.6731 15.6056 18.6731C16.2327 18.6731 16.7831 18.2516 16.9503 17.6455L17.7864 14.5798C17.971 13.904 17.6261 13.1968 16.9782 12.9286L13.6338 11.5351C13.066 11.2982 12.4076 11.4619 12.0209 11.9392L10.6135 13.6566C8.16099 12.4966 6.17529 10.5109 5.01523 8.05838L6.73268 6.65446C7.20995 6.26429 7.37368 5.60936 7.13679 5.04152L5.74332 1.69719V1.69371Z" fill="#479B5E"/>
</svg>
