<svg width="528" height="528" viewBox="0 0 528 528" fill="none" xmlns="http://www.w3.org/2000/svg">
<circle cx="264" cy="264" r="264" fill="url(#paint0_linear_3898_1336)"/>
<g clip-path="url(#clip0_3898_1336)">
<path d="M147.563 269.5L129.214 266.815C123.852 266.049 123.133 264.516 123.133 262.217C123.133 259.918 124.373 258.766 129.01 258.766H156.638V247.266H128.495C117.771 247.272 112 252.636 112 259.44V262.984C112 273.717 117.771 275.918 125.402 277.163L142.207 279.848C148.084 280.804 149.013 281.859 149.013 284.924C149.013 287.989 147.774 289.043 141.903 289.043H114.163V300.543H143.441C154.369 300.543 160.141 295.467 160.141 285.5V281.956C160.141 272.951 154.369 270.456 147.563 269.5Z" fill="white"/>
<path d="M225.127 268.641V278.891C225.127 292.305 232.963 300.832 246.055 300.832H272.549V289.141H249.458C241.827 289.141 238.43 286.266 238.43 279.37V267.968C238.43 261.739 241.833 258.864 249.458 258.864H272.654V246.984H249.049C234.407 246.984 225.133 255.033 225.133 268.641H225.127Z" fill="white"/>
<path d="M416 243.027H403.381V300.93H416V243.027Z" fill="url(#paint1_linear_3898_1336)"/>
<path d="M404.282 242.467L416 235.174V226H403.381V242.929L404.399 242.467H404.282Z" fill="url(#paint2_linear_3898_1336)"/>
<path d="M403.177 243.027H403.381V242.929L403.177 243.027Z" fill="url(#paint3_linear_3898_1336)"/>
<path d="M378.472 246.603H347.546V258.293H376.203C380.22 258.293 382.39 260.304 382.39 264.233V268.353H357.644C348.984 268.353 344.242 272.761 344.242 280.81V285.598C344.242 295.565 350.013 300.929 360.737 300.929H394.967V262.603C394.967 252.636 389.19 246.603 378.472 246.603ZM382.39 300.837L376.022 289.723H361.503C360.194 289.723 359.007 289.272 358.071 288.549C357.603 288.206 357.211 287.799 356.913 287.315C356.41 286.549 356.1 285.663 356.1 284.701V284.168C356.1 280.619 358.27 278.608 362.287 278.608H382.489L382.39 300.837Z" fill="url(#paint4_linear_3898_1336)"/>
<path d="M361.509 289.717H362.293C360.503 289.717 359.1 289.299 358.077 288.543C359.012 289.266 360.199 289.717 361.509 289.717Z" fill="url(#paint5_linear_3898_1336)"/>
<path d="M356.101 284.695C356.101 285.657 356.405 286.548 356.913 287.309C356.387 286.462 356.106 285.413 356.101 284.163V284.695Z" fill="url(#paint6_linear_3898_1336)"/>
<path d="M317.97 246.674H295.721V226.071H283.103V301H295.721V258.359H315.707C319.73 258.359 321.894 260.37 321.894 264.299L321.783 300.995H334.471V262.669C334.471 252.707 328.694 246.669 317.976 246.669L317.97 246.674Z" fill="white"/>
<path d="M200.803 246.603H169.876V258.293H198.534C202.557 258.293 204.72 260.304 204.72 264.233V268.353H179.981C171.321 268.353 166.579 272.761 166.579 280.81V285.598C166.579 295.565 172.35 300.929 183.074 300.929H217.298V262.603C217.298 252.641 211.527 246.603 200.803 246.603ZM204.826 280.907C204.808 281.315 204.732 281.63 204.697 282H204.726V289.723H184.623C182.828 289.723 181.431 289.304 180.402 288.543C179.94 288.201 179.548 287.799 179.25 287.32C178.723 286.473 178.437 285.418 178.437 284.168C178.437 280.625 180.606 278.608 184.623 278.608H204.826V280.907Z" fill="white"/>
</g>
<defs>
<linearGradient id="paint0_linear_3898_1336" x1="18.5" y1="75.1933" x2="441.203" y2="299.385" gradientUnits="userSpaceOnUse">
<stop stop-color="#D42F54"/>
<stop offset="1" stop-color="#320A38"/>
</linearGradient>
<linearGradient id="paint1_linear_3898_1336" x1="446.581" y1="316.68" x2="396.699" y2="246.717" gradientUnits="userSpaceOnUse">
<stop stop-color="#320A38"/>
<stop offset="0.76" stop-color="#CD024C"/>
<stop offset="1" stop-color="#FF0053"/>
</linearGradient>
<linearGradient id="paint2_linear_3898_1336" x1="466.076" y1="302.777" x2="416.194" y2="232.82" gradientUnits="userSpaceOnUse">
<stop stop-color="#320A38"/>
<stop offset="0.76" stop-color="#CD024C"/>
<stop offset="1" stop-color="#FF0053"/>
</linearGradient>
<linearGradient id="paint3_linear_3898_1336" x1="457.616" y1="308.81" x2="407.734" y2="238.852" gradientUnits="userSpaceOnUse">
<stop stop-color="#320A38"/>
<stop offset="0.76" stop-color="#CD024C"/>
<stop offset="1" stop-color="#FF0053"/>
</linearGradient>
<linearGradient id="paint4_linear_3898_1336" x1="420.321" y1="335.402" x2="370.439" y2="265.445" gradientUnits="userSpaceOnUse">
<stop stop-color="#320A38"/>
<stop offset="0.76" stop-color="#CD024C"/>
<stop offset="1" stop-color="#FF0053"/>
</linearGradient>
<linearGradient id="paint5_linear_3898_1336" x1="406.504" y1="345.255" x2="356.622" y2="275.293" gradientUnits="userSpaceOnUse">
<stop stop-color="#320A38"/>
<stop offset="0.76" stop-color="#CD024C"/>
<stop offset="1" stop-color="#FF0053"/>
</linearGradient>
<linearGradient id="paint6_linear_3898_1336" x1="405.955" y1="345.646" x2="356.073" y2="275.683" gradientUnits="userSpaceOnUse">
<stop stop-color="#320A38"/>
<stop offset="0.76" stop-color="#CD024C"/>
<stop offset="1" stop-color="#FF0053"/>
</linearGradient>
<clipPath id="clip0_3898_1336">
<rect width="304" height="75" fill="white" transform="translate(112 226)"/>
</clipPath>
</defs>
</svg>
