<svg width="124" height="93" viewBox="0 0 124 93" fill="none" xmlns="http://www.w3.org/2000/svg">
<mask id="mask0_3793_25038" style="mask-type:alpha" maskUnits="userSpaceOnUse" x="0" y="0" width="124" height="93">
<path d="M0.417969 0.589844H121.071C122.468 0.589844 123.6 1.7223 123.6 3.11926V83.6412C123.6 88.8099 119.41 93 114.242 93H0.417969V0.589844Z" fill="white"/>
</mask>
<g mask="url(#mask0_3793_25038)">
<path d="M36.8476 59.8651C35.4874 59.8651 34.1281 59.8651 32.7687 59.8651C32.6644 59.8651 32.6147 59.7904 32.6057 59.7109L32.0898 69.0293H37.2314C37.1067 65.9943 36.9755 62.8733 36.8476 59.8651Z" fill="#D1CABC"/>
<path d="M37.8066 82.6375C37.6762 79.5198 37.5091 75.5194 37.3282 71.2285C35.585 71.2285 33.8401 71.2285 32.0961 71.2285C32.0423 71.2285 32.0024 71.2066 31.9747 71.1758L31.3398 82.6408C31.348 82.64 31.3537 82.6367 31.3618 82.6367C33.5101 82.6375 35.6583 82.6375 37.8066 82.6375Z" fill="#D1CABC"/>
<path d="M36.1412 43.235C35.2806 43.235 34.42 43.235 33.5594 43.235C33.5423 43.235 33.5358 43.222 33.5211 43.2188L33.4258 44.9419H36.2154C36.1869 44.2994 36.1624 43.7298 36.1412 43.235Z" fill="#D1CABC"/>
<path d="M36.3117 47.1101C35.3419 47.1101 34.373 47.1101 33.4031 47.1101C33.3616 47.1101 33.3355 47.089 33.3094 47.0703L32.7227 57.6713H36.7592C36.5921 53.6717 36.4356 49.9844 36.3117 47.1101Z" fill="#D1CABC"/>
<path d="M32.0946 70.8763C33.8337 70.8763 35.5737 70.8763 37.312 70.8763C37.2859 70.2646 37.2615 69.6496 37.2338 69.0273H32.0922H31.2617V71.0596H31.9275C31.9235 70.9696 31.9773 70.8763 32.0946 70.8763Z" fill="#D1CABC"/>
<path d="M32.77 59.5135C34.1244 59.5135 35.4797 59.5135 36.835 59.5135C36.8089 58.8961 36.7828 58.2795 36.7568 57.6727V57.6719H32.7203H32.1172V59.7041H32.6053C32.5972 59.6116 32.6494 59.5135 32.77 59.5135Z" fill="#D1CABC"/>
<path d="M33.3987 46.7564C34.3628 46.7564 35.3269 46.7564 36.2902 46.7564C36.2616 46.1049 36.2356 45.4916 36.2119 44.9391V44.9375H33.4231H32.543V46.9698H33.2414C33.221 46.87 33.2683 46.7564 33.3987 46.7564Z" fill="#D1CABC"/>
<path d="M33.5568 42.88C34.4117 42.88 35.2674 42.88 36.1223 42.88C36.1207 42.8305 36.119 42.7769 36.1158 42.7299C36.1003 42.3827 36.088 42.102 36.0758 41.8643C35.1158 41.8643 34.1558 41.8643 33.1958 41.8643C33.0931 41.8643 33.0425 41.7896 33.0336 41.7109H32.543V43.1907H33.4598C33.3449 43.1031 33.3718 42.88 33.5568 42.88Z" fill="#D1CABC"/>
<path d="M33.1968 41.5143C34.1511 41.5143 35.1062 41.5143 36.0606 41.5143C36.0573 41.4559 36.054 41.3837 36.0516 41.3399C35.9326 39.0407 35.1992 38.4307 34.7795 38.2725C34.9261 38.2262 35.0386 38.2173 35.0965 38.2157C35.0647 38.2148 35.0427 38.2148 35.0427 38.2148H34.9832C34.9832 38.2148 33.1186 38.2213 33.0664 41.5743C33.0957 41.5395 33.1373 41.5143 33.1968 41.5143Z" fill="#D1CABC"/>
<path d="M36.0526 41.3405C36.055 41.3844 36.0591 41.4566 36.0616 41.515C36.3232 41.515 36.5848 41.515 36.8455 41.515C37.0721 41.515 37.0721 41.8663 36.8455 41.8663C36.5896 41.8663 36.3337 41.8663 36.0778 41.8663C36.0893 42.1032 36.1023 42.3847 36.1178 42.7319C36.1202 42.7798 36.1219 42.8325 36.1243 42.882C36.2604 42.882 36.3957 42.882 36.531 42.882C36.7575 42.882 36.7575 43.2333 36.531 43.2333C36.4006 43.2333 36.2702 43.2333 36.1406 43.2333C36.1618 43.7282 36.1862 44.2977 36.2148 44.9402V44.9418C36.2392 45.4943 36.2653 46.1076 36.293 46.7591C36.4095 46.7591 36.5269 46.7591 36.6434 46.7591C36.8708 46.7591 36.87 47.1104 36.6434 47.1104C36.5318 47.1104 36.421 47.1104 36.3093 47.1104C36.4332 49.9847 36.5896 53.6728 36.7567 57.6716V57.6724C36.7828 58.2785 36.8089 58.895 36.8349 59.5132C37.0036 59.5132 37.1723 59.5132 37.341 59.5132C37.5684 59.5132 37.5676 59.8645 37.341 59.8645C37.1772 59.8645 37.0134 59.8645 36.8496 59.8645C36.9768 62.8727 37.1088 65.9937 37.2335 69.0287C37.262 69.6518 37.2856 70.2659 37.3117 70.8776C37.5391 70.8776 37.7665 70.8776 37.9938 70.8776C38.2212 70.8776 38.2212 71.2289 37.9938 71.2289C37.7713 71.2289 37.5489 71.2289 37.3264 71.2289C37.5073 75.5198 37.6744 79.5202 37.8048 82.638C38.1527 82.638 38.5007 82.638 38.8495 82.638L38.209 71.0634H38.9261V69.0287H38.7982H38.0973L37.5815 59.7047H38.0712V57.6733H38.0623H37.469V57.6724L36.8765 46.9749H37.6426V44.9434H37.6336H36.764V44.9418L36.6679 43.1951H37.6426V41.7162H37.6336H37.1234V41.7145C37.1226 38.2187 35.2034 38.2188 35.2034 38.2188H35.1431C35.1431 38.2188 35.1243 38.2188 35.0983 38.2188C35.0396 38.2204 34.9279 38.2285 34.7812 38.2755C35.2001 38.4313 35.9336 39.0414 36.0526 41.3405Z" fill="white"/>
<path d="M36.1413 43.2341C36.2717 43.2341 36.4021 43.2341 36.5317 43.2341C36.7583 43.2341 36.7583 42.8828 36.5317 42.8828C36.3956 42.8828 36.2603 42.8828 36.125 42.8828C35.2701 42.8828 34.4144 42.8828 33.5595 42.8828C33.3754 42.8828 33.3485 43.1059 33.4634 43.1927C33.4797 43.2049 33.4992 43.2122 33.5212 43.217C33.5359 43.2211 33.5424 43.2333 33.5595 43.2333C34.4201 43.2341 35.2807 43.2341 36.1413 43.2341Z" fill="black"/>
<path d="M36.3079 47.1091C36.4188 47.1091 36.5304 47.1091 36.6421 47.1091C36.8686 47.1091 36.8695 46.7578 36.6421 46.7578C36.5247 46.7578 36.4082 46.7578 36.2916 46.7578C35.3275 46.7578 34.3634 46.7578 33.4002 46.7578C33.269 46.7578 33.2225 46.8722 33.2429 46.9712C33.251 47.0126 33.2722 47.0442 33.3064 47.0693C33.3333 47.0888 33.3586 47.1091 33.4002 47.1091C34.3692 47.1091 35.3381 47.1091 36.3079 47.1091Z" fill="black"/>
<path d="M33.1991 41.8669C34.1591 41.8669 35.1191 41.8669 36.0792 41.8669C36.3351 41.8669 36.591 41.8669 36.8469 41.8669C37.0734 41.8669 37.0734 41.5156 36.8469 41.5156C36.5853 41.5156 36.3237 41.5156 36.0629 41.5156C35.1086 41.5156 34.1534 41.5156 33.1991 41.5156C33.1396 41.5156 33.0981 41.5408 33.0695 41.5765C33.0386 41.6146 33.0312 41.6641 33.0369 41.7136C33.0467 41.7923 33.0964 41.8669 33.1991 41.8669Z" fill="black"/>
<path d="M32.7724 59.863C34.1317 59.863 35.4919 59.863 36.8513 59.863C37.0151 59.863 37.1789 59.863 37.3427 59.863C37.5693 59.863 37.5701 59.5117 37.3427 59.5117C37.174 59.5117 37.0053 59.5117 36.8366 59.5117C35.4821 59.5117 34.126 59.5117 32.7716 59.5117C32.651 59.5117 32.5988 59.6091 32.6061 59.7024C32.6061 59.7048 32.6078 59.7064 32.6086 59.708C32.6184 59.7883 32.6681 59.863 32.7724 59.863Z" fill="black"/>
<path d="M37.3258 71.2263C37.5483 71.2263 37.7708 71.2263 37.9933 71.2263C38.2207 71.2263 38.2207 70.875 37.9933 70.875C37.7659 70.875 37.5385 70.875 37.3112 70.875C35.5729 70.875 33.8329 70.875 32.0938 70.875C31.9764 70.875 31.9227 70.9675 31.9259 71.0583C31.9276 71.1013 31.9422 71.1427 31.9716 71.1744C32.0001 71.2044 32.0392 71.2271 32.093 71.2271C33.8386 71.2263 35.5826 71.2263 37.3258 71.2263Z" fill="black"/>
<path d="M103.801 41.3118C104.44 41.3118 105.078 41.3118 105.717 41.3118C105.915 41.3118 105.989 41.4992 105.943 41.6436C105.957 41.6736 105.965 41.7093 105.965 41.7491C105.965 42.8159 105.965 43.8835 105.965 44.9504C109.363 44.9504 112.761 44.9504 116.16 44.9504C115.672 39.5529 110.558 37.7065 110.558 37.7065L109.759 34.2188H109.744L109.405 36.8238C109.405 36.8238 108.24 36.87 106.906 37.5604C105.914 39.4921 104.514 40.7536 103.801 41.3118Z" fill="#D1CABC"/>
<path d="M116.22 45.7033C116.216 45.6181 116.211 45.5313 116.207 45.4453C112.794 45.4453 109.382 45.4453 105.969 45.4453C105.969 45.5313 105.969 45.6173 105.969 45.7033H116.22Z" fill="#D1CABC"/>
<path d="M108.832 49.2594C108.834 49.239 108.837 49.2244 108.832 49.2594V49.2594Z" fill="#D1CABC"/>
<path d="M111.7 49.2237L111.701 49.2253L111.691 49.1653L111.667 49.0452C111.643 48.9405 111.614 48.8367 111.574 48.7369C111.483 48.4976 111.336 48.2696 111.132 48.1098C110.604 47.6968 109.736 47.7682 109.28 48.2517C109.108 48.4351 108.991 48.6671 108.917 48.9056C108.888 48.9981 108.866 49.0914 108.846 49.1855L108.832 49.265C108.831 49.2691 108.831 49.274 108.831 49.2764C108.808 50.1769 108.828 51.0807 108.83 51.982C109.788 51.982 110.747 51.982 111.706 51.982C111.706 51.4417 111.706 50.9022 111.706 50.3619C111.706 49.9855 111.731 49.5993 111.7 49.2237Z" fill="#D1CABC"/>
<path d="M105.953 47.4583C105.954 47.4648 105.956 47.4704 105.956 47.4769C106.135 47.5678 106.295 47.7057 106.41 47.8899C106.658 48.2898 106.758 48.8107 106.774 49.2772C106.806 50.1769 106.776 51.0831 106.775 51.9836C107.295 51.9836 107.814 51.9836 108.333 51.9836C108.333 51.4108 108.333 50.8389 108.333 50.2653C108.333 49.8783 108.293 49.4767 108.359 49.0938C108.457 48.5267 108.748 47.9686 109.237 47.6441C109.92 47.1914 110.944 47.2611 111.548 47.8144C111.937 48.1698 112.157 48.7182 112.201 49.2358C112.232 49.626 112.205 50.0292 112.205 50.4211C112.205 50.9419 112.205 51.4619 112.205 51.982C112.882 51.982 113.559 51.982 114.236 51.982C114.236 51.4522 114.236 50.9224 114.236 50.3927C114.236 49.9968 114.207 49.5903 114.242 49.1952C114.289 48.6655 114.413 48.0554 114.795 47.6578C115.254 47.1776 115.947 47.3155 116.314 47.8079C116.305 47.5572 116.294 47.2944 116.284 47.0234C112.846 47.0234 109.409 47.0234 105.97 47.0234C105.97 47.1411 105.97 47.2587 105.97 47.3763C105.969 47.4096 105.961 47.4339 105.953 47.4583Z" fill="#D1CABC"/>
<path d="M104.488 48.239C104.556 48.0622 104.646 47.8983 104.763 47.7539C104.672 47.7539 104.58 47.7539 104.488 47.7539C104.488 47.9154 104.488 48.0776 104.488 48.239Z" fill="#D1CABC"/>
<path d="M116.243 49.2735C116.228 48.8963 116.151 48.472 115.946 48.141C115.835 47.9617 115.661 47.823 115.438 47.8514C115.201 47.8814 115.055 48.1004 114.963 48.2976C114.796 48.6513 114.734 49.0391 114.734 49.4179C114.734 50.2738 114.734 51.1289 114.734 51.984C115.238 51.984 115.741 51.984 116.244 51.984C116.244 51.0827 116.275 50.174 116.243 49.2735Z" fill="#D1CABC"/>
<path d="M106.277 49.2735C106.263 48.8963 106.185 48.472 105.981 48.141C105.87 47.9617 105.695 47.823 105.473 47.8514C105.236 47.8814 105.091 48.1004 104.998 48.2976C104.831 48.6513 104.77 49.0391 104.77 49.4179C104.77 50.2738 104.77 51.1289 104.77 51.984C105.272 51.984 105.776 51.984 106.279 51.984C106.28 51.0827 106.311 50.174 106.277 49.2735Z" fill="#D1CABC"/>
<path d="M105.969 46.5314C109.399 46.5314 112.83 46.5314 116.26 46.5314C116.247 46.2629 116.232 45.9903 116.22 45.7031H105.969C105.969 45.979 105.969 46.2556 105.969 46.5314Z" fill="#D1CABC"/>
<path d="M116.163 44.9504C116.532 44.9504 116.901 44.9504 117.269 44.9504C117.413 44.9504 117.489 45.0518 117.504 45.1621C117.52 44.3297 117.409 38.5778 111.248 36.7978L110.935 34.2188H109.762L110.56 37.7065C110.56 37.7065 115.676 39.5537 116.163 44.9504Z" fill="white"/>
<path d="M117.269 45.4426C116.915 45.4426 116.561 45.4426 116.207 45.4426C116.211 45.5286 116.216 45.6154 116.22 45.7006C116.233 45.9878 116.247 46.2603 116.26 46.5289C116.565 46.5289 116.869 46.5289 117.174 46.5289C117.292 46.5289 117.366 46.5962 117.397 46.6814H119.304V45.2673H117.5C117.5 45.2673 117.501 45.2479 117.501 45.2422C117.483 45.3493 117.408 45.4426 117.269 45.4426Z" fill="white"/>
<path d="M117.177 47.0254C116.879 47.0254 116.582 47.0254 116.285 47.0254C116.296 47.2956 116.306 47.5593 116.315 47.8099C116.336 47.8367 116.359 47.8611 116.377 47.8903C116.626 48.2902 116.726 48.8111 116.742 49.2775C116.774 50.1773 116.744 51.0834 116.743 51.984C116.952 51.984 117.16 51.984 117.368 51.984V46.9297C117.328 46.9857 117.266 47.0254 117.177 47.0254Z" fill="white"/>
<path d="M117.174 46.5312C116.869 46.5312 116.565 46.5312 116.26 46.5312C112.83 46.5312 109.399 46.5312 105.969 46.5312C105.969 46.6968 105.969 46.8614 105.969 47.0269C109.406 47.0269 112.844 47.0269 116.282 47.0269C116.58 47.0269 116.877 47.0269 117.174 47.0269C117.263 47.0269 117.325 46.9864 117.364 46.9312C117.414 46.8606 117.426 46.7657 117.397 46.6846C117.366 46.5994 117.292 46.5312 117.174 46.5312Z" fill="black"/>
<path d="M117.269 44.9492C116.901 44.9492 116.531 44.9492 116.163 44.9492C112.766 44.9492 109.367 44.9492 105.969 44.9492C105.969 45.1147 105.969 45.2794 105.969 45.4449C109.382 45.4449 112.794 45.4449 116.207 45.4449C116.561 45.4449 116.915 45.4449 117.269 45.4449C117.408 45.4449 117.483 45.3508 117.501 45.2453C117.506 45.2169 117.507 45.1894 117.504 45.161C117.49 45.0506 117.414 44.9492 117.269 44.9492Z" fill="black"/>
<path d="M112.2 49.2333C112.157 48.7148 111.936 48.1672 111.547 47.8119C110.943 47.2586 109.92 47.188 109.237 47.6415C108.747 47.9652 108.456 48.5242 108.358 49.0913C108.292 49.475 108.332 49.8758 108.332 50.2628C108.332 50.8355 108.332 51.4083 108.332 51.9811C108.498 51.9811 108.664 51.9811 108.829 51.9811C108.827 51.0797 108.808 50.176 108.831 49.2754C108.831 49.273 108.832 49.2681 108.832 49.2641L108.846 49.1846C108.864 49.0905 108.887 48.9972 108.917 48.9047C108.992 48.6662 109.108 48.4341 109.28 48.2508C109.736 47.7665 110.604 47.6951 111.132 48.1088C111.335 48.2686 111.483 48.4966 111.574 48.7359C111.613 48.8357 111.643 48.9396 111.666 49.0442L111.691 49.1643L111.701 49.2243L111.7 49.2227C111.731 49.5983 111.705 49.9845 111.705 50.3626C111.705 50.9029 111.705 51.4424 111.705 51.9827C111.872 51.9827 112.038 51.9827 112.203 51.9827C112.203 51.4627 112.203 50.9426 112.203 50.4218C112.203 50.0275 112.232 49.6243 112.2 49.2333ZM108.832 49.256C108.834 49.2357 108.837 49.2211 108.832 49.256V49.256Z" fill="black"/>
<path d="M114.797 47.6609C114.415 48.0584 114.291 48.6685 114.244 49.1983C114.209 49.5925 114.238 49.999 114.238 50.3957C114.238 50.9255 114.238 51.4552 114.238 51.985C114.404 51.985 114.569 51.985 114.735 51.985C114.735 51.1299 114.735 50.2748 114.735 49.4189C114.735 49.0401 114.797 48.6523 114.963 48.2986C115.056 48.1006 115.202 47.8824 115.438 47.8524C115.661 47.824 115.836 47.9627 115.946 48.142C116.151 48.4738 116.229 48.8981 116.243 49.2745C116.276 50.175 116.245 51.0837 116.245 51.985C116.41 51.985 116.576 51.985 116.742 51.985C116.743 51.0845 116.773 50.1783 116.741 49.2786C116.725 48.8129 116.625 48.2921 116.376 47.8913C116.358 47.8621 116.334 47.8386 116.314 47.811C115.949 47.3185 115.257 47.1806 114.797 47.6609Z" fill="black"/>
<path d="M106.776 49.2768C106.76 48.8111 106.659 48.2903 106.412 47.8895C106.297 47.7045 106.137 47.5666 105.958 47.4766C105.972 47.6096 105.896 47.7532 105.722 47.7532C105.403 47.7532 105.082 47.7532 104.763 47.7532C104.646 47.8976 104.556 48.0615 104.488 48.2384C104.488 49.4869 104.488 50.7347 104.488 51.9832C104.582 51.9832 104.676 51.9832 104.77 51.9832C104.77 51.1281 104.77 50.273 104.77 49.4171C104.77 49.0383 104.832 48.6505 104.998 48.2968C105.091 48.0988 105.236 47.8806 105.474 47.8506C105.696 47.8222 105.87 47.9609 105.981 48.1402C106.186 48.472 106.265 48.8963 106.278 49.2727C106.312 50.1732 106.28 51.0819 106.28 51.9832C106.446 51.9832 106.611 51.9832 106.777 51.9832C106.778 51.0827 106.808 50.1765 106.776 49.2768Z" fill="black"/>
<path d="M59.5851 44.9504C63.3519 44.9504 67.1178 44.9504 70.8854 44.9504C70.8854 43.8835 70.8854 42.8159 70.8854 41.7491C70.8854 41.6679 70.9172 41.6087 70.9652 41.5681V41.5592H70.9815C71.0704 41.4967 71.1991 41.4967 71.288 41.5592H71.5528C71.5528 41.4351 71.6327 41.311 71.7932 41.311C72.2129 41.311 72.6326 41.311 73.0524 41.311C72.3393 40.7528 70.9392 39.4913 69.9457 37.5612C68.6116 36.87 67.4454 36.8238 67.4454 36.8238L67.1056 34.2188H66.069L65.6052 36.7994C59.427 38.5826 59.3317 44.3654 59.3488 45.1718C59.3602 45.0575 59.4368 44.9504 59.5851 44.9504Z" fill="#D1CABC"/>
<path d="M59.3555 45.2344C59.3563 45.2472 59.3571 45.2721 59.3571 45.2721H59.3619C59.3587 45.2592 59.3571 45.2472 59.3555 45.2344Z" fill="#D1CABC"/>
<path d="M59.4896 45.7011H70.8852C70.8852 45.6151 70.8852 45.5291 70.8852 45.4431C67.1176 45.4431 63.3517 45.4431 59.5849 45.4431C59.457 45.4431 59.3828 45.3636 59.3567 45.2695H59.3518H57.5508V46.6828H59.457C59.4643 46.6617 59.4765 46.6438 59.4896 46.626V45.7011Z" fill="#D1CABC"/>
<path d="M72.1897 47.8675C72.2615 47.9762 72.3201 48.0971 72.3707 48.222C72.3707 48.0662 72.3707 47.9097 72.3707 47.7539C72.2794 47.7539 72.1889 47.7539 72.0977 47.7539C72.1286 47.7912 72.162 47.8261 72.1897 47.8675Z" fill="#D1CABC"/>
<path d="M60.1173 50.3654C60.1173 49.9785 60.0961 49.5866 60.1222 49.2013C60.158 48.6812 60.2762 48.0817 60.638 47.6834C61.1107 47.1625 61.8621 47.3142 62.2256 47.8683C62.488 48.2683 62.6013 48.8045 62.6216 49.2783C62.6591 50.1772 62.6265 51.0851 62.6233 51.9848C63.2997 51.9848 63.9761 51.9848 64.6525 51.9848C64.6525 51.4047 64.6525 50.8246 64.6525 50.2446C64.6525 49.8633 64.6175 49.4731 64.6753 49.095C64.7617 48.5287 65.0388 47.9706 65.5262 47.6452C66.2115 47.1885 67.2319 47.2672 67.839 47.8156C68.231 48.1701 68.4665 48.7169 68.5187 49.237C68.5594 49.6369 68.5244 50.0555 68.5244 50.4579C68.5244 50.9666 68.5244 51.4753 68.5244 51.984C69.0435 51.984 69.5627 51.984 70.0818 51.984C70.0818 51.4437 70.0818 50.9041 70.0818 50.3638C70.0818 49.9769 70.0606 49.585 70.0875 49.1997C70.1225 48.6796 70.2407 48.0801 70.6025 47.6817C70.6938 47.582 70.7965 47.5138 70.9033 47.4611L70.9041 47.4578C70.8959 47.4335 70.8878 47.4092 70.8878 47.3783C70.8878 47.2607 70.8878 47.143 70.8878 47.0254C67.1528 47.0254 63.4179 47.0254 59.6829 47.0254C59.5932 47.0254 59.5313 46.9857 59.4922 46.9297V51.9832C59.7008 51.9832 59.9094 51.9832 60.1181 51.9832C60.1173 51.4445 60.1173 50.9049 60.1173 50.3654Z" fill="#D1CABC"/>
<path d="M68.0256 49.5426C68.0256 49.455 68.0272 49.3674 68.0248 49.2798C68.0248 49.2765 68.0248 49.2716 68.0239 49.2668C67.9645 48.8368 67.7738 48.3809 67.4225 48.1099C66.8936 47.7018 66.0265 47.7618 65.5725 48.2519C65.4038 48.4352 65.2938 48.668 65.2246 48.9058C65.1977 48.9982 65.1773 49.0915 65.161 49.1856C65.1585 49.2011 65.1569 49.2059 65.1561 49.2092C65.1561 49.2124 65.1561 49.2132 65.1553 49.223L65.1496 49.2765C65.1211 50.1762 65.1488 51.0824 65.1496 51.9821C66.108 51.9821 67.0672 51.9821 68.0256 51.9821C68.0256 51.4524 68.0256 50.9226 68.0256 50.3928C68.0256 50.1097 68.0256 49.8266 68.0256 49.5426Z" fill="#D1CABC"/>
<path d="M62.1218 49.2719C62.1047 48.8979 62.0142 48.446 61.7933 48.1166C61.6727 47.9365 61.4869 47.81 61.2612 47.8578C61.0371 47.9057 60.9018 48.1239 60.8162 48.3195C60.6646 48.6683 60.6133 49.0455 60.6133 49.4187C60.6133 50.273 60.6133 51.1281 60.6133 51.9832C61.1169 51.9832 61.6206 51.9832 62.1242 51.9832C62.1283 51.0811 62.1625 50.1708 62.1218 49.2719Z" fill="#D1CABC"/>
<path d="M72.0897 49.2719C72.0726 48.8979 71.9829 48.446 71.7621 48.1166C71.6398 47.9365 71.4557 47.81 71.2299 47.8578C71.0058 47.9057 70.8697 48.1239 70.785 48.3195C70.6334 48.6683 70.582 49.0455 70.582 49.4187C70.582 50.273 70.582 51.1281 70.582 51.9832C71.0857 51.9832 71.5893 51.9832 72.093 51.9832C72.0954 51.0811 72.1305 50.1708 72.0897 49.2719Z" fill="#D1CABC"/>
<path d="M59.4922 45.7031V46.6272C59.5321 46.5712 59.5932 46.5314 59.6829 46.5314C63.4179 46.5314 67.1528 46.5314 70.8878 46.5314C70.8878 46.2556 70.8878 45.979 70.8878 45.7031H59.4922Z" fill="#D1CABC"/>
<path d="M59.681 47.0269C63.416 47.0269 67.1509 47.0269 70.8859 47.0269C70.8859 46.8614 70.8859 46.6968 70.8859 46.5312C67.1509 46.5312 63.416 46.5312 59.681 46.5312C59.5913 46.5312 59.5294 46.571 59.4903 46.627C59.4772 46.6448 59.465 46.6635 59.4577 46.6838C59.4275 46.7649 59.4398 46.8606 59.4903 46.9312C59.5294 46.9872 59.5913 47.0269 59.681 47.0269Z" fill="black"/>
<path d="M59.5854 45.4449C63.3522 45.4449 67.1181 45.4449 70.8857 45.4449C70.8857 45.2794 70.8857 45.1147 70.8857 44.9492C67.1181 44.9492 63.3522 44.9492 59.5854 44.9492C59.4371 44.9492 59.3605 45.0563 59.3491 45.1699C59.3466 45.191 59.3474 45.2121 59.3507 45.2332C59.3523 45.2462 59.3531 45.2583 59.3572 45.2713C59.3833 45.3654 59.4575 45.4449 59.5854 45.4449Z" fill="black"/>
<path d="M68.5212 49.233C68.4691 48.713 68.2335 48.1654 67.8415 47.8116C67.2344 47.2632 66.2141 47.1845 65.5287 47.6413C65.0413 47.9658 64.7643 48.5248 64.6779 49.091C64.62 49.4691 64.655 49.8593 64.655 50.2406C64.655 50.8207 64.655 51.4007 64.655 51.9808C64.8213 51.9808 64.9867 51.9808 65.153 51.9808C65.1522 51.0803 65.1253 50.1749 65.153 49.2752L65.1587 49.2217C65.1595 49.2111 65.1595 49.2111 65.1595 49.2079C65.1603 49.2038 65.1611 49.1998 65.1644 49.1843C65.1815 49.0902 65.2011 48.9969 65.228 48.9044C65.2972 48.6667 65.4073 48.4339 65.5759 48.2506C66.0299 47.7605 66.8962 47.7005 67.4259 48.1086C67.7772 48.3803 67.9679 48.8355 68.0274 49.2655C68.0274 49.2695 68.0282 49.2752 68.0282 49.2784C68.0306 49.3661 68.029 49.4537 68.029 49.5413C68.029 49.8253 68.029 50.1084 68.029 50.3923C68.029 50.9221 68.029 51.4519 68.029 51.9816C68.1952 51.9816 68.3607 51.9816 68.5269 51.9816C68.5269 51.473 68.5269 50.9643 68.5269 50.4556C68.5269 50.0524 68.562 49.6338 68.5212 49.233ZM68.0257 49.2476C68.0233 49.229 68.0241 49.2338 68.0257 49.2476V49.2476Z" fill="black"/>
<path d="M62.6219 49.2747C62.6015 48.8018 62.4882 48.2647 62.2258 47.8647C61.8623 47.3106 61.1109 47.1589 60.6383 47.6798C60.2772 48.0781 60.1582 48.6776 60.1224 49.1977C60.0963 49.583 60.1175 49.9749 60.1175 50.3618C60.1175 50.9022 60.1175 51.4417 60.1175 51.982C60.2837 51.982 60.4492 51.982 60.6146 51.982C60.6146 51.1277 60.6146 50.2726 60.6146 49.4175C60.6146 49.0435 60.666 48.6663 60.8175 48.3182C60.9023 48.1227 61.0384 47.9045 61.2625 47.8566C61.4883 47.8088 61.6741 47.9353 61.7947 48.1154C62.0155 48.4448 62.106 48.8967 62.1231 49.2707C62.1639 50.1696 62.1288 51.0806 62.1256 51.9812C62.291 51.9812 62.4572 51.9812 62.6227 51.9812C62.6268 51.0815 62.6594 50.1736 62.6219 49.2747Z" fill="black"/>
<path d="M72.1913 47.8666C72.1636 47.8252 72.1301 47.7903 72.0992 47.753C71.7789 47.753 71.4586 47.753 71.1375 47.753C70.9574 47.753 70.8824 47.598 70.9036 47.4609C70.7969 47.5129 70.6942 47.581 70.6029 47.6816C70.2419 48.0799 70.1229 48.6795 70.0879 49.1995C70.061 49.5849 70.0822 49.9767 70.0822 50.3637C70.0822 50.904 70.0822 51.4435 70.0822 51.9838C70.2484 51.9838 70.4147 51.9838 70.5801 51.9838C70.5801 51.1296 70.5801 50.2745 70.5801 49.4194C70.5801 49.0454 70.6314 48.6681 70.783 48.3201C70.8678 48.1246 71.0039 47.9063 71.228 47.8585C71.4537 47.8106 71.6387 47.9372 71.7602 48.1173C71.981 48.4467 72.0707 48.8985 72.0878 49.2725C72.1285 50.1714 72.0935 51.0825 72.0902 51.983C72.1839 51.983 72.2768 51.983 72.3706 51.983C72.3706 50.7288 72.3706 49.4754 72.3706 48.2211C72.3217 48.0954 72.263 47.9753 72.1913 47.8666Z" fill="black"/>
<path d="M88.4537 10.4304H88.4578C88.5866 10.4871 89.1432 10.7346 90.0038 11.1938L89.2475 3.83628C89.2051 3.42334 88.8563 3.10938 88.4391 3.10938C88.0218 3.10938 87.6738 3.42334 87.6306 3.83628L86.8711 11.1849C87.8466 10.6665 88.4285 10.419 88.4285 10.419L88.4537 10.4304Z" fill="#EDE5D6"/>
<path d="M55.8399 75.9584C55.8048 74.9995 55.6223 73.9197 55.1553 73.0743C54.8758 72.5697 54.4039 72.1105 53.7764 72.2769C53.188 72.4326 52.8767 73.0833 52.69 73.6057C52.3543 74.5533 52.2703 75.5536 52.2703 76.5499C52.2703 78.5124 52.2703 80.4756 52.2703 82.4381C52.2703 82.4406 52.2695 82.4414 52.2695 82.443C53.461 82.443 54.6517 82.443 55.8431 82.443C55.8488 80.285 55.9181 78.1132 55.8399 75.9584Z" fill="#EDE5D6"/>
<path d="M73.7055 84.0195H22.8984C22.9897 87.117 23.1217 90.2137 23.3124 93.3071L23.3296 93.6218H73.7259C73.7129 93.5918 73.7047 93.5577 73.7047 93.518C73.7055 90.3516 73.7055 87.186 73.7055 84.0195Z" fill="#EDE5D6"/>
<path d="M112.189 66.796L112.173 66.7149L112.119 66.5129C112.072 66.3766 111.992 66.2298 111.868 66.1194C111.573 65.8541 111.048 65.9198 110.798 66.22C110.705 66.332 110.642 66.4772 110.601 66.6192L110.556 66.8106C110.554 66.826 110.552 66.8277 110.551 66.8341C110.552 66.8374 110.552 66.8358 110.552 66.8439C110.565 67.4028 110.556 67.9634 110.553 68.5224C111.099 68.5224 111.646 68.5224 112.192 68.5224C112.194 67.9529 112.199 67.3826 112.19 66.8131L112.189 66.796Z" fill="#EDE5D6"/>
<path d="M124.586 62.0501C124.562 61.1131 124.403 60.073 123.976 59.2325C123.716 58.7206 123.274 58.2225 122.637 58.3369C122.035 58.4448 121.697 59.0808 121.497 59.596C121.148 60.4981 121.016 61.4879 121.016 62.4509C121.016 64.5164 121.016 66.5827 121.016 68.6482C122.22 68.6482 123.425 68.6482 124.628 68.6482C124.604 68.6125 124.587 68.5703 124.587 68.516C124.586 66.3637 124.641 64.2016 124.586 62.0501Z" fill="#EDE5D6"/>
<path d="M49.8582 82.4488C50.4963 82.4488 51.1336 82.4488 51.7717 82.4488C51.7717 82.4464 51.7709 82.4456 51.7709 82.4439C51.7709 80.2592 51.6731 78.046 51.7766 75.8636C51.8304 74.7319 52.0227 73.3917 52.7252 72.466C53.5597 71.3675 54.9281 71.6782 55.5621 72.7921C56.091 73.721 56.298 74.9047 56.3363 75.9651C56.4145 78.1198 56.3445 80.2916 56.3388 82.4496C57.0176 82.4496 57.6965 82.4496 58.3745 82.4496C59.4266 82.4496 60.4787 82.4496 61.53 82.4496C61.53 82.4472 61.5292 82.4464 61.5292 82.4447C61.5292 81.0915 61.5292 79.7383 61.5292 78.3851C61.5292 77.4992 61.4453 76.5808 61.5586 75.7014C61.7167 74.4666 62.2407 73.1824 63.2757 72.4254C64.6554 71.417 66.7792 71.546 68.0261 72.7078C68.8777 73.5004 69.3749 74.7295 69.4849 75.875C69.5762 76.8291 69.4971 77.8245 69.4971 78.7834C69.4971 80.006 69.4971 81.2278 69.4971 82.4504C70.4539 82.4504 71.4114 82.4504 72.3682 82.4504C72.3682 80.0596 72.3682 77.6679 72.3682 75.2771C72.3682 67.6795 72.3682 60.0818 72.3682 52.4834C67.7604 52.4834 63.1535 52.4834 58.5457 52.4834C58.3273 52.4834 58.2621 52.2562 58.3403 52.1094H56.54L56.7234 52.3828H56.4545C56.4154 52.4169 56.3665 52.4412 56.3004 52.4412C54.0821 52.4412 51.8646 52.4412 49.6463 52.4412C49.5795 52.4412 49.5306 52.4169 49.4915 52.3828H49.4336V82.6971H49.617C49.6178 82.5721 49.6976 82.4488 49.8582 82.4488ZM60.9669 68.5248C61.1544 68.5248 61.3426 68.5248 61.53 68.5248C61.53 68.5224 61.5292 68.5216 61.5292 68.5199C61.5292 67.1667 61.5292 65.8135 61.5292 64.4603C61.5292 63.5744 61.4453 62.656 61.5586 61.7766C61.7167 60.5418 62.2407 59.2576 63.2757 58.5006C64.6554 57.4922 66.7792 57.6212 68.0261 58.783C68.8777 59.5756 69.3749 60.8047 69.4849 61.9502C69.5762 62.9043 69.4971 63.8997 69.4971 64.8586C69.4971 66.0812 69.4971 67.303 69.4971 68.5256C69.6625 68.5256 69.8288 68.5256 69.9942 68.5256C70.3161 68.5256 70.3145 69.0213 69.9942 69.0213C69.6218 69.0213 69.2485 69.0213 68.8761 69.0213C66.2397 69.0213 63.6033 69.0213 60.9669 69.0213C60.6466 69.0213 60.6475 68.5248 60.9669 68.5248ZM51.5109 68.6522C51.6112 68.6522 51.7122 68.6522 51.8125 68.6522C51.7888 68.6165 51.7709 68.5743 51.7709 68.5199C51.7709 66.3352 51.6731 64.122 51.7766 61.9397C51.8304 60.8079 52.0227 59.4677 52.7252 58.542C53.5597 57.4435 54.9281 57.7543 55.5621 58.8681C56.091 59.7971 56.298 60.9807 56.3363 62.0411C56.4162 64.238 56.3404 66.4528 56.3379 68.6522C56.4243 68.6522 56.5107 68.6522 56.5963 68.6522C56.9174 68.6522 56.9166 69.1479 56.5963 69.1479C54.9012 69.1479 53.206 69.1479 51.5109 69.1479C51.1898 69.1471 51.1898 68.6522 51.5109 68.6522Z" fill="#EDE5D6"/>
<path d="M55.8416 62.0366C55.8065 61.0784 55.624 59.9978 55.157 59.1525C54.8775 58.6479 54.4056 58.1887 53.7781 58.355C53.1897 58.5108 52.8784 59.1614 52.6917 59.6839C52.356 60.6322 52.272 61.6317 52.272 62.628C52.272 64.5905 52.272 66.553 52.272 68.5163C52.272 68.5706 52.2541 68.612 52.2305 68.6485C53.435 68.6485 54.6395 68.6485 55.844 68.6485C55.8473 66.4483 55.9214 64.2327 55.8416 62.0366Z" fill="#EDE5D6"/>
<path d="M112.189 80.7224L112.173 80.6404L112.119 80.4384C112.072 80.3029 111.992 80.1553 111.868 80.0449C111.573 79.7797 111.048 79.8462 110.798 80.1456C110.705 80.2575 110.642 80.4027 110.601 80.5447L110.556 80.7362C110.554 80.7516 110.552 80.754 110.551 80.7597C110.552 80.7629 110.552 80.7613 110.552 80.7702C110.565 81.3292 110.556 81.889 110.553 82.4488C111.099 82.4488 111.646 82.4488 112.192 82.4488C112.194 81.8793 112.199 81.3089 112.19 80.7394L112.189 80.7224Z" fill="#EDE5D6"/>
<path d="M101.314 93.5172V84.0195H74.2048C74.2048 87.186 74.2048 90.3516 74.2048 93.5172C74.2048 93.5569 74.1974 93.591 74.1836 93.621H102.675C102.662 93.591 102.654 93.5569 102.654 93.5172H101.314Z" fill="#EDE5D6"/>
<path d="M153.956 84.0195H126.626H126.064H103.15C103.15 87.186 103.15 90.3515 103.15 93.5172C103.15 93.5569 103.143 93.591 103.129 93.621H153.592C153.555 93.5813 153.53 93.5277 153.535 93.4555C153.73 90.3126 153.864 87.1673 153.956 84.0195Z" fill="#EDE5D6"/>
<path d="M104.485 82.4435C105.443 82.4435 106.4 82.4435 107.356 82.4435C107.356 81.0773 107.356 79.7111 107.356 78.3457C107.356 77.4501 107.261 76.5163 107.402 75.6287C107.588 74.4597 108.112 73.2655 109.057 72.5142C107.841 73.1267 107.386 74.0824 107.386 74.0824C107.386 74.0824 107.614 70.7975 111.17 70.7975C115.907 70.7975 115.648 75.9792 115.648 75.9792H115.321C115.38 76.9008 115.323 77.8443 115.323 78.7676C115.323 79.991 115.323 81.2144 115.323 82.4378C115.323 82.4402 115.323 82.441 115.323 82.4427C117.054 82.4427 118.784 82.4427 120.515 82.4427C120.515 81.1965 120.515 79.9504 120.515 78.7051C120.515 77.7478 120.466 76.7759 120.525 75.821C120.596 74.6828 120.81 73.3222 121.546 72.4096C121.606 72.3349 121.673 72.2838 121.738 72.223C120.647 72.7495 120.255 74.0824 120.255 74.0824C120.255 74.0824 120.396 70.7975 122.585 70.7975C125.499 70.7975 125.34 75.9792 125.34 75.9792H125.109C125.097 75.5881 125.051 75.1955 124.973 74.8158C125.031 75.2044 125.072 75.5947 125.082 75.9719C125.138 78.1234 125.082 80.2855 125.082 82.4378C125.082 82.4402 125.082 82.441 125.082 82.4427C125.409 82.4427 125.736 82.4427 126.064 82.4427V53.5781H104.484C104.484 53.9984 104.484 54.4186 104.484 54.8389C104.485 64.0412 104.485 73.2419 104.485 82.4435ZM120.256 68.6468C120.344 68.6468 120.43 68.6468 120.516 68.6468C120.516 67.3585 120.516 66.0702 120.516 64.7819C120.516 63.8246 120.467 62.8535 120.526 61.8978C120.597 60.7596 120.81 59.3991 121.546 58.4864C121.685 58.3144 121.838 58.1927 121.995 58.0929C120.708 58.5164 120.256 60.057 120.256 60.057C120.256 60.057 120.397 56.7721 122.585 56.7721C125.5 56.7713 125.341 61.953 125.341 61.953H125.109C125.096 61.4808 125.031 61.0054 124.922 60.5543C125.018 61.0533 125.07 61.5619 125.082 62.0495C125.139 64.201 125.083 66.3631 125.083 68.5154C125.083 68.5698 125.065 68.6111 125.042 68.6477C125.142 68.6477 125.243 68.6477 125.343 68.6477C125.664 68.6477 125.664 69.1433 125.343 69.1433C123.648 69.1433 121.953 69.1433 120.257 69.1433C119.936 69.1417 119.937 68.6468 120.256 68.6468ZM106.858 68.5195C107.025 68.5195 107.191 68.5195 107.356 68.5195C107.356 67.1533 107.356 65.7879 107.356 64.4217C107.356 63.5269 107.261 62.5923 107.402 61.7047C107.6 60.457 108.178 59.1727 109.249 58.4385C109.333 58.3817 109.425 58.342 109.513 58.2933C107.957 58.8693 107.387 60.0562 107.387 60.0562C107.387 60.0562 107.615 56.7713 111.171 56.7713C115.908 56.7705 115.649 61.9522 115.649 61.9522H115.315C115.315 61.9587 115.318 61.9643 115.318 61.9708C115.386 62.9192 115.324 63.8928 115.324 64.8444C115.324 66.0678 115.324 67.2912 115.324 68.5146C115.324 68.517 115.323 68.5179 115.323 68.5195C115.511 68.5195 115.698 68.5195 115.886 68.5195C116.208 68.5195 116.207 69.0152 115.886 69.0152C115.513 69.0152 115.141 69.0152 114.768 69.0152C112.132 69.0152 109.495 69.0152 106.858 69.0152C106.537 69.016 106.538 68.5195 106.858 68.5195Z" fill="#EDE5D6"/>
<path d="M68.9865 61.9188C68.8594 60.8512 68.3818 59.6992 67.5359 59.0063C66.2132 57.9225 64.043 58.1326 62.9794 59.468C62.4187 60.1721 62.0732 61.1546 62.03 62.0543C61.9273 64.1969 62.03 66.3719 62.03 68.517C62.03 68.5194 62.0292 68.5202 62.0292 68.5218C62.0488 68.5218 62.0691 68.5218 62.0895 68.5218C62.7814 68.5218 63.4741 68.5218 64.166 68.5218C64.166 68.1795 64.166 67.8379 64.166 67.4956C64.166 67.2327 64.1456 66.9658 64.1831 66.7046C64.2402 66.3079 64.4211 65.9144 64.7544 65.6759C65.2198 65.3424 65.9215 65.3984 66.3346 65.7878C66.6101 66.0474 66.7666 66.4442 66.7992 66.8165C66.8236 67.0867 66.8032 67.3682 66.8032 67.6408C66.8032 67.9345 66.8032 68.2282 66.8032 68.5218C67.5359 68.5218 68.2694 68.5218 69.002 68.5218C69.002 67.2522 69.002 65.9825 69.002 64.7129C69.002 63.7978 69.0941 62.8291 68.9865 61.9188Z" fill="#EDE5D6"/>
<path d="M114.825 64.7192C114.825 63.8041 114.894 62.859 114.816 61.9479C114.728 60.903 114.29 59.7745 113.495 59.0678C112.21 57.9239 110.031 58.1154 108.921 59.398C108.316 60.0982 107.918 61.1196 107.855 62.0461C107.787 63.0666 107.853 64.114 107.853 65.1378C107.853 66.2663 107.853 67.3948 107.853 68.5233C107.894 68.5233 107.935 68.5233 107.976 68.5233C108.668 68.5233 109.36 68.5233 110.052 68.5233C110.052 68.1866 110.052 67.8491 110.052 67.5125C110.052 67.2447 110.029 66.9705 110.071 66.706C110.135 66.3093 110.325 65.915 110.659 65.6773C111.124 65.3463 111.828 65.3966 112.239 65.7893C112.511 66.0497 112.66 66.4464 112.687 66.818C112.706 67.0825 112.689 67.3534 112.689 67.6179C112.689 67.9197 112.689 68.2207 112.689 68.5225C113.402 68.5225 114.114 68.5225 114.825 68.5225C114.825 68.5201 114.825 68.5192 114.825 68.5176C114.825 67.252 114.825 65.9848 114.825 64.7192Z" fill="#EDE5D6"/>
<path d="M66.2966 66.7959L66.2795 66.7147L66.2208 66.5127C66.18 66.3943 66.0822 66.2263 65.9608 66.1193C65.6642 65.858 65.1369 65.9148 64.8924 66.2199C64.8028 66.331 64.7482 66.46 64.7058 66.619L64.6658 66.8105L64.6667 66.8129L64.6634 66.8437C64.6341 67.3994 64.6561 67.9641 64.661 68.5222C65.2086 68.5222 65.7563 68.5222 66.3039 68.5222C66.3023 67.9527 66.2974 67.3824 66.3007 66.8129C66.299 66.9062 66.3015 66.8267 66.2966 66.7959Z" fill="#EDE5D6"/>
<path d="M114.825 78.6403C114.825 77.7252 114.894 76.7808 114.816 75.8697C114.728 74.8248 114.29 73.6963 113.495 72.9897C112.21 71.8458 110.031 72.0373 108.921 73.3199C108.316 74.02 107.918 75.0414 107.855 75.9679C107.787 76.9885 107.853 78.0359 107.853 79.0597C107.853 80.1882 107.853 81.3167 107.853 82.4452C108.586 82.4452 109.32 82.4452 110.052 82.4452C110.052 82.1077 110.052 81.771 110.052 81.4335C110.052 81.1666 110.029 80.8924 110.071 80.6279C110.135 80.2312 110.325 79.8369 110.659 79.5992C111.124 79.2682 111.828 79.3185 112.239 79.712C112.511 79.9724 112.66 80.3691 112.687 80.7407C112.706 81.0043 112.689 81.2761 112.689 81.5406C112.689 81.8424 112.689 82.1434 112.689 82.4452C113.402 82.4452 114.114 82.4452 114.825 82.4452C114.825 82.4427 114.825 82.4419 114.825 82.4403C114.825 81.1731 114.825 79.9067 114.825 78.6403Z" fill="#EDE5D6"/>
<path d="M66.2966 80.7219L66.2795 80.6399L66.2208 80.4379C66.18 80.3203 66.0822 80.1523 65.9608 80.0444C65.6642 79.784 65.1369 79.8408 64.8924 80.1451C64.8028 80.2562 64.7482 80.3852 64.7058 80.5442L64.6658 80.7357L64.6667 80.7381L64.6634 80.7689C64.6341 81.3246 64.6561 81.8893 64.661 82.4474C65.2086 82.4474 65.7563 82.4474 66.3039 82.4474C66.3023 81.8779 66.2974 81.3076 66.3007 80.7381C66.299 80.8322 66.3015 80.7527 66.2966 80.7219Z" fill="#EDE5D6"/>
<path d="M90.2079 76.9593C90.1068 76.7954 89.996 76.638 89.8762 76.4879C89.494 76.0141 89.018 75.6028 88.428 75.4219C87.838 75.6028 87.362 76.0141 86.9798 76.4879C86.8592 76.6388 86.7264 76.8035 86.6375 76.9763C86.5503 77.1467 86.6 77.2497 86.6 77.4631C86.6 79.1246 86.6 80.7861 86.6 82.4476C87.195 82.4476 87.7899 82.4476 88.3848 82.4476C88.4011 82.4476 88.4133 82.4533 88.4272 82.4565C88.4419 82.4541 88.4533 82.4476 88.4696 82.4476C89.0645 82.4476 89.6594 82.4476 90.2551 82.4476C90.2551 80.7861 90.2551 79.1246 90.2551 77.4631C90.256 77.2302 90.3179 77.1377 90.2079 76.9593Z" fill="#EDE5D6"/>
<path d="M96.9257 63.4617C96.4669 61.8294 94.9576 60.6011 93.608 59.686C92.8533 59.1749 92.0547 58.7457 91.2495 58.3173C90.3726 57.8508 89.4867 57.3933 88.5308 57.1085C88.4868 57.0955 88.4542 57.0736 88.4273 57.0469C88.4004 57.0728 88.3678 57.0947 88.3246 57.1085C87.3442 57.3998 86.438 57.8744 85.5391 58.353C84.7575 58.7692 83.9817 59.1878 83.2474 59.686C81.897 60.6003 80.3885 61.8294 79.9297 63.4617C79.9305 69.7661 79.9867 76.0706 79.9875 82.375C79.9875 82.401 79.9794 82.4221 79.9737 82.444C82.016 82.444 84.0591 82.444 86.1014 82.444C86.1014 81.5167 86.1014 80.5902 86.1014 79.6629C86.1014 79.2135 86.1014 78.764 86.1014 78.3138C86.1014 78.0517 86.1014 77.7897 86.1014 77.5276C86.1014 77.3386 86.0582 77.0855 86.1103 76.9029C86.2016 76.5833 86.5195 76.2539 86.7297 76.0113C87.1608 75.5132 87.6987 75.1027 88.3409 74.921C88.3613 74.9153 88.3792 74.9177 88.3979 74.9169C88.4077 74.9153 88.4175 74.9153 88.4273 74.9145C88.4371 74.9153 88.4477 74.9145 88.4566 74.9169C88.4754 74.9177 88.4933 74.9153 88.5137 74.921C89.155 75.1027 89.6929 75.5132 90.1248 76.0113C90.3343 76.2531 90.6521 76.5841 90.7442 76.9029C90.8013 77.1057 90.7532 77.384 90.7532 77.5942C90.7532 77.8335 90.7532 78.0736 90.7532 78.3129C90.7532 78.7624 90.7532 79.2118 90.7532 79.6621C90.7532 80.5894 90.7532 81.5159 90.7532 82.4432C92.7963 82.4432 94.8386 82.4432 96.8809 82.4432C96.8752 82.4213 96.867 82.401 96.867 82.3742C96.8678 76.0706 96.9249 69.7661 96.9257 63.4617ZM90.754 64.7865C90.754 64.9771 90.754 65.1686 90.754 65.3593C90.754 65.7446 90.754 66.13 90.754 66.5153C90.754 67.2771 90.754 68.0381 90.754 68.7999C90.754 68.9224 90.6806 68.997 90.5902 69.0254C90.5519 69.0562 90.5046 69.0798 90.441 69.0798C89.8054 69.0798 89.1689 69.0798 88.534 69.0798C88.4933 69.0798 88.4582 69.0717 88.4281 69.0579C88.3979 69.0717 88.3621 69.0798 88.3222 69.0798C87.6873 69.0798 87.0508 69.0798 86.4151 69.0798C86.3516 69.0798 86.3043 69.057 86.266 69.0254C86.1755 68.997 86.103 68.9224 86.103 68.7999C86.103 68.0227 86.103 67.2463 86.103 66.4682C86.103 66.0983 86.103 65.7284 86.103 65.3593C86.103 65.1508 86.103 64.9414 86.103 64.7321C86.103 64.6137 86.0843 64.4912 86.1405 64.3825C86.279 64.1107 86.5789 63.8559 86.8039 63.6629C87.2488 63.2816 87.7647 62.9903 88.3417 62.8646C88.3645 62.8597 88.3849 62.8629 88.4061 62.8637C88.4134 62.8621 88.4216 62.8645 88.4289 62.8637C88.4362 62.8645 88.4452 62.8629 88.4517 62.8637C88.4729 62.8629 88.4933 62.8597 88.5161 62.8646C89.1045 62.9927 89.6277 63.2921 90.0784 63.684C90.2919 63.8697 90.5902 64.1212 90.7173 64.3825C90.7776 64.5074 90.754 64.6518 90.754 64.7865Z" fill="#EDE5D6"/>
<path d="M98.5203 75.9671C98.5203 68.6291 98.5203 61.2903 98.5203 53.9514C95.2547 53.9433 91.99 53.8306 88.7236 53.8281C85.2601 53.8306 81.7981 53.9441 78.3345 53.9514C78.3345 55.9853 78.3345 58.0184 78.3345 60.0523C78.3345 67.4723 78.3345 74.8922 78.3345 82.3122C78.3345 82.3665 78.3166 82.4079 78.293 82.4444C78.6964 82.4444 79.0998 82.4444 79.5032 82.4444C79.4975 82.4225 79.4893 82.4022 79.4893 82.3755C79.4893 76.0572 79.4323 69.7389 79.4315 63.4207C79.4315 63.4061 79.4372 63.3964 79.4388 63.3834C79.4404 63.3737 79.438 63.3655 79.4404 63.355C79.4429 63.3461 79.447 63.3388 79.4494 63.3298C79.4518 63.3233 79.4535 63.3169 79.4559 63.3112C79.9327 61.6432 81.3923 60.3833 82.7638 59.4187C83.5878 58.8394 84.4663 58.3624 85.3538 57.891C86.2682 57.4051 87.1948 56.9289 88.1907 56.6319C88.2934 56.6019 88.3732 56.6368 88.427 56.6968C88.4808 56.6368 88.5607 56.6019 88.6625 56.6319C89.6829 56.9353 90.6307 57.4278 91.567 57.9259C92.4317 58.3867 93.2866 58.854 94.0902 59.4187C95.4617 60.3833 96.9222 61.6432 97.3981 63.312C97.4005 63.3177 97.4022 63.3242 97.4046 63.3298C97.4071 63.3388 97.4111 63.3469 97.4136 63.3558C97.416 63.3664 97.4144 63.3745 97.416 63.3842C97.4176 63.3972 97.4234 63.4069 97.4234 63.4215C97.4225 69.7398 97.3655 76.058 97.3647 82.3763C97.3647 82.4022 97.3565 82.4233 97.3508 82.4452C97.7542 82.4452 98.1584 82.4452 98.5619 82.4452C98.5382 82.4095 98.5203 82.3673 98.5203 82.313C98.5203 80.198 98.5203 78.083 98.5203 75.9671Z" fill="#EDE5D6"/>
<path d="M101.065 50.2863C96.867 50.2863 92.6684 50.2863 88.4713 50.2863C88.455 50.2863 88.4436 50.2798 88.4289 50.2773C88.4143 50.2798 88.4029 50.2863 88.3866 50.2863C84.1895 50.2863 79.9908 50.2863 75.793 50.2863C75.793 50.288 75.7938 50.2896 75.7938 50.2912H101.065C101.064 50.2896 101.065 50.288 101.065 50.2863Z" fill="#EDE5D6"/>
<path d="M102.267 46.6809V45.2668V43.1875H71.3867C71.3867 44.5431 71.3867 45.8996 71.3867 47.2553C77.124 47.2553 82.8614 47.2553 88.5987 47.2553C88.6354 47.2553 88.6712 47.2553 88.7079 47.2553C93.2277 47.2553 97.7482 47.2553 102.268 47.2553L102.267 46.6809Z" fill="#EDE5D6"/>
<path d="M100.193 82.3794V51.1094H75.793C75.793 53.2333 75.793 55.358 75.793 57.482C75.793 65.8041 75.793 74.1254 75.793 82.4483C76.4889 82.4483 77.1849 82.4483 77.8801 82.4483C77.8565 82.4126 77.8385 82.3704 77.8385 82.3161C77.8385 80.2011 77.8385 78.086 77.8385 75.9702C77.8385 68.5503 77.8385 61.1303 77.8385 53.7095C77.8385 53.6414 77.8638 53.5911 77.8996 53.5521C77.9037 53.5464 77.9078 53.5408 77.9127 53.5351C77.9184 53.5302 77.9241 53.527 77.9298 53.5221C77.9689 53.4864 78.0194 53.4613 78.0879 53.4613C81.6354 53.4588 85.1797 53.3371 88.7264 53.3347C92.0751 53.3371 95.4229 53.4588 98.7716 53.4613C98.8401 53.4613 98.8914 53.4872 98.9305 53.5229C98.9354 53.527 98.9411 53.5302 98.946 53.5343C98.9517 53.54 98.955 53.5465 98.9599 53.5529C98.9949 53.5919 99.0193 53.6414 99.0193 53.7087C99.0193 55.8237 99.0193 57.9395 99.0193 60.0545C99.0193 67.4745 99.0193 74.8945 99.0193 82.3144C99.0193 82.3688 99.0014 82.4102 98.9778 82.4467C99.6738 82.4467 100.369 82.4467 101.065 82.4467C101.065 82.424 101.065 82.4012 101.065 82.3777H100.193V82.3794Z" fill="#EDE5D6"/>
<path d="M68.9865 75.8409C68.8594 74.7732 68.3818 73.6212 67.5359 72.9276C66.2132 71.8445 64.043 72.0546 62.9794 73.39C62.4187 74.0942 62.0732 75.0766 62.03 75.9772C61.9273 78.1197 62.03 80.2948 62.03 82.4398C62.03 82.4423 62.0292 82.443 62.0292 82.4447C62.7415 82.4447 63.4538 82.4447 64.1652 82.4447C64.1652 82.1023 64.1652 81.76 64.1652 81.4184C64.1652 81.1556 64.1448 80.8886 64.1823 80.6274C64.2394 80.2307 64.4203 79.8372 64.7536 79.5987C65.219 79.2653 65.9206 79.3213 66.3338 79.7115C66.6093 79.9711 66.7658 80.3678 66.7984 80.7402C66.8228 81.0103 66.8024 81.2918 66.8024 81.5644C66.8024 81.8581 66.8024 82.1518 66.8024 82.4455C67.5351 82.4455 68.2685 82.4455 69.0012 82.4455C69.0012 81.1758 69.0012 79.9062 69.0012 78.6365C69.002 77.7198 69.0941 76.7511 68.9865 75.8409Z" fill="#EDE5D6"/>
<path d="M102.266 47.7759V47.7539C97.7463 47.7539 93.2265 47.7539 88.7059 47.7539C88.6693 47.7539 88.6334 47.7539 88.5967 47.7539C83.3533 47.7539 78.1106 47.7539 72.8672 47.7539C72.8672 47.7612 72.8672 47.7686 72.8672 47.7759H102.266Z" fill="#EDE5D6"/>
<path d="M86.6648 64.5138L86.5955 64.6006L86.6004 64.6266C86.5678 64.9811 86.6004 65.3535 86.6004 65.7097C86.6004 66.0415 86.6004 66.3741 86.6004 66.7059C86.6004 67.333 86.6004 67.9594 86.6004 68.5865C87.1742 68.5865 87.7487 68.5865 88.3216 68.5865C88.3624 68.5865 88.3974 68.5946 88.4276 68.6084C88.4577 68.5946 88.4936 68.5865 88.5335 68.5865C89.1072 68.5865 89.681 68.5865 90.2547 68.5865C90.2547 67.9439 90.2547 67.3014 90.2547 66.6589C90.2547 66.3262 90.2547 65.9936 90.2547 65.6602C90.2547 65.3227 90.2946 64.96 90.2547 64.6258L90.2531 64.5917L90.1773 64.4976C90.0591 64.3581 89.9312 64.2258 89.7959 64.1025C89.4039 63.7447 88.9443 63.4811 88.4268 63.3594C87.8987 63.4843 87.4317 63.7561 87.0348 64.1236C86.9044 64.2461 86.7797 64.3759 86.6648 64.5138Z" fill="#EDE5D6"/>
<path d="M124.586 75.9722C124.562 75.0352 124.403 73.9959 123.976 73.1546C123.716 72.6419 123.274 72.1437 122.637 72.2589C122.035 72.3669 121.697 73.0029 121.497 73.5173C121.148 74.4194 121.016 75.41 121.016 76.3721C121.016 78.3963 121.016 80.4196 121.016 82.443C122.206 82.443 123.397 82.443 124.588 82.443C124.588 82.4405 124.587 82.4397 124.587 82.4381C124.586 80.2858 124.641 78.1237 124.586 75.9722Z" fill="#EDE5D6"/>
<path d="M103.986 82.3787H102.265V53.5831V50.7007V48.5938H72.8672C72.8672 50.6771 72.8672 52.7605 72.8672 54.8439C72.8672 64.0454 72.8672 73.2461 72.8672 82.4468C73.1752 82.4468 73.4833 82.4468 73.7913 82.4468C73.8826 82.3763 74.0244 82.3763 74.1157 82.4468C74.5085 82.4468 74.9013 82.4468 75.2941 82.4468C75.2941 80.1331 75.2941 77.8193 75.2941 75.5055C75.2941 67.1007 75.2941 58.6966 75.2941 50.2917C75.2941 50.2382 75.3113 50.196 75.3357 50.1603C75.2607 50.0135 75.3276 49.7904 75.5435 49.7904C79.8245 49.7904 84.1055 49.7904 88.3857 49.7904C88.402 49.7904 88.4142 49.7969 88.428 49.7993C88.4427 49.7969 88.4541 49.7904 88.4704 49.7904C92.7506 49.7904 97.0316 49.7904 101.313 49.7904C101.529 49.7904 101.595 50.0135 101.52 50.1603C101.544 50.196 101.562 50.2374 101.562 50.2917C101.562 52.6883 101.562 55.0848 101.562 57.4813C101.562 65.8034 101.562 74.1247 101.562 82.4477C101.955 82.4477 102.348 82.4477 102.74 82.4477C102.831 82.3771 102.973 82.3771 103.064 82.4477C103.372 82.4477 103.679 82.4477 103.987 82.4477C103.986 82.4241 103.986 82.4014 103.986 82.3787Z" fill="#EDE5D6"/>
<path d="M73.0538 41.3122C78.2141 41.3122 83.3752 41.3122 88.5356 41.3122C88.5926 41.3122 88.6497 41.3122 88.7067 41.3122C88.7409 41.3122 88.7744 41.3122 88.8086 41.3122C88.8656 41.3122 88.9227 41.3122 88.9797 41.3122C92.9779 41.3122 96.9761 41.3122 100.974 41.3122C102.524 40.5382 106.448 37.7093 104.519 29.4723C102.533 20.9912 91.9046 12.8768 88.4598 10.4332H88.4557L88.4304 10.4219C88.4304 10.4219 87.8477 10.6685 86.873 11.1877C83.7925 12.8257 76.7569 17.1993 71.4768 25.274C67.9513 30.6657 68.5267 34.7968 69.9488 37.5624C70.9397 39.4925 72.3407 40.754 73.0538 41.3122Z" fill="#EDE5D6"/>
<path d="M22.8964 84.0193H73.7035C73.7035 83.6608 73.7035 83.3021 73.7035 82.9436C65.7552 82.9436 57.806 82.9436 49.8577 82.9436C49.6972 82.9436 49.6173 82.8194 49.6173 82.6953H49.434H39.2046C39.3537 82.8243 39.3048 83.1334 39.0505 83.1334C36.4867 83.1334 33.922 83.1334 31.3589 83.1334C31.1039 83.1334 31.055 82.8243 31.2049 82.6953H22.8516C22.8622 83.1366 22.8833 83.578 22.8964 84.0193Z" fill="white"/>
<path d="M88.4698 82.9464C88.4535 82.9464 88.4421 82.9399 88.4274 82.9375C88.4128 82.9399 88.4014 82.9464 88.3851 82.9464C85.5466 82.9464 82.7072 82.9464 79.8687 82.9464C77.9805 82.9464 76.0914 82.9464 74.2031 82.9464C74.2031 83.305 74.2031 83.6636 74.2031 84.0222H101.313V82.9464C97.0318 82.9464 92.7508 82.9464 88.4698 82.9464Z" fill="white"/>
<path d="M103.152 82.9453C103.152 83.3039 103.152 83.6625 103.152 84.0211H126.067V82.9453C123.539 82.9453 121.01 82.9453 118.481 82.9453C113.372 82.9453 108.262 82.9453 103.152 82.9453Z" fill="white"/>
<path d="M101.312 84.0219V93.5195H102.653C102.653 89.9953 102.653 86.4703 102.653 82.9453C102.207 82.9453 101.76 82.9453 101.312 82.9453V84.0219Z" fill="white"/>
<path d="M100.191 82.3793H101.062C101.062 80.0883 101.062 77.7972 101.062 75.5062C101.062 67.3739 101.062 59.2416 101.062 51.1094H100.191V82.3793Z" fill="white"/>
<path d="M102.27 82.3737H103.991C103.991 80.0056 103.991 77.6374 103.991 75.2693C103.991 68.0392 103.991 60.8091 103.991 53.5781H102.27V82.3737Z" fill="white"/>
<path d="M113.984 58.8446C114.784 59.6438 115.229 60.8372 115.315 61.9543H115.648C115.648 61.9543 115.906 56.7726 111.171 56.7734C107.614 56.7734 107.387 60.0583 107.387 60.0583C107.387 60.0583 107.956 58.8714 109.512 58.2954C110.907 57.515 112.849 57.7105 113.984 58.8446Z" fill="white"/>
<path d="M113.984 72.7681C114.788 73.5721 115.236 74.7744 115.318 75.8973C115.32 75.9256 115.32 75.954 115.321 75.9824H115.648C115.648 75.9824 115.906 70.8008 111.171 70.8008C107.614 70.8016 107.387 74.0857 107.387 74.0857C107.387 74.0857 107.841 73.13 109.057 72.5174C109.121 72.4663 109.181 72.412 109.249 72.3658C110.651 71.4044 112.778 71.5634 113.984 72.7681Z" fill="white"/>
<path d="M124.389 72.8679C124.7 73.4585 124.877 74.1368 124.98 74.8191C125.057 75.1987 125.103 75.5914 125.115 75.9824H125.346C125.346 75.9824 125.505 70.8008 122.591 70.8008C120.402 70.8016 120.262 74.0857 120.262 74.0857C120.262 74.0857 120.652 72.7527 121.744 72.2262C122.619 71.4003 123.836 71.8157 124.389 72.8679Z" fill="white"/>
<path d="M124.383 58.9428C124.642 59.4361 124.81 59.9894 124.92 60.5556C125.029 61.0067 125.094 61.4821 125.107 61.9543H125.338C125.338 61.9543 125.497 56.7726 122.583 56.7734C120.394 56.7734 120.254 60.0583 120.254 60.0583C120.254 60.0583 120.705 58.5177 121.993 58.0942C122.837 57.5588 123.882 57.9912 124.383 58.9428Z" fill="white"/>
<path d="M70.9648 41.5586V41.5674C70.9697 41.5634 70.9761 41.5618 70.9809 41.5586H70.9648Z" fill="white"/>
<path d="M71.3852 41.7454C71.3852 42.2264 71.3852 42.7075 71.3852 43.1886H102.267V41.8029C97.8372 41.8029 93.4087 41.8029 88.9794 41.8029C88.9224 41.8029 88.8653 41.8029 88.8083 41.8029C88.774 41.8029 88.7406 41.8029 88.7064 41.8029C88.6494 41.8029 88.5923 41.8029 88.5353 41.8029C82.9552 41.8029 77.3752 41.8029 71.7943 41.8029C71.6338 41.8029 71.5539 41.6788 71.5539 41.5547H71.2891C71.3445 41.5953 71.3852 41.6561 71.3852 41.7454Z" fill="white"/>
<path d="M102.265 48.5935V47.7773H72.8672C72.8672 48.0499 72.8672 48.3217 72.8672 48.5935H102.265Z" fill="white"/>
<path d="M101.064 51.106C101.064 50.8334 101.064 50.5617 101.064 50.2891H75.793C75.793 50.5617 75.793 50.8334 75.793 51.106H100.193H101.064Z" fill="white"/>
<path d="M118.311 52.4795C113.703 52.4795 109.096 52.4795 104.488 52.4795C104.488 52.847 104.488 53.2145 104.488 53.582H126.068V82.4465C126.378 82.4465 126.689 82.4465 126.999 82.4465C127.32 82.4465 127.319 82.9422 126.999 82.9422C126.689 82.9422 126.378 82.9422 126.068 82.9422V84.018H126.629H153.96C153.971 83.6188 153.991 83.2197 154 82.8197H145.729C145.761 82.9609 145.687 83.1313 145.498 83.1313C142.934 83.1313 140.37 83.1313 137.805 83.1313C137.616 83.1313 137.542 82.9609 137.575 82.8197H127.42V52.3789H127.363C127.324 52.4129 127.275 52.4373 127.209 52.4373C124.99 52.4373 122.773 52.4373 120.554 52.4373C120.488 52.4373 120.439 52.4129 120.4 52.3789H120.131L120.314 52.1055H118.514C118.594 52.2523 118.528 52.4795 118.311 52.4795Z" fill="white"/>
<path d="M102.27 47.7547V47.7766V48.5928V50.6997V53.5821H103.991C103.991 51.6391 103.991 49.6969 103.991 47.7539C103.417 47.7547 102.843 47.7547 102.27 47.7547Z" fill="white"/>
<path d="M102.27 46.6837V47.2581C103.338 47.2581 104.406 47.2581 105.475 47.2581C105.475 45.4409 105.475 43.6228 105.475 41.8047C104.406 41.8047 103.338 41.8047 102.27 41.8047V43.1904V45.2697V46.6837Z" fill="white"/>
<path d="M104.517 29.4688C106.446 37.7057 102.522 40.5347 100.972 41.3086C101.916 41.3086 102.859 41.3086 103.803 41.3086C104.516 40.7505 105.916 39.4881 106.908 37.5581C108.329 34.7932 108.904 30.6622 105.378 25.2704C100.113 17.2152 93.0942 12.8408 90.003 11.1931C89.1424 10.7347 88.5858 10.4865 88.457 10.4297C91.9019 12.8733 102.53 20.9885 104.517 29.4688Z" fill="white"/>
<path d="M120.397 52.378C120.272 52.2701 120.286 52.0381 120.443 51.9634C121.773 50.5964 123.088 49.2172 124.389 47.8235C124.505 47.6977 124.658 47.7423 124.744 47.8446L124.788 47.7975C124.818 46.269 124.841 44.9183 124.83 44.8047H124.271L122.799 48.3906L120.312 52.1038L120.129 52.3772L120.397 52.378Z" fill="#D1CABC"/>
<path d="M124.745 48.1747C123.561 49.4419 122.362 50.6945 121.156 51.9406C123.174 51.9406 125.192 51.9406 127.209 51.9406C127.463 51.9406 127.513 52.2489 127.364 52.3779H127.42H127.464C127.464 52.3779 127.718 42.1258 127.676 41.7461H126.828L125.472 47.0624L124.792 47.7982L124.748 47.8453C124.822 47.9337 124.846 48.0659 124.745 48.1747Z" fill="white"/>
<path d="M101.315 50.2867C101.232 50.2867 101.15 50.2867 101.067 50.2867C101.067 50.2883 101.066 50.29 101.066 50.2916C101.066 50.5642 101.066 50.836 101.066 51.1085C101.066 59.2408 101.066 67.3731 101.066 75.5053C101.066 77.7964 101.066 80.0875 101.066 82.3785C101.066 82.4012 101.066 82.4239 101.066 82.4475C101.233 82.4475 101.399 82.4475 101.564 82.4475C101.564 74.1254 101.564 65.8041 101.564 57.4811C101.564 55.0846 101.564 52.6881 101.564 50.2916C101.564 50.2372 101.546 50.1959 101.523 50.1602C101.487 50.2315 101.419 50.2867 101.315 50.2867Z" fill="black"/>
<path d="M88.4266 50.2758C88.4413 50.2782 88.4527 50.2847 88.469 50.2847C92.666 50.2847 96.8647 50.2847 101.063 50.2847C101.146 50.2847 101.228 50.2847 101.31 50.2847C101.415 50.2847 101.481 50.2296 101.518 50.159C101.593 50.0122 101.526 49.7891 101.31 49.7891C97.0293 49.7891 92.7483 49.7891 88.4682 49.7891C88.4519 49.7891 88.4405 49.7955 88.4258 49.798C88.6858 49.8402 88.6857 50.2336 88.4266 50.2758Z" fill="black"/>
<path d="M103.989 47.7527C103.989 47.6837 103.989 47.6156 103.989 47.5475C103.989 47.2278 104.487 47.2286 104.487 47.5475C104.487 47.6156 104.487 47.6846 104.487 47.7527C104.578 47.7527 104.67 47.7527 104.762 47.7527C105.081 47.7527 105.401 47.7527 105.721 47.7527C105.894 47.7527 105.97 47.6091 105.957 47.4761C105.956 47.4696 105.956 47.4639 105.954 47.4574C105.877 47.6927 105.472 47.6675 105.472 47.3787C105.472 47.3381 105.472 47.2976 105.472 47.2578C104.404 47.2578 103.336 47.2578 102.267 47.2578C97.7474 47.2578 93.2276 47.2578 88.707 47.2578C89.0289 47.2578 89.0281 47.7535 88.707 47.7535C93.2268 47.7535 97.7474 47.7535 102.267 47.7535C102.842 47.7527 103.415 47.7527 103.989 47.7527Z" fill="black"/>
<path d="M88.8086 41.8043C88.8656 41.8043 88.9227 41.8043 88.9797 41.8043C93.409 41.8043 97.8375 41.8043 102.267 41.8043C103.335 41.8043 104.404 41.8043 105.472 41.8043C105.472 41.7848 105.472 41.7653 105.472 41.7459C105.472 41.4668 105.852 41.4319 105.948 41.6404C105.994 41.496 105.919 41.3086 105.721 41.3086C105.083 41.3086 104.444 41.3086 103.805 41.3086C102.862 41.3086 101.919 41.3086 100.975 41.3086C96.9769 41.3086 92.9787 41.3086 88.9805 41.3086C88.9235 41.3086 88.8664 41.3086 88.8094 41.3086C89.1289 41.3078 89.1281 41.8043 88.8086 41.8043Z" fill="black"/>
<path d="M104.486 47.7533C104.486 47.6843 104.486 47.6162 104.486 47.548C104.486 47.2292 103.988 47.2284 103.988 47.548C103.988 47.6162 103.988 47.6851 103.988 47.7533C103.988 49.6963 103.988 51.6385 103.988 53.5815C103.988 60.8116 103.988 68.0426 103.988 75.2727C103.988 77.6408 103.988 80.009 103.988 82.3771C103.988 82.3998 103.988 82.4225 103.988 82.446C104.155 82.446 104.32 82.446 104.486 82.446C104.486 73.2453 104.486 64.0438 104.486 54.843C104.486 54.4228 104.486 54.0026 104.486 53.5823C104.486 53.2148 104.486 52.8473 104.486 52.4798C104.403 52.4798 104.32 52.4798 104.237 52.4798C103.917 52.4798 103.917 51.9841 104.237 51.9841C104.32 51.9841 104.403 51.9841 104.486 51.9841C104.486 50.7355 104.486 49.4878 104.486 48.2392C104.486 48.077 104.486 47.9147 104.486 47.7533Z" fill="black"/>
<path d="M98.9297 53.5234C98.9345 53.5274 98.9409 53.5299 98.9449 53.5347C98.9401 53.5299 98.9353 53.5266 98.9297 53.5234Z" fill="black"/>
<path d="M99.0167 60.0563C99.0167 57.9413 99.0167 55.8254 99.0167 53.7104C99.0167 53.6431 98.9914 53.5936 98.9572 53.5547C99.0631 53.6975 99.0012 53.9587 98.7689 53.9587C98.6858 53.9587 98.6027 53.9555 98.5195 53.9555C98.5195 61.2943 98.5195 68.6323 98.5195 75.9711C98.5195 78.0862 98.5195 80.202 98.5195 82.317C98.5195 82.3713 98.5375 82.4127 98.5611 82.4492C98.6996 82.4492 98.8374 82.4492 98.9751 82.4492C98.9987 82.4135 99.0167 82.3713 99.0167 82.317C99.0167 74.8962 99.0167 67.4762 99.0167 60.0563Z" fill="black"/>
<path d="M88.7227 53.8316C91.9882 53.8341 95.2529 53.9468 98.5193 53.9549C98.6024 53.9549 98.6856 53.9582 98.7687 53.9582C99.0018 53.9582 99.0629 53.6978 98.9569 53.5542C98.952 53.5477 98.948 53.5412 98.9431 53.5355C98.939 53.5315 98.9325 53.5282 98.9276 53.5242C98.8885 53.4885 98.8371 53.4625 98.7687 53.4625C95.42 53.4601 92.0721 53.3384 88.7235 53.3359C89.0438 53.3351 89.0438 53.8308 88.7227 53.8316Z" fill="black"/>
<path d="M124.587 82.4453C123.396 82.4453 122.206 82.4453 121.015 82.4453C121.015 82.5281 121.015 82.6108 121.015 82.6936C121.015 83.0132 120.518 83.0124 120.518 82.6936C120.518 82.6108 120.518 82.5281 120.518 82.4453C118.787 82.4453 117.056 82.4453 115.325 82.4453C115.319 82.7568 114.835 82.756 114.829 82.4453C114.116 82.4453 113.404 82.4453 112.693 82.4453C112.693 82.5037 112.693 82.5621 112.693 82.6206C112.693 82.9402 112.195 82.9394 112.195 82.6206C112.195 82.5621 112.194 82.5037 112.194 82.4453C111.648 82.4453 111.101 82.4453 110.555 82.4453C110.554 82.5281 110.553 82.6108 110.553 82.6936C110.553 83.0132 110.056 83.0124 110.056 82.6936C110.056 82.6108 110.056 82.5281 110.056 82.4453C109.323 82.4453 108.589 82.4453 107.857 82.4453C107.857 82.5281 107.857 82.6108 107.857 82.6936C107.857 83.0132 107.359 83.0124 107.359 82.6936C107.359 82.6108 107.359 82.5281 107.359 82.4453C106.402 82.4453 105.444 82.4453 104.488 82.4453C104.321 82.4453 104.155 82.4453 103.99 82.4453C103.682 82.4453 103.374 82.4453 103.066 82.4453C103.118 82.4851 103.154 82.5459 103.154 82.6295C103.154 82.7333 103.154 82.8372 103.154 82.941C108.263 82.941 113.373 82.941 118.483 82.941C121.012 82.941 123.54 82.941 126.069 82.941C126.379 82.941 126.69 82.941 127 82.941C127.32 82.941 127.321 82.4453 127 82.4453C126.69 82.4453 126.379 82.4453 126.069 82.4453C125.741 82.4453 125.413 82.4453 125.087 82.4453C125.077 82.756 124.594 82.756 124.587 82.4453Z" fill="black"/>
<path d="M101.065 82.4453C100.369 82.4453 99.6737 82.4453 98.9777 82.4453C98.84 82.4453 98.7023 82.4453 98.5637 82.4453C98.1603 82.4453 97.7561 82.4453 97.3527 82.4453C97.2899 82.6692 96.946 82.6684 96.8833 82.4453C94.841 82.4453 92.7987 82.4453 90.7556 82.4453C90.7556 82.4567 90.7556 82.4672 90.7556 82.4786C90.7556 82.7974 90.2576 82.7974 90.2576 82.4786C90.2576 82.4672 90.2576 82.4567 90.2576 82.4453C89.6627 82.4453 89.0678 82.4453 88.4721 82.4453C88.4558 82.4453 88.4444 82.451 88.4297 82.4542C88.6888 82.4972 88.6888 82.8907 88.4297 82.9329C88.4444 82.9353 88.4558 82.9418 88.4721 82.9418C92.7531 82.9418 97.0332 82.9418 101.314 82.9418C101.761 82.9418 102.207 82.9418 102.655 82.9418C102.655 82.838 102.655 82.7341 102.655 82.6303C102.655 82.5459 102.691 82.4859 102.741 82.4461C102.348 82.4461 101.956 82.4461 101.564 82.4461C101.397 82.4453 101.23 82.4453 101.065 82.4453Z" fill="black"/>
<path d="M106.862 69.0191C109.498 69.0191 112.135 69.0191 114.771 69.0191C115.144 69.0191 115.516 69.0191 115.89 69.0191C116.21 69.0191 116.211 68.5234 115.89 68.5234C115.702 68.5234 115.515 68.5234 115.327 68.5234C115.321 68.835 114.837 68.8342 114.83 68.5234C114.118 68.5234 113.406 68.5234 112.694 68.5234C112.694 68.5819 112.694 68.6403 112.694 68.6987C112.694 69.0183 112.196 69.0175 112.196 68.6987C112.196 68.6403 112.195 68.5819 112.195 68.5234C111.649 68.5234 111.103 68.5234 110.557 68.5234C110.556 68.6062 110.555 68.6889 110.555 68.7717C110.555 69.0913 110.057 69.0905 110.057 68.7717C110.057 68.6889 110.057 68.6062 110.057 68.5234C109.365 68.5234 108.672 68.5234 107.98 68.5234C107.94 68.5234 107.899 68.5234 107.858 68.5234C107.858 68.6062 107.858 68.6889 107.858 68.7717C107.858 69.0913 107.36 69.0905 107.36 68.7717C107.36 68.6889 107.36 68.6062 107.36 68.5234C107.194 68.5234 107.029 68.5234 106.862 68.5234C106.541 68.5226 106.54 69.0191 106.862 69.0191Z" fill="black"/>
<path d="M120.259 69.1441C121.955 69.1441 123.65 69.1441 125.345 69.1441C125.666 69.1441 125.666 68.6484 125.345 68.6484C125.245 68.6484 125.144 68.6484 125.044 68.6484C124.951 68.7872 124.722 68.7872 124.63 68.6484C123.425 68.6484 122.222 68.6484 121.017 68.6484C121.017 68.689 121.017 68.7296 121.017 68.7693C121.017 69.089 120.52 69.0881 120.52 68.7693C120.52 68.7287 120.52 68.6882 120.52 68.6484C120.434 68.6484 120.347 68.6484 120.26 68.6484C119.94 68.6492 119.939 69.1441 120.259 69.1441Z" fill="black"/>
<path d="M107.854 68.7694C107.854 68.6867 107.854 68.6039 107.854 68.5212C107.854 67.3927 107.854 66.2642 107.854 65.1357C107.854 64.1119 107.788 63.0645 107.856 62.0439C107.918 61.1174 108.316 60.0968 108.922 59.3959C110.032 58.1133 112.211 57.9218 113.496 59.0657C114.291 59.7723 114.729 60.9016 114.818 61.9458C114.895 62.8568 114.826 63.802 114.826 64.7171C114.826 65.9835 114.826 67.2499 114.826 68.5155C114.826 68.5179 114.827 68.5188 114.827 68.5204C114.834 68.8311 115.318 68.8319 115.324 68.5204C115.324 68.5179 115.324 68.5171 115.324 68.5155C115.324 67.2921 115.324 66.0687 115.324 64.8453C115.324 63.8936 115.386 62.9201 115.318 61.9717C115.317 61.9652 115.315 61.9596 115.315 61.9531C115.23 60.8359 114.785 59.6425 113.985 58.8434C112.849 57.7093 110.907 57.5145 109.512 58.295C109.425 58.3437 109.332 58.3834 109.249 58.4402C108.178 59.1744 107.6 60.4587 107.401 61.7064C107.26 62.594 107.356 63.5286 107.356 64.4234C107.356 65.7888 107.356 67.155 107.356 68.5212C107.356 68.6039 107.356 68.6867 107.356 68.7694C107.356 69.0883 107.854 69.0891 107.854 68.7694Z" fill="black"/>
<path d="M112.689 66.8204C112.662 66.4488 112.513 66.0521 112.24 65.7917C111.829 65.399 111.125 65.3487 110.661 65.6797C110.327 65.9174 110.136 66.3117 110.073 66.7084C110.029 66.9729 110.054 67.2471 110.054 67.5149C110.054 67.8516 110.054 68.189 110.054 68.5257C110.054 68.6085 110.054 68.6912 110.054 68.774C110.054 69.0928 110.552 69.0936 110.552 68.774C110.552 68.6912 110.553 68.6085 110.553 68.5257C110.556 67.9667 110.566 67.4061 110.553 66.8472C110.553 66.8382 110.552 66.8399 110.551 66.8374C110.553 66.8318 110.553 66.8293 110.557 66.8139L110.601 66.6225C110.642 66.4813 110.705 66.3353 110.798 66.2233C111.048 65.9239 111.572 65.8574 111.868 66.1227C111.991 66.233 112.072 66.3799 112.119 66.5162L112.173 66.7182L112.189 66.7993L112.191 66.8163C112.201 67.3859 112.195 67.9562 112.193 68.5257C112.193 68.5841 112.194 68.6425 112.194 68.7009C112.194 69.0198 112.692 69.0206 112.692 68.7009C112.692 68.6425 112.692 68.5841 112.692 68.5257C112.692 68.2239 112.692 67.9229 112.692 67.6211C112.691 67.3558 112.707 67.0841 112.689 66.8204Z" fill="black"/>
<path d="M121.014 68.7716C121.014 68.7311 121.014 68.6905 121.014 68.6507C121.014 66.5852 121.014 64.5189 121.014 62.4534C121.014 61.4904 121.146 60.5006 121.496 59.5985C121.696 59.0833 122.034 58.4481 122.635 58.3394C123.273 58.225 123.714 58.7231 123.975 59.235C124.402 60.0763 124.56 61.1156 124.585 62.0526C124.64 64.2041 124.585 66.3662 124.585 68.5185C124.585 68.5729 124.603 68.6142 124.626 68.6507C124.719 68.7895 124.948 68.7895 125.04 68.6507C125.064 68.615 125.082 68.5737 125.082 68.5185C125.082 66.3662 125.137 64.2041 125.081 62.0526C125.068 61.5658 125.017 61.0572 124.92 60.5574C124.81 59.9911 124.642 59.4378 124.383 58.9446C123.883 57.993 122.838 57.5606 121.995 58.096C121.837 58.1958 121.684 58.3183 121.546 58.4895C120.81 59.4021 120.596 60.7627 120.525 61.9009C120.466 62.8566 120.516 63.8277 120.516 64.785C120.516 66.0733 120.516 67.3616 120.516 68.6499C120.516 68.6905 120.516 68.7311 120.516 68.7708C120.517 69.0905 121.014 69.0913 121.014 68.7716Z" fill="black"/>
<path d="M107.356 82.6966C107.356 83.0154 107.854 83.0162 107.854 82.6966C107.854 82.6139 107.854 82.5311 107.854 82.4484C107.854 81.3199 107.854 80.1914 107.854 79.0629C107.854 78.039 107.787 76.9917 107.855 75.9711C107.917 75.0446 108.315 74.0232 108.921 73.3231C110.031 72.0405 112.21 71.849 113.496 72.9929C114.29 73.6995 114.728 74.8288 114.817 75.8729C114.894 76.7848 114.826 77.7291 114.826 78.6434C114.826 79.9099 114.826 81.1763 114.826 82.4427C114.826 82.4451 114.826 82.4459 114.826 82.4475C114.833 82.7583 115.316 82.7591 115.323 82.4475C115.323 82.4451 115.324 82.4443 115.324 82.4427C115.324 81.2193 115.324 79.9958 115.324 78.7724C115.324 77.8492 115.38 76.9057 115.321 75.9841C115.32 75.9557 115.32 75.9273 115.318 75.8989C115.236 74.7761 114.789 73.5738 113.984 72.7698C112.778 71.565 110.651 71.4052 109.248 72.3666C109.18 72.4128 109.12 72.468 109.057 72.5183C108.111 73.2695 107.587 74.4629 107.401 75.6328C107.26 76.5203 107.356 77.4549 107.356 78.3498C107.356 79.7151 107.356 81.0813 107.356 82.4475C107.356 82.5311 107.356 82.6139 107.356 82.6966Z" fill="black"/>
<path d="M112.689 80.7427C112.662 80.3711 112.513 79.9744 112.24 79.714C111.829 79.3205 111.125 79.271 110.661 79.6012C110.327 79.8389 110.136 80.2332 110.073 80.6299C110.029 80.8944 110.054 81.1686 110.054 81.4355C110.054 81.773 110.054 82.1097 110.054 82.4472C110.054 82.5299 110.054 82.6127 110.054 82.6954C110.054 83.0143 110.552 83.0151 110.552 82.6954C110.552 82.6127 110.553 82.5299 110.553 82.4472C110.556 81.8882 110.566 81.3276 110.553 80.7686C110.553 80.7597 110.552 80.7613 110.551 80.7581C110.553 80.7524 110.553 80.75 110.557 80.7346L110.601 80.5431C110.642 80.4019 110.705 80.2559 110.798 80.144C111.048 79.8446 111.572 79.7781 111.868 80.0434C111.991 80.1537 112.072 80.3013 112.119 80.4368L112.173 80.6388L112.189 80.7208L112.191 80.737C112.201 81.3065 112.195 81.8768 112.193 82.4464C112.193 82.5048 112.194 82.5632 112.194 82.6216C112.194 82.9404 112.692 82.9412 112.692 82.6216C112.692 82.5632 112.692 82.5048 112.692 82.4464C112.692 82.1446 112.692 81.8436 112.692 81.5418C112.691 81.2781 112.707 81.0064 112.689 80.7427Z" fill="black"/>
<path d="M120.518 82.6944C120.518 83.0133 121.015 83.0141 121.015 82.6944C121.015 82.6117 121.015 82.5289 121.015 82.4462C121.015 80.4229 121.015 78.3987 121.015 76.3754C121.015 75.4132 121.147 74.4226 121.497 73.5205C121.696 73.0061 122.035 72.3701 122.636 72.2622C123.273 72.147 123.715 72.6451 123.976 73.1578C124.403 73.9991 124.561 75.0384 124.585 75.9754C124.641 78.1269 124.585 80.289 124.585 82.4413C124.585 82.4438 124.586 82.4446 124.586 82.4462C124.593 82.7569 125.076 82.7577 125.083 82.4462C125.083 82.4438 125.083 82.443 125.083 82.4413C125.083 80.289 125.139 78.1269 125.083 75.9754C125.073 75.5982 125.032 75.2079 124.974 74.8193C124.872 74.1371 124.695 73.4588 124.384 72.8682C123.831 71.816 122.614 71.4006 121.738 72.2273C121.674 72.2881 121.606 72.3393 121.546 72.4139C120.81 73.3266 120.596 74.6871 120.525 75.8253C120.466 76.781 120.516 77.7521 120.516 78.7094C120.516 79.9556 120.516 81.2017 120.516 82.447C120.518 82.5289 120.518 82.6117 120.518 82.6944Z" fill="black"/>
<path d="M97.3984 63.3125C97.4 63.3189 97.4032 63.3245 97.4048 63.3301C97.4024 63.3245 97.4008 63.3181 97.3984 63.3125Z" fill="black"/>
<path d="M97.4269 63.4201C97.4269 63.4063 97.4212 63.3958 97.4196 63.3828C97.466 63.6692 97.0194 63.7828 96.9379 63.4858C96.9355 63.4777 96.9314 63.4696 96.929 63.4615C96.9281 69.766 96.8711 76.0704 96.8711 82.3749C96.8711 82.4008 96.8792 82.4219 96.8849 82.4438C96.9477 82.6669 97.2924 82.6677 97.3544 82.4438C97.3601 82.4219 97.3682 82.4016 97.3682 82.3749C97.3682 76.0566 97.4261 69.7384 97.4269 63.4201Z" fill="black"/>
<path d="M88.4297 57.0521C88.4566 57.0781 88.4892 57.1 88.5332 57.1138C89.4891 57.3986 90.375 57.8561 91.2519 58.3226C92.0563 58.7502 92.8557 59.1793 93.6104 59.6913C94.96 60.6056 96.4693 61.8347 96.9281 63.4669C96.9305 63.4751 96.9346 63.4832 96.9371 63.4913C97.0186 63.789 97.4652 63.6746 97.4187 63.3883C97.4171 63.3785 97.4195 63.3696 97.4163 63.3599C97.4138 63.3509 97.4097 63.3428 97.4073 63.3339C97.4057 63.3282 97.4024 63.3217 97.4008 63.316C96.924 61.6472 95.4644 60.3873 94.0929 59.4227C93.2901 58.8581 92.4352 58.3908 91.5697 57.93C90.6342 57.4318 89.6855 56.9394 88.6652 56.636C88.5633 56.6059 88.4835 56.6408 88.4297 56.7009C88.5153 56.7958 88.5283 56.9564 88.4297 57.0521Z" fill="black"/>
<path d="M90.2568 68.8025C90.2568 68.7303 90.2568 68.6581 90.2568 68.5859C89.6831 68.5859 89.1085 68.5859 88.5356 68.5859C88.4949 68.5859 88.4598 68.594 88.4297 68.6078C88.609 68.6898 88.609 68.9778 88.4297 69.0597C88.4598 69.0735 88.4957 69.0816 88.5356 69.0816C89.1705 69.0816 89.807 69.0816 90.4426 69.0816C90.5062 69.0816 90.5535 69.0589 90.5918 69.0273C90.4459 69.0743 90.2568 68.9997 90.2568 68.8025Z" fill="black"/>
<path d="M90.0792 63.6892C89.6285 63.2973 89.1053 62.998 88.5169 62.8698C88.4941 62.8649 88.4737 62.8682 88.4525 62.869C88.6815 62.9177 88.7475 63.2884 88.4745 63.3485C88.459 63.3517 88.4452 63.3582 88.4297 63.3623C88.9472 63.4839 89.4068 63.7476 89.7988 64.1054C89.9341 64.2287 90.0612 64.3609 90.1802 64.5005L90.256 64.5946L90.2577 64.6287C90.2976 64.9629 90.2577 65.3256 90.2577 65.663C90.2577 65.9965 90.2577 66.3291 90.2577 66.6617C90.2577 67.3043 90.2577 67.9468 90.2577 68.5893C90.2577 68.6615 90.2577 68.7337 90.2577 68.8059C90.2577 69.0023 90.4467 69.0777 90.5926 69.0315C90.6831 69.0031 90.7564 68.9284 90.7564 68.8059C90.7564 68.0441 90.7564 67.2832 90.7564 66.5214C90.7564 66.136 90.7564 65.7507 90.7564 65.3653C90.7564 65.1746 90.7564 64.9832 90.7564 64.7925C90.7564 64.6579 90.78 64.5126 90.7189 64.3893C90.591 64.1257 90.2927 63.875 90.0792 63.6892Z" fill="black"/>
<path d="M90.7556 78.3179C90.7556 78.0786 90.7556 77.8384 90.7556 77.5991C90.7556 77.389 90.8045 77.1107 90.7466 76.9079C90.6553 76.5882 90.3367 76.2581 90.1273 76.0163C89.6961 75.5182 89.1583 75.1077 88.5161 74.9259C88.4957 74.9203 88.4778 74.9227 88.459 74.9219C88.6783 74.9665 88.7394 75.3291 88.4745 75.4046C88.459 75.4086 88.4452 75.4176 88.4297 75.4224C89.0197 75.6034 89.4957 76.0147 89.8779 76.4885C89.9977 76.6385 90.1085 76.7959 90.2096 76.9598C90.3196 77.1383 90.2577 77.2308 90.2577 77.4644C90.2577 79.1259 90.2577 80.7874 90.2577 82.4489C90.2577 82.4603 90.2577 82.4708 90.2577 82.4822C90.2577 82.801 90.7556 82.801 90.7556 82.4822C90.7556 82.4708 90.7556 82.4603 90.7556 82.4489C90.7556 81.5216 90.7556 80.5952 90.7556 79.6679C90.7556 79.2168 90.7556 78.7673 90.7556 78.3179Z" fill="black"/>
<path d="M88.4023 74.9166C88.412 74.9158 88.4224 74.9134 88.4312 74.9142C88.4216 74.915 88.412 74.915 88.4023 74.9166Z" fill="black"/>
<path d="M105.473 41.7467C105.473 41.7662 105.473 41.7856 105.473 41.8051C105.473 43.6232 105.473 45.4412 105.473 47.2585C105.473 47.2991 105.473 47.3396 105.473 47.3794C105.473 47.6682 105.878 47.6933 105.954 47.4581C105.962 47.4337 105.971 47.4094 105.971 47.3794C105.971 47.2618 105.971 47.1441 105.971 47.0265C105.971 46.861 105.971 46.6963 105.971 46.5308C105.971 46.255 105.971 45.9783 105.971 45.7025C105.971 45.6165 105.971 45.5305 105.971 45.4445C105.971 45.279 105.971 45.1143 105.971 44.9488C105.971 43.882 105.971 42.8143 105.971 41.7475C105.971 41.7069 105.962 41.672 105.949 41.642C105.852 41.4335 105.473 41.4676 105.473 41.7467Z" fill="black"/>
<path d="M116.241 51.9844C115.738 51.9844 115.235 51.9844 114.731 51.9844C114.565 51.9844 114.4 51.9844 114.234 51.9844C113.557 51.9844 112.881 51.9844 112.203 51.9844C112.037 51.9844 111.871 51.9844 111.705 51.9844C110.747 51.9844 109.788 51.9844 108.829 51.9844C108.663 51.9844 108.498 51.9844 108.332 51.9844C107.813 51.9844 107.294 51.9844 106.775 51.9844C106.609 51.9844 106.442 51.9844 106.277 51.9844C105.773 51.9844 105.27 51.9844 104.768 51.9844C104.674 51.9844 104.58 51.9844 104.486 51.9844C104.403 51.9844 104.319 51.9844 104.236 51.9844C103.916 51.9844 103.916 52.4801 104.236 52.4801C104.319 52.4801 104.403 52.4801 104.486 52.4801C109.093 52.4801 113.7 52.4801 118.308 52.4801C118.526 52.4801 118.592 52.2529 118.514 52.1061C118.477 52.0371 118.411 51.9844 118.308 51.9844C117.994 51.9844 117.68 51.9844 117.365 51.9844C117.157 51.9844 116.948 51.9844 116.74 51.9844C116.573 51.9844 116.407 51.9844 116.241 51.9844Z" fill="black"/>
<path d="M127.209 51.9414C125.191 51.9414 123.173 51.9414 121.156 51.9414C121.024 52.0777 120.896 52.2172 120.764 52.3535C120.54 52.5831 120.188 52.2327 120.411 52.0031C120.423 51.9909 120.434 51.9779 120.447 51.965C120.289 52.0396 120.275 52.2716 120.4 52.3795C120.439 52.4136 120.488 52.4379 120.555 52.4379C122.773 52.4379 124.991 52.4379 127.209 52.4379C127.276 52.4379 127.325 52.4136 127.364 52.3795C127.512 52.2497 127.463 51.9414 127.209 51.9414Z" fill="black"/>
<path d="M120.763 52.3549C120.895 52.2186 121.024 52.0791 121.156 51.9428C122.362 50.6974 123.561 49.444 124.744 48.1768C124.845 48.0681 124.822 47.9358 124.748 47.8474C124.662 47.7452 124.51 47.7014 124.392 47.8263C123.091 49.2193 121.776 50.5993 120.447 51.9663C120.435 51.9793 120.423 51.9915 120.411 52.0044C120.188 52.2332 120.54 52.5845 120.763 52.3549Z" fill="black"/>
<path d="M103.15 84.0189C103.15 83.6603 103.15 83.3017 103.15 82.9432C103.15 82.8393 103.15 82.7355 103.15 82.6316C103.15 82.5472 103.114 82.4872 103.063 82.4475C102.972 82.3769 102.83 82.3769 102.739 82.4475C102.687 82.4872 102.652 82.5472 102.652 82.6316C102.652 82.7355 102.652 82.8393 102.652 82.9432C102.652 86.4682 102.652 89.9924 102.652 93.5174C102.652 93.5571 102.66 93.5912 102.674 93.6212C102.755 93.8021 103.048 93.8021 103.13 93.6212C103.143 93.5912 103.151 93.5571 103.151 93.5174C103.15 90.3509 103.15 87.1854 103.15 84.0189Z" fill="black"/>
<path d="M52.4634 47.8235C53.7641 49.2164 55.0794 50.5964 56.4086 51.9626C56.5667 52.0364 56.5806 52.2693 56.4559 52.3772H56.7248L56.5415 52.1038L54.0542 48.3905L52.5824 44.8047H52.0225C52.0111 44.9183 52.0339 46.269 52.0641 47.7975L52.1081 47.8445C52.1937 47.7423 52.3461 47.6985 52.4634 47.8235Z" fill="#D1CABC"/>
<path d="M49.6475 51.9406C51.6654 51.9406 53.6832 51.9406 55.7002 51.9406C54.4941 50.6953 53.2953 49.4419 52.112 48.1747C52.0101 48.0659 52.0345 47.9337 52.1087 47.8453L52.0647 47.7982L51.3842 47.0624L50.0281 41.7461H49.1805C49.1382 42.1258 49.3924 52.3779 49.3924 52.3779H49.4348H49.4927C49.3435 52.2489 49.3932 51.9406 49.6475 51.9406Z" fill="#EDE5D6"/>
<path d="M75.7909 57.4842C75.7909 55.3603 75.7909 53.2364 75.7909 51.1116C75.7909 50.839 75.7909 50.5673 75.7909 50.2947C75.7909 50.293 75.7901 50.2914 75.7901 50.2898C75.707 50.2898 75.6247 50.2898 75.5423 50.2898C75.438 50.2898 75.3712 50.2346 75.3345 50.1641C75.3109 50.1998 75.293 50.2411 75.293 50.2955C75.293 58.7003 75.293 67.1044 75.293 75.5093C75.293 77.823 75.293 80.1368 75.293 82.4506C75.4592 82.4506 75.6247 82.4506 75.7909 82.4506C75.7909 74.1276 75.7909 65.8063 75.7909 57.4842Z" fill="black"/>
<path d="M75.5428 50.2856C75.6259 50.2856 75.7082 50.2856 75.7905 50.2856C79.9884 50.2856 84.1871 50.2856 88.3841 50.2856C88.4004 50.2856 88.4118 50.2791 88.4265 50.2766C88.6857 50.2336 88.6857 49.841 88.4265 49.798C88.4118 49.7955 88.4004 49.7891 88.3841 49.7891C84.104 49.7891 79.823 49.7891 75.542 49.7891C75.3268 49.7891 75.2592 50.0122 75.3342 50.159C75.3716 50.2304 75.4385 50.2856 75.5428 50.2856Z" fill="black"/>
<path d="M71.1358 47.7535C71.4561 47.7535 71.7772 47.7535 72.0975 47.7535C72.1888 47.7535 72.2792 47.7535 72.3705 47.7535C72.3705 47.6845 72.3705 47.6164 72.3705 47.5483C72.3705 47.2286 72.8676 47.2294 72.8676 47.5483C72.8676 47.6164 72.8676 47.6854 72.8676 47.7535C78.1111 47.7535 83.3537 47.7535 88.5972 47.7535C88.6338 47.7535 88.6697 47.7535 88.7064 47.7535C89.0275 47.7535 89.0283 47.2578 88.7064 47.2578C88.6697 47.2578 88.6338 47.2578 88.5972 47.2578C82.8598 47.2578 77.1225 47.2578 71.3852 47.2578C71.3852 47.2984 71.3852 47.3389 71.3852 47.3787C71.3852 47.6683 70.9802 47.6926 70.9027 47.4582L70.9019 47.4614C70.8807 47.5985 70.9557 47.7535 71.1358 47.7535Z" fill="black"/>
<path d="M71.7912 41.8043C77.372 41.8043 82.9521 41.8043 88.5321 41.8043C88.5892 41.8043 88.6462 41.8043 88.7033 41.8043C88.7375 41.8043 88.7709 41.8043 88.8051 41.8043C89.1254 41.8043 89.1262 41.3086 88.8051 41.3086C88.7709 41.3086 88.7375 41.3086 88.7033 41.3086C88.6462 41.3086 88.5892 41.3086 88.5321 41.3086C83.3718 41.3086 78.2115 41.3086 73.0503 41.3086C72.6306 41.3086 72.2109 41.3086 71.7912 41.3086C71.6306 41.3086 71.5508 41.4327 71.5508 41.5568C71.5508 41.681 71.6315 41.8043 71.7912 41.8043Z" fill="black"/>
<path d="M72.8682 54.8414C72.8682 52.7581 72.8682 50.6747 72.8682 48.5913C72.8682 48.3187 72.8682 48.047 72.8682 47.7752C72.8682 47.7679 72.8682 47.7606 72.8682 47.7533C72.8682 47.6843 72.8682 47.6162 72.8682 47.548C72.8682 47.2292 72.3711 47.2284 72.3711 47.548C72.3711 47.6162 72.3711 47.6851 72.3711 47.7533C72.3711 47.9091 72.3711 48.0648 72.3711 48.2214C72.3711 49.4756 72.3711 50.7291 72.3711 51.9833C72.4542 51.9833 72.5373 51.9833 72.6205 51.9833C72.9416 51.9833 72.9408 52.479 72.6205 52.479C72.5373 52.479 72.4542 52.479 72.3711 52.479C72.3711 60.0766 72.3711 67.6751 72.3711 75.2727C72.3711 77.6635 72.3711 80.0552 72.3711 82.4461C72.5373 82.4461 72.7028 82.4461 72.8682 82.4461C72.8682 73.2437 72.8682 64.043 72.8682 54.8414Z" fill="black"/>
<path d="M78.3378 60.0579C78.3378 58.024 78.3378 55.991 78.3378 53.9571C78.2547 53.9571 78.1715 53.9603 78.0884 53.9603C77.8545 53.9603 77.7934 53.6983 77.901 53.5547C77.8651 53.5936 77.8398 53.6439 77.8398 53.7121C77.8398 61.132 77.8398 68.5528 77.8398 75.9728C77.8398 78.0878 77.8398 80.2036 77.8398 82.3186C77.8398 82.373 77.8578 82.4144 77.8814 82.4509C78.0191 82.4509 78.1577 82.4509 78.2954 82.4509C78.319 82.4152 78.337 82.373 78.337 82.3186C78.3378 74.8978 78.3378 67.4779 78.3378 60.0579Z" fill="black"/>
<path d="M77.9102 53.5324C77.915 53.5275 77.9214 53.5243 77.927 53.5195C77.9214 53.5243 77.9158 53.5275 77.9102 53.5324Z" fill="black"/>
<path d="M78.0867 53.9582C78.1698 53.9582 78.2529 53.9558 78.336 53.9549C81.8004 53.9476 85.2616 53.8332 88.7252 53.8316C89.0463 53.8308 89.0471 53.3359 88.7252 53.3359C85.1785 53.3384 81.6342 53.4601 78.0867 53.4625C78.0182 53.4625 77.9677 53.4877 77.9286 53.5234C77.9237 53.5282 77.9163 53.5307 77.9115 53.5363C77.9066 53.542 77.9033 53.5477 77.8984 53.5534C77.7917 53.6962 77.8528 53.959 78.0867 53.9582Z" fill="black"/>
<path d="M73.7048 82.6295C73.7048 82.5451 73.7407 82.4851 73.7912 82.4453C73.4831 82.4453 73.1751 82.4453 72.867 82.4453C72.7008 82.4453 72.5353 82.4453 72.3699 82.4453C71.4131 82.4453 70.4556 82.4453 69.4988 82.4453C69.4988 82.5281 69.4988 82.6108 69.4988 82.6936C69.4988 83.0132 69.0009 83.0124 69.0009 82.6936C69.0009 82.6108 69.0009 82.5281 69.0009 82.4453C68.2682 82.4453 67.5347 82.4453 66.8021 82.4453C66.8021 82.5281 66.8021 82.6108 66.8021 82.6936C66.8021 83.0132 66.3042 83.0124 66.3042 82.6936C66.3042 82.6108 66.3042 82.5281 66.3042 82.4453C65.7565 82.4453 65.2088 82.4453 64.6612 82.4453C64.662 82.5037 64.6636 82.5621 64.6636 82.6206C64.6636 82.9402 64.1657 82.9394 64.1657 82.6206C64.1657 82.5621 64.1657 82.5037 64.1657 82.4453C63.4534 82.4453 62.742 82.4453 62.0297 82.4453C62.0232 82.7568 61.5399 82.756 61.5334 82.4453C60.4813 82.4453 59.43 82.4453 58.3778 82.4453C57.6998 82.4453 57.0209 82.4453 56.3421 82.4453C56.3421 82.5281 56.3404 82.6108 56.3404 82.6936C56.3404 83.0132 55.8433 83.0124 55.8433 82.6936C55.8433 82.6108 55.8449 82.5281 55.8449 82.4453C54.6535 82.4453 53.4628 82.4453 52.2713 82.4453C52.2648 82.7568 51.7816 82.756 51.775 82.4453C51.1369 82.4453 50.4996 82.4453 49.8615 82.4453C49.701 82.4453 49.6211 82.5694 49.6211 82.6927C49.6211 82.8169 49.701 82.941 49.8615 82.941C57.8098 82.941 65.7589 82.941 73.7073 82.941C73.7048 82.8372 73.7048 82.7333 73.7048 82.6295Z" fill="black"/>
<path d="M88.3855 82.9418C88.4018 82.9418 88.4132 82.9353 88.4279 82.9329C88.6871 82.8899 88.6871 82.4964 88.4279 82.4543C88.4132 82.4518 88.4018 82.4453 88.3855 82.4453C87.7906 82.4453 87.1957 82.4453 86.6008 82.4453C86.6008 82.4567 86.6008 82.4672 86.6008 82.4786C86.6008 82.7974 86.1028 82.7974 86.1028 82.4786C86.1028 82.4672 86.1028 82.4567 86.1028 82.4453C84.0605 82.4453 82.0174 82.4453 79.9751 82.4453C79.9124 82.6692 79.5677 82.6684 79.5049 82.4453C79.1015 82.4453 78.6981 82.4453 78.2947 82.4453C78.157 82.4453 78.0192 82.4453 77.8807 82.4453C77.1847 82.4453 76.4895 82.4453 75.7936 82.4453C75.6273 82.4453 75.4611 82.4453 75.2956 82.4453C74.9028 82.4453 74.51 82.4453 74.1172 82.4453C74.1685 82.4851 74.2044 82.5459 74.2044 82.6295C74.2044 82.7333 74.2044 82.8372 74.2044 82.941C76.0927 82.941 77.9817 82.941 79.87 82.941C82.7077 82.9418 85.547 82.9418 88.3855 82.9418Z" fill="black"/>
<path d="M60.9703 69.0191C63.6067 69.0191 66.2431 69.0191 68.8795 69.0191C69.2519 69.0191 69.6251 69.0191 69.9976 69.0191C70.3179 69.0191 70.3195 68.5234 69.9976 68.5234C69.8321 68.5234 69.6659 68.5234 69.5005 68.5234C69.5005 68.6062 69.5005 68.6889 69.5005 68.7717C69.5005 69.0913 69.0025 69.0905 69.0025 68.7717C69.0025 68.6889 69.0025 68.6062 69.0025 68.5234C68.2699 68.5234 67.5364 68.5234 66.8038 68.5234C66.8038 68.6062 66.8038 68.6889 66.8038 68.7717C66.8038 69.0913 66.3058 69.0905 66.3058 68.7717C66.3058 68.6889 66.3058 68.6062 66.3058 68.5234C65.7582 68.5234 65.2105 68.5234 64.6629 68.5234C64.6637 68.5819 64.6653 68.6411 64.6653 68.6987C64.6653 69.0183 64.1674 69.0175 64.1674 68.6987C64.1674 68.6403 64.1674 68.5819 64.1674 68.5234C63.4755 68.5234 62.7827 68.5234 62.0908 68.5234C62.0713 68.5234 62.0509 68.5234 62.0305 68.5234C62.0248 68.835 61.5407 68.8342 61.5342 68.5234C61.3468 68.5234 61.1593 68.5234 60.9711 68.5234C60.6508 68.5226 60.65 69.0191 60.9703 69.0191Z" fill="black"/>
<path d="M51.5104 69.1441C53.2055 69.1441 54.9006 69.1441 56.5957 69.1441C56.916 69.1441 56.9168 68.6484 56.5957 68.6484C56.5093 68.6484 56.4229 68.6484 56.3374 68.6484C56.3374 68.689 56.3366 68.7296 56.3366 68.7693C56.3366 69.089 55.8394 69.0881 55.8394 68.7693C55.8394 68.7287 55.8402 68.6882 55.8402 68.6484C54.6357 68.6484 53.4312 68.6484 52.2267 68.6484C52.1338 68.7872 51.9048 68.7872 51.8119 68.6484C51.7116 68.6484 51.6106 68.6484 51.5104 68.6484C51.1893 68.6492 51.1893 69.1441 51.5104 69.1441Z" fill="black"/>
<path d="M62.031 68.5202C62.031 68.5178 62.0318 68.517 62.0318 68.5153C62.0318 66.3703 61.9291 64.1945 62.0318 62.0527C62.075 61.153 62.4213 60.1705 62.9812 59.4663C64.0447 58.131 66.215 57.9208 67.5376 59.0047C68.3836 59.6975 68.8611 60.8496 68.9883 61.9172C69.0959 62.8275 69.0038 63.7953 69.0038 64.7121C69.0038 65.9817 69.0038 67.2513 69.0038 68.521C69.0038 68.6038 69.0038 68.6865 69.0038 68.7693C69.0038 69.0881 69.5017 69.0889 69.5017 68.7693C69.5017 68.6865 69.5017 68.6038 69.5017 68.521C69.5017 67.2984 69.5017 66.0766 69.5017 64.854C69.5017 63.8951 69.5816 62.8997 69.4895 61.9456C69.3795 60.8001 68.8823 59.571 68.0307 58.7784C66.7838 57.6166 64.66 57.4884 63.2803 58.496C62.2445 59.2521 61.7213 60.5364 61.5632 61.772C61.4499 62.6522 61.5338 63.5698 61.5338 64.4557C61.5338 65.8089 61.5338 67.1621 61.5338 68.5153C61.5338 68.5178 61.5346 68.5186 61.5346 68.5202C61.5412 68.8317 62.0253 68.8326 62.031 68.5202Z" fill="black"/>
<path d="M66.7988 66.8203C66.7662 66.4472 66.6098 66.0512 66.3343 65.7916C65.9203 65.4022 65.2194 65.3462 64.7541 65.6797C64.4208 65.9182 64.2398 66.3117 64.1828 66.7084C64.1453 66.9688 64.1657 67.2365 64.1657 67.4994C64.1657 67.8417 64.1657 68.1841 64.1657 68.5256C64.1657 68.5841 64.1657 68.6425 64.1657 68.7009C64.1657 69.0197 64.6636 69.0205 64.6636 68.7009C64.6636 68.6425 64.662 68.5841 64.6612 68.5256C64.6563 67.9675 64.6343 67.4028 64.6636 66.8471L64.6669 66.8163L64.6661 66.8139L64.706 66.6224C64.7492 66.4634 64.803 66.3352 64.8926 66.2232C65.1371 65.919 65.6636 65.8622 65.961 66.1227C66.0825 66.2297 66.1811 66.3977 66.221 66.5161L66.2797 66.7181L66.2968 66.7992C66.3025 66.8301 66.3001 66.9096 66.3009 66.8163C66.2976 67.3858 66.3033 67.9561 66.3041 68.5256C66.3041 68.6084 66.3041 68.6911 66.3041 68.7739C66.3041 69.0927 66.8021 69.0935 66.8021 68.7739C66.8021 68.6911 66.8021 68.6084 66.8021 68.5256C66.8021 68.232 66.8021 67.9383 66.8021 67.6446C66.8029 67.372 66.8233 67.0905 66.7988 66.8203Z" fill="black"/>
<path d="M52.2287 68.65C52.2523 68.6143 52.2702 68.5729 52.2702 68.5177C52.2702 66.5553 52.2702 64.592 52.2702 62.6295C52.2702 61.6324 52.3542 60.6329 52.6899 59.6853C52.8766 59.1629 53.1879 58.5122 53.7763 58.3565C54.4046 58.1902 54.8765 58.6493 55.1552 59.154C55.6222 59.9993 55.8047 61.0799 55.8398 62.0381C55.9196 64.235 55.8446 66.4498 55.8422 68.6492C55.8422 68.6897 55.8414 68.7303 55.8414 68.7701C55.8414 69.0889 56.3385 69.0897 56.3385 68.7701C56.3385 68.7295 56.3393 68.6889 56.3393 68.6492C56.3418 66.4498 56.4176 64.235 56.3377 62.0381C56.2994 60.9777 56.0924 59.794 55.5635 58.8651C54.9294 57.7512 53.5611 57.4405 52.7266 58.539C52.0241 59.4647 51.8318 60.8049 51.778 61.9366C51.6745 64.119 51.7723 66.3321 51.7723 68.5169C51.7723 68.5713 51.7902 68.6127 51.8139 68.6492C51.9076 68.7879 52.1366 68.7887 52.2287 68.65Z" fill="black"/>
<path d="M62.031 82.4471C62.031 82.4447 62.0318 82.4439 62.0318 82.4422C62.0318 80.2972 61.9291 78.1214 62.0318 75.9796C62.075 75.0799 62.4213 74.0974 62.9812 73.3924C64.0447 72.0571 66.215 71.8469 67.5376 72.93C68.3836 73.6236 68.8611 74.7748 68.9883 75.8433C69.0959 76.7535 69.0038 77.7222 69.0038 78.6382C69.0038 79.9078 69.0038 81.1775 69.0038 82.4471C69.0038 82.5299 69.0038 82.6126 69.0038 82.6954C69.0038 83.0142 69.5017 83.015 69.5017 82.6954C69.5017 82.6126 69.5017 82.5299 69.5017 82.4471C69.5017 81.2245 69.5017 80.0027 69.5017 78.7801C69.5017 77.8212 69.5816 76.8258 69.4895 75.8717C69.3795 74.7262 68.8823 73.4971 68.0307 72.7045C66.7838 71.5427 64.66 71.4137 63.2803 72.4221C62.2445 73.1783 61.7213 74.4625 61.5632 75.6981C61.4499 76.5783 61.5338 77.4959 61.5338 78.3818C61.5338 79.735 61.5338 81.0882 61.5338 82.4415C61.5338 82.4439 61.5346 82.4447 61.5346 82.4463C61.5412 82.7578 62.0244 82.7578 62.031 82.4471Z" fill="black"/>
<path d="M66.7988 80.7426C66.7662 80.3694 66.6098 79.9735 66.3343 79.7139C65.9203 79.3237 65.2194 79.2685 64.7541 79.6011C64.4208 79.8397 64.2398 80.2331 64.1828 80.6298C64.1453 80.8903 64.1657 81.158 64.1657 81.4209C64.1657 81.7632 64.1657 82.1056 64.1657 82.4471C64.1657 82.5055 64.1657 82.5639 64.1657 82.6223C64.1657 82.9412 64.6636 82.942 64.6636 82.6223C64.6636 82.5639 64.662 82.5055 64.6612 82.4471C64.6563 81.8889 64.6343 81.3243 64.6636 80.7686L64.6669 80.7377L64.6661 80.7353L64.706 80.5438C64.7492 80.3848 64.803 80.2559 64.8926 80.1447C65.1371 79.8397 65.6636 79.7837 65.961 80.0441C66.0825 80.1512 66.1811 80.3191 66.221 80.4376L66.2797 80.6396L66.2968 80.7215C66.3025 80.7524 66.3001 80.8319 66.3009 80.7377C66.2976 81.3073 66.3033 81.8776 66.3041 82.4471C66.3041 82.5299 66.3041 82.6126 66.3041 82.6954C66.3041 83.0142 66.8021 83.015 66.8021 82.6954C66.8021 82.6126 66.8021 82.5299 66.8021 82.4471C66.8021 82.1534 66.8021 81.8597 66.8021 81.5661C66.8029 81.2943 66.8233 81.0128 66.7988 80.7426Z" fill="black"/>
<path d="M52.2694 82.4484C52.2694 82.446 52.2702 82.4451 52.2702 82.4435C52.2702 80.481 52.2702 78.5177 52.2702 76.5552C52.2702 75.559 52.3542 74.5595 52.6899 73.6111C52.8766 73.0887 53.1879 72.438 53.7763 72.2822C54.4046 72.1159 54.8765 72.5751 55.1552 73.0797C55.6222 73.9251 55.8047 75.0057 55.8398 75.9638C55.918 78.1186 55.8479 80.2904 55.843 82.4484C55.843 82.5311 55.8414 82.6139 55.8414 82.6966C55.8414 83.0155 56.3385 83.0163 56.3385 82.6966C56.3385 82.6139 56.3401 82.5311 56.3401 82.4484C56.3458 80.2912 56.4159 78.1186 56.3377 75.9638C56.2994 74.9035 56.0924 73.7198 55.5635 72.7909C54.9294 71.677 53.5611 71.3663 52.7266 72.4648C52.0241 73.3905 51.8318 74.7307 51.778 75.8624C51.6745 78.0448 51.7723 80.2579 51.7723 82.4427C51.7723 82.4452 51.7731 82.446 51.7731 82.4476C51.7796 82.7591 52.2637 82.7591 52.2694 82.4484Z" fill="black"/>
<path d="M79.4531 63.3309C79.4547 63.3245 79.4579 63.3189 79.4595 63.3125C79.4563 63.3181 79.4547 63.3245 79.4531 63.3309Z" fill="black"/>
<path d="M79.9315 63.4615C79.9291 63.4696 79.925 63.4777 79.9226 63.4858C79.8411 63.7836 79.3937 63.6692 79.4409 63.3828C79.4393 63.3958 79.4336 63.4055 79.4336 63.4201C79.4344 69.7384 79.4915 76.0566 79.4915 82.3749C79.4915 82.4008 79.4996 82.4219 79.5053 82.4438C79.5681 82.6669 79.9136 82.6677 79.9755 82.4438C79.9812 82.4219 79.9894 82.4016 79.9894 82.3749C79.9886 76.0704 79.9323 69.766 79.9315 63.4615Z" fill="black"/>
<path d="M79.9187 63.4921C79.9212 63.484 79.9252 63.4759 79.9277 63.4677C80.3865 61.8355 81.895 60.6072 83.2454 59.6921C83.9788 59.1947 84.7555 58.7761 85.5371 58.3591C86.4351 57.8805 87.3422 57.4067 88.3226 57.1146C88.3666 57.1016 88.3992 57.0797 88.4253 57.053C88.5239 56.9572 88.5108 56.7966 88.4253 56.7009C88.3715 56.6408 88.2916 56.6059 88.1889 56.636C87.1922 56.9321 86.2664 57.4091 85.3521 57.8951C84.4646 58.3672 83.586 58.8443 82.7621 59.4227C81.3905 60.3873 79.9309 61.6472 79.4542 63.3152C79.4526 63.3217 79.4493 63.3274 79.4477 63.3339C79.4452 63.3428 79.4412 63.3509 79.4387 63.359C79.4363 63.3696 79.4387 63.3777 79.4371 63.3874C79.3898 63.6754 79.8372 63.7906 79.9187 63.4921Z" fill="black"/>
<path d="M88.4277 68.6078C88.3976 68.5941 88.3617 68.5859 88.3218 68.5859C87.748 68.5859 87.1743 68.5859 86.6006 68.5859C86.6006 68.6581 86.6006 68.7303 86.6006 68.8025C86.6006 68.9997 86.4107 69.0743 86.2656 69.0281C86.3039 69.0597 86.3512 69.0824 86.4148 69.0824C87.0504 69.0824 87.6869 69.0824 88.3218 69.0824C88.3625 69.0824 88.3976 69.0743 88.4277 69.0606C88.607 68.9778 88.607 68.689 88.4277 68.6078Z" fill="black"/>
<path d="M86.6031 68.8051C86.6031 68.7329 86.6031 68.6607 86.6031 68.5885C86.6031 67.9614 86.6031 67.3351 86.6031 66.708C86.6031 66.3762 86.6031 66.0435 86.6031 65.7117C86.6031 65.3556 86.5705 64.9832 86.6031 64.6287L86.5982 64.6027L86.6675 64.5159C86.7832 64.378 86.9071 64.2482 87.0383 64.1265C87.436 63.759 87.9021 63.4872 88.4302 63.3623C88.4457 63.3582 88.4596 63.3525 88.475 63.3485C88.7481 63.2884 88.682 62.9177 88.453 62.869C88.4457 62.8674 88.4376 62.8698 88.4302 62.869C88.4229 62.8682 88.4147 62.8698 88.4074 62.869C88.3862 62.8682 88.3658 62.8649 88.343 62.8698C87.766 62.9956 87.2502 63.2868 86.8052 63.6681C86.5803 63.8612 86.2795 64.1168 86.1418 64.3877C86.0864 64.4956 86.1043 64.6189 86.1043 64.7374C86.1043 64.9467 86.1043 65.156 86.1043 65.3645C86.1043 65.7345 86.1043 66.1044 86.1043 66.4735C86.1043 67.2507 86.1043 68.0271 86.1043 68.8051C86.1043 68.9268 86.1777 69.0015 86.2673 69.0307C86.4132 69.0769 86.6031 69.0023 86.6031 68.8051Z" fill="black"/>
<path d="M86.6339 76.9716C86.7219 76.7988 86.8548 76.6341 86.9762 76.4832C87.3584 76.0094 87.8343 75.5981 88.4244 75.4172C88.4398 75.4123 88.4537 75.4034 88.4692 75.3994C88.7341 75.3239 88.6729 74.9613 88.4537 74.9167C88.4439 74.915 88.4341 74.915 88.4244 74.9142C88.4154 74.9134 88.4048 74.9158 88.395 74.9167C88.3763 74.9175 88.3583 74.915 88.338 74.9207C87.6966 75.1024 87.1587 75.5129 86.7268 76.0111C86.5165 76.2536 86.1995 76.583 86.1074 76.9027C86.0561 77.0852 86.0985 77.3383 86.0985 77.5274C86.0985 77.7894 86.0985 78.0514 86.0985 78.3135C86.0985 78.7629 86.0985 79.2124 86.0985 79.6626C86.0985 80.5899 86.0985 81.5164 86.0985 82.4437C86.0985 82.4551 86.0985 82.4656 86.0985 82.477C86.0985 82.7958 86.5964 82.7958 86.5964 82.477C86.5964 82.4656 86.5964 82.4551 86.5964 82.4437C86.5964 80.7822 86.5964 79.1207 86.5964 77.4592C86.5972 77.2458 86.5467 77.142 86.6339 76.9716Z" fill="black"/>
<path d="M71.3855 47.3842C71.3855 47.3437 71.3855 47.3031 71.3855 47.2633C71.3855 45.9077 71.3855 44.5512 71.3855 43.1956C71.3855 42.7145 71.3855 42.2334 71.3855 41.7523C71.3855 41.6631 71.3447 41.6022 71.2893 41.5625C71.2005 41.5 71.0717 41.5 70.9829 41.5625C70.978 41.5657 70.9715 41.5673 70.9666 41.5714C70.9193 41.6111 70.8867 41.6712 70.8867 41.7523C70.8867 42.8191 70.8867 43.8868 70.8867 44.9536C70.8867 45.1191 70.8867 45.2838 70.8867 45.4493C70.8867 45.5353 70.8867 45.6213 70.8867 45.7073C70.8867 45.9831 70.8867 46.2598 70.8867 46.5356C70.8867 46.7011 70.8867 46.8658 70.8867 47.0313C70.8867 47.1489 70.8867 47.2666 70.8867 47.3842C70.8867 47.4142 70.8949 47.4386 70.903 47.4637C70.9804 47.6974 71.3855 47.6738 71.3855 47.3842Z" fill="black"/>
<path d="M58.5458 52.4801C63.1536 52.4801 67.7606 52.4801 72.3684 52.4801C72.4515 52.4801 72.5346 52.4801 72.6177 52.4801C72.938 52.4801 72.9388 51.9844 72.6177 51.9844C72.5346 51.9844 72.4515 51.9844 72.3684 51.9844C72.2746 51.9844 72.1817 51.9844 72.088 51.9844C71.5844 51.9844 71.0807 51.9844 70.5771 51.9844C70.4108 51.9844 70.2446 51.9844 70.0791 51.9844C69.56 51.9844 69.0409 51.9844 68.5217 51.9844C68.3555 51.9844 68.1892 51.9844 68.0238 51.9844C67.0654 51.9844 66.1062 51.9844 65.1478 51.9844C64.9816 51.9844 64.8161 51.9844 64.6499 51.9844C63.9734 51.9844 63.297 51.9844 62.6206 51.9844C62.4544 51.9844 62.2889 51.9844 62.1235 51.9844C61.6198 51.9844 61.1162 51.9844 60.6125 51.9844C60.4463 51.9844 60.2809 51.9844 60.1154 51.9844C59.9068 51.9844 59.6982 51.9844 59.4895 51.9844C59.175 51.9844 58.8612 51.9844 58.5466 51.9844C58.4448 51.9844 58.3787 52.0371 58.3413 52.1061C58.2614 52.2529 58.3274 52.4801 58.5458 52.4801Z" fill="black"/>
<path d="M56.4103 51.9649C56.4225 51.9779 56.4348 51.9909 56.447 52.0031C56.6695 52.2326 56.3182 52.5831 56.0941 52.3535C55.9621 52.2172 55.8333 52.0777 55.7013 51.9414C53.6835 51.9414 51.6656 51.9414 49.6486 51.9414C49.3943 51.9414 49.3446 52.2497 49.4937 52.3787C49.5329 52.4128 49.5818 52.4371 49.6486 52.4371C51.8669 52.4371 54.0844 52.4371 56.3027 52.4371C56.3688 52.4371 56.4185 52.4128 56.4568 52.3787C56.5815 52.2716 56.5676 52.0388 56.4103 51.9649Z" fill="black"/>
<path d="M56.0919 52.3541C56.3152 52.5837 56.6673 52.2332 56.4448 52.0036C56.4326 51.9907 56.4204 51.9777 56.4081 51.9655C55.0789 50.5993 53.7644 49.2193 52.4629 47.8263C52.3456 47.7014 52.1932 47.7452 52.1076 47.8474C52.0334 47.9359 52.009 48.0681 52.1108 48.1768C53.2942 49.444 54.493 50.6966 55.6991 51.9428C55.8311 52.0783 55.9599 52.2178 56.0919 52.3541Z" fill="black"/>
<path d="M74.205 84.0189C74.205 83.6603 74.205 83.3017 74.205 82.9432C74.205 82.8393 74.205 82.7355 74.205 82.6316C74.205 82.5472 74.1691 82.4872 74.1178 82.4475C74.0265 82.3769 73.8847 82.3769 73.7934 82.4475C73.7421 82.4872 73.707 82.5472 73.707 82.6316C73.707 82.7355 73.707 82.8393 73.707 82.9432C73.707 83.3017 73.707 83.6603 73.707 84.0189C73.707 87.1854 73.707 90.3509 73.707 93.5166C73.707 93.5563 73.7144 93.5904 73.7282 93.6204C73.8097 93.8013 74.1031 93.8013 74.1846 93.6204C74.1976 93.5904 74.2058 93.5563 74.2058 93.5166C74.205 90.3509 74.205 87.1854 74.205 84.0189Z" fill="black"/>
<path d="M31.3597 83.1324C33.9236 83.1324 36.4875 83.1324 39.0513 83.1324C39.3064 83.1324 39.3545 82.8233 39.2054 82.6943C39.1662 82.661 39.1173 82.6367 39.0513 82.6367C38.9837 82.6367 38.9161 82.6367 38.8484 82.6367C38.5004 82.6367 38.1524 82.6367 37.8036 82.6367C35.6554 82.6367 33.5072 82.6367 31.3589 82.6367C31.3508 82.6367 31.3451 82.6408 31.3369 82.6408C31.2823 82.6456 31.2383 82.6651 31.2049 82.6943C31.0558 82.8233 31.1047 83.1324 31.3597 83.1324Z" fill="black"/>
<path d="M19.9095 49.9128C19.6739 44.2679 19.4531 39.0611 19.2779 35.0031C17.9128 35.0031 16.5477 35.0031 15.1827 35.0031C15.1281 35.0031 15.0857 34.9853 15.0498 34.9609L14.2227 49.9128H19.9095Z" fill="#EDE5D6"/>
<path d="M22.9022 93.62L22.9005 93.6176H21.9707H21.74C21.6414 91.2665 21.2128 80.9283 20.7124 69.048C18.2536 69.048 15.7949 69.048 13.337 69.048C13.2612 69.048 13.205 69.0187 13.165 68.9766L11.8008 93.6192H22.9022V93.62Z" fill="#EDE5D6"/>
<path d="M20.5803 65.9429C20.4034 61.6594 20.2193 57.2541 20.0383 53.0079C18.1224 53.0079 16.2064 53.0079 14.2896 53.0079C14.1543 53.0079 14.0802 52.9186 14.059 52.8164L13.332 65.9445H20.5803V65.9429Z" fill="#EDE5D6"/>
<path d="M19.037 29.5262C17.8252 29.5262 16.6141 29.5262 15.4023 29.5262C15.3819 29.5262 15.3664 29.5189 15.3485 29.5156L15.2148 31.9365H19.1413C19.1022 31.0295 19.0655 30.2247 19.037 29.5262Z" fill="#EDE5D6"/>
<path d="M13.3361 68.556C15.7875 68.556 18.2389 68.556 20.6912 68.556C20.6545 67.6928 20.6211 66.8247 20.5803 65.9453H13.3321H12.1602V68.8148H13.0982C13.0933 68.6875 13.1715 68.556 13.3361 68.556Z" fill="#EDE5D6"/>
<path d="M14.2897 52.5142C16.1992 52.5142 18.1094 52.5142 20.0181 52.5142C19.9814 51.6413 19.9439 50.7708 19.9064 49.9141H14.2188H13.3672V52.7828H14.0518C14.0436 52.6521 14.1202 52.5142 14.2897 52.5142Z" fill="#EDE5D6"/>
<path d="M15.1812 34.5091C16.539 34.5091 17.8959 34.5091 19.2536 34.5091C19.2137 33.5883 19.177 32.7227 19.1428 31.9414H15.2163H13.9727V34.8109H14.9482C14.9221 34.6705 14.9971 34.5091 15.1812 34.5091Z" fill="#EDE5D6"/>
<path d="M15.4029 29.0338C16.6074 29.0338 17.8111 29.0338 19.014 29.0338C19.0116 28.9624 19.0091 28.8869 19.0059 28.8188C18.9847 28.3296 18.9667 27.9337 18.9504 27.5994C17.5984 27.5994 16.2464 27.5994 14.8944 27.5994C14.7477 27.5994 14.6719 27.4956 14.6597 27.3828H13.9727V29.4711H15.2481C15.0997 29.3421 15.1495 29.0338 15.4029 29.0338Z" fill="#EDE5D6"/>
<path d="M14.8943 27.1021C16.2382 27.1021 17.5829 27.1021 18.9267 27.1021C18.9218 27.008 18.9178 26.9228 18.9137 26.8538C18.7442 23.6079 17.71 22.7471 17.1175 22.524C17.305 22.4648 17.45 22.4494 17.538 22.4453C17.5144 22.4453 17.5005 22.4461 17.5005 22.4461H17.4166C17.4166 22.4461 14.7851 22.4551 14.7109 27.1865C14.7517 27.1362 14.812 27.1021 14.8943 27.1021Z" fill="#EDE5D6"/>
<path d="M18.9117 26.8525C18.9158 26.9214 18.9199 27.0066 18.9248 27.1007C19.2972 27.1007 19.6696 27.1007 20.0421 27.1007C20.3632 27.1007 20.3624 27.5964 20.0421 27.5964C19.6778 27.5964 19.3127 27.5964 18.9476 27.5964C18.9639 27.9307 18.9818 28.3274 19.003 28.8158C19.0063 28.8839 19.0087 28.9594 19.0112 29.0308C19.2059 29.0308 19.4007 29.0308 19.5955 29.0308C19.9174 29.0308 19.9166 29.5264 19.5955 29.5264C19.4089 29.5264 19.2214 29.5264 19.0348 29.5264C19.0641 30.225 19.1 31.0297 19.1391 31.9368C19.1733 32.718 19.2108 33.5845 19.2499 34.5044C19.4186 34.5044 19.5865 34.5044 19.7552 34.5044C20.0763 34.5044 20.0763 35.0002 19.7552 35.0002C19.5947 35.0002 19.4341 35.0002 19.2736 35.0002C19.4488 39.0582 19.6696 44.2642 19.9052 49.9098C19.9418 50.7666 19.9793 51.6371 20.0168 52.51C20.258 52.51 20.5001 52.51 20.7413 52.51C21.0632 52.51 21.0624 53.0057 20.7413 53.0057C20.5066 53.0057 20.2719 53.0057 20.0372 53.0057C20.2181 57.2519 20.4023 61.6572 20.5791 65.9407V65.9424C20.6199 66.821 20.6533 67.6891 20.69 68.5531C21.0143 68.5531 21.3387 68.5531 21.6639 68.5531C21.9849 68.5531 21.9841 69.0488 21.6639 69.0488C21.346 69.0488 21.029 69.0488 20.7112 69.0488C21.2115 80.9291 21.6402 91.2665 21.7388 93.6184H21.9695H22.8993C22.857 93.5786 22.826 93.5251 22.8211 93.4529C22.5994 89.8686 22.443 86.2819 22.3549 82.692C22.3501 82.4811 22.5636 82.413 22.7127 82.4811L21.9564 68.8127H22.9678V65.9407H21.7975L21.0681 52.7785H21.7584H21.7608V49.9098H20.9108L20.0755 34.8054H21.1553H21.1569V31.9368H21.1553H19.9166L19.7805 29.468H21.1553H21.1569V27.3798H21.1553H20.4251C20.4251 22.4415 17.7129 22.4415 17.7129 22.4415H17.629C17.629 22.4415 17.5915 22.4407 17.5377 22.4432C17.4497 22.4472 17.3046 22.4626 17.1172 22.5218C17.708 22.7458 18.7422 23.6065 18.9117 26.8525Z" fill="white"/>
<path d="M19.0406 29.5269C19.2272 29.5269 19.4146 29.5269 19.6012 29.5269C19.9223 29.5269 19.9232 29.0312 19.6012 29.0312C19.4065 29.0312 19.2117 29.0312 19.0169 29.0312C17.8132 29.0312 16.6095 29.0312 15.4058 29.0312C15.1524 29.0312 15.1027 29.3395 15.251 29.4693C15.2779 29.4929 15.3113 29.5083 15.3512 29.5164C15.3692 29.5204 15.3846 29.5269 15.405 29.5269C16.6177 29.5269 17.8287 29.5269 19.0406 29.5269Z" fill="black"/>
<path d="M19.2747 35.0035C19.4352 35.0035 19.5958 35.0035 19.7563 35.0035C20.0774 35.0035 20.0774 34.5078 19.7563 34.5078C19.5876 34.5078 19.4198 34.5078 19.2511 34.5078C17.8933 34.5078 16.5364 34.5078 15.1787 34.5078C14.9953 34.5078 14.9204 34.6693 14.9464 34.8088C14.9587 34.8713 14.9913 34.9256 15.0459 34.9622C15.0817 34.9865 15.1241 35.0043 15.1787 35.0043C16.5446 35.0035 17.9096 35.0035 19.2747 35.0035Z" fill="black"/>
<path d="M14.8961 27.5972C16.2482 27.5972 17.6002 27.5972 18.9522 27.5972C19.3173 27.5972 19.6816 27.5972 20.0467 27.5972C20.367 27.5972 20.3678 27.1016 20.0467 27.1016C19.6742 27.1016 19.3018 27.1016 18.9294 27.1016C17.5855 27.1016 16.2408 27.1016 14.8969 27.1016C14.8146 27.1016 14.7535 27.1356 14.7136 27.1851C14.6696 27.2395 14.6541 27.3109 14.6622 27.3815C14.6736 27.4926 14.7503 27.5972 14.8961 27.5972Z" fill="black"/>
<path d="M14.2886 53.0035C16.2054 53.0035 18.1214 53.0035 20.0374 53.0035C20.2721 53.0035 20.5068 53.0035 20.7415 53.0035C21.0626 53.0035 21.0634 52.5078 20.7415 52.5078C20.5003 52.5078 20.2582 52.5078 20.017 52.5078C18.1075 52.5078 16.1981 52.5078 14.2886 52.5078C14.1191 52.5078 14.0425 52.6457 14.0515 52.7772C14.0523 52.7893 14.0547 52.8015 14.0572 52.8129C14.0784 52.9151 14.1534 53.0035 14.2886 53.0035Z" fill="black"/>
<path d="M20.7128 69.0504C21.0306 69.0504 21.3477 69.0504 21.6655 69.0504C21.9858 69.0504 21.9866 68.5547 21.6655 68.5547C21.3411 68.5547 21.0168 68.5547 20.6916 68.5547C18.2394 68.5547 15.788 68.5547 13.3366 68.5547C13.172 68.5547 13.0937 68.6861 13.0978 68.8135C13.1003 68.8751 13.1223 68.9352 13.1646 68.9798C13.2046 69.022 13.2608 69.0512 13.3366 69.0512C15.7961 69.0504 18.2541 69.0504 20.7128 69.0504Z" fill="black"/>
<path d="M22.3556 82.6978C22.4436 86.2869 22.6 89.8744 22.8217 93.4586C22.8266 93.5308 22.8576 93.5844 22.8999 93.6241L22.9016 93.6265C23.0034 93.719 23.1738 93.7182 23.2626 93.6241C23.3001 93.5844 23.3245 93.5308 23.3196 93.4586C23.3164 93.4091 23.3148 93.3596 23.3115 93.3093C23.1208 90.2159 22.9888 87.1201 22.8975 84.0218C22.8845 83.5805 22.8633 83.1391 22.8527 82.6978C22.8502 82.5899 22.7891 82.5217 22.7133 82.4868C22.565 82.4179 22.3507 82.486 22.3556 82.6978Z" fill="black"/>
</g>
</svg>
