<svg width="14" height="14" viewBox="0 0 14 14" fill="none" xmlns="http://www.w3.org/2000/svg">
<path d="M8.42215 1.79161L8.47649 1.94222L8.63186 1.98091C8.80322 2.02358 8.94473 2.06493 9.06086 2.10658L9.06098 2.10663C9.18971 2.15274 9.36186 2.22489 9.58152 2.32716L9.71669 2.3901L9.84847 2.32036L10.9993 1.71136L10.9994 1.7113C11.036 1.69191 11.0779 1.68492 11.1188 1.69136C11.1596 1.69778 11.1973 1.71726 11.2261 1.74687C11.2261 1.74691 11.2262 1.74696 11.2262 1.74701L12.2377 2.7927C12.2377 2.79273 12.2377 2.79277 12.2377 2.7928C12.2887 2.84568 12.3024 2.92116 12.2741 2.98781L11.7345 4.25237L11.6775 4.38601L11.747 4.5136C11.8343 4.67382 11.9025 4.80844 11.9537 4.91864C12.0086 5.03833 12.0787 5.20778 12.1642 5.43184L12.2095 5.55059L12.3263 5.60065L13.5842 6.13965L13.5848 6.13991C13.658 6.17108 13.7008 6.24269 13.6962 6.31683C13.6962 6.3169 13.6962 6.31698 13.6962 6.31705L13.6039 7.76817C13.6039 7.76831 13.6039 7.76845 13.6039 7.76858C13.6014 7.80418 13.5886 7.83829 13.567 7.86671C13.5453 7.89523 13.5157 7.91676 13.4819 7.92862L13.4808 7.92903L12.2894 8.35253L12.1306 8.40898L12.0962 8.57397C12.0635 8.73087 12.0303 8.86056 11.9967 8.96674C11.9389 9.14094 11.8728 9.31233 11.7989 9.48032L11.7449 9.60286L11.8001 9.72485L12.3986 11.0479L12.3988 11.0483C12.4146 11.0829 12.4188 11.1217 12.4109 11.1589C12.403 11.1961 12.3834 11.2298 12.355 11.2551L12.3545 11.2555L11.2168 12.2715C11.2168 12.2715 11.2168 12.2715 11.2167 12.2716C11.1875 12.2976 11.151 12.314 11.1121 12.3187C11.0733 12.3234 11.0339 12.3161 10.9993 12.2978L9.8262 11.6762L9.6858 11.6018L9.54537 11.6762C9.37295 11.7675 9.19508 11.8481 9.01277 11.9175C9.01251 11.9176 9.01224 11.9177 9.01198 11.9178L8.50118 12.109L8.37129 12.1577L8.32418 12.2881L7.86957 13.547C7.86952 13.5472 7.86947 13.5473 7.86942 13.5475C7.85644 13.5827 7.83313 13.6133 7.80252 13.6351C7.7718 13.6571 7.73517 13.6692 7.69743 13.67L7.69656 13.67L6.36656 13.7001L6.36548 13.7001C6.32665 13.7011 6.28846 13.6901 6.25616 13.6685C6.22403 13.647 6.19931 13.6162 6.18535 13.5802C6.18528 13.58 6.1852 13.5798 6.18513 13.5796L5.64948 12.1622L5.59954 12.03L5.46587 11.9843C5.28936 11.924 5.11458 11.8587 4.94175 11.7886C4.80259 11.7282 4.66552 11.6632 4.53078 11.5936L4.40517 11.5287L4.27516 11.5842L2.94533 12.1526C2.91119 12.1671 2.87356 12.1715 2.83702 12.165L2.78497 12.4605L2.83702 12.165C2.80047 12.1586 2.76658 12.1417 2.73948 12.1163L1.75561 11.1933L1.75513 11.1929C1.72783 11.1674 1.70924 11.1339 1.70199 11.0973C1.69475 11.0607 1.69917 11.0228 1.71463 10.9889C1.71466 10.9888 1.71468 10.9887 1.71471 10.9887L2.2864 9.74315L2.34733 9.6104L2.28042 9.48057C2.20817 9.34038 2.14115 9.19755 2.07952 9.05238C2.00646 8.87162 1.93883 8.68872 1.87672 8.50392L1.8275 8.3575L1.67973 8.31251L0.426732 7.93101L0.426147 7.93083C0.387558 7.91917 0.353901 7.89509 0.330402 7.86233L0.111568 8.01933L0.330401 7.86233C0.306986 7.8297 0.294963 7.79026 0.296178 7.75012C0.296182 7.74998 0.296187 7.74983 0.296191 7.74969L0.345114 6.40712C0.345119 6.40699 0.345124 6.40687 0.34513 6.40674C0.346508 6.37379 0.356833 6.34184 0.375001 6.31431C0.393238 6.28667 0.418683 6.26455 0.448585 6.25033L0.449636 6.24983L1.76424 5.61843L1.88773 5.55911L1.92378 5.42694C1.98341 5.20829 2.03362 5.0453 2.0758 4.93098C2.13843 4.77067 2.20795 4.61314 2.28415 4.45882L2.34836 4.32877L2.28632 4.19767L1.71655 2.99374C1.71654 2.99372 1.71653 2.99371 1.71653 2.99369C1.71652 2.99368 1.71652 2.99368 1.71652 2.99367C1.70044 2.95963 1.69556 2.92136 1.70258 2.88437C1.70961 2.84736 1.72819 2.81352 1.75567 2.78774L1.75634 2.78711L2.73899 1.85905C2.76582 1.83374 2.7994 1.81672 2.83568 1.81004C2.87196 1.80337 2.90939 1.80732 2.94348 1.82142L2.94362 1.82148L4.27222 2.37028L4.42006 2.43135L4.55316 2.34262C4.69272 2.24958 4.81701 2.1758 4.92745 2.11738L4.92799 2.11709C5.05276 2.05075 5.22894 1.97663 5.4647 1.89258L5.59844 1.8449L5.64635 1.71124L6.10802 0.423456C6.10807 0.423323 6.10812 0.423191 6.10817 0.423059C6.12132 0.386989 6.14525 0.355833 6.17671 0.333818L6.00473 0.088013L6.17671 0.333818C6.20829 0.311722 6.24592 0.299912 6.28446 0.300001H6.28515H7.75095C7.8322 0.300001 7.90226 0.350611 7.928 0.421845L8.42215 1.79161ZM7.01315 4.6133C5.6839 4.6133 4.60055 5.6788 4.60055 7.0014C4.60055 8.32387 5.68376 9.3902 7.01315 9.3902C8.3419 9.3902 9.42505 8.3238 9.42505 7.0014C9.42505 5.67893 8.34254 4.6133 7.01315 4.6133Z" fill="white" stroke="#1E0627" stroke-width="0.6"/>
</svg>
