<svg width="87" height="85" viewBox="0 0 87 85" fill="none" xmlns="http://www.w3.org/2000/svg">
<path d="M76.5234 64.5004C76.5234 67.0012 76.5234 69.502 76.5234 72.0028C77.5507 72.0028 78.579 72.0028 79.6063 72.0028V61.0195C78.579 61.0195 77.5507 61.0195 76.5234 61.0195C76.5234 62.1795 76.5234 63.3404 76.5234 64.5004Z" fill="#F9BA6B"/>
<path d="M14.2229 27.1361C24.1788 27.1361 34.1357 27.1361 44.0916 27.1361C44.3703 27.1361 44.649 27.1361 44.9287 27.1361C47.3496 27.1361 49.7696 27.1361 52.1906 27.1361C58.1097 27.1361 64.0297 27.1361 69.9489 27.1361V22.7773H5.69922V27.2186C5.74536 27.1699 5.81033 27.1371 5.8979 27.1371C8.6729 27.1362 11.4479 27.1361 14.2229 27.1361Z" fill="#F9BA6B"/>
<path d="M74.5139 57.264L60.2305 57.2266C60.2305 58.2985 60.2305 59.3713 60.2305 60.4432C64.9998 60.4432 69.77 60.4432 74.5402 60.4432L74.5139 57.264Z" fill="#F9BA6B"/>
<path d="M60.2305 61.0166C60.2305 62.1765 60.2305 63.3365 60.2305 64.4965C60.2305 66.9973 60.2305 69.4981 60.2305 71.9989C65.0318 71.9989 69.8331 71.9989 74.6344 71.9989L74.5449 61.0156C69.7728 61.0166 65.0016 61.0166 60.2305 61.0166Z" fill="#F9BA6B"/>
<path d="M14.1652 20.8703C16.3177 20.8703 18.4713 20.8703 20.6239 20.8703C28.5119 20.8703 36.399 20.8703 44.2871 20.8703C52.84 20.8703 61.3938 20.8703 69.9476 20.8703V9.9123H55.5811L55.5933 8.32037C51.5622 8.32037 47.5311 8.32037 43.4999 8.32037C43.4133 8.32037 43.3493 8.28758 43.3031 8.23979C43.257 8.28758 43.1929 8.32037 43.1073 8.32037C38.3162 8.32037 33.5252 8.32037 28.7351 8.32037C28.3613 8.32037 28.3622 7.74508 28.7351 7.74508C33.5252 7.74508 38.3162 7.74508 43.1073 7.74508C43.1939 7.74508 43.2579 7.77788 43.3041 7.82566C43.3502 7.77788 43.4142 7.74508 43.5009 7.74508C47.4115 7.74508 51.3221 7.74508 55.2327 7.74508L47.3446 1.48699H35.028L36.8087 0L30.705 5.09342H27.5543V7.83876H13.7734V21.1579H13.8864C13.8864 21.0146 13.9787 20.8703 14.1652 20.8703ZM60.3797 11.1688C60.6753 10.9439 60.9626 11.4443 60.6716 11.6654C59.9946 12.1807 59.5247 12.9209 59.341 13.7473C59.019 15.1922 59.6687 16.7345 60.9268 17.5225C62.2008 18.3208 63.8138 18.2233 65.021 17.3472C65.3214 17.1289 65.6105 17.6283 65.3129 17.8438C64.5276 18.4144 63.553 18.7087 62.5803 18.6412C60.8505 18.5213 59.3382 17.3304 58.8486 15.6682C58.3523 13.9919 59.002 12.2173 60.3797 11.1688ZM21.5334 11.1688C21.8301 10.9439 22.1173 11.4443 21.8263 11.6654C21.1493 12.1807 20.6784 12.9209 20.4948 13.7473C20.1737 15.1922 20.8225 16.7345 22.0806 17.5225C23.3555 18.3208 24.9685 18.2233 26.1748 17.3472C26.4761 17.1289 26.7643 17.6283 26.4676 17.8438C25.6814 18.4144 24.7077 18.7087 23.7341 18.6412C22.0043 18.5213 20.493 17.3304 20.0024 15.6682C19.5071 13.9919 20.1558 12.2173 21.5334 11.1688Z" fill="#F9BA6B"/>
<path d="M10.668 61.0166C10.668 62.1765 10.668 63.3365 10.668 64.4965C10.668 66.9973 10.668 69.4981 10.668 71.9989C15.4777 71.9989 20.2866 71.9989 25.0964 71.9989L25.0069 61.0156C20.2273 61.0166 15.4476 61.0166 10.668 61.0166Z" fill="#F9BA6B"/>
<path d="M54.9212 106.271C54.5493 106.271 54.5493 105.696 54.9212 105.696C63.1502 105.696 71.3782 105.696 79.6062 105.696V103.92C78.3604 103.92 77.1146 103.92 75.8689 103.92C68.9516 103.92 62.0353 103.92 55.1181 103.92C54.7452 103.92 54.7461 103.345 55.1181 103.345C56.8638 103.345 58.6096 103.345 60.3545 103.345C66.7717 103.345 73.1889 103.345 79.6052 103.345V72.5764C78.5779 72.5764 77.5497 72.5764 76.5223 72.5764C76.5223 80.8715 76.5223 89.1666 76.5223 97.4616C76.5223 97.6687 76.3434 97.7558 76.1843 97.7315V98.6432C76.7417 98.6432 77.3001 98.6432 77.8576 98.6432C78.0986 98.6432 78.1806 98.884 78.109 99.0536C78.2324 99.0742 78.3425 99.1613 78.3425 99.3225C78.3425 100.563 78.3425 101.804 78.3425 103.045C78.3425 103.416 77.7644 103.415 77.7644 103.045C77.7644 101.805 77.7644 100.564 77.7644 99.3225C77.7644 99.2831 77.7738 99.2494 77.7851 99.2185C71.3424 99.2185 64.8998 99.2185 58.458 99.2185C58.458 100.494 58.458 101.769 58.458 103.044C58.458 103.415 57.8799 103.414 57.8799 103.044C57.8799 101.673 57.8799 100.302 57.8799 98.9299C57.8799 98.8493 57.91 98.7893 57.9533 98.7434C57.9571 98.7378 57.9608 98.7331 57.9646 98.7284C57.9712 98.7218 57.9787 98.7172 57.9863 98.7125C58.0315 98.6722 58.0898 98.6422 58.1689 98.6422C63.0664 98.6422 67.9657 98.6422 72.8632 98.6422C72.8509 98.6113 72.8415 98.5776 72.8415 98.5382C72.8415 97.4673 72.8415 96.3953 72.8415 95.3244C69.688 95.3244 66.5335 95.3244 63.379 95.3244C63.379 96.3307 63.379 97.337 63.379 98.3424C63.379 98.7134 62.8009 98.7134 62.8009 98.3424C62.8009 97.2405 62.8009 96.1386 62.8009 95.0367C62.8009 94.8156 63.0061 94.7294 63.1718 94.7716C63.2048 94.7575 63.2425 94.7481 63.2858 94.7481C66.5674 94.7481 69.849 94.7481 73.1296 94.7481C73.2097 94.7481 73.268 94.7781 73.3142 94.8193C73.3208 94.824 73.3274 94.8287 73.334 94.8343C73.3396 94.84 73.3434 94.8465 73.3481 94.8531C73.3895 94.8981 73.4196 94.9571 73.4196 95.0367C73.4196 96.2042 73.4196 97.3708 73.4196 98.5382C73.4196 98.5776 73.4102 98.6113 73.398 98.6422C73.882 98.6422 74.3651 98.6422 74.8491 98.6422L74.6363 72.5755C69.833 72.5755 65.0306 72.5755 60.2274 72.5755C60.2274 80.8705 60.2274 89.1656 60.2274 97.4607C60.2274 97.8317 59.6492 97.8317 59.6492 97.4607C59.6492 94.3434 59.6492 91.227 59.6492 88.1097C59.6492 82.9319 59.6492 77.7532 59.6492 72.5755C58.0719 72.5755 56.4947 72.5755 54.9184 72.5755C54.5465 72.5755 54.5465 72.0002 54.9184 72.0002C56.4957 72.0002 58.0729 72.0002 59.6492 72.0002C59.6492 68.3394 59.6492 64.6786 59.6492 61.0169C58.1379 61.0169 56.6265 61.0169 55.1152 61.0169C54.7423 61.0169 54.7433 60.4416 55.1152 60.4416C56.6265 60.4416 58.1379 60.4416 59.6492 60.4416C59.6492 58.6763 59.6492 56.9111 59.6492 55.1468C59.6492 55.0662 59.6793 55.0062 59.7226 54.9612C59.7264 54.9556 59.7302 54.95 59.7349 54.9453C59.7415 54.9387 59.749 54.934 59.7565 54.9294C59.8017 54.8891 59.8611 54.86 59.9392 54.86C65.3696 54.86 70.8 54.86 76.2304 54.86C76.3105 54.86 76.3689 54.8891 76.415 54.9312C76.4216 54.9359 76.4282 54.9406 76.4348 54.9462C76.4395 54.9518 76.4432 54.9584 76.4479 54.964C76.4894 55.01 76.5195 55.069 76.5195 55.1486C76.5195 56.9139 76.5195 58.6792 76.5195 60.4435C77.5478 60.4435 78.5751 60.4435 79.6024 60.4435V37.3151C78.5506 37.3151 77.4988 37.3151 76.4479 37.3151C76.4611 37.3479 76.4696 37.3835 76.4696 37.4191C76.4696 37.7461 76.4696 38.0722 76.4696 38.3992C76.4696 38.5603 76.3368 38.6803 76.1805 38.6868C76.0242 38.6934 75.8905 38.55 75.8905 38.3992C75.8905 38.0731 75.8905 37.7461 75.8905 37.4191C75.8905 37.3779 75.9188 37.3498 75.9348 37.3151C74.8265 37.3151 73.7182 37.3151 72.6099 37.3151C72.0844 37.3151 71.559 37.3151 71.0335 37.3151C71.0467 37.3479 71.0552 37.3835 71.0552 37.4191C71.0552 37.7461 71.0552 38.0722 71.0552 38.3992C71.0552 38.5603 70.9215 38.6803 70.7652 38.6868C70.6089 38.6934 70.4761 38.55 70.4761 38.3992C70.4761 38.0731 70.4761 37.7461 70.4761 37.4191C70.4761 37.3779 70.5044 37.3498 70.5204 37.3151C68.8866 37.3151 67.252 37.3151 65.6182 37.3151C65.6314 37.3479 65.6399 37.3835 65.6399 37.4191C65.6399 37.7461 65.6399 38.0722 65.6399 38.3992C65.6399 38.5603 65.5071 38.6803 65.3499 38.6868C65.1945 38.6934 65.0608 38.55 65.0608 38.3992C65.0608 38.0731 65.0608 37.7461 65.0608 37.4191C65.0608 37.3779 65.089 37.3498 65.105 37.3151C63.4713 37.3151 61.8366 37.3151 60.2029 37.3151C60.2161 37.3479 60.2245 37.3835 60.2245 37.4191C60.2245 37.7461 60.2245 38.0722 60.2245 38.3992C60.2245 38.5603 60.0918 38.6803 59.9355 38.6868C59.7791 38.6934 59.6454 38.55 59.6454 38.3992C59.6454 38.0731 59.6454 37.7461 59.6454 37.4191C59.6454 37.3779 59.6737 37.3498 59.6897 37.3151C58.0559 37.3151 56.4222 37.3151 54.7885 37.3151C54.8017 37.3479 54.8101 37.3835 54.8101 37.4191C54.8101 37.7461 54.8101 38.0722 54.8101 38.3992C54.8101 38.5603 54.6774 38.6803 54.5201 38.6868C54.3638 38.6934 54.231 38.55 54.231 38.3992C54.231 38.0731 54.231 37.7461 54.231 37.4191C54.231 37.3779 54.2593 37.3498 54.2753 37.3151C52.6415 37.3151 51.0069 37.3151 49.3731 37.3151C49.3863 37.3479 49.3948 37.3835 49.3948 37.4191C49.3948 37.7461 49.3948 38.0722 49.3948 38.3992C49.3948 38.5603 49.262 38.6803 49.1048 38.6868C48.9494 38.6934 48.8157 38.55 48.8157 38.3992C48.8157 38.0731 48.8157 37.7461 48.8157 37.4191C48.8157 37.3779 48.8439 37.3498 48.8599 37.3151C47.5473 37.3151 46.2347 37.3151 44.9211 37.3151C44.6424 37.3151 44.3636 37.3151 44.084 37.3151C41.9747 37.3151 39.8654 37.3151 37.7562 37.3151C37.7694 37.3479 37.7778 37.3835 37.7778 37.4191C37.7778 37.7461 37.7778 38.0722 37.7778 38.3992C37.7778 38.5603 37.6451 38.6803 37.4887 38.6868C37.3324 38.6934 37.1987 38.55 37.1987 38.3992C37.1987 38.0731 37.1987 37.7461 37.1987 37.4191C37.1987 37.3779 37.227 37.3498 37.243 37.3151C37.0274 37.3151 36.8108 37.3151 36.5951 37.3151C35.178 37.3151 33.7599 37.3151 32.3418 37.3151C32.3549 37.3479 32.3634 37.3835 32.3634 37.4191C32.3634 37.7461 32.3634 38.0722 32.3634 38.3992C32.3634 38.5603 32.2306 38.6803 32.0734 38.6868C31.9171 38.6934 31.7843 38.55 31.7843 38.3992C31.7843 38.0731 31.7843 37.7461 31.7843 37.4191C31.7843 37.3779 31.8126 37.3498 31.8286 37.3151C30.1949 37.3151 28.5602 37.3151 26.9264 37.3151C26.9396 37.3479 26.9481 37.3835 26.9481 37.4191C26.9481 37.7461 26.9481 38.0722 26.9481 38.3992C26.9481 38.5603 26.8153 38.6803 26.6581 38.6868C26.5027 38.6934 26.369 38.55 26.369 38.3992C26.369 38.0731 26.369 37.7461 26.369 37.4191C26.369 37.3779 26.3972 37.3498 26.4132 37.3151C24.7795 37.3151 23.1448 37.3151 21.5111 37.3151C21.5243 37.3479 21.5327 37.3835 21.5327 37.4191C21.5327 37.7461 21.5327 38.0722 21.5327 38.3992C21.5327 38.5603 21.4 38.6803 21.2437 38.6868C21.0874 38.6934 20.9536 38.55 20.9536 38.3992C20.9536 38.0731 20.9536 37.7461 20.9536 37.4191C20.9536 37.3779 20.9819 37.3498 20.9979 37.3151C19.3642 37.3151 17.7304 37.3151 16.0967 37.3151C16.1099 37.3479 16.1193 37.3835 16.1193 37.4191C16.1193 37.7461 16.1193 38.0722 16.1193 38.3992C16.1193 38.5603 15.9865 38.6803 15.8293 38.6868C15.673 38.6934 15.5402 38.55 15.5402 38.3992C15.5402 38.0731 15.5402 37.7461 15.5402 37.4191C15.5402 37.3779 15.5684 37.3498 15.5844 37.3151C13.9507 37.3151 12.316 37.3151 10.6823 37.3151C10.6955 37.3479 10.7049 37.3835 10.7049 37.4191C10.7049 37.7461 10.7049 38.0722 10.7049 38.3992C10.7049 38.5603 10.5721 38.6803 10.4158 38.6868C10.2595 38.6934 10.1258 38.55 10.1258 38.3992C10.1258 38.0731 10.1258 37.7461 10.1258 37.4191C10.1258 37.3779 10.154 37.3498 10.17 37.3151C8.74252 37.3151 7.31405 37.3151 5.88653 37.3151C5.51364 37.3151 5.51458 36.7398 5.88653 36.7398C8.66153 36.7398 11.4375 36.7398 14.2125 36.7398C24.1684 36.7398 34.1252 36.7398 44.0811 36.7398C44.3599 36.7398 44.6386 36.7398 44.9183 36.7398C47.3392 36.7398 49.7592 36.7398 52.1801 36.7398C61.3178 36.7398 70.4563 36.7398 79.594 36.7398V34.1809C77.8595 34.1809 76.125 34.1809 74.3914 34.1809C64.3536 34.1809 54.3158 34.1809 44.2789 34.1809C44.0821 34.1809 43.8853 34.1809 43.6885 34.1809C40.9191 34.1809 38.1488 34.1809 35.3795 34.1809C24.7626 34.1809 14.1437 34.1809 3.52586 34.1809C3.33659 34.1809 3.2443 34.0329 3.24807 33.8867H0.378906V37.0265H5.29895V103.243H3.52586V105.787H0.378906V108.725H32.2721C32.2721 108.725 32.0969 73.3213 32.0781 61.3036C32.0734 55.44 37.3899 51.7184 43.2958 51.9151C49.2017 51.7184 54.5182 55.44 54.5088 61.3036C54.4947 73.3213 54.3205 108.725 54.3205 108.725H79.6062V106.272C71.3782 106.271 63.1502 106.271 54.9212 106.271ZM5.50612 103.345C7.25097 103.345 8.9977 103.345 10.7426 103.345C17.6598 103.345 24.5761 103.345 31.4934 103.345C31.8662 103.345 31.8662 103.92 31.4934 103.92C29.7476 103.92 28.0018 103.92 26.2569 103.92C19.3397 103.92 12.4234 103.92 5.50612 103.92C5.13323 103.92 5.13323 103.345 5.50612 103.345ZM31.6902 106.271C22.4367 106.271 13.1842 106.271 3.93076 106.271C3.55881 106.271 3.55881 105.696 3.93076 105.696C13.1842 105.696 22.4367 105.696 31.6902 105.696C32.0631 105.696 32.0631 106.271 31.6902 106.271ZM31.6902 72.5755C30.1129 72.5755 28.5357 72.5755 26.9594 72.5755C26.9594 80.8705 26.9594 89.1656 26.9594 97.4607C26.9594 97.6565 26.7984 97.7465 26.6458 97.7343V98.6422C27.2447 98.6422 27.8436 98.6422 28.4415 98.6422C28.5216 98.6422 28.5809 98.6722 28.627 98.7134C28.6336 98.7181 28.6393 98.7219 28.6459 98.7275C28.6515 98.7331 28.6553 98.7397 28.66 98.7462C28.7014 98.7912 28.7316 98.8502 28.7316 98.9299C28.7316 100.301 28.7316 101.672 28.7316 103.044C28.7316 103.415 28.1534 103.414 28.1534 103.044C28.1534 101.769 28.1534 100.493 28.1534 99.2185C21.7107 99.2185 15.268 99.2185 8.82632 99.2185C8.83762 99.2494 8.84704 99.2831 8.84704 99.3225C8.84704 100.563 8.84704 101.804 8.84704 103.045C8.84704 103.416 8.26886 103.415 8.26886 103.045C8.26886 101.805 8.26886 100.564 8.26886 99.3225C8.26886 99.1613 8.37906 99.0751 8.50335 99.0536C8.43179 98.883 8.51463 98.6432 8.75569 98.6432C10.2416 98.6432 11.7275 98.6432 13.2124 98.6432C13.2002 98.6122 13.1917 98.5785 13.1917 98.5391C13.1917 97.3717 13.1917 96.2051 13.1917 95.0377C13.1917 94.9589 13.2209 94.9009 13.2624 94.8559C13.2671 94.8484 13.2718 94.8418 13.2784 94.8353C13.284 94.8296 13.2906 94.8259 13.2963 94.8222C13.3424 94.7809 13.4008 94.7509 13.4808 94.7509C16.7615 94.7509 20.044 94.7509 23.3247 94.7509C23.368 94.7509 23.4057 94.7603 23.4386 94.7744C23.6043 94.7313 23.8106 94.8175 23.8106 95.0395C23.8106 96.1414 23.8106 97.2433 23.8106 98.3452C23.8106 98.7162 23.2324 98.7162 23.2324 98.3452C23.2324 97.3389 23.2324 96.3326 23.2324 95.3272C20.0789 95.3272 16.9234 95.3272 13.7699 95.3272C13.7699 96.3982 13.7699 97.4701 13.7699 98.541C13.7699 98.5804 13.7605 98.6141 13.7492 98.645C17.6052 98.645 21.4602 98.645 25.3153 98.645L25.1034 72.5783C20.2926 72.5783 15.4809 72.5783 10.6701 72.5783C10.6701 80.8733 10.6701 89.1684 10.6701 97.4635C10.6701 97.8345 10.0928 97.8345 10.0928 97.4635C10.0928 94.3462 10.0928 91.2298 10.0928 88.1125C10.0928 82.9347 10.0928 77.756 10.0928 72.5783C8.63046 72.5783 7.16811 72.5783 5.70575 72.5783C5.3338 72.5783 5.3338 72.003 5.70575 72.003C7.16811 72.003 8.63046 72.003 10.0928 72.003C10.0928 68.3422 10.0928 64.6814 10.0928 61.0197C8.63046 61.0197 7.16811 61.0197 5.70575 61.0197C5.3338 61.0197 5.3338 60.4444 5.70575 60.4444C7.16811 60.4444 8.63046 60.4444 10.0928 60.4444C10.0928 58.6792 10.0928 56.9139 10.0928 55.1496C10.0928 55.0709 10.122 55.0128 10.1635 54.9668C10.1691 54.9603 10.1729 54.9528 10.1795 54.9462C10.1851 54.9406 10.1917 54.9369 10.1973 54.9322C10.2435 54.891 10.3019 54.861 10.3819 54.861C15.8133 54.861 21.2427 54.861 26.6731 54.861C26.7522 54.861 26.8115 54.89 26.8577 54.9322C26.8643 54.9369 26.8709 54.9416 26.8775 54.9472C26.8822 54.9528 26.8859 54.9594 26.8906 54.965C26.9321 55.0109 26.9622 55.0699 26.9622 55.1496C26.9622 56.9148 26.9622 58.6801 26.9622 60.4444C28.4735 60.4444 29.9849 60.4444 31.4962 60.4444C31.8691 60.4444 31.8691 61.0197 31.4962 61.0197C29.9849 61.0197 28.4735 61.0197 26.9622 61.0197C26.9622 62.1797 26.9622 63.3397 26.9622 64.4997C26.9622 67.0005 26.9622 69.5013 26.9622 72.002C28.5395 72.002 30.1167 72.002 31.693 72.002C32.063 72.0002 32.0631 72.5755 31.6902 72.5755ZM52.2583 50.3354C49.8439 48.7912 46.7469 48.0182 43.8363 47.9995C43.7977 48.0182 43.7544 48.0304 43.6998 48.0266C43.534 48.0163 43.3636 48.0201 43.196 48.0145C43.0359 48.0191 42.873 48.0163 42.7148 48.0266C42.6611 48.0294 42.6178 48.0182 42.5802 48.0004C39.6847 48.0257 36.6206 48.8203 34.242 50.4038C31.29 52.3695 29.4302 55.8926 29.0818 59.3622C29.0451 59.7276 28.4669 59.7304 28.5037 59.3622C28.8653 55.7708 30.708 52.2177 33.6874 50.088C36.3287 48.2 39.9389 47.3398 43.1951 47.4392C46.4701 47.3305 50.1227 48.1625 52.8139 50.0121C55.8638 52.1081 57.7462 55.7417 58.1096 59.3622C58.1464 59.7314 57.5682 59.7276 57.5314 59.3622C57.1793 55.8617 55.28 52.2693 52.2583 50.3354Z" fill="#F9BA6B"/>
<path d="M24.9758 57.264L10.668 57.2266C10.668 58.2985 10.668 59.3713 10.668 60.4432C15.4457 60.4432 20.2235 60.4432 25.0022 60.4432L24.9758 57.264Z" fill="#F9BA6B"/>
<path d="M12.4302 33.6035C22.8513 33.6035 33.2724 33.6035 43.6935 33.6035C43.8903 33.6035 44.0871 33.6035 44.2839 33.6035C46.9769 33.6035 49.6719 33.6035 52.365 33.6035C60.3199 33.6035 68.2739 33.6035 76.2289 33.6035V29.2344H3.33594V33.6822C3.38208 33.6354 3.44611 33.6035 3.53086 33.6035C6.49701 33.6035 9.46409 33.6035 12.4302 33.6035Z" fill="#F9BA6B"/>
<path d="M76.2289 27.7145C75.0217 27.7145 73.8145 27.7145 72.6073 27.7145C63.3793 27.7145 54.1513 27.7145 44.9233 27.7145C44.6445 27.7145 44.3658 27.7145 44.0861 27.7145C41.5899 27.7145 39.0936 27.7145 36.5973 27.7145C26.3627 27.7145 16.128 27.7145 5.89247 27.7145C5.7936 27.7145 5.72298 27.6723 5.67684 27.6133H3.33594V27.6236V29.2352H76.2289V27.7145Z" fill="#FFE284"/>
<path d="M69.9513 21.4517C61.3985 21.4517 52.8446 21.4517 44.2908 21.4517C42.1382 21.4517 39.9857 21.4517 37.8331 21.4517C29.945 21.4517 22.057 21.4517 14.1689 21.4517C13.9824 21.4517 13.8901 21.3074 13.8901 21.1641H13.7771H5.63672V22.786H5.70074H69.9504V21.4517H69.9513Z" fill="#FFE284"/>
<path d="M75.9457 97.4633C75.9457 94.346 75.9457 91.2296 75.9457 88.1123C75.9457 82.9346 75.9457 77.7559 75.9457 72.5781C75.5107 72.5781 75.0757 72.5781 74.6406 72.5781L74.8534 98.6449C75.2979 98.6449 75.7414 98.6449 76.1858 98.6449V97.7332C76.0596 97.7135 75.9457 97.6264 75.9457 97.4633Z" fill="#FFE284"/>
<path d="M60.2305 57.2281L74.5139 57.2656L74.5402 60.4447C75.0082 60.4447 75.4762 60.4447 75.9442 60.4447C75.9442 58.7759 75.9442 57.1063 75.9442 55.4375C70.7069 55.4375 65.4687 55.4375 60.2305 55.4375C60.2305 56.0344 60.2305 56.6312 60.2305 57.2281Z" fill="#FFE284"/>
<path d="M74.6324 72.0028C75.0693 72.0028 75.5053 72.0028 75.9422 72.0028C75.9422 68.342 75.9422 64.6812 75.9422 61.0195C75.4761 61.0195 75.0091 61.0195 74.543 61.0195L74.6324 72.0028Z" fill="#FFE284"/>
<path d="M10.668 57.2281L24.9758 57.2656L25.0022 60.4447C25.4617 60.4447 25.9212 60.4447 26.3817 60.4447C26.3817 58.7759 26.3817 57.1063 26.3817 55.4375C21.1444 55.4375 15.9071 55.4375 10.668 55.4375C10.668 56.0344 10.668 56.6312 10.668 57.2281Z" fill="#FFE284"/>
<path d="M25.0973 72.0028C25.5257 72.0028 25.9542 72.0028 26.3826 72.0028C26.3826 68.342 26.3826 64.6812 26.3826 61.0195C25.925 61.0195 25.4664 61.0195 25.0078 61.0195L25.0973 72.0028Z" fill="#FFE284"/>
<path d="M26.3812 97.4633C26.3812 94.346 26.3812 91.2296 26.3812 88.1123C26.3812 82.9346 26.3812 77.7559 26.3812 72.5781C25.9547 72.5781 25.5281 72.5781 25.1016 72.5781L25.3134 98.6449C25.7579 98.6449 26.2014 98.6449 26.6458 98.6449V97.7369C26.5112 97.7266 26.3812 97.6376 26.3812 97.4633Z" fill="#FFE284"/>
<path d="M80.7157 27.7168C79.2232 27.7168 77.7307 27.7168 76.2383 27.7168V29.2366V33.6057C78.5179 33.6057 80.7985 33.6057 83.0782 33.6057C83.1639 33.6057 83.2279 33.6385 83.274 33.6854V27.625H80.9256C80.8795 27.6803 80.8089 27.7168 80.7157 27.7168Z" fill="#FFE284"/>
<path d="M83.0705 34.1809C81.9142 34.1809 80.7579 34.1809 79.6016 34.1809V36.7398C79.9707 36.7398 80.3389 36.7398 80.708 36.7398C81.0809 36.7398 81.0809 37.3151 80.708 37.3151C80.3389 37.3151 79.9707 37.3151 79.6016 37.3151V60.4435C80.0356 60.4435 80.4707 60.4435 80.9048 60.4435C81.2776 60.4435 81.2776 61.0188 80.9048 61.0188C80.4707 61.0188 80.0356 61.0188 79.6016 61.0188V72.0021C80.0356 72.0021 80.4707 72.0021 80.9048 72.0021C81.2776 72.0021 81.2776 72.5774 80.9048 72.5774C80.4707 72.5774 80.0356 72.5774 79.6016 72.5774V103.346C80.1016 103.346 80.6016 103.346 81.1016 103.346C81.4745 103.346 81.4745 103.921 81.1016 103.921C80.6016 103.921 80.1016 103.921 79.6016 103.921V105.697C80.627 105.697 81.6515 105.697 82.6769 105.697C83.0498 105.697 83.0498 106.272 82.6769 106.272C81.6515 106.272 80.627 106.272 79.6016 106.272V108.725H86.2183V105.787H83.0677V103.243H81.2984V37.0265H86.2183V33.8867H83.3483C83.352 34.0329 83.2598 34.1809 83.0705 34.1809Z" fill="#FFE284"/>
<path d="M47.3446 1.48791L55.2326 7.746C56.113 7.746 56.9925 7.746 57.8719 7.746C58.2439 7.746 58.2439 8.32129 57.8719 8.32129C57.112 8.32129 56.3531 8.32129 55.5932 8.32129L55.581 9.91322H69.9472V20.8712C70.7777 20.8712 71.6092 20.8712 72.4397 20.8712C72.8125 20.8712 72.8125 21.4465 72.4397 21.4465C71.6092 21.4465 70.7777 21.4465 69.9472 21.4465V22.7807V27.1396C73.5348 27.1396 77.1214 27.1396 80.709 27.1396C80.7946 27.1396 80.8577 27.1724 80.9039 27.2183V21.3528H72.8333V7.83876H59.0546V5.09339H55.903L49.7994 0H36.8079L35.0273 1.48696H47.3446V1.48791Z" fill="#FFE284"/>
<path d="M57.8763 7.74219C56.9959 7.74219 56.1165 7.74219 55.237 7.74219C51.3265 7.74219 47.415 7.74219 43.5054 7.74219C43.4187 7.74219 43.3547 7.77498 43.3086 7.82277C43.4159 7.93239 43.415 8.12728 43.3086 8.23784C43.3547 8.28563 43.4197 8.31842 43.5054 8.31842C47.5355 8.31842 51.5666 8.31842 55.5986 8.31842C56.3585 8.31842 57.1174 8.31842 57.8773 8.31842C58.2473 8.31748 58.2483 7.74219 57.8763 7.74219Z" fill="black"/>
<path d="M72.4454 21.4464C72.8183 21.4464 72.8183 20.8711 72.4454 20.8711C71.6149 20.8711 70.7835 20.8711 69.953 20.8711C61.4003 20.8711 52.8466 20.8711 44.293 20.8711C44.6649 20.8711 44.6649 21.4464 44.293 21.4464C52.8457 21.4464 61.3993 21.4464 69.953 21.4464C70.7835 21.4464 71.6149 21.4464 72.4454 21.4464Z" fill="black"/>
<path d="M69.9455 27.1406C64.0255 27.1406 58.1065 27.1406 52.1875 27.1406C49.7666 27.1406 47.3467 27.1406 44.9258 27.1406C45.2987 27.1406 45.2987 27.7159 44.9258 27.7159C54.1536 27.7159 63.3815 27.7159 72.6093 27.7159C73.8165 27.7159 75.0236 27.7159 76.2308 27.7159C77.7232 27.7159 79.2157 27.7159 80.7081 27.7159C80.8023 27.7159 80.872 27.6794 80.9181 27.6251C81.0142 27.5126 81.0076 27.3252 80.9031 27.2203C80.8569 27.1734 80.7938 27.1416 80.7081 27.1416C77.1196 27.1406 73.533 27.1406 69.9455 27.1406Z" fill="black"/>
<path d="M76.2373 33.6016C68.2835 33.6016 60.3287 33.6016 52.3739 33.6016C49.6809 33.6016 46.986 33.6016 44.293 33.6016C44.6649 33.6016 44.6649 34.1769 44.293 34.1769C54.3297 34.1769 64.3673 34.1769 74.4049 34.1769C76.1385 34.1769 77.8738 34.1769 79.6074 34.1769C80.7637 34.1769 81.92 34.1769 83.0763 34.1769C83.2656 34.1769 83.3578 34.0288 83.3541 33.8826C83.3531 33.8077 83.3249 33.7346 83.2721 33.6812C83.226 33.6343 83.162 33.6016 83.0763 33.6016C80.7966 33.6016 78.517 33.6016 76.2373 33.6016Z" fill="black"/>
<path d="M44.9258 36.7422C45.2987 36.7422 45.2987 37.3175 44.9258 37.3175C46.2384 37.3175 47.5519 37.3175 48.8645 37.3175C48.9097 37.2172 48.9926 37.1395 49.1094 37.1338C49.229 37.1282 49.3335 37.2116 49.3768 37.3175C51.0105 37.3175 52.6451 37.3175 54.2788 37.3175C54.324 37.2172 54.4069 37.1395 54.5237 37.1338C54.6433 37.1282 54.7478 37.2116 54.7911 37.3175C56.4248 37.3175 58.0585 37.3175 59.6922 37.3175C59.7374 37.2172 59.8212 37.1395 59.938 37.1338C60.0576 37.1282 60.1611 37.2116 60.2054 37.3175C61.8391 37.3175 63.4728 37.3175 65.1074 37.3175C65.1526 37.2172 65.2365 37.1395 65.3523 37.1338C65.4719 37.1282 65.5764 37.2116 65.6197 37.3175C67.2534 37.3175 68.888 37.3175 70.5217 37.3175C70.5669 37.2172 70.6507 37.1395 70.7666 37.1338C70.8862 37.1282 70.9907 37.2116 71.034 37.3175C71.5594 37.3175 72.0848 37.3175 72.6103 37.3175C73.7185 37.3175 74.8268 37.3175 75.9351 37.3175C75.9803 37.2172 76.0641 37.1395 76.1809 37.1338C76.3004 37.1282 76.404 37.2116 76.4473 37.3175C77.4991 37.3175 78.55 37.3175 79.6018 37.3175C79.9709 37.3175 80.339 37.3175 80.7081 37.3175C81.081 37.3175 81.081 36.7422 80.7081 36.7422C80.339 36.7422 79.9709 36.7422 79.6018 36.7422C70.4643 36.7422 61.3259 36.7422 52.1885 36.7422C49.7666 36.7422 47.3467 36.7422 44.9258 36.7422Z" fill="black"/>
<path d="M55.1192 60.4453C54.7472 60.4453 54.7463 61.0206 55.1192 61.0206C56.6304 61.0206 58.1417 61.0206 59.653 61.0206C59.653 60.8285 59.653 60.6374 59.653 60.4453C58.1417 60.4453 56.6304 60.4453 55.1192 60.4453Z" fill="black"/>
<path d="M76.5234 61.0206C77.5517 61.0206 78.579 61.0206 79.6063 61.0206C80.0404 61.0206 80.4754 61.0206 80.9095 61.0206C81.2824 61.0206 81.2824 60.4453 80.9095 60.4453C80.4754 60.4453 80.0404 60.4453 79.6063 60.4453C78.579 60.4453 77.5507 60.4453 76.5234 60.4453C76.5234 60.6374 76.5234 60.8295 76.5234 61.0206Z" fill="black"/>
<path d="M60.2305 60.4453C60.2305 60.6374 60.2305 60.8285 60.2305 61.0206C65.0016 61.0206 69.7728 61.0206 74.544 61.0206C75.0101 61.0206 75.4771 61.0206 75.9432 61.0206C75.9432 60.8285 75.9432 60.6374 75.9432 60.4453C75.4752 60.4453 75.0072 60.4453 74.5393 60.4453C69.77 60.4453 64.9998 60.4453 60.2305 60.4453Z" fill="black"/>
<path d="M54.9196 72C54.5476 72 54.5476 72.5753 54.9196 72.5753C56.4968 72.5753 58.074 72.5753 59.6503 72.5753C59.6503 72.3832 59.6503 72.1921 59.6503 72C58.074 72 56.4968 72 54.9196 72Z" fill="black"/>
<path d="M76.5234 72.5753C77.5507 72.5753 78.579 72.5753 79.6063 72.5753C80.0404 72.5753 80.4754 72.5753 80.9095 72.5753C81.2824 72.5753 81.2824 72 80.9095 72C80.4754 72 80.0404 72 79.6063 72C78.579 72 77.5507 72 76.5234 72C76.5234 72.1921 76.5234 72.3841 76.5234 72.5753Z" fill="black"/>
<path d="M75.9442 72C75.5072 72 75.0713 72 74.6344 72C69.8331 72 65.0327 72 60.2305 72C60.2305 72.1921 60.2305 72.3832 60.2305 72.5753C65.0337 72.5753 69.8359 72.5753 74.6391 72.5753C75.0741 72.5753 75.5091 72.5753 75.9442 72.5753C75.9442 72.3841 75.9442 72.1921 75.9442 72Z" fill="black"/>
<path d="M76.1806 37.1331C76.0639 37.1387 75.981 37.2165 75.9349 37.3167C75.9189 37.3514 75.8906 37.3795 75.8906 37.4207C75.8906 37.7477 75.8906 38.0738 75.8906 38.4008C75.8906 38.5517 76.0243 38.695 76.1806 38.6885C76.3369 38.6819 76.4697 38.562 76.4697 38.4008C76.4697 38.0747 76.4697 37.7477 76.4697 37.4207C76.4697 37.3851 76.4612 37.3495 76.448 37.3167C76.4047 37.2108 76.3002 37.1275 76.1806 37.1331Z" fill="black"/>
<path d="M70.7656 37.1331C70.6498 37.1387 70.566 37.2165 70.5208 37.3167C70.5048 37.3514 70.4766 37.3795 70.4766 37.4207C70.4766 37.7477 70.4766 38.0738 70.4766 38.4008C70.4766 38.5517 70.6093 38.695 70.7656 38.6885C70.9219 38.6819 71.0556 38.562 71.0556 38.4008C71.0556 38.0747 71.0556 37.7477 71.0556 37.4207C71.0556 37.3851 71.0472 37.3495 71.034 37.3167C70.9897 37.2108 70.8852 37.1275 70.7656 37.1331Z" fill="black"/>
<path d="M65.3594 37.1331C65.2435 37.1387 65.1598 37.2165 65.1146 37.3167C65.0986 37.3514 65.0703 37.3795 65.0703 37.4207C65.0703 37.7477 65.0703 38.0738 65.0703 38.4008C65.0703 38.5517 65.204 38.695 65.3594 38.6885C65.5166 38.6819 65.6494 38.562 65.6494 38.4008C65.6494 38.0747 65.6494 37.7477 65.6494 37.4207C65.6494 37.3851 65.6409 37.3495 65.6277 37.3167C65.5835 37.2108 65.479 37.1275 65.3594 37.1331Z" fill="black"/>
<path d="M59.9463 37.1331C59.8295 37.1387 59.7466 37.2165 59.7005 37.3167C59.6845 37.3514 59.6562 37.3795 59.6562 37.4207C59.6562 37.7477 59.6562 38.0738 59.6562 38.4008C59.6562 38.5517 59.7899 38.695 59.9463 38.6885C60.1026 38.6819 60.2353 38.562 60.2353 38.4008C60.2353 38.0747 60.2353 37.7477 60.2353 37.4207C60.2353 37.3851 60.2269 37.3495 60.2137 37.3167C60.1694 37.2108 60.0658 37.1275 59.9463 37.1331Z" fill="black"/>
<path d="M54.5274 37.1331C54.4115 37.1387 54.3277 37.2165 54.2825 37.3167C54.2665 37.3514 54.2383 37.3795 54.2383 37.4207C54.2383 37.7477 54.2383 38.0738 54.2383 38.4008C54.2383 38.5517 54.3711 38.695 54.5274 38.6885C54.6846 38.6819 54.8174 38.562 54.8174 38.4008C54.8174 38.0747 54.8174 37.7477 54.8174 37.4207C54.8174 37.3851 54.8089 37.3495 54.7957 37.3167C54.7515 37.2108 54.6469 37.1275 54.5274 37.1331Z" fill="black"/>
<path d="M49.1133 37.1331C48.9975 37.1387 48.9137 37.2165 48.8685 37.3167C48.8525 37.3514 48.8242 37.3795 48.8242 37.4207C48.8242 37.7477 48.8242 38.0738 48.8242 38.4008C48.8242 38.5517 48.9579 38.695 49.1133 38.6885C49.2706 38.6819 49.4033 38.562 49.4033 38.4008C49.4033 38.0747 49.4033 37.7477 49.4033 37.4207C49.4033 37.3851 49.3948 37.3495 49.3817 37.3167C49.3374 37.2108 49.2329 37.1275 49.1133 37.1331Z" fill="black"/>
<path d="M58.1096 59.362C57.7461 55.7406 55.8639 52.1079 52.814 50.0119C50.1228 48.1632 46.4712 47.3312 43.1953 47.4389C43.3629 47.4436 43.5353 47.4399 43.701 47.4502C44.0174 47.4699 44.0616 47.8896 43.8375 47.9983C46.7471 48.017 49.845 48.7901 52.2593 50.3342C55.281 52.2672 57.1802 55.8596 57.5314 59.362C57.5682 59.7274 58.1463 59.7312 58.1096 59.362Z" fill="black"/>
<path d="M42.7128 48.0304C42.8709 48.021 43.0339 48.0238 43.1939 48.0182C42.9887 48.0116 42.7853 48.0023 42.5781 48.0042C42.6167 48.0229 42.66 48.0342 42.7128 48.0304Z" fill="black"/>
<path d="M62.5857 18.6429C63.5584 18.7104 64.5329 18.4162 65.3182 17.8455C65.6158 17.63 65.3277 17.1297 65.0263 17.3489C63.8201 18.225 62.2071 18.3224 60.9322 17.5241C59.6742 16.7361 59.0254 15.1939 59.3465 13.7491C59.5301 12.9226 60 12.1824 60.677 11.6671C60.9689 11.445 60.6808 10.9447 60.3851 11.1705C59.0075 12.219 58.3578 13.9945 58.8522 15.6708C59.3428 17.3321 60.8559 18.523 62.5857 18.6429Z" fill="black"/>
<path d="M76.5235 64.4995C76.5235 63.3396 76.5235 62.1796 76.5235 61.0196C76.5235 60.8275 76.5235 60.6364 76.5235 60.4443C76.5235 58.679 76.5235 56.9138 76.5235 55.1494C76.5235 55.0698 76.4934 55.0108 76.4519 54.9648C76.5781 55.1307 76.5065 55.4371 76.2344 55.4371C76.1384 55.4371 76.0423 55.4371 75.9453 55.4371C75.9453 57.1058 75.9453 58.7755 75.9453 60.4443C75.9453 60.6364 75.9453 60.8275 75.9453 61.0196C75.9453 64.6804 75.9453 68.3421 75.9453 72.0029C75.9453 72.1949 75.9453 72.3861 75.9453 72.5782C75.9453 77.7559 75.9453 82.9346 75.9453 88.1123C75.9453 91.2297 75.9453 94.346 75.9453 97.4634C75.9453 97.6273 76.0593 97.7145 76.1854 97.7332C76.3446 97.7576 76.5235 97.6704 76.5235 97.4634C76.5235 89.1683 76.5235 80.8732 76.5235 72.5782C76.5235 72.3861 76.5235 72.1949 76.5235 72.0029C76.5235 69.5011 76.5235 67.0003 76.5235 64.4995Z" fill="black"/>
<path d="M76.4141 54.9297C76.4197 54.9353 76.4282 54.9382 76.4339 54.9448C76.4273 54.9391 76.4207 54.9353 76.4141 54.9297Z" fill="black"/>
<path d="M60.2353 64.5005C60.2353 63.3405 60.2353 62.1805 60.2353 61.0205C60.2353 60.8285 60.2353 60.6373 60.2353 60.4452C60.2353 59.3733 60.2353 58.3005 60.2353 57.2286C60.2353 56.6317 60.2353 56.0349 60.2353 55.438C60.1393 55.438 60.0432 55.438 59.9463 55.438C59.6722 55.438 59.6016 55.1298 59.7297 54.9648C59.6864 55.0098 59.6562 55.0698 59.6562 55.1504C59.6562 56.9156 59.6562 58.6809 59.6562 60.4452C59.6562 60.6373 59.6562 60.8285 59.6562 61.0205C59.6562 64.6813 59.6562 68.343 59.6562 72.0038C59.6562 72.1959 59.6562 72.387 59.6562 72.5791C59.6562 77.7569 59.6562 82.9355 59.6562 88.1133C59.6562 91.2306 59.6562 94.347 59.6562 97.4643C59.6562 97.8354 60.2344 97.8354 60.2344 97.4643C60.2344 89.1692 60.2344 80.8742 60.2344 72.5791C60.2344 72.387 60.2344 72.1959 60.2344 72.0038C60.2353 69.5021 60.2353 67.0013 60.2353 64.5005Z" fill="black"/>
<path d="M59.7344 54.946C59.7401 54.9393 59.7497 54.9354 59.7564 54.9297C59.7488 54.9354 59.7411 54.9402 59.7344 54.946Z" fill="black"/>
<path d="M59.9421 55.4356C60.0381 55.4356 60.1342 55.4356 60.2312 55.4356C65.4684 55.4356 70.7076 55.4356 75.9449 55.4356C76.0409 55.4356 76.137 55.4356 76.2339 55.4356C76.5061 55.4356 76.5776 55.1292 76.4515 54.9634C76.4467 54.9568 76.443 54.9512 76.4383 54.9456C76.4326 54.94 76.4242 54.9362 76.4185 54.9306C76.3724 54.8893 76.314 54.8594 76.2339 54.8594C70.8036 54.8594 65.3733 54.8594 59.943 54.8594C59.8649 54.8594 59.8056 54.8884 59.7604 54.9287C59.7538 54.9343 59.7443 54.9381 59.7387 54.9446C59.734 54.9493 59.7312 54.9549 59.7265 54.9606C59.5975 55.1274 59.6681 55.4356 59.9421 55.4356Z" fill="black"/>
<path d="M43.3097 7.82277C43.2635 7.77498 43.1995 7.74219 43.1129 7.74219C38.3219 7.74219 33.531 7.74219 28.741 7.74219C28.3681 7.74219 28.3671 8.31748 28.741 8.31748C33.531 8.31748 38.3219 8.31748 43.1129 8.31748C43.1985 8.31748 43.2626 8.28468 43.3087 8.2369C43.4161 8.12727 43.417 7.93239 43.3097 7.82277Z" fill="black"/>
<path d="M44.2907 20.8711C36.4028 20.8711 28.5158 20.8711 20.6279 20.8711C18.4754 20.8711 16.3219 20.8711 14.1694 20.8711C13.9839 20.8711 13.8906 21.0154 13.8906 21.1588C13.8906 21.303 13.9839 21.4464 14.1694 21.4464C22.0573 21.4464 29.9452 21.4464 37.8331 21.4464C39.9857 21.4464 42.1382 21.4464 44.2907 21.4464C44.6636 21.4473 44.6636 20.8711 44.2907 20.8711Z" fill="black"/>
<path d="M5.89904 27.7159C16.1344 27.7159 26.3689 27.7159 36.6033 27.7159C39.0995 27.7159 41.5957 27.7159 44.092 27.7159C44.3707 27.7159 44.6494 27.7159 44.9291 27.7159C45.302 27.7159 45.302 27.1406 44.9291 27.1406C44.6504 27.1406 44.3716 27.1406 44.092 27.1406C34.1363 27.1406 24.1796 27.1406 14.2239 27.1406C11.4489 27.1406 8.67304 27.1406 5.89809 27.1406C5.81052 27.1406 5.74555 27.1744 5.69941 27.2221C5.60148 27.3252 5.59489 27.5014 5.68246 27.6138C5.7286 27.6738 5.79923 27.7159 5.89904 27.7159Z" fill="black"/>
<path d="M3.53568 34.1769C14.1534 34.1769 24.772 34.1769 35.3887 34.1769C38.158 34.1769 40.9282 34.1769 43.6975 34.1769C43.8943 34.1769 44.0911 34.1769 44.2879 34.1769C44.6599 34.1769 44.6599 33.6016 44.2879 33.6016C44.0911 33.6016 43.8943 33.6016 43.6975 33.6016C33.2767 33.6016 22.8558 33.6016 12.4349 33.6016C9.4688 33.6016 6.50178 33.6016 3.53568 33.6016C3.45 33.6016 3.38691 33.6343 3.34077 33.6803C3.28804 33.7337 3.25886 33.8067 3.25792 33.8826C3.25416 34.0288 3.34642 34.1769 3.53568 34.1769Z" fill="black"/>
<path d="M44.9275 36.7422C44.6488 36.7422 44.37 36.7422 44.0904 36.7422C34.1347 36.7422 24.178 36.7422 14.2223 36.7422C11.4473 36.7422 8.67144 36.7422 5.89649 36.7422C5.52456 36.7422 5.52361 37.3175 5.89649 37.3175C7.32399 37.3175 8.75243 37.3175 10.1799 37.3175C10.2251 37.2172 10.3089 37.1395 10.4257 37.1338C10.5443 37.1282 10.6489 37.2116 10.6922 37.3175C12.3259 37.3175 13.9605 37.3175 15.5942 37.3175C15.6394 37.2172 15.7232 37.1395 15.839 37.1338C15.9586 37.1282 16.0631 37.2116 16.1065 37.3175C17.7402 37.3175 19.3739 37.3175 21.0076 37.3175C21.0528 37.2172 21.1366 37.1395 21.2533 37.1338C21.3729 37.1282 21.4765 37.2116 21.5208 37.3175C23.1545 37.3175 24.7882 37.3175 26.4228 37.3175C26.468 37.2172 26.5518 37.1395 26.6676 37.1338C26.7872 37.1282 26.8917 37.2116 26.9351 37.3175C28.5688 37.3175 30.2034 37.3175 31.8371 37.3175C31.8823 37.2172 31.9661 37.1395 32.0819 37.1338C32.2015 37.1282 32.306 37.2116 32.3494 37.3175C33.7665 37.3175 35.1846 37.3175 36.6026 37.3175C36.8183 37.3175 37.0348 37.3175 37.2505 37.3175C37.2957 37.2172 37.3795 37.1395 37.4962 37.1338C37.6158 37.1282 37.7194 37.2116 37.7627 37.3175C39.8719 37.3175 41.9811 37.3175 44.0904 37.3175C44.3691 37.3175 44.6478 37.3175 44.9275 37.3175C45.2994 37.3175 45.2994 36.7422 44.9275 36.7422Z" fill="black"/>
<path d="M31.4909 61.0206C31.8638 61.0206 31.8638 60.4453 31.4909 60.4453C29.9796 60.4453 28.4683 60.4453 26.957 60.4453C26.957 60.6374 26.957 60.8285 26.957 61.0206C28.4683 61.0206 29.9796 61.0206 31.4909 61.0206Z" fill="black"/>
<path d="M10.668 60.4453C10.668 60.6374 10.668 60.8285 10.668 61.0206C15.4476 61.0206 20.2273 61.0206 25.0069 61.0206C25.4655 61.0206 25.9231 61.0206 26.3817 61.0206C26.3817 60.8285 26.3817 60.6374 26.3817 60.4453C25.9222 60.4453 25.4617 60.4453 25.0022 60.4453C20.2235 60.4453 15.4457 60.4453 10.668 60.4453Z" fill="black"/>
<path d="M5.70474 60.4453C5.3328 60.4453 5.3328 61.0206 5.70474 61.0206C7.16707 61.0206 8.62942 61.0206 10.0918 61.0206C10.0918 60.8285 10.0918 60.6374 10.0918 60.4453C8.62942 60.4453 7.16707 60.4453 5.70474 60.4453Z" fill="black"/>
<path d="M31.6877 72C30.1105 72 28.5333 72 26.957 72C26.957 72.1921 26.957 72.3832 26.957 72.5753C28.5342 72.5753 30.1115 72.5753 31.6877 72.5753C32.0606 72.5753 32.0606 72 31.6877 72Z" fill="black"/>
<path d="M5.70474 72C5.3328 72 5.3328 72.5753 5.70474 72.5753C7.16707 72.5753 8.62942 72.5753 10.0918 72.5753C10.0918 72.3832 10.0918 72.1921 10.0918 72C8.62942 72 7.16707 72 5.70474 72Z" fill="black"/>
<path d="M26.3817 72C25.9532 72 25.5248 72 25.0964 72C20.2866 72 15.4777 72 10.668 72C10.668 72.1921 10.668 72.3832 10.668 72.5753C15.4787 72.5753 20.2904 72.5753 25.1011 72.5753C25.5276 72.5753 25.9542 72.5753 26.3807 72.5753C26.3817 72.3841 26.3817 72.1921 26.3817 72Z" fill="black"/>
<path d="M10.4228 37.1331C10.3061 37.1387 10.2232 37.2165 10.1771 37.3167C10.1611 37.3514 10.1328 37.3795 10.1328 37.4207C10.1328 37.7477 10.1328 38.0738 10.1328 38.4008C10.1328 38.5517 10.2665 38.695 10.4228 38.6885C10.5791 38.6819 10.7119 38.562 10.7119 38.4008C10.7119 38.0747 10.7119 37.7477 10.7119 37.4207C10.7119 37.3851 10.7034 37.3495 10.6893 37.3167C10.646 37.2108 10.5415 37.1275 10.4228 37.1331Z" fill="black"/>
<path d="M15.8399 37.1331C15.724 37.1387 15.6402 37.2165 15.595 37.3167C15.579 37.3514 15.5508 37.3795 15.5508 37.4207C15.5508 37.7477 15.5508 38.0738 15.5508 38.4008C15.5508 38.5517 15.6836 38.695 15.8399 38.6885C15.9971 38.6819 16.1299 38.562 16.1299 38.4008C16.1299 38.0747 16.1299 37.7477 16.1299 37.4207C16.1299 37.3851 16.1214 37.3495 16.1073 37.3167C16.064 37.2108 15.9594 37.1275 15.8399 37.1331Z" fill="black"/>
<path d="M21.2549 37.1331C21.1381 37.1387 21.0552 37.2165 21.0091 37.3167C20.9931 37.3514 20.9648 37.3795 20.9648 37.4207C20.9648 37.7477 20.9648 38.0738 20.9648 38.4008C20.9648 38.5517 21.0986 38.695 21.2549 38.6885C21.4112 38.6819 21.5439 38.562 21.5439 38.4008C21.5439 38.0747 21.5439 37.7477 21.5439 37.4207C21.5439 37.3851 21.5355 37.3495 21.5223 37.3167C21.479 37.2108 21.3745 37.1275 21.2549 37.1331Z" fill="black"/>
<path d="M26.6719 37.1331C26.5561 37.1387 26.4723 37.2165 26.4271 37.3167C26.4111 37.3514 26.3828 37.3795 26.3828 37.4207C26.3828 37.7477 26.3828 38.0738 26.3828 38.4008C26.3828 38.5517 26.5165 38.695 26.6719 38.6885C26.8291 38.6819 26.9619 38.562 26.9619 38.4008C26.9619 38.0747 26.9619 37.7477 26.9619 37.4207C26.9619 37.3851 26.9534 37.3495 26.9403 37.3167C26.896 37.2108 26.7915 37.1275 26.6719 37.1331Z" fill="black"/>
<path d="M32.0821 37.1331C31.9662 37.1387 31.8824 37.2165 31.8372 37.3167C31.8212 37.3514 31.793 37.3795 31.793 37.4207C31.793 37.7477 31.793 38.0738 31.793 38.4008C31.793 38.5517 31.9257 38.695 32.0821 38.6885C32.2393 38.6819 32.3721 38.562 32.3721 38.4008C32.3721 38.0747 32.3721 37.7477 32.3721 37.4207C32.3721 37.3851 32.3636 37.3495 32.3504 37.3167C32.3062 37.2108 32.2016 37.1275 32.0821 37.1331Z" fill="black"/>
<path d="M37.4971 37.1331C37.3803 37.1387 37.2974 37.2165 37.2513 37.3167C37.2353 37.3514 37.207 37.3795 37.207 37.4207C37.207 37.7477 37.207 38.0738 37.207 38.4008C37.207 38.5517 37.3408 38.695 37.4971 38.6885C37.6534 38.6819 37.7861 38.562 37.7861 38.4008C37.7861 38.0747 37.7861 37.7477 37.7861 37.4207C37.7861 37.3851 37.7777 37.3495 37.7645 37.3167C37.7202 37.2108 37.6166 37.1275 37.4971 37.1331Z" fill="black"/>
<path d="M43.7023 47.4564C43.5366 47.4461 43.3652 47.4508 43.1967 47.4452C39.9406 47.3459 36.3304 48.206 33.6892 50.094C30.7099 52.2238 28.8672 55.7759 28.5056 59.3683C28.4689 59.7365 29.047 59.7337 29.0837 59.3683C29.4321 55.8977 31.2928 52.3756 34.2438 50.4098C36.6223 48.8263 39.6863 48.0308 42.5818 48.0065C42.789 48.0046 42.9924 48.0149 43.1976 48.0205C43.3652 48.0252 43.5357 48.0224 43.7014 48.0327C43.756 48.0364 43.7993 48.0242 43.8379 48.0055C44.063 47.8959 44.0187 47.4761 43.7023 47.4564Z" fill="black"/>
<path d="M23.7337 18.6429C24.7074 18.7104 25.681 18.4162 26.4672 17.8455C26.7638 17.63 26.4766 17.1297 26.1744 17.3489C24.9691 18.225 23.3561 18.3224 22.0802 17.5241C20.8222 16.7361 20.1744 15.1939 20.4946 13.7491C20.6782 12.9226 21.149 12.1824 21.826 11.6671C22.1179 11.445 21.8298 10.9447 21.5332 11.1705C20.1556 12.219 19.5068 13.9945 20.0002 15.6708C20.4927 17.3321 22.004 18.523 23.7337 18.6429Z" fill="black"/>
<path d="M10.1719 54.9439C10.1766 54.9382 10.1842 54.9353 10.1898 54.9297C10.1842 54.9353 10.1775 54.9391 10.1719 54.9439Z" fill="black"/>
<path d="M10.668 64.5015C10.668 63.3416 10.668 62.1816 10.668 61.0216C10.668 60.8295 10.668 60.6384 10.668 60.4463C10.668 59.3744 10.668 58.3016 10.668 57.2297C10.668 56.6328 10.668 56.036 10.668 55.4391C10.5719 55.4391 10.4759 55.4391 10.3789 55.4391C10.1077 55.4391 10.0362 55.1346 10.1604 54.9688C10.119 55.0137 10.0898 55.0727 10.0898 55.1514C10.0898 56.9167 10.0898 58.682 10.0898 60.4463C10.0898 60.6384 10.0898 60.8295 10.0898 61.0216C10.0898 64.6824 10.0898 68.3441 10.0898 72.0049C10.0898 72.1969 10.0898 72.3881 10.0898 72.5802C10.0898 77.7579 10.0898 82.9366 10.0898 88.1144C10.0898 91.2317 10.0898 94.3481 10.0898 97.4654C10.0898 97.8364 10.6671 97.8364 10.6671 97.4654C10.6671 89.1703 10.6671 80.8753 10.6671 72.5802C10.6671 72.3881 10.6671 72.1969 10.6671 72.0049C10.668 69.5031 10.668 67.0023 10.668 64.5015Z" fill="black"/>
<path d="M26.8555 54.9297C26.8611 54.9353 26.8696 54.9382 26.8753 54.9448C26.8687 54.9391 26.8621 54.9353 26.8555 54.9297Z" fill="black"/>
<path d="M26.9609 64.4995C26.9609 63.3396 26.9609 62.1796 26.9609 61.0196C26.9609 60.8275 26.9609 60.6364 26.9609 60.4443C26.9609 58.679 26.9609 56.9138 26.9609 55.1494C26.9609 55.0698 26.9308 55.0108 26.8894 54.9648C27.0156 55.1307 26.944 55.4371 26.6719 55.4371C26.5759 55.4371 26.4798 55.4371 26.3828 55.4371C26.3828 57.1058 26.3828 58.7755 26.3828 60.4443C26.3828 60.6364 26.3828 60.8275 26.3828 61.0196C26.3828 64.6804 26.3828 68.3421 26.3828 72.0029C26.3828 72.1949 26.3828 72.3861 26.3828 72.5782C26.3828 77.7559 26.3828 82.9346 26.3828 88.1123C26.3828 91.2297 26.3828 94.346 26.3828 97.4634C26.3828 97.6376 26.5118 97.7276 26.6474 97.737C26.8 97.7482 26.9609 97.6592 26.9609 97.4634C26.9609 89.1683 26.9609 80.8732 26.9609 72.5782C26.9609 72.3861 26.9609 72.1949 26.9609 72.0029C26.9609 69.5011 26.9609 67.0003 26.9609 64.4995Z" fill="black"/>
<path d="M10.3784 55.4356C10.4744 55.4356 10.5704 55.4356 10.6674 55.4356C15.9056 55.4356 21.1439 55.4356 26.3811 55.4356C26.4772 55.4356 26.5732 55.4356 26.6702 55.4356C26.9423 55.4356 27.0139 55.1292 26.8877 54.9634C26.883 54.9568 26.8792 54.9512 26.8745 54.9456C26.8689 54.94 26.8604 54.9362 26.8548 54.9306C26.8086 54.8893 26.7502 54.8594 26.6702 54.8594C21.2399 54.8594 15.8105 54.8594 10.3793 54.8594C10.2992 54.8594 10.2399 54.8893 10.1947 54.9306C10.1891 54.9353 10.1815 54.939 10.1768 54.9446C10.1712 54.9512 10.1665 54.9578 10.1608 54.9653C10.0365 55.1311 10.1072 55.4356 10.3784 55.4356Z" fill="black"/>
</svg>
