<svg width="93" height="94" viewBox="0 0 93 94" fill="none" xmlns="http://www.w3.org/2000/svg">
<mask id="mask0_3793_25285" style="mask-type:alpha" maskUnits="userSpaceOnUse" x="0" y="0" width="93" height="94">
<rect x="0.648438" y="0.585938" width="92.3235" height="92.8294" fill="white"/>
</mask>
<g mask="url(#mask0_3793_25285)">
<path d="M47.7109 35.6055C47.7109 35.6055 47.9964 38.2429 48.4407 38.3194L50.0613 38.5917C50.0613 38.5917 49.0428 35.7221 47.7109 35.6055Z" fill="#F7941E"/>
<path d="M48.4407 38.3219C48.4407 38.3219 49.4745 36.1958 47.7109 35.6079C47.7109 35.6079 49.7563 35.3188 50.3199 38.6374C50.3199 38.6374 49.9653 39.5857 48.4407 38.3219Z" fill="#F9ED32"/>
<path d="M77.5708 47.4777C77.5708 47.4777 78.7465 45.7943 75.9254 43.0503C75.9254 43.0503 73.3392 40.5416 70.9883 41.0118C70.9883 41.0118 71.3408 46.4202 77.5708 47.4777Z" fill="#068E7D"/>
<path d="M77.0186 44.4319C77.0186 44.4319 85.4422 40.8367 79.5605 36.1487C79.5605 36.1487 77.245 34.622 74.3495 38.2732C74.3495 38.2732 71.9131 38.8357 72.2846 44.0177L74.9643 46.8329L77.0186 44.4319Z" fill="#F4AE7F"/>
<path d="M56.6489 60.1744C56.6489 60.1744 60.8029 62.7601 62.214 62.6039C63.6251 62.4477 77.5742 47.4775 77.5742 47.4775C77.5742 47.4775 71.9326 44.2649 70.9917 41.286C70.9917 41.286 64.2509 50.5408 60.8024 51.9487C60.8024 51.9487 52.4938 45.5187 49.125 39.7188L56.6489 60.1744Z" fill="#08998B"/>
<path d="M69.9951 42.6094C69.9006 42.7313 69.8009 42.8616 69.6953 42.9967C70.4615 44.0579 72.8568 47.0241 76.5253 48.5956C76.6493 48.4631 76.7628 48.3423 76.8667 48.2315C73.0583 46.6616 70.632 43.5128 69.9951 42.6094Z" fill="#F9ED32"/>
<path d="M69.0518 43.8125C68.9537 43.937 68.8529 44.0637 68.75 44.193C69.616 45.3592 71.9726 48.1623 75.513 49.6647C75.6306 49.5417 75.7478 49.4172 75.8565 49.3016C72.2222 47.8188 69.8344 44.8858 69.0518 43.8125Z" fill="#F9ED32"/>
<path d="M11.7422 57.8221C11.7422 57.8221 12.6836 57.3509 13.3891 55.9414C13.3891 55.9414 14.015 57.5878 13.3891 58.5287L11.7422 57.8221Z" fill="#068E7D"/>
<path d="M49.832 25.125C49.832 25.125 49.6795 27.9819 51.8277 30.1545C53.9765 32.327 53.9765 32.327 53.9765 32.327L52.6272 32.7903C52.6272 32.7903 52.1343 33.9096 51.6969 34.4452C51.6969 34.4452 47.6801 30.8669 48.4188 26.202L49.832 25.125Z" fill="#D62121"/>
<path d="M49.7899 22.832C49.7899 22.832 51.6775 26.3692 56.4178 27.9269C61.1586 29.4858 61.1586 29.4858 61.1586 29.4858L59.5333 30.7206C59.5333 30.7206 59.6394 32.3216 59.3977 33.1886C59.3977 33.1886 50.8949 30.8604 48.5234 24.842L49.7899 22.832Z" fill="#E52827"/>
<path d="M47.8308 28.6455L48.5522 27.875L49.4909 24.1484L47.2656 24.8344L47.8308 28.6455Z" fill="#2C0904"/>
<path d="M83.0088 40.2155C83.0088 40.2155 82.336 38.6181 83.128 38.2656L84.2731 38.501L83.0088 40.2155Z" fill="#F4AE7F"/>
<path d="M61.4287 90.8166L60.8799 86.2873C59.7026 79.0922 59.4735 76.3978 59.4735 76.3978C58.5685 76.6073 57.824 77.0247 57.824 77.0247C54.2187 74.8305 52.0241 76.3978 52.0241 76.3978C50.2995 79.2194 46.3809 78.4352 46.3809 78.4352C41.0511 76.0838 40.8949 77.965 40.8949 77.965L38.7008 81.7265C37.3425 82.8019 35.8628 83.299 34.5246 83.4995L29.6096 82.9803C29.6096 82.9803 26.9922 86.5153 25.4793 87.6472C23.8999 88.8298 23.4271 93.8772 23.2018 95.6941C22.9696 97.5621 22.9078 99.4471 22.7828 101.325C22.4999 105.556 22.2361 109.79 21.9712 114.023C21.854 115.906 21.7337 117.79 21.615 119.673C21.615 119.673 18.1665 121.54 18.1665 124.361L18.0098 129.534L15.2969 133.766C15.2969 133.766 15.5021 140.663 22.3991 140.349C22.3991 140.349 35.2217 133.718 42.6189 114.33C42.6189 114.33 43.5598 122.01 41.8358 126.712C41.8358 126.712 34.9393 149.755 35.2523 154.3C35.2523 154.3 39.4844 158.375 44.6574 155.083C44.6574 155.083 46.3598 151.165 46.9191 148.657C46.9191 148.657 50.3454 144.894 53.9275 142.858C53.9275 142.858 56.0995 141.917 57.3533 139.722C57.3533 139.722 60.1743 135.883 61.4287 133.139C61.4287 133.139 69.1884 122.481 61.4287 90.8166Z" fill="#E82332"/>
<path d="M47.6851 24.7188C47.6851 24.7188 48.2223 38.736 48.5516 39.4658L44.7833 37.3244C44.7833 37.3244 38.8267 35.7756 36.9375 35.0215L37.0436 31.8337L47.6851 24.7188Z" fill="#F4AE7F"/>
<path d="M9.38842 68.8758C7.50718 73.3433 12.6807 78.0451 12.6807 78.0451C15.5018 78.5152 21.6146 75.929 21.6146 75.929C14.5609 71.6953 13.3863 57.8242 13.3863 57.8242H11.7393C13.1504 62.9978 9.38842 68.8758 9.38842 68.8758Z" fill="#059684"/>
<path d="M80.3919 69.8127C61.1114 65.8159 56.6439 60.1732 56.6439 60.1732C53.1817 57.5247 40.4209 60.0946 40.4209 60.0946C36.1888 60.0946 31.9841 56.6466 31.9841 56.6466C31.906 56.6419 31.8221 56.6218 31.7345 56.5912C25.781 55.2567 13.3828 55.9411 13.3828 55.9411V57.8218C13.3828 57.8218 14.5575 71.6923 21.6112 75.9266C24.4333 80.6289 29.6058 82.9803 29.6058 82.9803C29.8306 83.0864 30.0543 83.1813 30.2786 83.2837C30.7615 83.4183 35.1461 84.537 38.697 81.7265L40.8911 77.9651C40.8911 77.9651 41.0473 76.0838 46.3771 78.4352C46.3771 78.4352 50.2963 79.2189 52.0203 76.3978C52.0203 76.3978 54.215 74.83 57.8202 77.0247C57.8202 77.0247 61.7383 74.8305 62.522 77.9656C62.522 77.9656 66.5968 79.1408 70.2026 74.8696C70.2026 74.8696 73.9651 70.9894 73.3382 74.8696C73.3382 74.8696 76.6289 73.4184 77.5692 75.4564C81.0964 75.4553 80.3919 69.8127 80.3919 69.8127Z" fill="#00A79D"/>
<path d="M77.5721 75.4519C76.6318 73.414 73.3411 74.8651 73.3411 74.8651C73.968 70.985 70.2055 74.8651 70.2055 74.8651C66.5997 79.1363 62.5249 77.9611 62.5249 77.9611C62.0837 76.1923 60.6436 76.1205 59.4727 76.3933C59.4727 76.3933 59.7017 79.0878 60.879 86.2829C71.4593 86.7684 77.5721 75.4519 77.5721 75.4519Z" fill="#059684"/>
<path d="M61.0308 87.5396L60.8793 86.2836C60.8176 85.9106 60.7606 85.5565 60.7052 85.2071C48.1745 87.6298 38.5672 85.2863 33.4364 83.3813L29.6085 82.9766C29.6085 82.9766 29.3077 83.3818 28.8555 83.957C31.2412 85.2135 38.7414 88.6182 49.9533 88.6182C53.3216 88.6187 57.0303 88.3052 61.0308 87.5396Z" fill="#FFF200"/>
<path d="M61.5886 91.4931C61.5358 91.2678 61.4825 91.0456 61.4271 90.8182L61.2266 89.1665C44.7429 92.5337 32.1272 87.4261 27.788 85.2773C27.2492 85.918 26.6608 86.5755 26.1289 87.0842C29.2249 88.7285 37.914 92.6683 50.0668 92.6683C53.6272 92.6677 57.4878 92.3263 61.5886 91.4931Z" fill="#FFF200"/>
<path opacity="0.1" d="M47.7148 27.1393L47.7581 26.5546C47.7116 25.4385 47.6837 24.7188 47.6837 24.7188L37.0426 31.8337L37.0078 32.8991L37.6136 33.0004C38.136 33.0284 38.6658 33.9118 39.2753 33.8321C42.069 33.4696 45.4341 31.2759 45.6573 31.0195C46.4884 30.0643 47.6224 28.391 47.7148 27.1393Z" fill="#B92332"/>
<path d="M38.8305 13.2852C33.6458 13.5854 33.1197 15.2841 33.1197 15.2841L32.4728 16.3891C32.4728 16.3891 32.1239 17.3131 32.0717 18.3268C32.0406 18.9415 32.5429 19.4972 32.4506 20.0866C32.3783 20.5478 32.4295 20.8075 32.2775 22.2016C32.0253 24.524 32.8226 30.4712 37.3355 32.5435C37.3355 32.5435 43.2615 32.3387 45.804 29.5678L47.385 25.1831C47.385 25.1831 47.8789 25.5182 48.5501 25.085C49.7949 24.2824 51.6519 20.9679 49.7316 19.8117C49.1802 18.7774 47.8551 16.5922 47.8551 16.5922C45.7348 14.0661 38.8305 13.2852 38.8305 13.2852Z" fill="#FCB988"/>
<path d="M44.1498 14.4653C44.1498 14.4653 44.021 16.7835 46.268 17.8932C46.268 17.8932 47.2664 18.6283 47.2664 20.6758L47.5028 21.7428C47.5028 21.7428 47.8954 19.2589 49.7312 19.813L50.3835 16.526L47.64 13.6094L44.1498 14.4653Z" fill="#2C0904"/>
<path d="M79.7288 49.8636L79.4496 49.8351C79.5868 48.518 79.7356 48.1222 80.4438 47.1877C80.5915 46.993 80.7535 46.8046 80.915 46.6172C81.4554 45.9898 81.9667 45.3972 81.9324 44.5719C81.8934 43.6379 81.1071 42.9339 80.3472 42.2532C79.4612 41.4601 78.5462 40.64 78.8069 39.4453L79.0813 39.5049C78.8549 40.5403 79.6702 41.2711 80.534 42.0442C81.3377 42.7635 82.1688 43.508 82.2126 44.5603C82.2522 45.4964 81.6807 46.1592 81.1277 46.8009C80.9699 46.984 80.8111 47.1671 80.6681 47.3571C79.9852 48.2584 79.8617 48.5861 79.7288 49.8636Z" fill="#E82332"/>
<path d="M80.1476 49.9116C80.1001 50.3775 79.6843 50.7184 79.2167 50.6704C78.7508 50.624 78.4109 50.2082 78.4574 49.7411C78.5054 49.2731 78.9207 48.9348 79.3872 48.9807C79.8552 49.0288 80.1961 49.4456 80.1476 49.9116Z" fill="#FFF200"/>
<path d="M73.0502 49.9514L72.8359 49.7693C73.6961 48.7588 74.0428 48.5166 75.1552 48.1472C75.3858 48.0707 75.6238 48.0079 75.8623 47.9445C76.6649 47.7335 77.4221 47.5335 77.8596 46.8316C78.3551 46.038 78.1039 45.0142 77.8622 44.0232C77.5799 42.8681 77.2881 41.6755 78.1799 40.8359L78.372 41.0407C77.6 41.7673 77.8596 42.8312 78.1351 43.9562C78.3915 45.0037 78.6564 46.0871 78.0981 46.9804C77.6021 47.7767 76.7541 48.0005 75.9346 48.2168C75.7019 48.278 75.4686 48.3398 75.2438 48.4142C74.1715 48.7699 73.8839 48.9714 73.0502 49.9514Z" fill="#E82332"/>
<path d="M73.3648 50.2261C73.063 50.5844 72.5274 50.6298 72.1675 50.3263C71.8102 50.024 71.7654 49.4884 72.0672 49.1295C72.3712 48.7712 72.9068 48.7253 73.2651 49.0298C73.6234 49.3322 73.6677 49.8667 73.3648 50.2261Z" fill="#FFF200"/>
<path d="M79.3222 44.2178C79.2541 44.8758 78.699 45.042 78.0399 44.9756C77.3813 44.908 76.8695 44.6336 76.9354 43.975L80.2668 11.0647C80.3343 10.4056 80.891 10.2394 81.5507 10.3069C82.2098 10.3729 82.7211 10.6473 82.6541 11.3064L79.3222 44.2178Z" fill="#E52827"/>
<path d="M82.6505 11.3064C82.7175 10.6473 82.2062 10.3729 81.5471 10.3069C80.8874 10.2394 80.3307 10.4056 80.2632 11.0647L77.6484 36.9049L80.0336 37.1466L82.6505 11.3064Z" fill="#FFF200"/>
<path d="M77.6486 36.9047L77.4766 38.6016L79.8622 38.8435L80.0343 37.1467L77.6486 36.9047Z" fill="#E82332"/>
<path d="M76.9354 43.9706C76.8695 44.6297 77.3813 44.9041 78.0399 44.9711C78.699 45.0376 79.2541 44.8713 79.3222 44.2133L79.804 39.4492L77.4188 39.207L76.9354 43.9706Z" fill="#E82332"/>
<path d="M77.4666 38.6164L77.4062 39.2266L79.7924 39.4625L79.8527 38.8523L77.4666 38.6164Z" fill="#FFF200"/>
<path d="M80.0239 13.4783L79.9531 14.1797L82.3382 14.4204L82.409 13.719L80.0239 13.4783Z" fill="#E82332"/>
<path d="M82.6503 11.3064C82.7174 10.6473 82.206 10.3729 81.5469 10.3069C80.8873 10.2394 80.3306 10.4056 80.263 11.0647L80.1016 12.6562L82.4889 12.8984L82.6503 11.3064Z" fill="#E82332"/>
<path opacity="0.1" d="M80.2663 11.0634L80.1048 12.6549L80.0251 13.4613L79.9534 14.1631L77.6516 36.9037L77.479 38.6007L77.4189 39.2108L76.9355 43.9738C76.8801 44.5242 77.2284 44.8044 77.7281 44.9226L81.233 10.293C80.7201 10.3072 80.3222 10.513 80.2663 11.0634Z" fill="#B92332"/>
<path opacity="0.3" d="M82.6534 11.3051C82.7204 10.646 82.2091 10.3716 81.55 10.3056C81.4397 10.2946 81.3346 10.2924 81.2323 10.2951V10.293C81.2027 10.2935 81.1763 10.2972 81.1473 10.2998C81.1194 10.3014 81.0898 10.303 81.0629 10.3067C81.0027 10.3141 80.9447 10.3246 80.8893 10.3383C80.8777 10.342 80.865 10.3457 80.8523 10.3489C80.7996 10.3647 80.7494 10.3832 80.7014 10.4064C80.684 10.4154 80.6676 10.426 80.6502 10.4354C80.6165 10.456 80.5832 10.4761 80.5531 10.5009C80.5352 10.5135 80.5199 10.5294 80.5035 10.5442C80.4761 10.5695 80.4513 10.598 80.4281 10.6286C80.4154 10.646 80.4022 10.6639 80.3906 10.6829C80.369 10.7178 80.3516 10.7563 80.3352 10.7974C80.3268 10.8164 80.3172 10.8339 80.3109 10.855C80.2903 10.9188 80.275 10.9869 80.2661 11.0634L80.1046 12.6549L80.027 13.4307L77.6513 36.9037L77.4788 38.6007L77.4255 39.1306L76.9347 43.9738C76.9268 44.0524 76.9289 44.1215 76.9363 44.188C76.9384 44.2096 76.9447 44.2276 76.9479 44.2482C76.9564 44.2914 76.9658 44.3336 76.9796 44.3716C76.9875 44.3933 76.9975 44.4128 77.0075 44.4339C77.0234 44.4666 77.0413 44.4988 77.0624 44.5284C77.0751 44.5479 77.0883 44.5664 77.1036 44.5838C77.1268 44.6117 77.1537 44.6366 77.1811 44.6619C77.198 44.6761 77.2144 44.6925 77.2318 44.7067C77.2661 44.7331 77.3052 44.7558 77.3453 44.7774C77.3732 44.7927 77.4033 44.8091 77.435 44.8228C77.4751 44.8413 77.5162 44.8592 77.56 44.8745C77.5912 44.8851 77.6244 44.8935 77.6571 44.902C77.6803 44.9083 77.7036 44.9173 77.7278 44.9226V44.9204C77.8286 44.9431 77.9305 44.9632 78.0397 44.9748C78.6988 45.0413 79.2539 44.8751 79.322 44.217L80.0101 37.4161L80.0376 37.1454L82.6534 11.3051Z" fill="#B92332"/>
<path d="M85.0606 47.4946C85.2405 48.1304 84.7841 48.4887 84.1466 48.6687C83.5092 48.8486 82.9329 48.7832 82.753 48.1457L73.7663 16.3103C73.5858 15.6723 74.0428 15.3135 74.6808 15.1335C75.3177 14.9536 75.8945 15.0201 76.0744 15.6581L85.0606 47.4946Z" fill="#E52827"/>
<path d="M76.0744 15.6581C75.8945 15.0201 75.3177 14.9536 74.6808 15.1335C74.0428 15.3135 73.5858 15.6723 73.7663 16.3103L80.8216 41.3052L83.1303 40.6551L76.0744 15.6581Z" fill="#FFF200"/>
<path d="M83.1165 40.6585L80.8086 41.3086L81.2708 42.9496L83.5788 42.2996L83.1165 40.6585Z" fill="#E82332"/>
<path d="M82.7544 48.1434C82.9344 48.7809 83.5106 48.8463 84.1481 48.6664C84.7855 48.4864 85.242 48.1281 85.0621 47.4922L83.7613 42.8828L81.4531 43.534L82.7544 48.1434Z" fill="#E82332"/>
<path d="M83.597 42.287L81.2891 42.9375L81.4554 43.5277L83.7634 42.8772L83.597 42.287Z" fill="#FFF200"/>
<path d="M76.7301 17.9812L74.4219 18.6328L74.6134 19.3113L76.9216 18.6597L76.7301 17.9812Z" fill="#E82332"/>
<path d="M76.0744 15.6581C75.8945 15.0201 75.3177 14.9536 74.6808 15.1335C74.0428 15.3135 73.5858 15.6723 73.7663 16.3103L74.2001 17.8501L76.5093 17.1984L76.0744 15.6581Z" fill="#E82332"/>
<path opacity="0.1" d="M73.7661 16.3072L74.1999 17.847L74.42 18.6264L74.612 19.3045L80.8214 41.3021L81.2853 42.9427L81.4515 43.5332L82.7528 48.1421C82.9032 48.6729 83.3296 48.807 83.8378 48.7321L74.3814 15.2344C73.9097 15.437 73.6157 15.7747 73.7661 16.3072Z" fill="#B92332"/>
<path d="M87.2464 52.6763C86.8908 51.4004 86.8834 50.9772 87.1995 49.8474C87.2654 49.6131 87.3472 49.3793 87.4285 49.146C87.7018 48.3629 87.9604 47.6231 87.6248 46.8696C87.2449 46.0147 86.2549 45.649 85.2987 45.2954C84.1842 44.8833 83.0312 44.4569 82.8359 43.248L83.113 43.2031C83.2829 44.2501 84.3093 44.6295 85.3963 45.0321C86.4079 45.4063 87.4533 45.7925 87.8818 46.7556C88.2628 47.612 87.9736 48.4389 87.6944 49.2389C87.6153 49.4674 87.5351 49.6949 87.4707 49.9239C87.1668 51.013 87.1725 51.3629 87.5187 52.6019L87.2464 52.6763Z" fill="#E82332"/>
<path d="M87.9243 52.4897C88.052 52.9403 87.7887 53.41 87.338 53.5372C86.8868 53.6649 86.4177 53.4026 86.2895 52.9514C86.1634 52.5002 86.4251 52.0306 86.8763 51.9034C87.3269 51.7757 87.7976 52.038 87.9243 52.4897Z" fill="#FFF200"/>
<path d="M81.3357 55.1285L81.0703 55.0383C81.4972 53.7845 81.7305 53.4309 82.6312 52.6769C82.818 52.5201 83.0175 52.3734 83.2165 52.2273C83.884 51.736 84.5146 51.2721 84.6634 50.4605C84.8333 49.5413 84.2238 48.6801 83.6344 47.8468C82.9479 46.8764 82.2381 45.8733 82.76 44.7656L83.0138 44.8859C82.5626 45.8453 83.1943 46.7392 83.8634 47.6848C84.4866 48.5656 85.1304 49.4758 84.9405 50.5117C84.7705 51.4325 84.065 51.9518 83.3827 52.4536C83.188 52.5961 82.9938 52.7402 82.8117 52.8922C81.9431 53.6193 81.7505 53.9127 81.3357 55.1285Z" fill="#E82332"/>
<path d="M81.7316 55.2689C81.5817 55.7137 81.0994 55.9528 80.6556 55.8029C80.2113 55.653 79.9728 55.1702 80.1232 54.7254C80.272 54.2821 80.7543 54.043 81.1981 54.1934C81.6429 54.3433 81.882 54.824 81.7316 55.2689Z" fill="#FFF200"/>
<path d="M75.1308 42.0458C75.1308 42.0458 75.925 43.0521 77.8136 43.0706C77.8136 43.0706 79.2843 43.1313 80.8178 40.8384C80.8178 40.8384 81.8959 37.3688 77.8136 36.7424C73.7308 36.1155 74.3382 41.0395 75.1308 42.0458Z" fill="#EDA574"/>
<path d="M76.4841 37.9475C76.4841 37.9475 76.6224 33.4146 78.2704 31.9038C78.2704 31.9038 78.8878 33.1397 79.7801 32.5909C79.7801 32.5909 81.5669 30.2558 82.6656 30.5302C82.6656 30.5302 83.2756 30.7809 82.6656 32.3154C82.6656 32.3154 84.5489 32.202 85.4819 33.621C85.9209 34.2895 85.8692 35.4853 85.8259 36.8483C85.8259 36.8483 85.4819 39.8029 83.2154 40.6947C83.2154 40.6947 82.3231 40.7085 84.0392 38.4969C84.0392 38.4969 81.1532 40.4198 79.5063 40.1607C79.5063 40.1607 76.301 39.8457 76.4841 37.9475Z" fill="#FCB988"/>
<path opacity="0.1" d="M49.7299 19.8121C49.1785 18.7778 47.8534 16.5926 47.8534 16.5926C46.997 15.571 45.3574 14.8348 43.7078 14.3203C44.2107 16.5293 44.2989 18.9925 43.8804 21.5339C43.0783 26.3882 40.6145 30.386 37.5 32.5359C38.4747 32.4784 43.5105 32.0647 45.8017 29.5681L47.3827 25.1835C47.3827 25.1835 47.8766 25.5186 48.5479 25.0853C49.7932 24.2827 51.6497 20.9688 49.7299 19.8121Z" fill="#B92332"/>
<path d="M48.3238 22.0877C48.3238 22.0877 48.441 20.9299 49.4869 20.9906C49.4869 20.9906 50.3803 22.8354 47.8516 23.6776L48.3238 22.0877Z" fill="#EA965E"/>
<path d="M37.3017 16.7335C37.3017 17.3256 37.1513 17.8063 36.9656 17.8063C36.7793 17.8063 36.6289 17.3256 36.6289 16.7335C36.6289 16.1404 36.7793 15.6602 36.9656 15.6602C37.1513 15.6602 37.3017 16.1404 37.3017 16.7335Z" fill="#E82332"/>
<path d="M45.8328 90.3125C45.8328 90.3125 45.8882 91.3109 45.9489 93.0597C45.9726 93.9341 46.0017 94.9958 46.0344 96.2143C46.0597 97.4327 46.0966 98.8074 46.0966 100.307C46.0929 101.807 46.0893 103.432 46.0856 105.151C46.0687 106.87 46.0492 108.683 45.9864 110.559C45.8655 114.309 45.6581 118.311 45.2254 122.303C45.0112 124.298 44.7336 126.291 44.3204 128.241C44.1162 129.207 43.8471 130.194 43.5616 131.101C43.2814 132.023 43.0043 132.933 42.7326 133.828C41.6656 137.416 40.6529 140.761 39.8577 143.647C39.0704 146.535 38.4134 148.943 38.0567 150.653C37.8762 151.506 37.7458 152.18 37.6852 152.644C37.6482 152.875 37.6345 153.053 37.6229 153.174C37.6113 153.295 37.6055 153.357 37.6055 153.357C37.6055 153.357 37.6065 153.295 37.6092 153.173C37.6113 153.053 37.6113 152.872 37.6303 152.638C37.6567 152.169 37.7274 151.483 37.8646 150.617C38.1395 148.886 38.6049 146.424 39.32 143.508C40.025 140.59 40.8809 137.194 41.9109 133.587C42.169 132.686 42.4313 131.769 42.6972 130.842C42.9838 129.907 43.2233 129.009 43.4223 128.05C43.8196 126.148 44.0687 124.174 44.3004 122.2C44.7362 118.244 44.9858 114.26 45.1779 110.524C45.2645 108.655 45.3478 106.848 45.4275 105.134C45.484 103.419 45.5378 101.798 45.5869 100.301C45.6296 98.8026 45.6682 97.4301 45.703 96.2132C45.7309 94.9953 45.7557 93.9346 45.7753 93.0602C45.8112 91.312 45.8328 90.3125 45.8328 90.3125Z" fill="#FFF200"/>
<path d="M47.8481 90.9297C47.8481 90.9297 47.9029 91.9302 47.9631 93.6827C47.9868 94.5592 48.0153 95.6235 48.0481 96.8441C48.0729 98.0647 48.1114 99.443 48.1119 100.945C48.1204 103.952 48.1151 107.46 48.0095 111.22C47.8945 114.978 47.6913 118.988 47.276 122.99C47.0718 124.991 46.8011 126.988 46.4127 128.944C46.2059 129.921 45.9974 130.891 45.6655 131.834C45.3573 132.748 45.0528 133.651 44.7536 134.54C44.1674 136.322 43.6001 138.044 43.0624 139.677C42.5268 141.31 42.036 142.86 41.5975 144.295C40.7326 147.166 40.0213 149.564 39.6318 151.27C39.436 152.122 39.2967 152.796 39.2323 153.26C39.1928 153.491 39.1785 153.67 39.1664 153.792C39.1548 153.912 39.1484 153.975 39.1484 153.975C39.1484 153.975 39.15 153.912 39.1521 153.791C39.1548 153.67 39.1553 153.489 39.1764 153.254C39.206 152.784 39.2851 152.097 39.4381 151.231C39.7416 149.501 40.2661 147.043 41.0571 144.14C41.4455 142.686 41.8824 141.117 42.3605 139.461C42.8318 137.803 43.3727 136.068 43.9336 134.274C44.2175 133.378 44.5009 132.466 44.8075 131.548C45.113 130.665 45.3146 129.716 45.5098 128.765C45.8808 126.851 46.1304 124.873 46.3515 122.892C46.5668 120.91 46.7272 118.919 46.8629 116.957C47.0053 114.995 47.1146 113.061 47.2032 111.188C47.2882 109.314 47.37 107.503 47.4481 105.785C47.5035 104.066 47.5552 102.441 47.6037 100.941C47.6454 99.4393 47.6839 98.0636 47.7182 96.8436C47.7457 95.623 47.77 94.5597 47.7895 93.6837C47.8269 91.9307 47.8481 90.9297 47.8481 90.9297Z" fill="#FFF200"/>
<path opacity="0.3" d="M64.5869 121.837C65.2718 115.152 64.9362 105.132 61.4286 90.8171L60.8798 86.2879C59.7025 79.0928 59.4735 76.3983 59.4735 76.3983C58.5685 76.6078 57.8239 77.0252 57.8239 77.0252C56.2957 76.0949 55.0234 75.8442 54.0625 75.8601C54.0783 75.8981 54.6973 77.3851 55.6282 79.9429C58.4192 87.6198 64.0196 104.954 64.5869 121.838V121.837Z" fill="#B92332"/>
<path opacity="0.3" d="M57.0186 92.2383C57.0186 92.2383 63.629 111.908 61.5863 125.974C61.5863 125.974 62.2096 111.759 55.4688 92.6689L57.0186 92.2383Z" fill="#B92332"/>
<path d="M32.4505 84.3078C32.4505 84.5184 32.2801 84.6899 32.0685 84.6899C31.8585 84.6899 31.6875 84.5189 31.6875 84.3078C31.6875 84.0973 31.8579 83.9258 32.0685 83.9258C32.2796 83.9258 32.4505 84.0968 32.4505 84.3078Z" fill="#E82332"/>
<path d="M34.768 85.281C34.768 85.491 34.597 85.6625 34.3854 85.6625C34.1754 85.6625 34.0039 85.4916 34.0039 85.281C34.0039 85.0694 34.1749 84.8984 34.3854 84.8984C34.597 84.899 34.768 85.0694 34.768 85.281Z" fill="#E82332"/>
<path d="M37.311 86.0466C37.311 86.2572 37.14 86.4287 36.9289 86.4287C36.7189 86.4287 36.5469 86.2577 36.5469 86.0466C36.5469 85.8356 36.7184 85.6641 36.9289 85.6641C37.14 85.6641 37.311 85.835 37.311 86.0466Z" fill="#E82332"/>
<path d="M39.85 86.6589C39.85 86.8694 39.6796 87.0409 39.468 87.0409C39.2569 87.0409 39.0859 86.8699 39.0859 86.6589C39.0859 86.4483 39.2564 86.2773 39.468 86.2773C39.6796 86.2773 39.85 86.4478 39.85 86.6589Z" fill="#E82332"/>
<path d="M42.3183 87.0388C42.3183 87.2489 42.1478 87.4204 41.9362 87.4204C41.7257 87.4204 41.5547 87.2494 41.5547 87.0388C41.5547 86.8278 41.7251 86.6562 41.9362 86.6562C42.1473 86.6568 42.3183 86.8278 42.3183 87.0388Z" fill="#E82332"/>
<path d="M44.725 87.4216C44.725 87.6311 44.5535 87.8032 44.3425 87.8032C44.1324 87.8032 43.9609 87.6317 43.9609 87.4216C43.9609 87.2106 44.1319 87.0391 44.3425 87.0391C44.5535 87.0391 44.725 87.2106 44.725 87.4216Z" fill="#E82332"/>
<path d="M47.0342 87.6086C47.0342 87.8186 46.8627 87.9901 46.6516 87.9901C46.4405 87.9901 46.2695 87.8186 46.2695 87.6086C46.2695 87.3975 46.44 87.2266 46.6516 87.2266C46.8627 87.2271 47.0342 87.3975 47.0342 87.6086Z" fill="#E82332"/>
<path d="M49.5141 87.6086C49.5141 87.8186 49.3431 87.9901 49.1315 87.9901C48.921 87.9901 48.75 87.8186 48.75 87.6086C48.75 87.3975 48.9205 87.2266 49.1315 87.2266C49.3431 87.2271 49.5141 87.3975 49.5141 87.6086Z" fill="#E82332"/>
<path d="M52.1196 87.6086C52.1196 87.8186 51.9486 87.9901 51.737 87.9901C51.5275 87.9901 51.3555 87.8186 51.3555 87.6086C51.3555 87.3975 51.527 87.2266 51.737 87.2266C51.9486 87.2271 52.1196 87.3975 52.1196 87.6086Z" fill="#E82332"/>
<path d="M54.6011 87.6086C54.6011 87.8186 54.4301 87.9901 54.2185 87.9901C54.0074 87.9901 53.8359 87.8186 53.8359 87.6086C53.8359 87.3975 54.0069 87.2266 54.2185 87.2266C54.4301 87.2271 54.6011 87.3975 54.6011 87.6086Z" fill="#E82332"/>
<path d="M56.9477 87.2263C56.9477 87.4358 56.7773 87.6079 56.5656 87.6079C56.3551 87.6079 56.1836 87.4364 56.1836 87.2263C56.1836 87.0153 56.3546 86.8438 56.5656 86.8438C56.7773 86.8438 56.9477 87.0147 56.9477 87.2263Z" fill="#E82332"/>
<path d="M59.3823 86.8391C59.3823 87.0491 59.2114 87.2211 58.9998 87.2211C58.7892 87.2211 58.6172 87.0496 58.6172 86.8391C58.6172 86.6285 58.7887 86.457 58.9998 86.457C59.2108 86.4576 59.3823 86.6285 59.3823 86.8391Z" fill="#E82332"/>
<path d="M30.9003 87.8121C30.8966 88.0227 30.7241 88.1926 30.513 88.1889C30.3019 88.1868 30.1336 88.0126 30.1368 87.8026C30.1389 87.5915 30.312 87.4221 30.523 87.4258C30.7346 87.429 30.903 87.6016 30.9003 87.8121Z" fill="#E82332"/>
<path d="M33.2045 88.817C33.2008 89.0276 33.0283 89.1964 32.8172 89.1938C32.6061 89.1901 32.4378 89.0176 32.4415 88.8065C32.4436 88.5959 32.6172 88.4276 32.8272 88.4297C33.0388 88.4323 33.2077 88.6054 33.2045 88.817Z" fill="#E82332"/>
<path d="M35.7373 89.61C35.7336 89.82 35.56 89.9894 35.35 89.9863C35.1389 89.9836 34.9706 89.8095 34.9727 89.6C34.9764 89.3884 35.1489 89.22 35.36 89.2227C35.5706 89.2259 35.7394 89.3984 35.7373 89.61Z" fill="#E82332"/>
<path d="M38.2714 90.2624C38.2682 90.4724 38.0957 90.6418 37.8851 90.6391C37.6735 90.636 37.5057 90.4624 37.5078 90.2523C37.5115 90.0413 37.6841 89.8724 37.8952 89.875C38.1062 89.8782 38.2746 90.0508 38.2714 90.2624Z" fill="#E82332"/>
<path d="M40.7319 90.6803C40.7287 90.8903 40.5561 91.0597 40.3445 91.0576C40.1334 91.0539 39.9651 90.8798 39.9688 90.6708C39.9709 90.4592 40.1435 90.2909 40.3551 90.293C40.5667 90.2962 40.7345 90.4692 40.7319 90.6803Z" fill="#E82332"/>
<path d="M43.1303 91.0988C43.1271 91.3088 42.9546 91.4772 42.7435 91.4751C42.5324 91.4719 42.3641 91.2983 42.3672 91.0888C42.3699 90.8777 42.5424 90.7088 42.7535 90.711C42.9646 90.7147 43.1334 90.8877 43.1303 91.0988Z" fill="#E82332"/>
<path d="M45.436 91.316C45.4328 91.5266 45.2592 91.696 45.0487 91.6928C44.8381 91.6907 44.6698 91.5165 44.6719 91.3065C44.6756 91.0954 44.8481 90.9266 45.0587 90.9297C45.2698 90.9324 45.4386 91.1049 45.436 91.316Z" fill="#E82332"/>
<path d="M47.9194 91.3439C47.9167 91.5539 47.7436 91.7233 47.532 91.7201C47.3225 91.717 47.1526 91.5439 47.1563 91.3333C47.1595 91.1223 47.3326 90.9534 47.5426 90.9571C47.7542 90.9592 47.922 91.1318 47.9194 91.3439Z" fill="#E82332"/>
<path d="M50.5209 91.3819C50.5177 91.5925 50.3452 91.7619 50.1336 91.7587C49.9236 91.7561 49.7547 91.5814 49.7579 91.3719C49.76 91.1613 49.9336 90.9919 50.1436 90.9962C50.3552 90.9978 50.5241 91.1708 50.5209 91.3819Z" fill="#E82332"/>
<path d="M52.9975 91.4147C52.9954 91.6242 52.8218 91.7942 52.6107 91.7905C52.4006 91.7878 52.2307 91.6142 52.2344 91.4042C52.2381 91.1931 52.4107 91.0237 52.6218 91.0274C52.8323 91.0306 53.0012 91.2031 52.9975 91.4147Z" fill="#E82332"/>
<path d="M55.3574 91.0665C55.3547 91.2766 55.1806 91.4459 54.9706 91.4433C54.7595 91.4401 54.5906 91.2665 54.5938 91.0565C54.5964 90.846 54.7695 90.6766 54.9806 90.6797C55.1906 90.6829 55.36 90.8555 55.3574 91.0665Z" fill="#E82332"/>
<path d="M57.7949 90.7155C57.7917 90.925 57.6186 91.0949 57.4081 91.0917C57.197 91.0886 57.0281 90.915 57.0313 90.7055C57.0345 90.4939 57.2075 90.3255 57.4176 90.3282C57.6286 90.3303 57.797 90.5044 57.7949 90.7155Z" fill="#E82332"/>
<path d="M73.05 72.9334C71.6996 72.2744 70.2611 72.7071 68.9988 74.1519C67.9049 75.4057 66.8084 76.0843 65.2131 76.4928L65.1493 76.5097C63.7377 76.8796 63.3483 76.8711 63.2491 76.8521C61.4211 74.2574 58.4407 75.3266 57.808 75.5941C56.2645 74.6949 54.503 74.4638 52.8307 74.9445C52.0798 75.1609 51.5315 75.6041 51.0007 76.0331C50.5521 76.3941 50.1305 76.7366 49.6002 76.9402C48.8989 77.2115 48.0883 77.3313 47.2519 77.2943C46.4699 77.2569 45.7696 76.9798 45.0293 76.6875C43.9612 76.2648 42.8567 75.8263 41.4979 76.1703C41.3723 76.202 41.2958 76.3292 41.3275 76.4564C41.3596 76.5819 41.4837 76.6579 41.6135 76.6258C42.824 76.3213 43.8124 76.7102 44.8562 77.1239C45.5997 77.4184 46.3691 77.7234 47.2303 77.764C47.34 77.7698 47.4503 77.7719 47.5596 77.7719C48.3437 77.7719 49.102 77.6373 49.7696 77.3798C50.3685 77.1476 50.8403 76.7672 51.2957 76.3994C51.8139 75.982 52.3025 75.5872 52.9616 75.3973C54.542 74.9424 56.2149 75.1778 57.6718 76.0595L57.7816 76.1271L57.8972 76.0701C58.0259 76.0062 61.0786 74.5355 62.8902 77.1587C63.0216 77.3503 63.305 77.4801 65.2686 76.9656L65.3298 76.9497C67.0026 76.5207 68.2062 75.7762 69.3535 74.4617C70.068 73.6432 71.164 72.8084 72.4611 73.2084C72.7344 73.1197 72.9761 73.1203 73.1476 73.2627C73.1502 73.2575 73.1555 73.2548 73.1581 73.2495C73.2151 73.1308 73.1671 72.9899 73.05 72.9334Z" fill="#F9ED32"/>
<path opacity="0.1" d="M43.8628 77.5094C43.8628 77.5094 42.1119 73.8493 41.5615 62.6094C41.5615 62.6094 40.9969 69.3037 41.5172 77.3543C41.5172 77.3543 42.1905 77.0825 43.8628 77.5094Z" fill="#B92332"/>
<path opacity="0.1" d="M52.0217 76.3999C52.0217 76.3999 47.0734 63.6983 46.6523 61.4688C46.6523 61.4688 52.0211 73.4126 53.5188 75.8575L52.0217 76.3999Z" fill="#B92332"/>
<path opacity="0.1" d="M57.8239 77.0256L50.5586 64.4062L58.7353 76.6203L57.8239 77.0256Z" fill="#B92332"/>
<path opacity="0.1" d="M72.9479 73.1445C72.9479 73.1445 62.1333 67.3836 58.7344 65.582C58.7344 65.582 69.7854 72.1661 72.168 73.3286C72.168 73.3286 72.7099 72.9935 72.9479 73.1445Z" fill="#B92332"/>
<path d="M23.0963 74.6054L23.0409 74.5458C17.9481 70.7664 15.994 58.6352 15.6072 55.8516C15.4405 55.8574 15.2832 55.8621 15.1328 55.8674C15.5027 58.642 17.4172 70.9147 22.729 74.8993C23.1216 75.474 28.2123 82.6997 35.1705 82.6992C36.0175 82.6992 36.8935 82.5879 37.79 82.3488C38.0982 82.1646 38.4032 81.9652 38.7024 81.7288L38.8312 81.5066C30.0688 84.9615 23.1675 74.7115 23.0963 74.6054Z" fill="#F9ED32"/>
<path d="M77.6523 74.4503L77.7621 74.5559L77.9035 74.5005C77.9811 74.4683 79.7272 73.711 79.5895 69.6404C79.4322 69.6066 79.2723 69.5734 79.1167 69.5391C79.2518 72.7153 78.2059 73.739 77.847 73.9918C76.4576 72.7923 74.5157 73.1891 73.3516 73.5986C73.3874 73.7274 73.407 73.8894 73.4086 74.082C74.4967 73.6878 76.4133 73.2546 77.6523 74.4503Z" fill="#F9ED32"/>
<path opacity="0.1" d="M21.6133 75.9299L34.7704 63.7031L22.2212 76.8555L21.6133 75.9299Z" fill="#B92332"/>
<path opacity="0.2" d="M31.9883 56.6484C31.9883 56.6484 34.469 60.8025 40.7386 60.9592C40.7386 60.9592 52.4946 59.2347 56.6481 60.1756C56.6481 60.1756 53.094 56.7387 40.8035 60.0246C40.8035 60.0246 37.4225 60.0964 31.9883 56.6484Z" fill="#B92332"/>
<path d="M49.1226 39.7184C44.4192 37.6034 35.2505 34.7812 35.2505 34.7812C24.904 40.1886 31.9862 56.6474 31.9862 56.6474C31.9862 56.6474 36.1914 60.0954 40.423 60.0954C40.423 60.0954 53.1838 57.526 56.646 60.174C57.3515 48.4185 49.1226 39.7184 49.1226 39.7184Z" fill="#E82332"/>
<path d="M35.25 34.7801C35.25 34.7801 35.5624 32.8208 36.9745 32.6641C36.9745 32.6641 41.5507 35.1595 46.9174 37.0529C46.9174 37.0529 47.7612 36.9168 48.4414 38.3173C48.4414 38.3173 38.2283 39.7283 35.2505 35.4904" fill="#F9ED32"/>
<path d="M17.3576 56.4609L16.5703 57.8298" stroke="#F9ED32" stroke-width="0.850009" stroke-miterlimit="10" stroke-linecap="round"/>
<path d="M17.5946 57.6175L16.3281 56.6719" stroke="#F9ED32" stroke-width="0.850009" stroke-miterlimit="10" stroke-linecap="round"/>
<path d="M17.5947 58.6961C17.5947 58.8697 17.4522 59.0116 17.2781 59.0116C17.1024 59.0116 16.9609 58.8702 16.9609 58.6961C16.9609 58.5209 17.1024 58.3789 17.2781 58.3789C17.4527 58.3794 17.5947 58.5209 17.5947 58.6961Z" fill="white"/>
<path d="M17.9847 59.8398L17.1953 61.2097" stroke="#F9ED32" stroke-width="0.850009" stroke-miterlimit="10" stroke-linecap="round"/>
<path d="M18.223 61.0003L16.957 60.0547" stroke="#F9ED32" stroke-width="0.850009" stroke-miterlimit="10" stroke-linecap="round"/>
<path d="M18.2226 62.0744C18.2226 62.2496 18.0806 62.3905 17.9059 62.3905C17.7313 62.3905 17.5898 62.2496 17.5898 62.0744C17.5898 61.8998 17.7313 61.7578 17.9059 61.7578C18.0806 61.7583 18.2226 61.8998 18.2226 62.0744Z" fill="white"/>
<path d="M18.9796 63.1055L18.3047 64.5334" stroke="#F9ED32" stroke-width="0.850009" stroke-miterlimit="10" stroke-linecap="round"/>
<path d="M19.3137 64.2406L17.9766 63.3984" stroke="#F9ED32" stroke-width="0.850009" stroke-miterlimit="10" stroke-linecap="round"/>
<path d="M19.3993 65.3138C19.4125 65.4885 19.2821 65.6426 19.108 65.6558C18.9338 65.6695 18.7803 65.5397 18.7666 65.3655C18.7534 65.1914 18.8826 65.0389 19.0573 65.0247C19.232 65.0094 19.384 65.1402 19.3993 65.3138Z" fill="white"/>
<path d="M19.9885 66.5469L19.3125 67.9748" stroke="#F9ED32" stroke-width="0.850009" stroke-miterlimit="10" stroke-linecap="round"/>
<path d="M20.3216 67.6849L18.9844 66.8438" stroke="#F9ED32" stroke-width="0.850009" stroke-miterlimit="10" stroke-linecap="round"/>
<path d="M20.405 68.7525C20.4182 68.9272 20.2883 69.0802 20.1153 69.094C19.9406 69.1077 19.7881 68.9768 19.7744 68.8021C19.7612 68.6285 19.8899 68.4766 20.0646 68.4618C20.2387 68.4491 20.3912 68.5795 20.405 68.7525Z" fill="white"/>
<path d="M21.2108 69.6914L21.1406 71.2703" stroke="#F9ED32" stroke-width="0.850009" stroke-miterlimit="10" stroke-linecap="round"/>
<path d="M21.9528 70.6096L20.3945 70.3516" stroke="#F9ED32" stroke-width="0.850009" stroke-miterlimit="10" stroke-linecap="round"/>
<path d="M22.449 71.5621C22.5298 71.7172 22.4691 71.9083 22.3134 71.989C22.1577 72.0692 21.9678 72.0085 21.8865 71.8518C21.8073 71.6977 21.867 71.5078 22.0226 71.4265C22.1778 71.3452 22.3688 71.407 22.449 71.5621Z" fill="white"/>
<path d="M23.477 72.4805L23.4062 74.0599" stroke="#F9ED32" stroke-width="0.850009" stroke-miterlimit="10" stroke-linecap="round"/>
<path d="M24.2195 73.3942L22.6602 73.1367" stroke="#F9ED32" stroke-width="0.850009" stroke-miterlimit="10" stroke-linecap="round"/>
<path d="M24.7149 74.3503C24.7951 74.5065 24.7349 74.6975 24.5787 74.7788C24.4236 74.859 24.2331 74.7973 24.1524 74.6411C24.0727 74.4875 24.1328 74.2954 24.288 74.2152C24.4436 74.1345 24.6341 74.1962 24.7149 74.3503Z" fill="white"/>
<path d="M25.8983 75.2266L25.8281 76.8054" stroke="#F9ED32" stroke-width="0.850009" stroke-miterlimit="10" stroke-linecap="round"/>
<path d="M26.6447 76.1492L25.0859 75.8906" stroke="#F9ED32" stroke-width="0.850009" stroke-miterlimit="10" stroke-linecap="round"/>
<path d="M27.1364 77.0999C27.2176 77.2561 27.1569 77.4477 27.0013 77.5289C26.8461 77.6086 26.6546 77.5474 26.5744 77.3917C26.4942 77.2382 26.5554 77.0461 26.71 76.9653C26.8656 76.8846 27.0572 76.9458 27.1364 77.0999Z" fill="white"/>
<path d="M28.3867 77.6367L28.6406 79.1971" stroke="#F9ED32" stroke-width="0.850009" stroke-miterlimit="10" stroke-linecap="round"/>
<path d="M29.306 78.3828L27.7266 78.4498" stroke="#F9ED32" stroke-width="0.850009" stroke-miterlimit="10" stroke-linecap="round"/>
<path d="M29.9835 79.2133C30.0944 79.35 30.0738 79.5499 29.9387 79.6602C29.8031 79.7716 29.6025 79.751 29.4922 79.6138C29.383 79.4798 29.4031 79.2798 29.5376 79.1689C29.6738 79.0581 29.8727 79.0792 29.9835 79.2133Z" fill="white"/>
<path d="M31.3398 79.3867L32.0259 80.8104" stroke="#F9ED32" stroke-width="0.850009" stroke-miterlimit="10" stroke-linecap="round"/>
<path d="M32.4319 79.8398L30.9375 80.3522" stroke="#F9ED32" stroke-width="0.850009" stroke-miterlimit="10" stroke-linecap="round"/>
<path d="M33.3194 80.449C33.4646 80.5493 33.5015 80.7466 33.4028 80.8902C33.3036 81.0348 33.1057 81.0712 32.9622 80.972C32.8187 80.8743 32.7807 80.6775 32.8788 80.5329C32.978 80.3883 33.1759 80.3514 33.3194 80.449Z" fill="white"/>
<path d="M34.7852 80.5508L36.0237 81.5355" stroke="#F9ED32" stroke-width="0.850009" stroke-miterlimit="10" stroke-linecap="round"/>
<path d="M35.9672 80.4844L34.8438 81.5973" stroke="#F9ED32" stroke-width="0.850009" stroke-miterlimit="10" stroke-linecap="round"/>
<path d="M37.0269 80.6439C37.2011 80.6708 37.3209 80.8323 37.2934 81.0049C37.2692 81.1779 37.1071 81.2977 36.933 81.2708C36.7615 81.2455 36.6417 81.084 36.6676 80.9115C36.694 80.7378 36.8549 80.6191 37.0269 80.6439Z" fill="white"/>
<path d="M41.9336 74.2305L43.1014 75.2959" stroke="#F9ED32" stroke-width="0.850009" stroke-miterlimit="10" stroke-linecap="round"/>
<path d="M43.1182 74.2461L41.9219 75.2788" stroke="#F9ED32" stroke-width="0.850009" stroke-miterlimit="10" stroke-linecap="round"/>
<path d="M44.1652 74.4797C44.3373 74.5183 44.4454 74.6871 44.4069 74.8581C44.371 75.0291 44.1995 75.1372 44.0291 75.0993C43.8602 75.0618 43.7515 74.8919 43.7885 74.722C43.8259 74.551 43.9958 74.4433 44.1652 74.4797Z" fill="white"/>
<path d="M45.5547 75.125L46.4803 76.4078" stroke="#F9ED32" stroke-width="0.850009" stroke-miterlimit="10" stroke-linecap="round"/>
<path d="M46.7102 75.3828L45.3281 76.1495" stroke="#F9ED32" stroke-width="0.850009" stroke-miterlimit="10" stroke-linecap="round"/>
<path d="M47.6882 75.8241C47.8486 75.8969 47.9204 76.0853 47.8486 76.2442C47.7769 76.4041 47.589 76.4753 47.4296 76.4025C47.2703 76.3312 47.1985 76.1439 47.2697 75.984C47.342 75.8236 47.5294 75.7539 47.6882 75.8241Z" fill="white"/>
<path d="M48.6719 75.5156L50.2428 75.6945" stroke="#F9ED32" stroke-width="0.850009" stroke-miterlimit="10" stroke-linecap="round"/>
<path d="M49.6409 74.8359L49.2773 76.3736" stroke="#F9ED32" stroke-width="0.850009" stroke-miterlimit="10" stroke-linecap="round"/>
<path d="M50.6234 74.4091C50.7849 74.3395 50.9712 74.4128 51.0408 74.5732C51.111 74.7331 51.0361 74.9199 50.8767 74.9901C50.7168 75.0593 50.53 74.9859 50.4598 74.8255C50.3902 74.6645 50.4641 74.4783 50.6234 74.4091Z" fill="white"/>
<path d="M52.0469 73.4453L53.4157 74.2358" stroke="#F9ED32" stroke-width="0.850009" stroke-miterlimit="10" stroke-linecap="round"/>
<path d="M53.204 73.2031L52.2578 74.4685" stroke="#F9ED32" stroke-width="0.850009" stroke-miterlimit="10" stroke-linecap="round"/>
<path d="M54.2776 73.2031C54.4538 73.2031 54.5963 73.3461 54.5952 73.5203C54.5958 73.6949 54.4528 73.8369 54.2781 73.8369C54.1045 73.8374 53.9615 73.6939 53.9609 73.5197C53.9615 73.344 54.1045 73.2031 54.2776 73.2031Z" fill="white"/>
<path d="M56.2734 73.1406L57.1178 74.4773" stroke="#F9ED32" stroke-width="0.850009" stroke-miterlimit="10" stroke-linecap="round"/>
<path d="M57.4084 73.4688L55.9805 74.1463" stroke="#F9ED32" stroke-width="0.850009" stroke-miterlimit="10" stroke-linecap="round"/>
<path d="M58.3541 73.9736C58.5098 74.0565 58.5699 74.248 58.4881 74.4021C58.4063 74.5578 58.2143 74.6163 58.0591 74.5345C57.9045 74.4543 57.8459 74.2601 57.9272 74.1066C58.0095 73.952 58.2005 73.8929 58.3541 73.9736Z" fill="white"/>
<path d="M60.3047 73.4414L61.1574 74.7723" stroke="#F9ED32" stroke-width="0.850009" stroke-miterlimit="10" stroke-linecap="round"/>
<path d="M61.4445 73.7656L60.0234 74.4558" stroke="#F9ED32" stroke-width="0.850009" stroke-miterlimit="10" stroke-linecap="round"/>
<path d="M62.3988 74.2577C62.5555 74.339 62.6162 74.53 62.5354 74.6851C62.4552 74.8413 62.2637 74.901 62.108 74.8213C61.9534 74.7411 61.8927 74.5485 61.9729 74.3944C62.0537 74.2387 62.2452 74.178 62.3988 74.2577Z" fill="white"/>
<path d="M63.6094 74.9766L64.897 75.8927" stroke="#F9ED32" stroke-width="0.850009" stroke-miterlimit="10" stroke-linecap="round"/>
<path d="M64.7854 74.8516L63.7227 76.0215" stroke="#F9ED32" stroke-width="0.850009" stroke-miterlimit="10" stroke-linecap="round"/>
<path d="M65.8549 74.9585C66.0295 74.9765 66.1572 75.1295 66.1403 75.3042C66.124 75.4783 65.9683 75.606 65.7942 75.5891C65.6211 75.5728 65.4929 75.4171 65.5092 75.2435C65.5272 75.0693 65.6812 74.9416 65.8549 74.9585Z" fill="white"/>
<path d="M67 73.8047L68.5525 74.1002" stroke="#F9ED32" stroke-width="0.850009" stroke-miterlimit="10" stroke-linecap="round"/>
<path d="M68.0166 73.2031L67.5391 74.7081" stroke="#F9ED32" stroke-width="0.850009" stroke-miterlimit="10" stroke-linecap="round"/>
<path d="M69.0319 72.8498C69.1987 72.7922 69.3791 72.8793 69.4361 73.0439C69.4937 73.2091 69.4055 73.3901 69.2409 73.4471C69.0773 73.5052 68.8947 73.416 68.8377 73.2529C68.7807 73.0867 68.8683 72.9062 69.0319 72.8498Z" fill="white"/>
<path d="M70.2422 71.5234L71.6084 72.3176" stroke="#F9ED32" stroke-width="0.850009" stroke-miterlimit="10" stroke-linecap="round"/>
<path d="M71.4019 71.2891L70.4531 72.5513" stroke="#F9ED32" stroke-width="0.850009" stroke-miterlimit="10" stroke-linecap="round"/>
<path d="M72.4739 71.2891C72.6502 71.2901 72.7916 71.4321 72.7905 71.6062C72.79 71.7819 72.647 71.9239 72.4723 71.9228C72.2987 71.9228 72.1562 71.7793 72.1562 71.6046C72.1584 71.4294 72.3003 71.288 72.4739 71.2891Z" fill="white"/>
<path d="M73.9844 71.6016L75.2382 72.5625" stroke="#F9ED32" stroke-width="0.850009" stroke-miterlimit="10" stroke-linecap="round"/>
<path d="M75.1659 71.5156L74.0625 72.647" stroke="#F9ED32" stroke-width="0.850009" stroke-miterlimit="10" stroke-linecap="round"/>
<path d="M76.2254 71.6553C76.4001 71.679 76.5225 71.8373 76.4977 72.0099C76.4756 72.1846 76.3162 72.3059 76.1426 72.2833C75.9711 72.2616 75.8476 72.1007 75.8698 71.9276C75.8935 71.754 76.0523 71.6315 76.2254 71.6553Z" fill="white"/>
<path d="M77.2539 71.8442L78.5827 70.9883" stroke="#F9ED32" stroke-width="0.850009" stroke-miterlimit="10" stroke-linecap="round"/>
<path d="M77.5742 70.7031L78.2665 72.1242" stroke="#F9ED32" stroke-width="0.850009" stroke-miterlimit="10" stroke-linecap="round"/>
<path d="M78.0661 69.7505C78.1473 69.5948 78.3384 69.5331 78.493 69.6133C78.6497 69.694 78.7104 69.8845 78.6307 70.0402C78.5505 70.1953 78.3579 70.256 78.2038 70.1779C78.0481 70.0961 77.9864 69.9051 78.0661 69.7505Z" fill="white"/>
<path opacity="0.1" d="M38.8281 81.5077L39.5584 67.0234L39.646 80.1056L38.8281 81.5077Z" fill="#B92332"/>
<path opacity="0.1" d="M62.5272 77.9611C62.5272 77.9611 63.1541 76.6287 60.0195 73.1406C60.0195 73.1406 63.2322 75.8794 63.3504 78.0952L62.5272 77.9611Z" fill="#B92332"/>
<path opacity="0.2" d="M36.7695 51.316L55.784 52.0701C55.784 52.0701 55.6674 51.7588 55.041 49.734C54.4147 47.7098 36.7695 51.316 36.7695 51.316Z" fill="#B92332"/>
<path d="M40.4265 60.0986C40.4265 60.0986 53.1873 57.5293 56.6495 60.1773C56.7582 58.372 56.6542 56.6406 56.4025 54.9995C51.41 52.5088 45.8881 55.0987 40.6835 54.6296C38.2423 54.41 35.883 53.8217 33.5664 53.0423C33.2129 52.923 30.567 52.3104 30.4609 51.875C31.1411 54.6776 31.9897 56.6501 31.9897 56.6501C31.9897 56.6501 36.1944 60.0986 40.4265 60.0986Z" fill="#F9ED32"/>
<path d="M46.5698 57.4958C43.0722 57.966 39.4554 58.4531 35.5399 57.0668C35.0898 56.9074 34.5948 56.738 34.0776 56.5602C33.2813 56.2869 32.4296 55.995 31.6133 55.6953C31.8349 56.3032 31.9853 56.6526 31.9853 56.6526C31.9853 56.6526 36.1905 60.1005 40.4221 60.1005C40.4221 60.1005 53.1829 57.5312 56.6451 60.1792C56.69 59.4309 56.691 58.6984 56.6673 57.9765C55.9955 57.5095 55.0214 57.308 54.2821 57.1982C51.671 56.8103 49.1935 57.1433 46.5698 57.4958Z" fill="#F9ED32"/>
<path d="M35.7052 55.0222C39.512 56.3705 43.0687 55.8902 46.5093 55.4285C49.0517 55.086 51.6791 54.7341 54.3566 55.1314C55.0448 55.2338 55.8305 55.3916 56.4943 55.7161C56.4643 55.4771 56.4379 55.2348 56.4025 54.9995C51.41 52.5088 45.8881 55.0987 40.6835 54.6296C38.2423 54.4101 35.883 53.8217 33.5664 53.0423C33.2129 52.923 30.567 52.3104 30.4609 51.875C30.5828 52.3779 30.7111 52.8534 30.8377 53.2971C31.9079 53.7146 33.1295 54.1341 34.2382 54.514C34.7564 54.6913 35.2529 54.8612 35.7052 55.0222Z" fill="#F9ED32"/>
<path d="M35.7061 56.6082C39.5129 57.9554 43.0696 57.4767 46.5102 57.0145C49.0526 56.6725 51.68 56.3185 54.3576 56.7169C55.1011 56.8277 55.9565 57.0082 56.6515 57.3902C56.6314 57.0266 56.604 56.6657 56.5686 56.31C55.9032 55.8937 54.9887 55.7121 54.2879 55.6076C51.6763 55.2187 49.1983 55.5522 46.5751 55.9047C43.0775 56.3754 39.4607 56.862 35.5452 55.4768C35.095 55.3164 34.6001 55.1475 34.0829 54.9691C33.0866 54.6282 32.0033 54.2546 31.0117 53.8789C31.151 54.3343 31.2851 54.7428 31.408 55.1C32.3294 55.4446 33.3225 55.7849 34.2396 56.1C34.7573 56.2773 35.2539 56.4477 35.7061 56.6082Z" fill="white"/>
<path d="M35.5425 55.4739C39.4585 56.8597 43.0748 56.3726 46.5724 55.9019C49.1961 55.5494 51.6736 55.2154 54.2852 55.6048C54.986 55.7093 55.9005 55.8908 56.5659 56.3072C56.5453 56.1066 56.5174 55.9103 56.4926 55.7119C55.8287 55.3874 55.043 55.2296 54.3549 55.1272C51.6773 54.7294 49.0499 55.0813 46.5075 55.4243C43.0669 55.8866 39.5102 56.3663 35.7034 55.018C35.2512 54.8571 34.7546 54.6871 34.2364 54.5098C33.1272 54.1299 31.9061 53.7104 30.8359 53.293C30.8935 53.494 30.952 53.6882 31.0085 53.8755C32.0001 54.2518 33.0839 54.6249 34.0797 54.9658C34.5974 55.1447 35.0929 55.3135 35.5425 55.4739Z" fill="#E82332"/>
<path d="M54.3563 56.7145C51.6788 56.3156 49.0514 56.6697 46.5089 57.0121C43.0684 57.4744 39.5117 57.953 35.7049 56.6058C35.2526 56.4449 34.7561 56.2749 34.2379 56.0976C33.3207 55.7826 32.3276 55.4428 31.4062 55.0977C31.4817 55.3151 31.5519 55.5129 31.6168 55.6892C32.4331 55.9889 33.2849 56.2813 34.0811 56.5541C34.5983 56.7319 35.0933 56.9013 35.5434 57.0607C39.4594 58.4475 43.0757 57.9599 46.5733 57.4897C49.197 57.1372 51.6746 56.8042 54.2861 57.1921C55.0249 57.3024 55.9996 57.504 56.6713 57.9704C56.6645 57.7757 56.6608 57.5794 56.6502 57.3879C55.9558 57.0058 55.1004 56.8253 54.3563 56.7145Z" fill="#E82332"/>
<path d="M31.8867 54.4453L32.4297 55.2363" stroke="#00A79D" stroke-width="0.281776" stroke-miterlimit="10"/>
<path d="M32.585 54.6211L31.7344 55.0644" stroke="#00A79D" stroke-width="0.281776" stroke-miterlimit="10"/>
<path d="M33.4219 54.9805L33.9638 55.7715" stroke="#00A79D" stroke-width="0.281776" stroke-miterlimit="10"/>
<path d="M34.1163 55.1484L33.2656 55.5912" stroke="#00A79D" stroke-width="0.281776" stroke-miterlimit="10"/>
<path d="M34.8945 55.4805L35.4998 56.2245" stroke="#00A79D" stroke-width="0.281776" stroke-miterlimit="10"/>
<path d="M35.603 55.6016L34.793 56.1129" stroke="#00A79D" stroke-width="0.281776" stroke-miterlimit="10"/>
<path d="M36.4258 56.043L37.0273 56.7902" stroke="#00A79D" stroke-width="0.281776" stroke-miterlimit="10"/>
<path d="M37.133 56.1641L36.3203 56.6712" stroke="#00A79D" stroke-width="0.281776" stroke-miterlimit="10"/>
<path d="M38.0977 56.4102L38.6987 57.1574" stroke="#00A79D" stroke-width="0.281776" stroke-miterlimit="10"/>
<path d="M38.8059 56.5312L37.9922 57.0389" stroke="#00A79D" stroke-width="0.281776" stroke-miterlimit="10"/>
<path d="M39.5547 56.6484L40.2154 57.3445" stroke="#00A79D" stroke-width="0.281776" stroke-miterlimit="10"/>
<path d="M40.2704 56.707L39.5 57.2796" stroke="#00A79D" stroke-width="0.281776" stroke-miterlimit="10"/>
<path d="M41.1406 56.7031L41.8556 57.3443" stroke="#00A79D" stroke-width="0.281776" stroke-miterlimit="10"/>
<path d="M41.862 56.707L41.1406 57.3387" stroke="#00A79D" stroke-width="0.281776" stroke-miterlimit="10"/>
<path d="M42.6172 56.6484L43.3818 57.2289" stroke="#00A79D" stroke-width="0.281776" stroke-miterlimit="10"/>
<path d="M43.3311 56.5938L42.6641 57.2824" stroke="#00A79D" stroke-width="0.281776" stroke-miterlimit="10"/>
<path d="M44.2109 56.4766L44.9465 57.0919" stroke="#00A79D" stroke-width="0.281776" stroke-miterlimit="10"/>
<path d="M44.9276 56.457L44.2305 57.114" stroke="#00A79D" stroke-width="0.281776" stroke-miterlimit="10"/>
<path d="M45.7969 56.3438L46.58 56.8978" stroke="#00A79D" stroke-width="0.281776" stroke-miterlimit="10"/>
<path d="M46.5099 56.2656L45.8672 56.9764" stroke="#00A79D" stroke-width="0.281776" stroke-miterlimit="10"/>
<path d="M47.25 56.125L48.0769 56.6115" stroke="#00A79D" stroke-width="0.281776" stroke-miterlimit="10"/>
<path d="M47.957 55.9883L47.375 56.7492" stroke="#00A79D" stroke-width="0.281776" stroke-miterlimit="10"/>
<path d="M48.7852 55.9141L49.5218 56.5294" stroke="#00A79D" stroke-width="0.281776" stroke-miterlimit="10"/>
<path d="M49.5018 55.8945L48.8047 56.5515" stroke="#00A79D" stroke-width="0.281776" stroke-miterlimit="10"/>
<path d="M50.3672 55.7812L51.1503 56.3343" stroke="#00A79D" stroke-width="0.281776" stroke-miterlimit="10"/>
<path d="M51.0792 55.7031L50.4375 56.4145" stroke="#00A79D" stroke-width="0.281776" stroke-miterlimit="10"/>
<path d="M51.8672 55.6797L52.6139 56.2818" stroke="#00A79D" stroke-width="0.281776" stroke-miterlimit="10"/>
<path d="M52.585 55.6484L51.8984 56.3165" stroke="#00A79D" stroke-width="0.281776" stroke-miterlimit="10"/>
<path d="M53.4297 55.7227L54.0693 56.4366" stroke="#00A79D" stroke-width="0.281776" stroke-miterlimit="10"/>
<path d="M54.1451 55.8047L53.3594 56.353" stroke="#00A79D" stroke-width="0.281776" stroke-miterlimit="10"/>
<path d="M54.918 55.9609L55.5111 56.714" stroke="#00A79D" stroke-width="0.281776" stroke-miterlimit="10"/>
<path d="M55.6237 56.0859L54.8047 56.5841" stroke="#00A79D" stroke-width="0.281776" stroke-miterlimit="10"/>
<path d="M48.3262 38.332C48.275 38.3378 48.2016 38.3463 48.1172 38.3553C48.1842 38.3669 48.2507 38.3806 48.3177 38.3896L48.3262 38.332Z" fill="white"/>
<path d="M48.3334 38.2786C43.0691 37.4649 37.4618 33.9969 36.0761 33.0977C36.0465 33.1251 36.0196 33.1536 35.9922 33.1837C37.3352 34.056 42.8633 37.4844 48.115 38.3604C48.1994 38.3514 48.2733 38.3424 48.3239 38.3372L48.3334 38.2786Z" fill="white"/>
<path d="M48.8359 38.3659L48.9357 38.4297C49.476 37.5833 49.3061 36.6809 49.0565 36.0545C48.9958 36.0055 48.9357 35.9643 48.8745 35.9258C49.1489 36.5237 49.4022 37.4804 48.8359 38.3659Z" fill="white"/>
<path opacity="0.2" d="M60.8013 51.949L59.939 51.873L55.2562 50.4324L54.918 49.5506L57.7612 49.4023L60.8013 51.949Z" fill="#B92332"/>
<path d="M41.7185 36.8978C40.2267 36.396 37.1845 37.7733 35.9581 38.453C34.4864 39.2693 33.3555 40.4097 32.5825 41.9131C30.1714 46.5943 33.2648 49.9552 36.7687 51.3187L55.0402 49.7367C55.0402 49.7367 61.1562 49.3204 63.1525 47.4771C63.1525 47.4771 75.6932 41.1294 78.5137 41.1294C78.5137 41.1294 80.0815 36.2694 75.6927 34.7812C75.6927 34.7812 68.0115 35.1733 66.7572 37.5242C66.7572 37.5242 57.2987 38.6767 55.3024 39.406C55.3024 39.406 44.5754 37.8572 41.7185 36.8978Z" fill="#00A79D"/>
<path d="M74.9528 34.8281C74.7232 34.8476 74.4499 34.874 74.1406 34.9062C75.634 35.6139 78.2271 37.4323 77.4271 41.2935C77.6076 41.2497 77.7744 41.2143 77.929 41.1858C78.5622 37.684 76.5258 35.7637 74.9528 34.8281Z" fill="#F9ED32"/>
<path d="M76.2812 37.6692C75.4617 36.3041 74.1435 35.4867 73.153 35.0312C72.8617 35.0714 72.5556 35.1183 72.2422 35.1706C73.1229 35.4866 74.9065 36.2935 75.8775 37.9109C76.5113 38.9658 76.6938 40.2011 76.4331 41.5868C76.6078 41.5298 76.7751 41.4786 76.9366 41.4312C77.155 40.0275 76.9382 38.7636 76.2812 37.6692Z" fill="#F9ED32"/>
<path d="M71.9208 35.2188C71.5668 35.2826 71.2074 35.3544 70.8496 35.4356L69.0977 40.4699L74.4469 42.2952C74.9366 42.1041 75.4036 41.9311 75.8416 41.777L70.2971 39.8852L71.9208 35.2188Z" fill="#F9ED32"/>
<path d="M71.8239 39.2872C71.8239 39.5189 71.6361 39.7068 71.4044 39.7068C71.1722 39.7068 70.9844 39.5189 70.9844 39.2872C70.9844 39.0556 71.1722 38.8672 71.4044 38.8672C71.6361 38.8672 71.8239 39.0556 71.8239 39.2872Z" fill="#F9ED32"/>
<path d="M73.1942 38.6747C73.1942 38.8737 73.0338 39.0346 72.8354 39.0346C72.637 39.0346 72.4766 38.8737 72.4766 38.6747C72.4766 38.4774 72.637 38.3164 72.8354 38.3164C73.0338 38.3164 73.1942 38.4774 73.1942 38.6747Z" fill="#F9ED32"/>
<path d="M74.3341 38.061C74.3341 38.2193 74.2053 38.3486 74.0454 38.3486C73.8876 38.3486 73.7578 38.2193 73.7578 38.061C73.7578 37.9017 73.8876 37.7734 74.0454 37.7734C74.2053 37.7734 74.3341 37.9017 74.3341 38.061Z" fill="#F9ED32"/>
<path opacity="0.1" d="M55.3021 39.3984C55.3021 39.3984 44.8431 42.991 43.573 42.8791C42.3044 42.7673 38.8047 40.6908 38.8047 40.6908C38.8047 40.6908 43.1988 42.467 44.927 41.7952L55.3021 39.3984Z" fill="#B92332"/>
<path opacity="0.1" d="M66.7566 37.5156C66.7566 37.5156 64.5234 40.1995 64.5234 40.6892C64.5234 40.6892 65.0865 39.0095 66.2305 37.5816L66.7566 37.5156Z" fill="#B92332"/>
<path opacity="0.1" d="M33.1328 48.808C34.0737 49.9246 35.3887 50.7732 36.7692 51.3104L55.0407 49.7283C55.0407 49.7283 61.1567 49.312 63.153 47.4688C58.6887 49.3653 33.1328 48.808 33.1328 48.808Z" fill="#B92332"/>
<path opacity="0.1" d="M32.4727 16.3818C32.4727 16.3818 34.194 12.6657 43.7179 14.3158C43.7179 14.3158 34.746 9.74439 32.4727 16.3818Z" fill="#B92332"/>
<path d="M51.1427 12.6888C51.1427 12.6888 48.3153 7.57169 44.9998 7.05665C44.9998 7.05665 42.7787 5.33478 38.6969 4.38281C38.6969 4.38281 30.6527 9.05135 31.6152 12.0893L32.1936 13.4851C32.1936 13.4851 30.4438 15.1315 32.4717 16.3879L33.1187 15.2829C33.1187 15.2829 33.6448 13.5843 38.8294 13.284C38.8294 13.284 45.7343 14.065 47.8546 16.5916C47.8546 16.5916 49.1797 18.7773 49.7311 19.8111C49.7311 19.8111 51.2034 15.9747 51.1427 12.6888Z" fill="#E52827"/>
<path d="M32.1953 13.4861C32.1953 13.4861 33.1679 12.2175 34.8428 11.6845C36.3224 11.2138 38.3509 11.4202 40.7398 12.0977C40.7398 12.0977 37.4448 10.9215 32.1953 13.4861Z" fill="#D62121"/>
<path d="M50.7086 16.4477C50.7086 16.4477 49.1831 11.6203 45 7.05469C45 7.05469 49.8089 14.9865 50.4073 17.6725L50.7086 16.4477Z" fill="#D62121"/>
<path d="M47.262 10.6049C47.262 10.6049 40.0309 6.34168 36.0336 6.14062L35.25 6.73217C35.25 6.73217 39.0536 6.88626 47.262 10.6049Z" fill="#D62121"/>
<path d="M32.5859 9.95129C32.5859 9.95129 34.4661 7.90382 35.2503 7.58984C35.2503 7.58984 44.075 8.82413 47.8527 16.5929C47.8527 16.5929 43.4 12.1291 39.7167 10.8004C39.7167 10.8004 34.0941 9.62412 32.5859 9.95129Z" fill="#F23030"/>
<path d="M32.5875 16.1895C32.5875 16.1895 31.0271 14.3995 32.959 13.408C32.959 13.408 37.3262 10.7399 40.7372 12.6011C40.7372 12.6011 33.274 12.7636 32.5875 16.1895Z" fill="#F23030"/>
<path d="M38.7798 4.72479C38.7798 4.72479 41.0378 5.0546 44.7164 7.05668C44.7164 7.05668 39.0547 5.4815 37.0078 5.67148C37.0078 5.67148 38.3387 4.67044 38.7798 4.72479Z" fill="#F23030"/>
<path d="M47.8556 16.5931C47.8556 16.5931 43.1296 11.7409 39.7196 10.8005C39.7196 10.8005 34.4099 9.41955 32.0078 10.0823C32.0078 10.0823 40.709 9.8074 47.8556 16.5931Z" fill="#D62121"/>
</g>
</svg>
