<svg width="28" height="28" viewBox="0 0 28 28" fill="none" xmlns="http://www.w3.org/2000/svg">
<g clip-path="url(#clip0_2708_14816)">
<path d="M14 28C21.732 28 28 21.732 28 14C28 6.26801 21.732 0 14 0C6.26801 0 0 6.26801 0 14C0 21.732 6.26801 28 14 28Z" fill="#21A67A"/>
<path fill-rule="evenodd" clip-rule="evenodd" d="M10.954 18.1698L7.35212 14.3147C6.859 13.7869 6.8873 12.9519 7.41509 12.4588C7.94287 11.9656 8.77789 11.994 9.27101 12.5217L12.0494 15.4953L16.4471 11.3864C16.4867 11.3494 16.528 11.3155 16.5707 11.2843L18.6388 9.35208C19.1666 8.85896 20.0017 8.88735 20.4947 9.41513C20.9879 9.94283 20.9595 10.7779 20.4318 11.2711L14.1153 17.1727L14.1085 17.1655L11.9236 19.207L10.954 18.1693V18.1698Z" fill="white"/>
</g>
<defs>
<clipPath id="clip0_2708_14816">
<rect width="28" height="28" fill="white"/>
</clipPath>
</defs>
</svg>
