<svg width="14" height="14" viewBox="0 0 14 14" fill="none" xmlns="http://www.w3.org/2000/svg">
<path d="M11.4545 8.4V0H14V8.4H11.4545ZM8.90909 0C9.24664 0 9.57036 0.1475 9.80905 0.410051C10.0477 0.672603 10.1818 1.0287 10.1818 1.4V8.4C10.1818 8.785 10.0418 9.135 9.80636 9.387L5.61909 14L4.94455 13.258C4.77273 13.069 4.66455 12.81 4.66455 12.523L4.68364 12.299L5.28818 9.1H1.27273C0.93518 9.1 0.611457 8.9525 0.372774 8.68995C0.134091 8.4274 0 8.0713 0 7.7V6.3C0 6.118 0.0318174 5.95 0.0890903 5.789L2.01091 0.854C2.20182 0.35 2.65364 0 3.18182 0H8.90909ZM8.90909 1.4H3.16273L1.27273 6.3V7.7H6.86636L6.14727 11.424L8.90909 8.379V1.4Z" fill="#1E0627"/>
</svg>
