<svg
 width="14" height="14" viewBox="0 0 14 14" fill="none" xmlns="http://www.w3.org/2000/svg">
<path d="M2.54545 5.6V14H0V5.6H2.54545ZM5.09091 14C4.75336 14 4.42964 13.8525 4.19095 13.5899C3.95227 13.3274 3.81818 12.9713 3.81818 12.6V5.6C3.81818 5.215 3.95818 4.865 4.19364 4.613L8.38091 0L9.05545 0.742C9.22727 0.931 9.33545 1.19 9.33545 1.477L9.31636 1.701L8.71182 4.9H12.7273C13.0648 4.9 13.3885 5.0475 13.6272 5.31005C13.8659 5.5726 14 5.9287 14 6.3V7.7C14 7.882 13.9682 8.05 13.9109 8.211L11.9891 13.146C11.7982 13.65 11.3464 14 10.8182 14H5.09091ZM5.09091 12.6H10.8373L12.7273 7.7V6.3H7.13364L7.85273 2.576L5.09091 5.621V12.6Z" fill="#1E0627"/>
</svg>
