<svg width="16" height="14" viewBox="0 0 16 14" fill="none" xmlns="http://www.w3.org/2000/svg">
<path d="M12.5999 8.4V0H15.3999V8.4H12.5999ZM9.7999 0C10.1712 0 10.5273 0.1475 10.7899 0.410051C11.0524 0.672602 11.1999 1.0287 11.1999 1.4V8.4C11.1999 8.785 11.0459 9.135 10.7869 9.387L6.1809 14L5.4389 13.258C5.2499 13.069 5.1309 12.81 5.1309 12.523L5.1519 12.299L5.8169 9.1H1.3999C1.0286 9.1 0.672504 8.9525 0.409953 8.68995C0.147402 8.4274 -9.72748e-05 8.0713 -9.72748e-05 7.7V6.3C-9.72748e-05 6.118 0.0349023 5.95 0.0979023 5.789L2.2119 0.854C2.4219 0.35 2.9189 0 3.4999 0H9.7999ZM9.7999 1.4H3.4789L1.3999 6.3V7.7H7.5529L6.7619 11.424L9.7999 8.379V1.4Z" fill="#121212"/>
<path d="M9.7999 1.4H3.4789L1.3999 6.3V7.7H7.5529L6.7619 11.424L9.7999 8.379V1.4Z" fill="#121212"/>
</svg>
