<svg width="16" height="14" viewBox="0 0 16 14" fill="none" xmlns="http://www.w3.org/2000/svg">
<path d="M2.8 5.6V14H0V5.6H2.8ZM5.6 14C5.2287 14 4.8726 13.8525 4.61005 13.5899C4.3475 13.3274 4.2 12.9713 4.2 12.6V5.6C4.2 5.215 4.354 4.865 4.613 4.613L9.219 0L9.961 0.742C10.15 0.931 10.269 1.19 10.269 1.477L10.248 1.701L9.583 4.9H14C14.3713 4.9 14.7274 5.0475 14.9899 5.31005C15.2525 5.5726 15.4 5.9287 15.4 6.3V7.7C15.4 7.882 15.365 8.05 15.302 8.211L13.188 13.146C12.978 13.65 12.481 14 11.9 14H5.6ZM5.6 12.6H11.921L14 7.7V6.3H7.847L8.638 2.576L5.6 5.621V12.6Z" fill="#121212"/>
<path d="M5.6 12.6H11.921L14 7.7V6.3H7.847L8.638 2.576L5.6 5.621V12.6Z" fill="#121212"/>
</svg>
