<svg width="14" height="14" viewBox="0 0 14 14" fill="none" xmlns="http://www.w3.org/2000/svg">
<g clip-path="url(#clip0_5285_46736)">
<path d="M7.00073 9.59375C6.60933 9.59375 6.28125 9.92183 6.28125 10.3132C6.28125 10.7046 6.60933 11.0327 7.00073 11.0327C7.37774 11.0327 7.72021 10.7046 7.70294 10.3305C7.72021 9.91895 7.395 9.59375 7.00073 9.59375Z" fill="#FF9305"/>
<path d="M13.6593 12.1449C14.1112 11.365 14.114 10.4354 13.6651 9.65837L9.15826 1.85346C8.71219 1.06779 7.90637 0.601562 7.0027 0.601562C6.09904 0.601562 5.29322 1.07066 4.84714 1.85058L0.334572 9.66412C-0.114383 10.4498 -0.111506 11.3851 0.343205 12.165C0.79216 12.9363 1.5951 13.3997 2.49301 13.3997H11.4951C12.3959 13.3997 13.2046 12.9306 13.6593 12.1449ZM12.6808 11.5808C12.4305 12.0125 11.9873 12.2686 11.4923 12.2686H2.49013C2.00089 12.2686 1.56056 12.0183 1.31594 11.5952C1.06844 11.1664 1.06556 10.6541 1.31306 10.2224L5.82564 2.41177C6.07026 1.98296 6.5077 1.72971 7.0027 1.72971C7.49483 1.72971 7.93515 1.98584 8.17977 2.41465L12.6895 10.2253C12.9312 10.6455 12.9283 11.152 12.6808 11.5808Z" fill="#FF9305"/>
<path d="M6.82106 4.54375C6.47859 4.6416 6.26562 4.95241 6.26562 5.32942C6.28289 5.55678 6.29728 5.78701 6.31455 6.01436C6.36347 6.88062 6.4124 7.7296 6.46132 8.59586C6.47859 8.8894 6.70595 9.10237 6.99949 9.10237C7.29304 9.10237 7.52327 8.87501 7.53766 8.57859C7.53766 8.40016 7.53766 8.23612 7.55493 8.05481C7.58659 7.49937 7.62112 6.94393 7.65278 6.38849C7.67005 6.02875 7.70171 5.66901 7.71897 5.30928C7.71897 5.17977 7.7017 5.06465 7.65278 4.94954C7.50601 4.62721 7.16353 4.46317 6.82106 4.54375Z" fill="#FF9305"/>
</g>
<defs>
<clipPath id="clip0_5285_46736">
<rect width="14" height="14" fill="white"/>
</clipPath>
</defs>
</svg>
