<svg width="13" height="14" viewBox="0 0 13 14" fill="none" xmlns="http://www.w3.org/2000/svg">
<path d="M2.7957 13.9999C1.60352 13.9999 0.635547 13.0347 0.632812 11.8425C0.632812 11.5116 0.709375 11.1835 0.854297 10.8854C2.48672 7.59051 6.47891 6.2452 9.77109 7.87489C11.0781 8.5202 12.1336 9.5784 12.7816 10.8854C13.3094 11.9546 12.8691 13.2507 11.8 13.7784C11.502 13.9261 11.1738 14.0026 10.843 13.9999H2.7957Z" fill="#878787"/>
<path d="M10.8427 13.8363C12.322 13.8363 13.2927 12.2832 12.6364 10.957C11.045 7.74414 7.15126 6.43164 3.9411 8.02304C2.66689 8.65468 1.63603 9.68554 1.00712 10.957C0.348135 12.2832 1.31884 13.8363 2.79814 13.8363H10.8427Z" fill="#878787"/>
<path d="M6.82266 6.33281C8.57141 6.33281 9.98906 4.91516 9.98906 3.16641C9.98906 1.41765 8.57141 0 6.82266 0C5.0739 0 3.65625 1.41765 3.65625 3.16641C3.65625 4.91516 5.0739 6.33281 6.82266 6.33281Z" fill="#878787"/>
<path d="M6.81484 6.16875C8.47299 6.16875 9.81719 4.82455 9.81719 3.16641C9.81719 1.50826 8.47299 0.164062 6.81484 0.164062C5.1567 0.164062 3.8125 1.50826 3.8125 3.16641C3.8125 4.82455 5.1567 6.16875 6.81484 6.16875Z" fill="#878787"/>
</svg>
