<svg width="13" height="14" viewBox="0 0 13 14" fill="none" xmlns="http://www.w3.org/2000/svg">
<path d="M2.7957 14.0009C1.60352 14.0009 0.635547 13.0356 0.632812 11.8434C0.632812 11.5126 0.709375 11.1845 0.854297 10.8864C2.48672 7.59149 6.47891 6.24618 9.77109 7.87586C11.0781 8.52118 12.1336 9.57938 12.7816 10.8864C13.3094 11.9556 12.8691 13.2516 11.8 13.7794C11.502 13.927 11.1738 14.0036 10.843 14.0009H2.7957Z" fill="#FF0053"/>
<path d="M10.8427 13.8353C12.322 13.8353 13.2927 12.2822 12.6364 10.9561C11.045 7.74316 7.15126 6.43066 3.9411 8.02207C2.66689 8.65371 1.63603 9.68457 1.00712 10.9561C0.348135 12.2822 1.31884 13.8353 2.79814 13.8353H10.8427Z" fill="#FF0053"/>
<path d="M6.82266 6.33281C8.57141 6.33281 9.98906 4.91516 9.98906 3.16641C9.98906 1.41765 8.57141 0 6.82266 0C5.0739 0 3.65625 1.41765 3.65625 3.16641C3.65625 4.91516 5.0739 6.33281 6.82266 6.33281Z" fill="#FF0053"/>
<path d="M6.81484 6.16875C8.47299 6.16875 9.81719 4.82455 9.81719 3.16641C9.81719 1.50826 8.47299 0.164062 6.81484 0.164062C5.1567 0.164062 3.8125 1.50826 3.8125 3.16641C3.8125 4.82455 5.1567 6.16875 6.81484 6.16875Z" fill="#FF0053"/>
</svg>
