<svg width="14" height="14" viewBox="0 0 14 14" fill="none" xmlns="http://www.w3.org/2000/svg">
<g clip-path="url(#clip0_3780_36366)">
<path d="M7.00001 14C6.52333 14 6.04697 13.9518 5.58411 13.8567C5.47315 13.8339 5.4017 13.7255 5.42451 13.6145C5.44728 13.5036 5.55568 13.4321 5.66666 13.4549C6.10242 13.5444 6.55102 13.5899 7.00004 13.5899C8.76026 13.5899 10.4151 12.9044 11.6598 11.6597C12.9044 10.4151 13.5899 8.76023 13.5899 7.00001C13.5899 6.08183 13.4047 5.19345 13.0396 4.35948C12.6868 3.55379 12.1835 2.83634 11.5437 2.22709C11.4617 2.14899 11.4585 2.01916 11.5366 1.93713C11.6147 1.85507 11.7445 1.85196 11.8265 1.93002C12.506 2.57706 13.0406 3.33909 13.4153 4.19498C13.8033 5.08112 14 6.02487 14 7.00001C14 8.8698 13.2719 10.6277 11.9498 11.9498C10.6276 13.2719 8.86977 14 7.00001 14ZM4.8423 13.6503C4.82072 13.6503 4.79879 13.6469 4.77719 13.6396C3.39711 13.1778 2.21117 12.31 1.34754 11.1299C0.465997 9.92533 0 8.49724 0 6.99999C0 5.13023 0.728117 3.37236 2.05025 2.05023C3.37239 0.728089 5.13023 0 7.00001 0C8.45441 0 9.84901 0.441879 11.033 1.27787C11.1256 1.34322 11.1476 1.47116 11.0823 1.5637C11.017 1.65623 10.889 1.67824 10.7965 1.61294C9.68202 0.82609 8.36921 0.41016 7.00001 0.41016C5.2398 0.41016 3.58494 1.09562 2.34029 2.34027C1.09562 3.58491 0.41016 5.23977 0.41016 6.99999C0.41016 8.40954 0.848758 9.75388 1.67854 10.8877C2.49175 11.9989 3.60826 12.816 4.90735 13.2507C5.01476 13.2866 5.0727 13.4028 5.03674 13.5102C5.00803 13.5961 4.92808 13.6503 4.8423 13.6503ZM6.92703 13.1191C6.68446 13.1191 6.44192 13.0605 6.25292 12.9434C6.15664 12.8837 6.12697 12.7573 6.18664 12.661C6.2463 12.5648 6.37269 12.5351 6.46899 12.5948C6.7173 12.7486 7.13682 12.7486 7.38507 12.5948C7.46533 12.545 7.47952 12.4767 7.46604 12.4294C7.45693 12.3974 7.43074 12.3593 7.35765 12.3593C7.24439 12.3593 7.15257 12.2675 7.15257 12.1543C7.15257 12.041 7.24439 11.9492 7.35765 11.9492C7.5995 11.9492 7.79687 12.0935 7.8605 12.317C7.92791 12.5537 7.8237 12.8054 7.60114 12.9434C7.41212 13.0605 7.16957 13.1191 6.92703 13.1191ZM9.28297 12.5683C9.24818 12.5683 9.21291 12.5595 9.18062 12.5408C9.08253 12.4842 9.0489 12.3588 9.10553 12.2607C9.13454 12.2104 9.16785 12.1614 9.20495 12.114L8.82793 11.4609C8.7683 11.4693 8.70921 11.4737 8.65124 11.4737C8.65121 11.4737 8.65121 11.4737 8.65118 11.4737C8.53792 11.4737 8.4461 11.3819 8.4461 11.2686C8.4461 11.1553 8.53792 11.0635 8.65118 11.0635C8.72162 11.0635 8.79561 11.0539 8.87056 11.0361C8.87877 11.0335 8.88705 11.0314 8.89536 11.0299C9.13025 10.9687 9.37181 10.8292 9.5423 10.6564C9.54779 10.6499 9.55373 10.6438 9.5601 10.6379C9.61298 10.5819 9.65829 10.5227 9.69351 10.4617C9.75011 10.3636 9.87554 10.33 9.97365 10.3867C10.0717 10.4433 10.1054 10.5687 10.0487 10.6668C10.0197 10.717 9.98642 10.766 9.94931 10.8135L10.3264 11.4665C10.3859 11.4582 10.445 11.4538 10.503 11.4538H10.5031C10.6164 11.4538 10.7082 11.5456 10.7082 11.6589C10.7082 11.7722 10.6163 11.864 10.5031 11.864C10.5031 11.8639 10.503 11.8639 10.503 11.864C10.1263 11.864 9.64905 12.1395 9.46076 12.4657C9.4228 12.5315 9.35384 12.5683 9.28297 12.5683ZM9.23509 11.3458L9.5082 11.8189C9.63387 11.7237 9.7739 11.6429 9.91918 11.5816L9.64604 11.1086C9.52039 11.2037 9.38036 11.2846 9.23509 11.3458ZM4.37146 12.4939C4.23515 12.4939 4.09507 12.4585 3.96622 12.3841C3.79059 12.2827 3.66093 12.1241 3.60113 11.9375C3.53903 11.7437 3.55891 11.5434 3.65704 11.3734C3.7831 11.155 3.9978 11.0323 4.17032 10.9337C4.28123 10.8703 4.39591 10.8048 4.43227 10.7418C4.4644 10.6861 4.4524 10.6617 4.44846 10.6537C4.43312 10.6226 4.38169 10.5863 4.313 10.5772C4.20072 10.5623 4.12178 10.4592 4.13668 10.3469C4.15159 10.2346 4.25473 10.1553 4.36695 10.1706C4.56544 10.197 4.73768 10.3126 4.8164 10.4725C4.88911 10.6201 4.87883 10.7886 4.78747 10.9468C4.69568 11.1059 4.53205 11.1994 4.37384 11.2898C4.22421 11.3753 4.08287 11.4561 4.01224 11.5785C3.97265 11.647 3.96537 11.7301 3.99171 11.8123C4.02034 11.9017 4.0841 11.9786 4.17128 12.0289C4.34458 12.129 4.55524 12.0897 4.64088 11.9414C4.71323 11.8161 4.77432 11.5967 4.79177 11.5227C4.80664 11.4596 4.85047 11.4072 4.91003 11.3815C4.96958 11.3558 5.03775 11.3597 5.09392 11.3921L5.23736 11.4749C5.33545 11.5315 5.36905 11.657 5.31242 11.7551C5.27206 11.825 5.19654 11.8622 5.12123 11.8572C5.08908 11.952 5.04675 12.0587 4.99611 12.1465C4.86672 12.3705 4.62571 12.4939 4.37146 12.4939ZM6.64238 12.3594C6.40052 12.3594 6.20315 12.215 6.1395 11.9915C6.07209 11.7548 6.17633 11.5031 6.39886 11.3652C6.77683 11.1308 7.36905 11.1308 7.74708 11.3652C7.84336 11.4248 7.87303 11.5513 7.81333 11.6475C7.75367 11.7438 7.62726 11.7734 7.53098 11.7138C7.2827 11.5599 6.86321 11.5599 6.61495 11.7138C6.5347 11.7635 6.52051 11.8318 6.53399 11.8792C6.5431 11.9111 6.56929 11.9492 6.64238 11.9492C6.75564 11.9492 6.84746 12.041 6.84746 12.1543C6.84746 12.2676 6.75567 12.3594 6.64238 12.3594ZM2.48844 10.7571C2.43963 10.7571 2.39123 10.7397 2.35284 10.7059C2.32867 10.6846 2.11369 10.4925 2.00574 10.3055C1.83074 10.0024 1.90331 9.68358 2.01771 9.40796L1.57772 9.38069C1.46468 9.37369 1.37871 9.27638 1.38571 9.16334C1.39271 9.05027 1.49006 8.96441 1.6031 8.97135L2.20817 9.00884L2.47822 8.46606C2.52867 8.36467 2.65177 8.3233 2.75319 8.37381C2.85458 8.42425 2.8959 8.54739 2.84545 8.64878L2.65259 9.03638L3.08468 9.06315C3.19772 9.07015 3.28369 9.16747 3.27669 9.28051C3.26966 9.39355 3.17243 9.4791 3.0593 9.47249L2.45568 9.43511C2.3103 9.74431 2.26439 9.93323 2.36094 10.1004C2.39698 10.1628 2.46173 10.237 2.51967 10.2971L3.37961 9.80064C3.47769 9.74404 3.60312 9.77759 3.65975 9.8757C3.71638 9.97379 3.68277 10.0992 3.58469 10.1558L2.59095 10.7295C2.55899 10.748 2.52363 10.7571 2.48844 10.7571ZM7.00001 10.7188C4.94946 10.7188 3.28123 9.05051 3.28123 6.99999C3.28123 6.8867 3.37305 6.79491 3.48631 6.79491C3.59957 6.79491 3.69139 6.8867 3.69139 6.99999C3.69139 8.82438 5.17562 10.3086 7.00001 10.3086C8.82441 10.3086 10.3086 8.82438 10.3086 6.99999C10.3086 5.17559 8.82441 3.69136 7.00001 3.69136C6.24122 3.69136 5.52751 3.9412 4.93611 4.41384C4.36184 4.87279 3.95198 5.51685 3.78206 6.22735C3.75573 6.3375 3.64501 6.40545 3.5349 6.37911C3.42476 6.35278 3.35681 6.24212 3.38314 6.13198C3.57419 5.33307 4.0348 4.60914 4.68004 4.09343C5.33545 3.56965 6.15935 3.2812 7.00001 3.2812C9.05057 3.2812 10.7188 4.94946 10.7188 6.99999C10.7188 9.05051 9.05054 10.7188 7.00001 10.7188ZM11.9157 10.6831C11.8809 10.6831 11.8456 10.6743 11.8133 10.6556C11.6242 10.5464 11.4999 10.3676 11.4538 10.1701C11.2597 10.229 11.0427 10.2107 10.8536 10.1015C10.4911 9.89219 10.3664 9.42696 10.5757 9.06441C10.785 8.70185 11.2502 8.57719 11.6128 8.78654C11.7884 8.88793 11.914 9.05164 11.9665 9.2475C11.9687 9.25551 11.9707 9.26355 11.9726 9.27159C11.9805 9.26921 11.9884 9.26694 11.9964 9.26478C12.1923 9.21231 12.3969 9.23922 12.5725 9.34061C12.6706 9.39724 12.7042 9.52266 12.6476 9.62075C12.5909 9.71886 12.4655 9.75238 12.3675 9.69581C12.2867 9.64918 12.1926 9.6368 12.1026 9.66097C12.0126 9.68509 11.9373 9.74284 11.8907 9.82358C11.7945 9.99025 11.8518 10.2041 12.0184 10.3004C12.1165 10.357 12.1501 10.4824 12.0935 10.5805C12.0555 10.6464 11.9866 10.6831 11.9157 10.6831ZM11.2338 9.09509C11.113 9.09509 10.9955 9.15768 10.9309 9.26951C10.8347 9.4362 10.892 9.65006 11.0587 9.74631C11.2253 9.84251 11.4392 9.78519 11.5355 9.61856C11.5821 9.53781 11.5944 9.44375 11.5703 9.35371C11.5462 9.26363 11.4884 9.18838 11.4077 9.14176C11.3529 9.11012 11.2929 9.09509 11.2338 9.09509ZM7.00001 9.89845C6.88675 9.89845 6.79493 9.80666 6.79493 9.69337V8.81568C6.61025 8.79496 6.4338 8.74661 6.26985 8.67483L5.83092 9.43508C5.77429 9.53316 5.64886 9.56669 5.55078 9.51014C5.4527 9.45351 5.41909 9.32808 5.47572 9.23L5.91495 8.46921C5.76868 8.36093 5.6391 8.23131 5.53082 8.08505L4.77003 8.52428C4.67197 8.58085 4.54652 8.54733 4.48989 8.44922C4.43326 8.35114 4.46686 8.22571 4.56495 8.16908L5.32519 7.73015C5.25341 7.5662 5.20507 7.38975 5.18434 7.20507H4.30663C4.19337 7.20507 4.10155 7.11327 4.10155 6.99999C4.10155 6.8867 4.19337 6.79491 4.30663 6.79491H5.18434C5.20507 6.61022 5.25341 6.4338 5.32519 6.26985L4.56495 5.83089C4.46686 5.77426 4.43326 5.64884 4.48989 5.55075C4.54652 5.45264 4.67194 5.41906 4.77003 5.47569L5.53082 5.91495C5.6391 5.76869 5.76874 5.63907 5.91498 5.53077L5.47575 4.77C5.41912 4.67192 5.45272 4.54649 5.55081 4.48986C5.64886 4.43329 5.77432 4.46681 5.83095 4.56492L6.26987 5.32514C6.43383 5.25339 6.61025 5.20502 6.79496 5.18432V4.3066C6.79496 4.19331 6.88678 4.10152 7.00004 4.10152C7.1133 4.10152 7.20512 4.19331 7.20512 4.3066V5.1844C7.38641 5.20485 7.56363 5.25221 7.73037 5.32489L8.16913 4.56495C8.22576 4.46681 8.35116 4.43329 8.44927 4.48989C8.54736 4.54652 8.58096 4.67194 8.52433 4.77003L7.9897 5.69598C7.98823 5.6986 7.9867 5.7012 7.98508 5.70374C7.92583 5.7986 7.80138 5.82857 7.70546 5.77096C7.7045 5.77038 7.70355 5.76978 7.70262 5.7692C7.48977 5.64741 7.24696 5.58305 7.00001 5.58305C6.21871 5.58305 5.58307 6.21869 5.58307 6.99999C5.58307 7.78131 6.21871 8.41695 7.00001 8.41695C7.78131 8.41695 8.41695 7.78131 8.41695 6.99999C8.41695 6.75315 8.35267 6.5105 8.23099 6.29768C8.2294 6.29517 8.22787 6.2926 8.22639 6.29C8.17091 6.192 8.20465 6.06767 8.30216 6.01139L9.23 5.47569C9.32808 5.41909 9.45351 5.45264 9.51014 5.55075C9.56677 5.64884 9.53316 5.77426 9.43508 5.83089L8.67514 6.26966C8.74779 6.43643 8.79515 6.61359 8.81557 6.79491H9.69337C9.80663 6.79491 9.89845 6.8867 9.89845 6.99999C9.89845 7.11327 9.80663 7.20507 9.69337 7.20507H8.81566C8.79493 7.38975 8.74659 7.5662 8.67481 7.73015L9.43505 8.16908C9.53314 8.22571 9.56674 8.35114 9.51011 8.44922C9.45348 8.5473 9.32806 8.58083 9.22997 8.52428L8.46915 8.08505C8.36087 8.23131 8.23126 8.36093 8.08502 8.46921L8.52425 9.23C8.58088 9.32808 8.54727 9.45351 8.44919 9.51014C8.35111 9.56671 8.22568 9.53319 8.16905 9.43508L7.73013 8.67483C7.56614 8.74661 7.38972 8.79498 7.20504 8.81568V9.69337C7.20509 9.80666 7.11327 9.89845 7.00001 9.89845ZM12.3738 8.02539C12.2605 8.02539 12.1687 7.93359 12.1687 7.82031C12.1687 7.70702 12.2605 7.61523 12.3738 7.61523C12.4869 7.61523 12.5789 7.52324 12.5789 7.41015C12.5789 7.29705 12.4869 7.20507 12.3738 7.20507H11.6106C11.4974 7.20507 11.4055 7.11327 11.4055 6.99999C11.4055 6.8867 11.4974 6.79491 11.6106 6.79491H12.3738C12.4869 6.79491 12.5789 6.70292 12.5789 6.58983C12.5789 6.47673 12.4869 6.38475 12.3738 6.38475C12.2605 6.38475 12.1687 6.29295 12.1687 6.17967C12.1687 6.06638 12.2605 5.97459 12.3738 5.97459C12.7131 5.97459 12.989 6.2506 12.989 6.58983C12.989 6.74725 12.9296 6.89108 12.832 6.99999C12.9296 7.1089 12.989 7.25273 12.989 7.41015C12.989 7.74938 12.7131 8.02539 12.3738 8.02539ZM2.41995 8.02539C2.30669 8.02539 2.21487 7.93359 2.21487 7.82031V6.12339C2.21487 6.01011 2.30669 5.91831 2.41995 5.91831C2.5332 5.91831 2.62503 6.01011 2.62503 6.12339V7.82031C2.62503 7.93359 2.5332 8.02539 2.41995 8.02539ZM1.59962 8.02539C1.48637 8.02539 1.39454 7.93359 1.39454 7.82031V7.58009C1.15583 7.49543 0.984385 7.26736 0.984385 6.99999C0.984385 6.73262 1.15583 6.50454 1.39454 6.41988V6.17967C1.39454 6.06638 1.48637 5.97459 1.59962 5.97459C1.71288 5.97459 1.80471 6.06638 1.80471 6.17967V6.58983C1.80471 6.70311 1.71288 6.79491 1.59962 6.79491C1.48653 6.79491 1.39454 6.88689 1.39454 6.99999C1.39454 7.11308 1.48653 7.20507 1.59962 7.20507C1.71288 7.20507 1.80471 7.29686 1.80471 7.41015V7.82031C1.80471 7.93359 1.71288 8.02539 1.59962 8.02539ZM2.66164 5.64769C2.62686 5.64769 2.59158 5.63883 2.55929 5.62018L1.56555 5.04645C1.48932 5.00245 1.44967 4.9147 1.46703 4.82838C1.47338 4.79682 1.53219 4.51461 1.64018 4.3276C1.79169 4.06521 2.0035 4.03092 2.15468 4.04831C2.31959 4.06731 2.48429 4.15602 2.63883 4.24527L2.96302 4.43247C2.99157 4.44893 3.01678 4.45418 3.03806 4.44813C3.05681 4.44277 3.07385 4.42815 3.08607 4.40695C3.12318 4.34264 3.10751 4.26969 3.03945 4.19006L2.39998 3.44171C2.32643 3.3556 2.33657 3.22616 2.42268 3.15257C2.50879 3.07902 2.63821 3.08916 2.71182 3.17527L3.35128 3.92359C3.53345 4.13679 3.56708 4.39413 3.4413 4.61201C3.37562 4.72578 3.2725 4.80763 3.15096 4.84243C3.02244 4.87924 2.88288 4.85977 2.75797 4.78766L2.43375 4.60047C2.31336 4.53096 2.19053 4.46531 2.1077 4.45576C2.07497 4.45196 2.04405 4.44841 1.9954 4.53268C1.95939 4.59508 1.92753 4.68824 1.90443 4.7685L2.76437 5.26498C2.86245 5.32161 2.89606 5.44704 2.83943 5.54512C2.80145 5.61091 2.73251 5.64769 2.66164 5.64769ZM11.1562 5.55666C11.1356 5.55666 11.1147 5.55357 11.0941 5.54701C10.9861 5.51275 10.9264 5.39746 10.9606 5.28951C11.0373 5.04765 11.1873 4.84079 11.3793 4.68682L11.1929 4.36397C10.9636 4.4533 10.7094 4.47972 10.4616 4.42522C10.351 4.40088 10.281 4.29148 10.3054 4.18085C10.3297 4.07027 10.4392 4.00043 10.5497 4.0246C10.6964 4.0569 10.8463 4.04754 10.9855 4.0047L10.876 3.81493C10.8193 3.71685 10.8529 3.59142 10.951 3.53479C11.0491 3.47819 11.1745 3.51177 11.2312 3.60985L11.3407 3.79962C11.4475 3.70041 11.5305 3.57526 11.5759 3.43217C11.6101 3.32418 11.7254 3.26441 11.8334 3.29867C11.9413 3.33294 12.0011 3.44822 11.9668 3.55617C11.8901 3.79803 11.7402 4.00489 11.5481 4.15886L11.7345 4.48171C11.9639 4.39232 12.218 4.36594 12.4658 4.42043C12.5764 4.44477 12.6464 4.55417 12.6221 4.66481C12.5977 4.77541 12.4883 4.84539 12.3777 4.82105C12.2311 4.78876 12.0812 4.79811 11.9419 4.84096L12.0515 5.03073C12.1081 5.12881 12.0745 5.25424 11.9764 5.31086C11.8784 5.36744 11.7529 5.33392 11.6963 5.23581L11.5867 5.04606C11.4799 5.14524 11.397 5.2704 11.3516 5.41351C11.3239 5.50085 11.2431 5.55666 11.1562 5.55666ZM4.16332 3.71053C4.14574 3.71053 4.12788 3.70826 4.11011 3.70347C4.0007 3.67416 3.93579 3.5617 3.96507 3.45229L4.12547 2.85373L4.10836 2.84914C3.99895 2.81985 3.93404 2.70736 3.96332 2.59796C3.99264 2.48855 4.10513 2.4235 4.21451 2.45295L4.23165 2.45754L4.35634 1.99223L4.2547 2.05091C4.15662 2.10751 4.03119 2.07393 3.97456 1.97585C3.91793 1.87777 3.95154 1.75234 4.04962 1.69571L4.58001 1.38949C4.67471 1.3325 4.80653 1.36775 4.86015 1.46455L5.16638 1.99494C5.22301 2.09302 5.1894 2.21845 5.09132 2.27508C4.99324 2.33165 4.86781 2.2981 4.81118 2.20002L4.7525 2.09838L4.62781 2.56369L4.64493 2.56829C4.75433 2.59757 4.81925 2.71007 4.78996 2.81947C4.76065 2.92887 4.64818 2.99395 4.53878 2.96447L4.52163 2.95988L4.36126 3.55847C4.33673 3.6501 4.25385 3.71053 4.16332 3.71053ZM9.65886 3.42003C9.58129 3.42003 9.50981 3.37608 9.47508 3.30584L9.3172 2.98651L8.9617 3.00943C8.8791 3.01492 8.80136 2.96989 8.76466 2.89568L8.54618 2.4538C8.49598 2.35227 8.53759 2.22928 8.63912 2.17907C8.74068 2.1289 8.86367 2.17051 8.91385 2.27199L9.07173 2.59131L9.42723 2.5684C9.50998 2.56293 9.58758 2.60796 9.62427 2.68215L9.78216 3.00147L10.1377 2.97856C10.2508 2.97106 10.3482 3.05698 10.3555 3.17002C10.3628 3.28306 10.2771 3.38057 10.1641 3.38787L9.67213 3.41959C9.66767 3.41989 9.66327 3.42003 9.65886 3.42003ZM7.47588 2.87112C7.35447 2.87112 7.23933 2.83227 7.14291 2.75879C7.05284 2.6901 7.03548 2.56142 7.10414 2.47135C7.1728 2.38131 7.30151 2.36392 7.39158 2.43258C7.40856 2.44554 7.43697 2.46096 7.47588 2.46096C7.55272 2.46096 7.61523 2.39845 7.61523 2.32159C7.61523 2.25167 7.59168 2.07845 7.44446 1.68037H7.12615L6.77287 2.38005C6.738 2.44912 6.66718 2.49268 6.5898 2.49268C6.51241 2.49268 6.44162 2.44912 6.40673 2.38005L5.99657 1.56774C5.94552 1.46662 5.9861 1.34327 6.08719 1.29222C6.18831 1.24125 6.31163 1.28178 6.36268 1.38284L6.58977 1.8326L6.81686 1.38284C6.85173 1.31377 6.92255 1.27021 6.99993 1.27021H7.48045L7.65351 1.02855C7.71943 0.936478 7.84754 0.915259 7.93964 0.981213C8.03173 1.04714 8.05292 1.17527 7.98697 1.26734L7.81678 1.50501C7.957 1.87881 8.0253 2.14656 8.0253 2.32159C8.02541 2.62459 7.77888 2.87112 7.47588 2.87112ZM10.069 2.70963C9.99142 2.70963 9.91997 2.66569 9.88525 2.59544L9.72736 2.27612L9.37186 2.29903C9.28926 2.3048 9.21152 2.25949 9.17482 2.18528L8.95634 1.7434C8.90614 1.64187 8.94775 1.51885 9.04928 1.46867C9.15084 1.41847 9.27381 1.46012 9.32401 1.56159L9.48189 1.88091L9.83739 1.858C9.92014 1.8528 9.99774 1.89754 10.0344 1.97175L10.1923 2.29107L10.5478 2.26816C10.6608 2.26067 10.7584 2.34658 10.7657 2.45962C10.773 2.57263 10.6872 2.67017 10.5742 2.67747L10.0823 2.70919C10.0778 2.70949 10.0734 2.70963 10.069 2.70963Z" fill="#FF0053"/>
</g>
<defs>
<clipPath id="clip0_3780_36366">
<rect width="14" height="14" fill="white"/>
</clipPath>
</defs>
</svg>
