<svg width="14" height="14" viewBox="0 0 14 14" fill="none" xmlns="http://www.w3.org/2000/svg">
<g clip-path="url(#clip0_3780_31535)">
<path d="M12.3594 7.54688H9.1875C8.28286 7.54688 7.54688 8.28286 7.54688 9.1875V12.3594C7.54688 13.264 8.28286 14 9.1875 14H12.3594C13.264 14 14 13.264 14 12.3594V9.1875C14 8.28286 13.264 7.54688 12.3594 7.54688ZM12.9062 12.3594C12.9062 12.6609 12.6609 12.9062 12.3594 12.9062H9.1875C8.88595 12.9062 8.64062 12.6609 8.64062 12.3594V9.1875C8.64062 8.88595 8.88595 8.64062 9.1875 8.64062H12.3594C12.6609 8.64062 12.9062 8.88595 12.9062 9.1875V12.3594ZM4.8125 7.54688H1.64062C0.735984 7.54688 0 8.28286 0 9.1875V12.3594C0 13.264 0.735984 14 1.64062 14H4.8125C5.71714 14 6.45312 13.264 6.45312 12.3594V9.1875C6.45312 8.28286 5.71714 7.54688 4.8125 7.54688ZM5.35938 12.3594C5.35938 12.6609 5.11405 12.9062 4.8125 12.9062H1.64062C1.33908 12.9062 1.09375 12.6609 1.09375 12.3594V9.1875C1.09375 8.88595 1.33908 8.64062 1.64062 8.64062H4.8125C5.11405 8.64062 5.35938 8.88595 5.35938 9.1875V12.3594ZM4.8125 0H1.64062C0.735984 0 0 0.735984 0 1.64062V4.8125C0 5.71714 0.735984 6.45312 1.64062 6.45312H4.8125C5.71714 6.45312 6.45312 5.71714 6.45312 4.8125V1.64062C6.45312 0.735984 5.71714 0 4.8125 0ZM5.35938 4.8125C5.35938 5.11405 5.11405 5.35938 4.8125 5.35938H1.64062C1.33908 5.35938 1.09375 5.11405 1.09375 4.8125V1.64062C1.09375 1.33908 1.33908 1.09375 1.64062 1.09375H4.8125C5.11405 1.09375 5.35938 1.33908 5.35938 1.64062V4.8125ZM12.3594 0H9.1875C8.28286 0 7.54688 0.735984 7.54688 1.64062V4.8125C7.54688 5.71714 8.28286 6.45312 9.1875 6.45312H12.3594C13.264 6.45312 14 5.71714 14 4.8125V1.64062C14 0.735984 13.264 0 12.3594 0ZM12.9062 4.8125C12.9062 5.11405 12.6609 5.35938 12.3594 5.35938H9.1875C8.88595 5.35938 8.64062 5.11405 8.64062 4.8125V1.64062C8.64062 1.33908 8.88595 1.09375 9.1875 1.09375H12.3594C12.6609 1.09375 12.9062 1.33908 12.9062 1.64062V4.8125Z" fill="#FF0053" stroke="white" stroke-width="0.5"/>
</g>
<defs>
<clipPath id="clip0_3780_31535">
<rect width="14" height="14" fill="white"/>
</clipPath>
</defs>
</svg>
