<svg width="28" height="28" viewBox="0 0 28 28" fill="none" xmlns="http://www.w3.org/2000/svg">
<g clip-path="url(#clip0_3743_24767)">
<path d="M14 28C21.732 28 28 21.732 28 14C28 6.26801 21.732 0 14 0C6.26801 0 0 6.26801 0 14C0 21.732 6.26801 28 14 28Z" fill="#E4404D"/>
<g clip-path="url(#clip1_3743_24767)">
<path d="M15.0994 14.0097L19.7719 9.33703C20.076 9.03309 20.076 8.54166 19.7719 8.23772C19.468 7.93378 18.9766 7.93378 18.6726 8.23772L13.9999 12.9104L9.32737 8.23772C9.02329 7.93378 8.532 7.93378 8.22806 8.23772C7.92398 8.54166 7.92398 9.03309 8.22806 9.33703L12.9006 14.0097L8.22806 18.6824C7.92398 18.9864 7.92398 19.4778 8.22806 19.7817C8.37953 19.9334 8.5787 20.0095 8.77772 20.0095C8.97674 20.0095 9.17576 19.9334 9.32737 19.7817L13.9999 15.109L18.6726 19.7817C18.8243 19.9334 19.0233 20.0095 19.2223 20.0095C19.4213 20.0095 19.6203 19.9334 19.7719 19.7817C20.076 19.4778 20.076 18.9864 19.7719 18.6824L15.0994 14.0097Z" fill="white"/>
</g>
</g>
<defs>
<clipPath id="clip0_3743_24767">
<rect width="28" height="28" fill="white"/>
</clipPath>
<clipPath id="clip1_3743_24767">
<rect width="12" height="12" fill="white" transform="translate(8 8)"/>
</clipPath>
</defs>
</svg>
