<svg width="20" height="20" viewBox="0 0 20 20" fill="none" xmlns="http://www.w3.org/2000/svg">
<path d="M10 20C15.5228 20 20 15.5228 20 10C20 4.47715 15.5228 0 10 0C4.47715 0 0 4.47715 0 10C0 15.5228 4.47715 20 10 20Z" fill="#0077B5"/>
<path d="M8.33018 6.06938C8.33018 6.32802 8.25348 6.58084 8.10979 6.79588C7.96611 7.01093 7.76188 7.17854 7.52293 7.27751C7.28399 7.37648 7.02106 7.40238 6.7674 7.35192C6.51373 7.30147 6.28073 7.17692 6.09785 6.99404C5.91497 6.81116 5.79043 6.57816 5.73997 6.3245C5.68951 6.07083 5.71541 5.80791 5.81438 5.56896C5.91336 5.33002 6.08097 5.12579 6.29601 4.9821C6.51105 4.83841 6.76388 4.76172 7.02251 4.76172C7.36932 4.76172 7.70193 4.89949 7.94717 5.14473C8.1924 5.38996 8.33018 5.72257 8.33018 6.06938Z" fill="white"/>
<path d="M8.03382 8.24862V14.0259C8.03405 14.0685 8.02586 14.1107 8.00971 14.1502C7.99356 14.1896 7.96977 14.2255 7.93971 14.2557C7.90966 14.2859 7.87392 14.3099 7.83457 14.3263C7.79522 14.3426 7.75302 14.3511 7.71039 14.3511H6.33211C6.28949 14.3512 6.24727 14.3429 6.20787 14.3266C6.16848 14.3103 6.13268 14.2865 6.10254 14.2563C6.07241 14.2262 6.04852 14.1904 6.03227 14.151C6.01601 14.1116 6.0077 14.0694 6.00781 14.0268V8.24862C6.00781 8.16261 6.04198 8.08012 6.1028 8.0193C6.16362 7.95848 6.2461 7.92432 6.33211 7.92432H7.71039C7.79625 7.92455 7.87852 7.95882 7.93915 8.01961C7.99978 8.0804 8.03382 8.16276 8.03382 8.24862Z" fill="white"/>
<path d="M15.2369 11.2564V14.0531C15.237 14.0923 15.2294 14.1311 15.2145 14.1673C15.1995 14.2036 15.1776 14.2365 15.1499 14.2642C15.1222 14.2919 15.0892 14.3138 15.053 14.3288C15.0168 14.3437 14.978 14.3514 14.9388 14.3512H13.4568C13.4176 14.3514 13.3788 14.3437 13.3425 14.3288C13.3063 14.3138 13.2734 14.2919 13.2457 14.2642C13.218 14.2365 13.196 14.2036 13.1811 14.1673C13.1661 14.1311 13.1585 14.0923 13.1586 14.0531V11.3427C13.1586 10.9382 13.2772 9.5713 12.1011 9.5713C11.1901 9.5713 11.0045 10.5067 10.9678 10.9269V14.0531C10.9678 14.1314 10.937 14.2066 10.8821 14.2624C10.8271 14.3182 10.7524 14.3501 10.674 14.3512H9.24259C9.20348 14.3512 9.16475 14.3435 9.12863 14.3285C9.0925 14.3135 9.05969 14.2916 9.03208 14.2639C9.00446 14.2362 8.98258 14.2033 8.96769 14.1671C8.9528 14.131 8.9452 14.0922 8.94531 14.0531V8.22353C8.9452 8.18442 8.9528 8.14567 8.96769 8.1095C8.98258 8.07333 9.00446 8.04046 9.03208 8.01276C9.05969 7.98506 9.0925 7.96309 9.12863 7.94809C9.16475 7.9331 9.20348 7.92538 9.24259 7.92538H10.674C10.7531 7.92538 10.829 7.95679 10.8849 8.01271C10.9408 8.06862 10.9722 8.14445 10.9722 8.22353V8.72742C11.3104 8.22004 11.8117 7.82861 12.8814 7.82861C15.2509 7.82861 15.2369 10.0412 15.2369 11.2564Z" fill="white"/>
</svg>
