<svg width="14" height="14" viewBox="0 0 14 14" fill="none" xmlns="http://www.w3.org/2000/svg">
<g clip-path="url(#clip0_3649_5775)">
<path d="M9.28257 7.40601H0.456522C0.232135 7.40601 0.05 7.22388 0.05 6.99949C0.05 6.7751 0.232135 6.59297 0.456522 6.59297H9.28257C9.50696 6.59297 9.68909 6.7751 9.68909 6.99949C9.68909 7.22388 9.50696 7.40601 9.28257 7.40601Z" fill="#1E0627" stroke="white" stroke-width="0.1"/>
<path d="M6.55973 9.72186L6.55984 9.72197C6.63894 9.80157 6.74278 9.84107 6.84704 9.84107C6.95124 9.84107 7.05508 9.8016 7.13477 9.72132L7.1349 9.72119L9.56965 7.28644C9.72845 7.12764 9.72845 6.87018 9.56965 6.71138L7.1349 4.27652C6.97611 4.11773 6.71865 4.11771 6.55973 4.27652C6.55972 4.27653 6.55972 4.27653 6.55972 4.27653M6.55973 9.72186L6.52437 4.88705C6.34604 4.70872 6.34604 4.4195 6.52437 4.24117L6.55972 4.27653M6.55973 9.72186C6.40093 9.56306 6.40091 9.3056 6.55974 9.14667L8.67192 7.0346L8.70728 6.99925L8.67192 6.96389L6.55973 4.8517C6.40093 4.6929 6.40092 4.43534 6.55972 4.27653M6.55973 9.72186L6.55972 4.27653" fill="#1E0627" stroke="white" stroke-width="0.1"/>
<path d="M1.9207 4.88451L1.87421 4.86612C1.79122 5.07596 1.55489 5.17737 1.34667 5.09609C1.13792 5.01363 1.03519 4.77729 1.11746 4.56943L1.11749 4.56935C2.12589 2.00869 4.55312 0.354688 7.30278 0.354688C10.9669 0.354688 13.9485 3.33625 13.9485 7.00038C13.9485 10.6645 10.9669 13.6461 7.30278 13.6461C4.55312 13.6461 2.12589 11.9921 1.11749 9.4314L1.11746 9.43132C1.03517 9.22343 1.13796 8.98705 1.34678 8.90463C1.55506 8.82338 1.79187 8.92492 1.87416 9.13452L1.87418 9.13457C2.75885 11.3809 4.89004 12.833 7.30278 12.833C10.5187 12.833 13.1354 10.2163 13.1354 7.00038C13.1354 3.78447 10.5187 1.16773 7.30278 1.16773C4.89004 1.16773 2.75885 2.61988 1.87418 4.86618L1.9207 4.88451ZM1.9207 4.88451C2.79786 2.65729 4.91061 1.21773 7.30278 1.21773C10.4911 1.21773 13.0854 3.81208 13.0854 7.00038C13.0854 10.1887 10.4911 12.783 7.30278 12.783C4.91061 12.783 2.79786 11.3435 1.9207 9.11625M1.9207 4.88451C1.82752 5.12012 1.56215 5.23392 1.32843 5.14264C1.09404 5.05013 0.978457 4.78475 1.07096 4.55103L1.9207 9.11625M1.9207 9.11625C1.82819 8.88063 1.56215 8.76684 1.32843 8.85812L1.9207 9.11625Z" fill="#1E0627" stroke="white" stroke-width="0.1"/>
</g>
<defs>
<clipPath id="clip0_3649_5775">
<rect width="14" height="14" fill="white"/>
</clipPath>
</defs>
</svg>
