<svg width="20" height="20" viewBox="0 0 20 20" fill="none" xmlns="http://www.w3.org/2000/svg">
<path d="M10 20C4.478 20 0 15.522 0 10C0 4.478 4.478 0 10 0C15.522 0 20 4.478 20 10C20 15.522 15.522 20 10 20Z" fill="#25D366"/>
<path fill-rule="evenodd" clip-rule="evenodd" d="M14.0023 6.3417C12.9861 5.32389 11.6323 4.76336 10.1917 4.76172C7.22347 4.76172 4.80597 7.17758 4.80597 10.1474C4.80597 11.0964 5.05346 12.024 5.52548 12.8403L4.76172 15.6314L7.61682 14.8824C8.40353 15.3118 9.28858 15.538 10.19 15.538H10.1917C13.1599 15.538 15.5757 13.1222 15.5774 10.1523C15.579 8.7133 15.0201 7.3595 14.0023 6.3417ZM10.1933 14.6284H10.1917C9.38856 14.6284 8.60021 14.412 7.91348 14.0039L7.74958 13.9072L6.05487 14.3514L6.50723 12.6993L6.4007 12.5305C5.95326 11.8175 5.71561 10.9948 5.71561 10.1474C5.71724 7.6791 7.725 5.67135 10.1949 5.67135C11.3914 5.67135 12.5141 6.13846 13.3598 6.98418C14.2055 7.82989 14.671 8.95587 14.6694 10.1507C14.6694 12.6206 12.66 14.6284 10.1933 14.6284ZM12.6485 11.275C12.5141 11.2078 11.852 10.8817 11.729 10.8374C11.6061 10.7932 11.516 10.7702 11.4258 10.9046C11.3357 11.039 11.0784 11.3422 10.9997 11.4324C10.921 11.5225 10.8423 11.534 10.7079 11.4668C10.5735 11.3996 10.1392 11.257 9.62621 10.7981C9.2263 10.4408 8.95587 9.9999 8.8772 9.86551C8.79853 9.73111 8.869 9.65735 8.9362 9.59016C8.99685 9.52951 9.0706 9.43281 9.1378 9.35414C9.205 9.27547 9.22794 9.21975 9.27219 9.1296C9.31645 9.03946 9.29514 8.96079 9.26072 8.89359C9.2263 8.82639 8.95751 8.16424 8.84606 7.89381C8.73625 7.63157 8.62644 7.66763 8.54285 7.66271C8.46418 7.65944 8.37403 7.6578 8.28553 7.6578C8.19538 7.6578 8.04951 7.69222 7.92659 7.82661C7.80367 7.96101 7.4562 8.28717 7.4562 8.94932C7.4562 9.61146 7.93806 10.2523 8.00526 10.3408C8.07246 10.431 8.95423 11.7897 10.3048 12.3731C10.626 12.5125 10.8768 12.5944 11.0718 12.6567C11.3947 12.7599 11.6881 12.7452 11.9191 12.7108C12.1781 12.6714 12.7157 12.3846 12.8271 12.0716C12.9386 11.7569 12.9386 11.4881 12.9058 11.4324C12.873 11.3766 12.7829 11.3439 12.6485 11.275Z" fill="white"/>
</svg>
