<svg width="20" height="20" viewBox="0 0 20 20" fill="none" xmlns="http://www.w3.org/2000/svg">
<g clip-path="url(#clip0_3540_24642)">
<path d="M10 0C4.47734 0 0 4.47734 0 10C0 15.5227 4.47734 20 10 20C15.5227 20 20 15.5227 20 10C20 4.47734 15.5227 0 10 0Z" fill="black"/>
<path d="M10.9965 9.19766L14.8965 4.76172H13.9723L10.5859 8.6134L7.88125 4.76172H4.76172L8.85172 10.5861L4.76172 15.2379H5.68595L9.26204 11.1704L12.1184 15.2379H15.2379L10.9962 9.19766H10.9965ZM6.01895 5.44251H7.43851L13.9727 14.5881H12.5532L6.01895 5.44251Z" fill="white"/>
</g>
<defs>
<clipPath id="clip0_3540_24642">
<rect width="20" height="20" fill="white"/>
</clipPath>
</defs>
</svg>
